<svg id="visual" viewBox="0 0 449 1500" width="449" height="1500" xmlns="http://www.w3.org/2000/svg" xmlns:xlink="http://www.w3.org/1999/xlink" version="1.1"><rect x="0" y="0" width="449" height="1500" fill="#00286D"></rect><path d="M0 1037L37 1015L75 970L112 1018L150 976L187 929L225 879L262 990L299 1062L337 864L374 846L412 1065L449 815L449 0L412 0L374 0L337 0L299 0L262 0L225 0L187 0L150 0L112 0L75 0L37 0L0 0Z" fill="#00286d"></path><path d="M0 866L37 826L75 784L112 949L150 746L187 855L225 867L262 872L299 862L337 826L374 918L412 863L449 809L449 0L412 0L374 0L337 0L299 0L262 0L225 0L187 0L150 0L112 0L75 0L37 0L0 0Z" fill="#0a2a7a"></path><path d="M0 653L37 869L75 756L112 830L150 763L187 805L225 749L262 827L299 780L337 828L374 792L412 863L449 652L449 0L412 0L374 0L337 0L299 0L262 0L225 0L187 0L150 0L112 0L75 0L37 0L0 0Z" fill="#192c87"></path><path d="M0 723L37 677L75 563L112 602L150 692L187 620L225 689L262 665L299 660L337 739L374 759L412 669L449 588L449 0L412 0L374 0L337 0L299 0L262 0L225 0L187 0L150 0L112 0L75 0L37 0L0 0Z" fill="#272d93"></path><path d="M0 651L37 631L75 616L112 635L150 568L187 555L225 579L262 565L299 630L337 539L374 508L412 591L449 547L449 0L412 0L374 0L337 0L299 0L262 0L225 0L187 0L150 0L112 0L75 0L37 0L0 0Z" fill="#362d9f"></path><path d="M0 552L37 480L75 476L112 545L150 520L187 396L225 471L262 449L299 531L337 441L374 562L412 425L449 454L449 0L412 0L374 0L337 0L299 0L262 0L225 0L187 0L150 0L112 0L75 0L37 0L0 0Z" fill="#462bab"></path><path d="M0 410L37 326L75 312L112 376L150 437L187 339L225 325L262 361L299 325L337 316L374 372L412 352L449 388L449 0L412 0L374 0L337 0L299 0L262 0L225 0L187 0L150 0L112 0L75 0L37 0L0 0Z" fill="#5628b6"></path><path d="M0 255L37 253L75 359L112 223L150 320L187 354L225 314L262 223L299 236L337 269L374 264L412 315L449 316L449 0L412 0L374 0L337 0L299 0L262 0L225 0L187 0L150 0L112 0L75 0L37 0L0 0Z" fill="#6823c0"></path><path d="M0 210L37 258L75 142L112 195L150 236L187 146L225 246L262 187L299 159L337 179L374 172L412 233L449 140L449 0L412 0L374 0L337 0L299 0L262 0L225 0L187 0L150 0L112 0L75 0L37 0L0 0Z" fill="#7919c9"></path><path d="M0 97L37 71L75 68L112 124L150 60L187 71L225 71L262 104L299 129L337 88L374 84L412 146L449 158L449 0L412 0L374 0L337 0L299 0L262 0L225 0L187 0L150 0L112 0L75 0L37 0L0 0Z" fill="#8c00d2"></path></svg>