<svg id="visual" viewBox="0 0 1199 1500" width="1199" height="1500" xmlns="http://www.w3.org/2000/svg" xmlns:xlink="http://www.w3.org/1999/xlink" version="1.1"><rect x="0" y="0" width="1199" height="1500" fill="#00286D"></rect><path d="M0 1030L71 1239L141 1128L212 1037L282 994L353 988L423 1016L494 1243L564 1194L635 1401L705 1307L776 1208L846 1093L917 1273L987 978L1058 1319L1128 1140L1199 1318L1199 0L1128 0L1058 0L987 0L917 0L846 0L776 0L705 0L635 0L564 0L494 0L423 0L353 0L282 0L212 0L141 0L71 0L0 0Z" fill="#00286d"></path><path d="M0 980L71 1196L141 919L212 1036L282 1137L353 988L423 1254L494 1158L564 1215L635 1122L705 925L776 1235L846 1232L917 965L987 1040L1058 1171L1128 1171L1199 1238L1199 0L1128 0L1058 0L987 0L917 0L846 0L776 0L705 0L635 0L564 0L494 0L423 0L353 0L282 0L212 0L141 0L71 0L0 0Z" fill="#092a79"></path><path d="M0 1160L71 1143L141 1029L212 1090L282 963L353 813L423 1116L494 915L564 797L635 829L705 818L776 1013L846 856L917 932L987 971L1058 1071L1128 806L1199 990L1199 0L1128 0L1058 0L987 0L917 0L846 0L776 0L705 0L635 0L564 0L494 0L423 0L353 0L282 0L212 0L141 0L71 0L0 0Z" fill="#162c84"></path><path d="M0 696L71 968L141 943L212 966L282 694L353 738L423 844L494 933L564 753L635 978L705 752L776 941L846 872L917 844L987 699L1058 749L1128 1044L1199 714L1199 0L1128 0L1058 0L987 0L917 0L846 0L776 0L705 0L635 0L564 0L494 0L423 0L353 0L282 0L212 0L141 0L71 0L0 0Z" fill="#232d90"></path><path d="M0 757L71 673L141 767L212 817L282 639L353 868L423 873L494 798L564 817L635 870L705 744L776 656L846 847L917 799L987 841L1058 874L1128 809L1199 672L1199 0L1128 0L1058 0L987 0L917 0L846 0L776 0L705 0L635 0L564 0L494 0L423 0L353 0L282 0L212 0L141 0L71 0L0 0Z" fill="#302d9b"></path><path d="M0 718L71 751L141 589L212 730L282 521L353 521L423 600L494 790L564 518L635 776L705 680L776 565L846 766L917 686L987 801L1058 721L1128 684L1199 633L1199 0L1128 0L1058 0L987 0L917 0L846 0L776 0L705 0L635 0L564 0L494 0L423 0L353 0L282 0L212 0L141 0L71 0L0 0Z" fill="#3e2ca5"></path><path d="M0 682L71 486L141 593L212 609L282 555L353 590L423 531L494 654L564 454L635 494L705 423L776 431L846 475L917 611L987 627L1058 466L1128 606L1199 675L1199 0L1128 0L1058 0L987 0L917 0L846 0L776 0L705 0L635 0L564 0L494 0L423 0L353 0L282 0L212 0L141 0L71 0L0 0Z" fill="#4c2aaf"></path><path d="M0 521L71 446L141 448L212 450L282 426L353 346L423 423L494 485L564 360L635 356L705 449L776 466L846 356L917 523L987 344L1058 421L1128 544L1199 451L1199 0L1128 0L1058 0L987 0L917 0L846 0L776 0L705 0L635 0L564 0L494 0L423 0L353 0L282 0L212 0L141 0L71 0L0 0Z" fill="#5b27b9"></path><path d="M0 391L71 392L141 399L212 422L282 433L353 385L423 426L494 440L564 371L635 230L705 337L776 370L846 433L917 413L987 289L1058 366L1128 256L1199 407L1199 0L1128 0L1058 0L987 0L917 0L846 0L776 0L705 0L635 0L564 0L494 0L423 0L353 0L282 0L212 0L141 0L71 0L0 0Z" fill="#6b21c2"></path><path d="M0 272L71 288L141 271L212 214L282 287L353 194L423 316L494 156L564 182L635 221L705 235L776 296L846 271L917 197L987 172L1058 139L1128 288L1199 240L1199 0L1128 0L1058 0L987 0L917 0L846 0L776 0L705 0L635 0L564 0L494 0L423 0L353 0L282 0L212 0L141 0L71 0L0 0Z" fill="#7b17ca"></path><path d="M0 76L71 157L141 180L212 176L282 194L353 193L423 99L494 96L564 209L635 60L705 131L776 174L846 52L917 95L987 106L1058 159L1128 45L1199 173L1199 0L1128 0L1058 0L987 0L917 0L846 0L776 0L705 0L635 0L564 0L494 0L423 0L353 0L282 0L212 0L141 0L71 0L0 0Z" fill="#8c00d2"></path></svg>