<svg id="visual" viewBox="0 0 639 1500" width="639" height="1500" xmlns="http://www.w3.org/2000/svg" xmlns:xlink="http://www.w3.org/1999/xlink" version="1.1"><rect x="0" y="0" width="639" height="1500" fill="#00286D"></rect><path d="M0 978L53 876L107 943L160 975L213 1042L266 885L320 874L373 923L426 835L479 875L533 845L586 1063L639 1061L639 0L586 0L533 0L479 0L426 0L373 0L320 0L266 0L213 0L160 0L107 0L53 0L0 0Z" fill="#00286d"></path><path d="M0 933L53 793L107 899L160 735L213 745L266 894L320 827L373 877L426 796L479 939L533 847L586 768L639 948L639 0L586 0L533 0L479 0L426 0L373 0L320 0L266 0L213 0L160 0L107 0L53 0L0 0Z" fill="#0a2a7a"></path><path d="M0 749L53 804L107 786L160 746L213 794L266 823L320 850L373 699L426 864L479 821L533 803L586 651L639 820L639 0L586 0L533 0L479 0L426 0L373 0L320 0L266 0L213 0L160 0L107 0L53 0L0 0Z" fill="#192c87"></path><path d="M0 742L53 683L107 762L160 697L213 741L266 569L320 619L373 686L426 640L479 602L533 658L586 749L639 747L639 0L586 0L533 0L479 0L426 0L373 0L320 0L266 0L213 0L160 0L107 0L53 0L0 0Z" fill="#272d93"></path><path d="M0 516L53 508L107 563L160 480L213 605L266 477L320 514L373 538L426 623L479 601L533 615L586 565L639 513L639 0L586 0L533 0L479 0L426 0L373 0L320 0L266 0L213 0L160 0L107 0L53 0L0 0Z" fill="#362d9f"></path><path d="M0 426L53 475L107 406L160 472L213 537L266 548L320 500L373 502L426 413L479 437L533 451L586 493L639 448L639 0L586 0L533 0L479 0L426 0L373 0L320 0L266 0L213 0L160 0L107 0L53 0L0 0Z" fill="#462bab"></path><path d="M0 424L53 332L107 439L160 414L213 339L266 418L320 331L373 376L426 421L479 421L533 311L586 445L639 456L639 0L586 0L533 0L479 0L426 0L373 0L320 0L266 0L213 0L160 0L107 0L53 0L0 0Z" fill="#5628b6"></path><path d="M0 306L53 225L107 349L160 282L213 323L266 347L320 314L373 271L426 297L479 325L533 305L586 252L639 237L639 0L586 0L533 0L479 0L426 0L373 0L320 0L266 0L213 0L160 0L107 0L53 0L0 0Z" fill="#6823c0"></path><path d="M0 183L53 208L107 241L160 143L213 193L266 254L320 143L373 223L426 185L479 258L533 249L586 217L639 158L639 0L586 0L533 0L479 0L426 0L373 0L320 0L266 0L213 0L160 0L107 0L53 0L0 0Z" fill="#7919c9"></path><path d="M0 89L53 140L107 157L160 155L213 161L266 161L320 98L373 109L426 100L479 75L533 121L586 110L639 54L639 0L586 0L533 0L479 0L426 0L373 0L320 0L266 0L213 0L160 0L107 0L53 0L0 0Z" fill="#8c00d2"></path></svg>