<svg id="visual" viewBox="0 0 1399 1500" width="1399" height="1500" xmlns="http://www.w3.org/2000/svg" xmlns:xlink="http://www.w3.org/1999/xlink" version="1.1"><rect x="0" y="0" width="1399" height="1500" fill="#00286D"></rect><path d="M0 1251L78 1402L155 1351L233 1254L311 1099L389 1036L466 1147L544 1221L622 1244L700 1029L777 1383L855 1176L933 1179L1010 1312L1088 979L1166 1064L1244 1207L1321 1231L1399 1026L1399 0L1321 0L1244 0L1166 0L1088 0L1010 0L933 0L855 0L777 0L700 0L622 0L544 0L466 0L389 0L311 0L233 0L155 0L78 0L0 0Z" fill="#11006e"></path><path d="M0 1122L78 1030L155 993L233 1257L311 892L389 1155L466 1281L544 886L622 1083L700 1094L777 1202L855 1234L933 906L1010 912L1088 1148L1166 958L1244 894L1321 955L1399 982L1399 0L1321 0L1244 0L1166 0L1088 0L1010 0L933 0L855 0L777 0L700 0L622 0L544 0L466 0L389 0L311 0L233 0L155 0L78 0L0 0Z" fill="#1f0178"></path><path d="M0 1022L78 1085L155 936L233 1066L311 949L389 1164L466 925L544 879L622 1086L700 1000L777 926L855 1015L933 1144L1010 1015L1088 807L1166 1145L1244 1028L1321 941L1399 1116L1399 0L1321 0L1244 0L1166 0L1088 0L1010 0L933 0L855 0L777 0L700 0L622 0L544 0L466 0L389 0L311 0L233 0L155 0L78 0L0 0Z" fill="#2c0182"></path><path d="M0 694L78 842L155 874L233 1010L311 982L389 998L466 902L544 855L622 908L700 892L777 940L855 752L933 791L1010 919L1088 846L1166 716L1244 946L1321 783L1399 922L1399 0L1321 0L1244 0L1166 0L1088 0L1010 0L933 0L855 0L777 0L700 0L622 0L544 0L466 0L389 0L311 0L233 0L155 0L78 0L0 0Z" fill="#38028c"></path><path d="M0 840L78 739L155 613L233 913L311 746L389 626L466 737L544 817L622 733L700 841L777 796L855 918L933 923L1010 622L1088 745L1166 606L1244 640L1321 650L1399 825L1399 0L1321 0L1244 0L1166 0L1088 0L1010 0L933 0L855 0L777 0L700 0L622 0L544 0L466 0L389 0L311 0L233 0L155 0L78 0L0 0Z" fill="#430296"></path><path d="M0 670L78 607L155 621L233 730L311 697L389 546L466 773L544 513L622 732L700 626L777 720L855 599L933 636L1010 745L1088 697L1166 779L1244 506L1321 703L1399 580L1399 0L1321 0L1244 0L1166 0L1088 0L1010 0L933 0L855 0L777 0L700 0L622 0L544 0L466 0L389 0L311 0L233 0L155 0L78 0L0 0Z" fill="#4f03a0"></path><path d="M0 676L78 616L155 578L233 603L311 512L389 489L466 581L544 675L622 599L700 663L777 519L855 496L933 561L1010 565L1088 640L1166 677L1244 520L1321 523L1399 553L1399 0L1321 0L1244 0L1166 0L1088 0L1010 0L933 0L855 0L777 0L700 0L622 0L544 0L466 0L389 0L311 0L233 0L155 0L78 0L0 0Z" fill="#5b03aa"></path><path d="M0 385L78 460L155 406L233 516L311 447L389 491L466 348L544 421L622 524L700 537L777 420L855 384L933 474L1010 506L1088 346L1166 461L1244 523L1321 488L1399 380L1399 0L1321 0L1244 0L1166 0L1088 0L1010 0L933 0L855 0L777 0L700 0L622 0L544 0L466 0L389 0L311 0L233 0L155 0L78 0L0 0Z" fill="#6703b4"></path><path d="M0 307L78 298L155 299L233 363L311 344L389 393L466 227L544 354L622 315L700 409L777 303L855 411L933 322L1010 268L1088 235L1166 438L1244 370L1321 290L1399 255L1399 0L1321 0L1244 0L1166 0L1088 0L1010 0L933 0L855 0L777 0L700 0L622 0L544 0L466 0L389 0L311 0L233 0L155 0L78 0L0 0Z" fill="#7303be"></path><path d="M0 133L78 155L155 309L233 168L311 231L389 216L466 178L544 329L622 182L700 165L777 176L855 330L933 283L1010 267L1088 173L1166 328L1244 238L1321 287L1399 254L1399 0L1321 0L1244 0L1166 0L1088 0L1010 0L933 0L855 0L777 0L700 0L622 0L544 0L466 0L389 0L311 0L233 0L155 0L78 0L0 0Z" fill="#7f02c8"></path><path d="M0 74L78 194L155 57L233 79L311 57L389 76L466 201L544 153L622 99L700 58L777 181L855 157L933 66L1010 112L1088 110L1166 45L1244 120L1321 147L1399 139L1399 0L1321 0L1244 0L1166 0L1088 0L1010 0L933 0L855 0L777 0L700 0L622 0L544 0L466 0L389 0L311 0L233 0L155 0L78 0L0 0Z" fill="#8c00d2"></path></svg>