<svg id="visual" viewBox="0 0 600 900" width="600" height="900" xmlns="http://www.w3.org/2000/svg" xmlns:xlink="http://www.w3.org/1999/xlink" version="1.1"><path d="M0 93L5.8 95.2C11.7 97.3 23.3 101.7 35.2 115.3C47 129 59 152 70.8 157.8C82.7 163.7 94.3 152.3 106 147.2C117.7 142 129.3 143 141 134.7C152.7 126.3 164.3 108.7 176.2 99.7C188 90.7 200 90.3 211.8 97C223.7 103.7 235.3 117.3 247 129.2C258.7 141 270.3 151 282.2 158C294 165 306 169 317.8 161C329.7 153 341.3 133 353 131.7C364.7 130.3 376.3 147.7 388.2 158C400 168.3 412 171.7 423.8 165.3C435.7 159 447.3 143 459 137C470.7 131 482.3 135 494 136.5C505.7 138 517.3 137 529.2 131.8C541 126.7 553 117.3 564.8 124C576.7 130.7 588.3 153.3 594.2 164.7L600 176L600 0L594.2 0C588.3 0 576.7 0 564.8 0C553 0 541 0 529.2 0C517.3 0 505.7 0 494 0C482.3 0 470.7 0 459 0C447.3 0 435.7 0 423.8 0C412 0 400 0 388.2 0C376.3 0 364.7 0 353 0C341.3 0 329.7 0 317.8 0C306 0 294 0 282.2 0C270.3 0 258.7 0 247 0C235.3 0 223.7 0 211.8 0C200 0 188 0 176.2 0C164.3 0 152.7 0 141 0C129.3 0 117.7 0 106 0C94.3 0 82.7 0 70.8 0C59 0 47 0 35.2 0C23.3 0 11.7 0 5.8 0L0 0Z" fill="#00286D" stroke-linecap="round" stroke-linejoin="miter"></path></svg>