<svg id="visual" viewBox="0 0 675 900" width="675" height="900" xmlns="http://www.w3.org/2000/svg" xmlns:xlink="http://www.w3.org/1999/xlink" version="1.1"><g transform="translate(408.56606623443844 491.96532960913237)"><path d="M160.2 -300.5C211.5 -248 259.5 -212.7 253.3 -165.5C247.2 -118.3 186.9 -59.2 164.6 -12.8C142.4 33.5 158.2 67 167.2 119.1C176.2 171.2 178.4 241.9 149.3 277.5C120.3 313.1 60.2 313.5 -3.2 319.2C-66.7 324.8 -133.3 335.6 -196.8 319.9C-260.4 304.3 -320.7 262.1 -348.2 204.4C-375.7 146.7 -370.4 73.3 -379.9 -5.5C-389.5 -84.4 -414 -168.8 -373.1 -203.4C-332.3 -238 -226.1 -222.9 -153.1 -262.9C-80 -302.9 -40 -397.9 7.2 -410.5C54.5 -423.1 109 -353.1 160.2 -300.5" fill="#7800d0"></path></g></svg>