<svg version="1.1" id="Layer_1" xmlns="http://www.w3.org/2000/svg" xmlns:xlink="http://www.w3.org/1999/xlink" x="0px" y="0px" viewBox="0 0 500 500" style="width: 187px;" xml:space="preserve" data-imageid="designer-2-62" imageName="Designer 2" class="illustrations_image">
<style type="text/css">
	.st0_designer-2-62{fill:#231F20;}
	.st1_designer-2-62{fill:#FFFFFF;}
	.st2_designer-2-62{fill:#68E1FD;}
	.st3_designer-2-62{fill:#D1D3D4;}
</style>
<g id="Chair_designer-2-62">
	<path class="st0_designer-2-62" d="M379.3,325.7c0,0,46.1-120.2,22.2-138.6s-124-10.9-129.5-4.4s-37.9,151.3-37.9,151.3L379.3,325.7z"/>
	<path class="st0_designer-2-62" d="M234.1,334.8c-0.4,0-0.7-0.3-0.7-0.7c0,0,0-0.1,0-0.1c1.3-5.9,32.5-145,38-151.6c3-3.6,29.8-7,58.4-7.4&#10;&#9;&#9;c16.8-0.2,57.5,0.5,72.1,11.7c10.1,7.8,9.5,33.6-1.9,76.9c-8.5,32-20,62.2-20.1,62.5c-0.1,0.3-0.3,0.4-0.6,0.5L234.1,334.8&#10;&#9;&#9;L234.1,334.8z M335.1,176.3c-1.7,0-3.5,0-5.3,0c-29.4,0.4-55,4-57.4,6.9c-4.2,5-26.3,99.9-37.5,150.1l143.8-8.3&#10;&#9;&#9;c3-7.8,44.8-120.1,22.3-137.3C391.5,180.4,367.7,176.3,335.1,176.3L335.1,176.3z M379.2,325.7L379.2,325.7z"/>
	<path class="st1_designer-2-62" d="M379.3,262.5L379.3,262.5c-0.4,0-0.7-0.3-0.7-0.7c0,0,0,0,0,0c0-1.6,1-39.6,5.2-52.7s12-18.6,12.4-18.8&#10;&#9;&#9;c0.3-0.2,0.8-0.1,1,0.2c0,0,0,0,0,0c0.2,0.3,0.2,0.8-0.2,1c0,0,0,0,0,0c-0.1,0.1-7.7,5.3-11.8,18.1c-4.1,12.9-5.1,51.9-5.1,52.3&#10;&#9;&#9;C380,262.2,379.7,262.5,379.3,262.5C379.3,262.5,379.3,262.5,379.3,262.5z"/>
</g>
<g id="Character_designer-2-62">
	<path class="st1_designer-2-62" d="M192.1,221.8l-20.8,69.7c0,0,42.8,5.5,42.8,3.9s8.4-76.7,8.4-76.7L192.1,221.8z"/>
	<path class="st0_designer-2-62" d="M212,296.4c-7.2,0-27.8-2.5-40.8-4.2c-0.2,0-0.4-0.1-0.5-0.3c-0.1-0.2-0.1-0.4-0.1-0.6l20.8-69.7&#10;&#9;&#9;c0.1-0.3,0.3-0.5,0.6-0.5l30.5-3.1c0.2,0,0.4,0.1,0.6,0.2c0.1,0.2,0.2,0.4,0.2,0.6c-2.9,25.9-8.4,75.2-8.4,76.7&#10;&#9;&#9;c0,0.2-0.1,0.4-0.3,0.6C213.8,296.4,212.9,296.5,212,296.4z M213.5,295.5L213.5,295.5z M172.2,291c14.9,1.9,38,4.5,41.3,4.1&#10;&#9;&#9;c0.5-6,7.3-67.1,8.3-75.5l-29.1,2.9L172.2,291z"/>
	<path class="st1_designer-2-62" d="M152.7,204.5c0.2,0.2,7.6-1.8,11.4,2.8s-1.1,8.7-13.1,6.3S152.7,204.5,152.7,204.5z"/>
	<path class="st0_designer-2-62" d="M157.2,215c-2.2,0-4.3-0.3-6.5-0.7c-3.5-0.7-5.3-1.8-5.5-3.4c-0.4-3.2,5.8-6.4,7.1-7c0.1-0.1,0.3-0.1,0.4-0.1&#10;&#9;&#9;l0.5-0.1c2-0.2,7.9-1,11.3,3.1c1.5,1.8,1.8,3.6,0.9,5.2C164.4,213.9,161.4,215,157.2,215z M152.8,205.3c-2.7,1.4-6.3,3.9-6.1,5.4&#10;&#9;&#9;c0.1,0.5,0.7,1.5,4.3,2.2c8.1,1.6,12.2,0.1,13.2-1.6c0.7-1.2,0-2.6-0.8-3.5c-2.9-3.4-8.1-2.8-10-2.6&#10;&#9;&#9;C153.3,205.2,153.1,205.2,152.8,205.3L152.8,205.3z"/>
	<path class="st1_designer-2-62" d="M134.2,189.9c0,0-1.5-1.7-0.6-2.9c0.7-0.9,2.1-1.1,3.3,0.3C137,187.2,134.6,188.1,134.2,189.9z"/>
	<path class="st0_designer-2-62" d="M134.2,190.6c-0.2,0-0.4-0.1-0.6-0.2c-0.7-0.8-1.6-2.5-0.6-3.9c0.5-0.6,1.2-1,2-1c1,0,1.9,0.5,2.4,1.3&#10;&#9;&#9;c0.1,0.2,0.2,0.4,0.1,0.6c-0.1,0.2-0.2,0.4-0.4,0.5c-0.6,0.2-2.1,1-2.3,2.1c-0.1,0.3-0.3,0.5-0.5,0.6L134.2,190.6z M135.1,186.9&#10;&#9;&#9;L135.1,186.9c-0.3,0-0.7,0.2-0.9,0.4c-0.2,0.3-0.2,0.7-0.1,1c0.4-0.5,0.9-0.9,1.5-1.3C135.5,187,135.3,186.9,135.1,186.9&#10;&#9;&#9;L135.1,186.9z"/>
	<path class="st1_designer-2-62" d="M137.5,187.2c-1.7,0.1-3.1,1.4-3.4,3.1l30,39.1c0.4-3.8,3.4-6.9,7.2-7.5L137.5,187.2z"/>
	<path class="st0_designer-2-62" d="M164.1,230.1c-0.2,0-0.4-0.1-0.6-0.3l-30-39.1c-0.1-0.2-0.2-0.4-0.1-0.6c0.4-2,2.1-3.5,4.1-3.6&#10;&#9;&#9;c0.2,0,0.4,0.1,0.5,0.2l33.8,34.7c0.2,0.2,0.3,0.5,0.2,0.7c-0.1,0.3-0.3,0.4-0.6,0.5c-3.5,0.5-6.2,3.3-6.6,6.8&#10;&#9;&#9;c0,0.3-0.2,0.5-0.5,0.6C164.3,230.1,164.2,230.1,164.1,230.1z M134.9,190.1l28.9,37.5c0.8-3,3.2-5.4,6.1-6.2l-32.7-33.5&#10;&#9;&#9;C136.1,188.2,135.2,189,134.9,190.1z"/>
	<path class="st1_designer-2-62" d="M164.1,229.3l10.2,5.3l1.3-1.2l-4.3-11.6C171.3,221.9,163.3,221.1,164.1,229.3z"/>
	<path class="st0_designer-2-62" d="M174.4,235.4c-0.1,0-0.2,0-0.3-0.1l-10.2-5.3c-0.2-0.1-0.4-0.3-0.4-0.6c-0.3-2.7,0.4-4.8,1.8-6.3&#10;&#9;&#9;c2.4-2.3,6-2,6.2-2c0.3,0,0.5,0.2,0.6,0.5l4.3,11.6c0.1,0.3,0,0.6-0.2,0.8l-1.3,1.2C174.7,235.3,174.5,235.4,174.4,235.4z&#10;&#9;&#9; M164.8,228.9l9.4,4.9l0.6-0.5l-4-10.7c-1.7-0.1-3.3,0.5-4.6,1.6C165.1,225.5,164.6,227.2,164.8,228.9z"/>
	<polygon class="st1_designer-2-62" points="174.4,234.7 176.3,236.8 177.2,235.7 175.6,233.5 &#9;"/>
	<path class="st0_designer-2-62" d="M176.3,237.5c-0.2,0-0.4-0.1-0.5-0.2l-2-2.1c-0.1-0.1-0.2-0.3-0.2-0.5c0-0.2,0.1-0.4,0.2-0.5l1.3-1.2&#10;&#9;&#9;c0.2-0.1,0.4-0.2,0.6-0.2c0.2,0,0.4,0.1,0.5,0.3l1.6,2.2c0.2,0.3,0.2,0.6-0.1,0.9l-0.9,1.1C176.7,237.4,176.5,237.5,176.3,237.5&#10;&#9;&#9;L176.3,237.5z M175.3,234.7l0.9,1l0,0l-0.8-1.1L175.3,234.7z"/>
	<path class="st1_designer-2-62" d="M154.6,232.4c1.6-3.4,5.8-10.5,6.8-13.5c2.6-8.4-12.8-16.3-17.8-16.3s-15.4,17.4-15.4,26.7&#10;&#9;&#9;s34.5,80.7,34.5,80.7l33.1-15.2L154.6,232.4z"/>
	<path class="st0_designer-2-62" d="M162.7,310.7c-0.3,0-0.5-0.2-0.6-0.4c-1.4-2.9-34.6-71.6-34.6-80.9s10.5-27.4,16.1-27.4&#10;&#9;&#9;c3.8,0,12.8,4.1,16.8,9.5c1.9,2.6,2.5,5.2,1.7,7.7c-1.3,3.3-2.9,6.5-4.7,9.6c-0.7,1.4-1.4,2.7-1.9,3.7l41,62&#10;&#9;&#9;c0.1,0.2,0.1,0.4,0.1,0.6c-0.1,0.2-0.2,0.4-0.4,0.5L163,310.6C162.9,310.6,162.8,310.7,162.7,310.7z M143.6,203.3&#10;&#9;&#9;c-4.4,0-14.6,16.8-14.6,26c0,8.6,30.7,72.6,34.1,79.7l31.7-14.5L154,232.8c-0.1-0.2-0.1-0.5,0-0.7c0.5-1.1,1.3-2.5,2.1-4.1&#10;&#9;&#9;c1.7-3,3.3-6.1,4.6-9.3c0.6-2,0.1-4.2-1.5-6.4C155.3,207,146.7,203.3,143.6,203.3z"/>
	<path class="st2_designer-2-62 targetColor" d="M330.8,246.5l40.8-10.4c-1.3-2-17.9-54.2-35.2-62.8c-15.2-10.1-51.2-16.7-83-14.5c0,0-8.4-0.3-23.1,5.5&#10;&#9;&#9;c-35.9,14.2-42.7,63.9-42.7,63.9l28,9.7c0,0-5.4,64.2-10.4,97.8c0,0,61.9,12.1,152-2.8C357.1,332.8,330.9,256,330.8,246.5z" style="fill: rgb(38, 0, 61);"/>
	<path class="st2_designer-2-62 targetColor" d="M327.4,174.8c-5.4,5.6-9.6,12.3-15.6,17.6c-12.9,11.4-29.7,20.4-47.3,19.3c-20.8-1.3-38.7-15.5-43.2-36.2&#10;&#9;&#9;c-2.8-13,0.1-25,10.1-34.2c6.9-6.3,15.8-10.2,24.9-12.6c24.1-6.5,51.1-3,71.7,11.1c3.2,2.2,6.4,4.8,8.3,8.2&#10;&#9;&#9;c5.1,9.3-0.8,18.9-7.4,25.3C328.4,173.8,327.9,174.3,327.4,174.8z" style="fill: rgb(38, 0, 61);"/>
	<path class="st0_designer-2-62" d="M256.5,189.4c-0.2,0.1-4.1,4.7-4.3,4.8c2.2,8.3,4.5,19.1,13.9,20.1c19,2.2,21.9-23.2,25.5-35.2&#10;&#9;&#9;C278.5,182.9,269.2,184.4,256.5,189.4z"/>
	<path class="st0_designer-2-62" d="M268.4,215.2c-0.8,0-1.5,0-2.3-0.1c-9.4-1.1-12-11.2-14.1-19.3l-0.4-1.4c-0.1-0.3,0-0.6,0.3-0.8&#10;&#9;&#9;c0.2-0.2,1.2-1.4,2-2.3c2.2-2.5,2.2-2.5,2.4-2.6l0,0c7.8-3,15.7-5.4,23.9-7.3c3.6-0.9,7.3-1.8,11.3-3c0.2-0.1,0.5,0,0.7,0.2&#10;&#9;&#9;c0.2,0.2,0.2,0.4,0.2,0.7c-0.5,1.8-1.1,3.9-1.6,6.1C287.7,197.4,283.3,215.2,268.4,215.2z M253,194.4l0.3,1&#10;&#9;&#9;c2.1,8.1,4.6,17.3,13,18.3c15.6,1.8,19.9-15.7,23.1-28.5c0.4-1.8,0.9-3.4,1.3-4.9c-3.6,1-7,1.8-10.2,2.6c-8,1.8-15.9,4.2-23.6,7.2&#10;&#9;&#9;c-0.3,0.3-1.3,1.4-2,2.3C253.9,193.5,253.3,194.1,253,194.4z M252.2,194.2L252.2,194.2z"/>
	<path class="st1_designer-2-62" d="M274.9,91.8c-2.8-0.1-4.6,1.1-7,2c-4.7,1.6-6.9-2.3-10.9-4.4c-13.1-6.8-29.2-3.5-38.4,8&#10;&#9;&#9;c-2.8,3.3-4.6,7.3-5.2,11.6c-0.6,4.8,0.8,9.8-0.1,14.6c-1,5.6-4.9,10.3-10.2,12.3c4.5,0.4,9-0.1,13.3-1.2c-2.5,3-6.2,4.8-10.1,4.8&#10;&#9;&#9;c4.5,3.4,10,5.3,15.6,5.2l-9.9,2.3c8.3,5.4,18.6,7.1,28.5,6.6c19.7-1,52.7-9.1,52.1-34.6C292.4,109.2,287,92.4,274.9,91.8z"/>
	<path class="st0_designer-2-62" d="M237.2,154.5c-7.6,0-17.2-1.4-25.6-6.8c-0.2-0.2-0.4-0.4-0.3-0.7c0-0.3,0.3-0.5,0.5-0.6l5.5-1.3&#10;&#9;&#9;c-4.2-0.7-8.1-2.4-11.5-5c-0.2-0.2-0.3-0.5-0.2-0.8c0.1-0.3,0.4-0.5,0.7-0.5c2.9,0,5.7-1.1,7.9-2.9c-3.7,0.8-7.4,1-11.1,0.7&#10;&#9;&#9;c-0.4,0-0.7-0.4-0.6-0.8c0-0.3,0.2-0.5,0.4-0.6c5.1-2,8.8-6.4,9.7-11.8c0.3-2.5,0.4-5.1,0.1-7.6c-0.2-2.3-0.2-4.7,0-7&#10;&#9;&#9;c0.6-4.4,2.5-8.6,5.4-12c5.3-6.5,12.9-10.7,21.2-11.6c6.2-0.7,12.5,0.5,18.1,3.4c1.2,0.6,2.3,1.4,3.4,2.3c2.3,1.7,4.1,3.1,7,2.1&#10;&#9;&#9;c0.6-0.2,1.2-0.5,1.8-0.7c1.7-0.8,3.6-1.3,5.5-1.2l0,0c12.1,0.5,18.1,17,18.4,27.9c0.3,11.6-6.1,20.7-18.9,27.1s-28,7.9-33.9,8.2&#10;&#9;&#9;C239.5,154.4,238.4,154.5,237.2,154.5z M213.8,147.5c9,5.2,19.4,5.9,26.7,5.6c5.8-0.3,20.7-1.7,33.4-8&#10;&#9;&#9;c12.2-6.1,18.3-14.8,18.1-25.9c-0.2-10.4-5.8-26.1-17-26.5c-1.7,0-3.4,0.3-5,1.1c-0.6,0.2-1.2,0.5-1.9,0.7&#10;&#9;&#9;c-3.6,1.3-5.9-0.4-8.3-2.3c-1-0.8-2.1-1.5-3.2-2.1c-12.8-6.7-28.5-3.4-37.6,7.8c-2.7,3.2-4.5,7.1-5.1,11.3c-0.2,2.2-0.2,4.5,0,6.7&#10;&#9;&#9;c0.3,2.6,0.3,5.3-0.1,7.9c-0.9,4.8-3.8,9.1-8.1,11.6c3.5,0,7-0.4,10.3-1.4c0.3-0.1,0.6,0,0.8,0.3c0.2,0.3,0.1,0.6-0.1,0.8&#10;&#9;&#9;c-2.2,2.6-5.3,4.4-8.7,4.9c4,2.6,8.8,4,13.6,4c0.4,0,0.7,0.3,0.7,0.7c0,0.3-0.2,0.6-0.5,0.7L213.8,147.5z"/>
	<path class="st1_designer-2-62" d="M250.9,170.1l1.4,24.1c0,0,11,12.6,25.2,4.9s13.6-20,13.6-20l-9.3-45.3c0,0-12.9-3-16.1-28.3&#10;&#9;&#9;c-11,8.7-24.1,14.3-38,16.1c0,0,0.2,28.4,5.2,39.6S250.9,170.1,250.9,170.1z"/>
	<path class="st0_designer-2-62" d="M268.1,202.3c-9.6,0-16.3-7.5-16.4-7.6c-0.1-0.1-0.2-0.3-0.2-0.4l-1.4-23.4c-2.9,0.3-13.5,0.6-17.9-9.4&#10;&#9;&#9;c-5-11.3-5.3-38.7-5.3-39.9c0-0.4,0.3-0.7,0.6-0.7c13.7-1.9,26.7-7.4,37.6-15.9c0.2-0.2,0.5-0.2,0.7-0.1c0.2,0.1,0.4,0.3,0.5,0.6&#10;&#9;&#9;c1.6,12.8,5.8,19.7,9,23.2c3.5,3.8,6.5,4.5,6.6,4.5c0.3,0.1,0.5,0.3,0.5,0.5l9.3,45.3c0,0.2,0.4,12.9-14,20.8&#10;&#9;&#9;C274.8,201.4,271.5,202.3,268.1,202.3z M252.9,193.9c1.4,1.5,11.4,11.5,24.2,4.5c13.6-7.4,13.3-19.3,13.3-19.4l-9.2-44.8&#10;&#9;&#9;c-2.3-0.8-12.9-5.4-16.1-27.5c-10.8,8.1-23.4,13.4-36.7,15.4c0.1,4.2,0.7,28.7,5.2,38.7c4.7,10.6,16.7,8.6,17.2,8.5&#10;&#9;&#9;c0.4-0.1,0.8,0.2,0.8,0.6c0,0,0,0,0,0.1L252.9,193.9z"/>
	<path class="st1_designer-2-62" d="M276.5,146.5c3.3,0.5,6.6-0.3,9.3-2.3c3.9-2.9,5.4-7.5,5-12.2c-0.1-1.7-0.5-3.4-1.3-4.9c-0.8-1.5-2.3-2.6-4-3&#10;&#9;&#9;c-2-0.3-4,0.6-5.8,1.6c-2.7,1.4-2.7,3-4.3,5.3c0.2-0.2,0.3-0.8,0.5-1"/>
	<path class="st0_designer-2-62" d="M278.4,147.3c-0.7,0-1.3,0-2-0.1c-0.4-0.1-0.6-0.4-0.6-0.8c0.1-0.4,0.4-0.6,0.8-0.6c3.1,0.5,6.3-0.3,8.8-2.2&#10;&#9;&#9;c3.4-2.5,5.1-6.7,4.7-11.6c-0.1-1.6-0.5-3.2-1.2-4.6c-0.7-1.3-2-2.3-3.5-2.6c-1.7-0.3-3.5,0.5-5.4,1.5c-1.3,0.6-2.4,1.8-2.9,3.1&#10;&#9;&#9;c-0.3,0.5-0.6,1.1-1,1.8c0,0.1-0.1,0.1-0.1,0.1c-0.2,0.3-0.7,0.4-1,0.1c-0.3-0.2-0.4-0.7-0.1-1v-0.1c0-0.1,0.1-0.2,0.1-0.3&#10;&#9;&#9;c0.1-0.3,0.2-0.5,0.4-0.7c0.1-0.1,0.2-0.2,0.2-0.2c0.1-0.2,0.2-0.3,0.3-0.5c0.7-1.6,1.9-2.9,3.5-3.7c1.7-0.9,3.9-2,6.3-1.6&#10;&#9;&#9;c1.9,0.4,3.5,1.6,4.5,3.3c0.9,1.6,1.4,3.4,1.4,5.2c0.4,5.4-1.5,10-5.3,12.8C284,146.4,281.2,147.3,278.4,147.3z"/>
	<path class="st0_designer-2-62" d="M251.6,182.8c5.6-0.4,10.6-3.5,13.4-8.3c5-8.2,3-13.5,3-13.5s-6.7,8.5-17.1,9.2L251.6,182.8z"/>
	<path class="st0_designer-2-62" d="M251.6,183.5c-0.4,0-0.7-0.3-0.7-0.7l-0.7-12.7c0-0.4,0.3-0.7,0.6-0.7c0,0,0,0,0,0c10-0.7,16.6-8.8,16.7-8.9&#10;&#9;&#9;c0.2-0.3,0.7-0.4,1-0.1c0.1,0.1,0.2,0.2,0.2,0.3c0.1,0.2,2,5.7-3,14.1C262.7,179.9,257.5,183.1,251.6,183.5L251.6,183.5z&#10;&#9;&#9; M251.6,170.8l0.7,11.3c5.1-0.6,9.6-3.5,12.2-7.9c3.3-5.6,3.4-9.7,3.2-11.7C265.5,164.7,259.7,170,251.6,170.8z"/>
	<path class="st1_designer-2-62" d="M249,131.8c0,0-5.2,13.8-2.9,15.5s7.4-1,7.4-1"/>
	<path class="st0_designer-2-62" d="M248.2,148.5c-0.9,0-1.7-0.2-2.5-0.7c-2.6-1.8,1.3-12.9,2.6-16.3c0.1-0.4,0.5-0.5,0.9-0.4&#10;&#9;&#9;c0.4,0.1,0.5,0.5,0.4,0.9c-2.4,6.4-4.3,13.9-3.1,14.6c1.7,1.1,5.4-0.4,6.7-1c0.3-0.2,0.8-0.1,1,0.2c0,0,0,0,0,0.1&#10;&#9;&#9;c0.2,0.3,0,0.8-0.3,0.9C252.1,147.9,250.2,148.4,248.2,148.5z"/>
	<ellipse transform="matrix(0.9515 -0.3075 0.3075 0.9515 -27.0613 85.7162)" class="st0_designer-2-62" cx="258.4" cy="128.7" rx="2" ry="2.9"/>
	
		<ellipse transform="matrix(0.9999 -1.361315e-02 1.361315e-02 0.9999 -1.7906 3.2756)" class="st0_designer-2-62" cx="239.7" cy="133.2" rx="2" ry="2.9"/>
	<path class="st0_designer-2-62" d="M250.7,165c-1.3,0-2.7-0.4-3.8-1.1c-4.4-3.2-4.7-10.3-4.7-10.6c0-0.3,0.2-0.6,0.6-0.7&#10;&#9;&#9;c18.1-4,18.3-3.8,18.6-3.6c0.2,0.1,0.3,0.3,0.3,0.5l0,0c0.3,2.8-0.1,5.7-1.1,8.3c-1.3,3.3-4,5.8-7.4,6.8&#10;&#9;&#9;C252.3,164.9,251.5,165,250.7,165z M243.6,153.8c0.2,1.7,0.9,6.6,4.1,8.9c1.5,0.9,3.4,1.1,5.1,0.6c2.9-0.9,5.3-3.1,6.4-6&#10;&#9;&#9;c0.9-2.2,1.2-4.6,1.1-7C257.9,150.8,249.4,152.6,243.6,153.8L243.6,153.8z"/>
	<path class="st0_designer-2-62" d="M259.9,157.6c-2.7,6.5-9.4,8.1-12.6,5.8c0.7-2.5,2-5.1,4.4-6C254.4,156.5,257.3,156.5,259.9,157.6z"/>
	<path class="st0_designer-2-62" d="M250.7,165c-1.3,0-2.7-0.4-3.8-1.1c-0.2-0.2-0.3-0.5-0.3-0.8c1-3.4,2.6-5.6,4.8-6.5c2.8-0.9,5.8-0.9,8.6,0.2&#10;&#9;&#9;c0.2,0.1,0.3,0.2,0.4,0.4c0.1,0.2,0.1,0.4,0,0.6c-1.3,3.3-4,5.8-7.3,6.8C252.3,164.9,251.5,165,250.7,165z M248.1,163&#10;&#9;&#9;c1.5,0.7,3.1,0.8,4.6,0.3c2.7-0.8,4.9-2.7,6.1-5.3c-2.2-0.7-4.7-0.7-6.9,0C250.3,158.7,249,160.4,248.1,163L248.1,163z"/>
	<path class="st0_designer-2-62" d="M227,143c-0.8,0-1.6-0.2-2.3-0.7c-0.9-0.6-1.6-1.6-1.8-2.6l-1.5-6.7c-0.5-2.3,0.9-4.5,3.2-5l15.6-3.4&#10;&#9;&#9;c2.3-0.5,4.5,0.9,5,3.2l1.5,6.7c0.5,2.3-0.9,4.5-3.2,5c0,0,0,0,0,0l0,0l-15.6,3.4C227.6,143,227.3,143,227,143z M241.2,125.9&#10;&#9;&#9;c-0.2,0-0.4,0-0.6,0.1l-15.6,3.4c-1.5,0.3-2.4,1.8-2.1,3.3l1.5,6.7c0.3,1.5,1.8,2.4,3.3,2.1l15.6-3.5c1.5-0.3,2.4-1.8,2.1-3.3&#10;&#9;&#9;l-1.5-6.7c-0.2-0.7-0.6-1.3-1.2-1.7C242.2,126,241.7,125.9,241.2,125.9L241.2,125.9z M243.4,138.8L243.4,138.8z"/>
	<path class="st0_designer-2-62" d="M254.8,136.9c-2,0-3.7-1.4-4.1-3.3l-1.5-6.7c-0.5-2.3,0.9-4.5,3.2-5l15.6-3.4c2.3-0.5,4.5,0.9,5,3.2l1.5,6.7&#10;&#9;&#9;c0.5,2.3-0.9,4.5-3.2,5l-15.6,3.4C255.4,136.8,255.1,136.9,254.8,136.9z M269,119.8c-0.2,0-0.4,0-0.6,0.1l-15.6,3.4&#10;&#9;&#9;c-1.5,0.3-2.4,1.8-2.1,3.3c0,0,0,0,0,0l1.5,6.7c0.2,0.7,0.6,1.3,1.2,1.7c0.6,0.4,1.4,0.5,2.1,0.4L271,132l0,0&#10;&#9;&#9;c1.5-0.3,2.4-1.8,2.1-3.3c0,0,0,0,0,0l-1.4-6.7C271.4,120.7,270.3,119.8,269,119.8z"/>
	<path class="st0_designer-2-62" d="M244.6,128.6c-0.1,0-0.2,0-0.4-0.1c-0.4-0.2-0.5-0.6-0.3-1c0,0,0,0,0,0c0.7-1.1,2.8-2.9,6.3-1.5&#10;&#9;&#9;c0.4,0.1,0.5,0.6,0.4,0.9c-0.1,0.4-0.6,0.5-0.9,0.4c-3.1-1.3-4.4,0.7-4.5,0.9C245,128.5,244.8,128.6,244.6,128.6z"/>
	<path class="st0_designer-2-62" d="M292.7,209c-0.1,0-0.2,0-0.3-0.1c-0.4-0.2-0.5-0.6-0.4-1c0,0,0,0,0,0c10.2-21,36.3-35.1,36.5-35.3&#10;&#9;&#9;c0.4-0.2,0.8-0.1,1,0.3c0.2,0.4,0.1,0.8-0.3,1c-0.2,0.1-25.9,14.1-35.9,34.6C293.2,208.8,293,209,292.7,209z"/>
	<path class="st0_designer-2-62" d="M249.5,207.9c-0.1,0-0.2,0-0.3-0.1c-24.4-11.1-27.3-35.7-27.4-35.9c0-0.4,0.3-0.7,0.7-0.8&#10;&#9;&#9;c0.4,0,0.7,0.2,0.7,0.6c0,0.2,2.9,24,26.5,34.8c0.4,0.2,0.5,0.6,0.4,0.9C250.1,207.8,249.8,207.9,249.5,207.9L249.5,207.9z"/>
	<path class="st0_designer-2-62" d="M138.3,239.7c-0.4,0-0.7-0.3-0.7-0.7s0.3-0.7,0.7-0.7c10.5-0.3,15.7-6.3,15.7-6.3c0.3-0.3,0.7-0.3,1-0.1&#10;&#9;&#9;c0.3,0.3,0.3,0.7,0.1,1C154.9,233.2,149.6,239.4,138.3,239.7L138.3,239.7z"/>
	<path class="st0_designer-2-62" d="M327.1,247.4c-0.3,0-0.6-0.2-0.7-0.6c-0.1-0.3-6.6-26.1-7.5-41.5c0-0.4,0.4-0.7,0.8-0.7c0.3,0,0.6,0.3,0.7,0.6&#10;&#9;&#9;c0.9,15.3,7.4,41,7.5,41.2c0.1,0.4-0.1,0.8-0.5,0.9c0,0,0,0,0,0L327.1,247.4z"/>
	<path class="st0_designer-2-62" d="M214.3,252L214.3,252c-0.4,0-0.7-0.4-0.7-0.8c0,0,0,0,0,0l3.5-54.4c0-0.4,0.4-0.7,0.8-0.7&#10;&#9;&#9;c0.4,0,0.7,0.4,0.7,0.8c0,0,0,0,0,0l-3.6,54.3C215,251.7,214.7,252,214.3,252z"/>
	<path class="st0_designer-2-62" d="M338.3,221.5c-0.3,0-0.5-0.1-0.6-0.4l-6.8-12.6c-0.1-0.2-0.1-0.4,0-0.6c0.1-0.2,0.2-0.3,0.4-0.4l21-9.9&#10;&#9;&#9;c0.4-0.2,0.8,0,1,0.3c0,0,0,0,0,0c0.2,0.4,0.1,0.8-0.3,1c0,0,0,0-0.1,0l-20.3,9.6l6.1,11.4l20.6-6.4c0.4-0.1,0.8,0.1,0.9,0.5&#10;&#9;&#9;c0.1,0.4-0.1,0.8-0.5,0.9c0,0,0,0,0,0l-21.2,6.6C338.4,221.6,338.3,221.6,338.3,221.5z"/>
	<path class="st1_designer-2-62" d="M301.7,244.4h-74.1c-0.4,0-0.7-0.3-0.7-0.7v-21.9c0-0.4,0.3-0.7,0.7-0.7h74.1c0.4,0,0.7,0.3,0.7,0.7&#10;&#9;&#9;c0,0,0,0,0,0v21.9C302.4,244.1,302.1,244.4,301.7,244.4L301.7,244.4z M228.4,243H301v-20.5h-72.6V243z"/>
</g>
<g id="Desk_designer-2-62">
	<polygon class="st1_designer-2-62" points="105.1,315 392.9,315 439.1,399.4 58.9,399.4 &#9;"/>
	<path class="st3_designer-2-62" d="M439.1,400.1H58.9c-0.2,0-0.5-0.1-0.6-0.3c-0.1-0.2-0.1-0.5,0-0.7l46.2-84.4c0.1-0.2,0.4-0.4,0.6-0.4h287.8&#10;&#9;&#9;c0.3,0,0.5,0.1,0.6,0.4l46.2,84.3c0.1,0.2,0.1,0.5,0,0.7C439.6,399.9,439.4,400.1,439.1,400.1z M60.1,398.7h377.8l-45.4-83h-287&#10;&#9;&#9;L60.1,398.7z"/>
	<rect x="58.9" y="399.4" class="st1_designer-2-62" width="380.2" height="14.7"/>
	<path class="st3_designer-2-62" d="M439.1,414.7H58.9c-0.4,0-0.7-0.3-0.7-0.7l0,0v-14.7c0-0.4,0.3-0.7,0.7-0.7c0,0,0,0,0,0h380.2&#10;&#9;&#9;c0.4,0,0.7,0.3,0.7,0.7v0V414C439.8,414.4,439.5,414.7,439.1,414.7C439.1,414.7,439.1,414.7,439.1,414.7z M59.6,413.3h378.8v-13.3&#10;&#9;&#9;H59.6L59.6,413.3z"/>
</g>
<g id="Digital_designer-2-62">
	<path class="st1_designer-2-62" d="M109.6,260.6l0.6-2.7c1.5-2.7,3-4.5,6.6-4.5h137c3.4,0,6.4,2.2,7.4,5.5l22.3,76.5c0.8,2.9,0.2,7-3.8,8.6&#10;&#9;&#9;l-2.4,0.6L109.6,260.6z"/>
	<path class="st0_designer-2-62" d="M277.2,345.4c-0.1,0-0.2,0-0.3-0.1l-167.6-84.1c-0.3-0.1-0.4-0.5-0.4-0.8l0.6-2.7c0-0.1,0-0.1,0.1-0.2&#10;&#9;&#9;c1.4-2.5,3-4.8,7.2-4.8h137c3.7,0,6.9,2.5,8,6l22.3,76.5c1,3.5-0.1,7.8-4.2,9.4l-2.5,0.6C277.2,345.3,277.2,345.3,277.2,345.4z&#10;&#9;&#9; M110.4,260.2l166.9,83.7l2.2-0.5c3.4-1.3,4.1-4.9,3.3-7.7l-22.3-76.5c-0.9-3-3.6-5-6.7-5h-137c-3.1,0-4.4,1.4-5.9,4L110.4,260.2z"/>
	<path class="st0_designer-2-62" d="M277.2,344.6H137.3c-2,0-3.7-1.3-4.3-3.2l-23.5-80.9c-0.3-1.1,0.3-2.3,1.4-2.6c0.2-0.1,0.4-0.1,0.6-0.1h143.6&#10;&#9;&#9;l24.3,83.6c0.4,1.3-0.4,2.6-1.6,3C277.6,344.6,277.4,344.7,277.2,344.6z"/>
	<path class="st0_designer-2-62" d="M277.2,345.4H137.3c-2.3,0-4.3-1.5-4.9-3.7l-23.5-80.9c-0.4-1.5,0.4-3,1.9-3.4c0.3-0.1,0.5-0.1,0.8-0.1h143.6&#10;&#9;&#9;c0.3,0,0.6,0.2,0.7,0.5l24.3,83.6c0.5,1.7-0.5,3.4-2.1,3.9C277.7,345.3,277.5,345.4,277.2,345.4L277.2,345.4z M111.5,258.6&#10;&#9;&#9;c-0.4,0-0.8,0.2-1.1,0.5c-0.3,0.3-0.3,0.8-0.2,1.2l23.5,80.9c0.5,1.6,1.9,2.7,3.6,2.7h139.8c0.9,0,1.7-0.8,1.7-1.7&#10;&#9;&#9;c0-0.2,0-0.3-0.1-0.5l-24.2-83.1H111.5z"/>
	<path class="st1_designer-2-62" d="M253.7,310.2l-8.5,36.1c-0.9,4-4.5,6.8-8.6,6.8h-88.5c-4.9,0-8.8-3.9-8.8-8.8c0-0.7,0.1-1.4,0.2-2l7.6-32.1&#10;&#9;&#9;h-7.4l-7.2,30.5c-2,8.6,3.3,17.2,11.9,19.2c1.2,0.3,2.4,0.4,3.7,0.4h88.5c7.4,0,13.9-5.1,15.6-12.3l8.9-37.8H253.7z"/>
	<path class="st0_designer-2-62" d="M236.6,361h-88.5c-9.2,0-16.7-7.5-16.7-16.7c0-1.3,0.1-2.6,0.4-3.8l7.1-30.5c0.1-0.3,0.4-0.5,0.7-0.5h7.4&#10;&#9;&#9;c0.2,0,0.4,0.1,0.6,0.3c0.1,0.2,0.2,0.4,0.1,0.6l-7.6,32.1c-1,4.4,1.6,8.7,6,9.8c0.6,0.1,1.3,0.2,1.9,0.2h88.5c3.8,0,7-2.6,7.9-6.2&#10;&#9;&#9;l8.5-36.2c0.1-0.3,0.4-0.5,0.7-0.5h7.4c0.2,0,0.4,0.1,0.5,0.3c0.1,0.2,0.2,0.4,0.1,0.6l-8.9,37.8&#10;&#9;&#9;C251.1,355.7,244.4,361.1,236.6,361z M140.3,310.9l-7,29.9c-1.9,8.2,3.2,16.5,11.4,18.4c1.1,0.3,2.3,0.4,3.5,0.4h88.5&#10;&#9;&#9;c7.1,0,13.3-4.9,14.9-11.8l8.7-36.9h-5.9l-8.4,35.6c-1,4.3-4.8,7.3-9.2,7.3h-88.5c-5.2,0-9.5-4.2-9.5-9.5c0-0.7,0.1-1.5,0.3-2.2&#10;&#9;&#9;l7.3-31.2H140.3z"/>
</g>
<g id="Character_hand_designer-2-62">
	<path class="st1_designer-2-62" d="M367.8,236.5c0,0,12.5,55.6,2.3,69.8s-81.9,12-81.9,12s-11.6,13.9-21.7,13s-4.2-20,7.6-27.9l-1.6-6.6&#10;&#9;&#9;l63.1-10.1l-8.4-39.9"/>
	<path class="st0_designer-2-62" d="M267.4,332c-0.4,0-0.7,0-1,0c-2.7-0.1-4.9-2.1-5.5-4.7c-1.6-6.2,3.5-18,12.4-24.2l-1.5-6.1&#10;&#9;&#9;c-0.1-0.2,0-0.4,0.1-0.6c0.1-0.2,0.3-0.3,0.5-0.3l62.4-10l-8.3-39.2c-0.1-0.4,0.2-0.7,0.5-0.8c0.4-0.1,0.7,0.2,0.8,0.5l8.4,39.9&#10;&#9;&#9;c0,0.2,0,0.4-0.1,0.5c-0.1,0.2-0.3,0.3-0.5,0.3l-62.3,10l1.5,5.9c0.1,0.3,0,0.6-0.3,0.8c-8.6,5.7-13.7,17.3-12.2,23&#10;&#9;&#9;c0.4,2.1,2.2,3.6,4.3,3.6c9.6,0.9,21-12.6,21.1-12.8c0.1-0.2,0.3-0.2,0.6-0.2c0.7,0,71.4,2.1,81.3-11.7s-2.2-68.7-2.4-69.2&#10;&#9;&#9;c-0.1-0.4,0.2-0.8,0.5-0.8s0.8,0.2,0.8,0.5c0.5,2.3,12.5,56,2.1,70.3c-10.1,14-76.1,12.4-82.1,12.2&#10;&#9;&#9;C286.8,320.9,276.8,332,267.4,332z"/>
</g>
<g id="Cups_designer-2-62">
	<ellipse class="st1_designer-2-62" cx="356.5" cy="370.9" rx="34.6" ry="10.4"/>
	<path class="st3_designer-2-62" d="M356.5,382c-19.8,0-35.3-4.9-35.3-11.1s15.5-11.1,35.3-11.1s35.3,4.9,35.3,11.1S376.2,382,356.5,382z&#10;&#9;&#9; M356.5,361.2c-20.3,0-33.9,5-33.9,9.7s13.6,9.7,33.9,9.7s33.9-5,33.9-9.7S376.7,361.2,356.5,361.2L356.5,361.2z"/>
	<path class="st1_designer-2-62" d="M330.4,341.2l-0.8,0.1c-2.5,0.4-4.8,1.7-6.4,3.6c-2,2.6-1.8,6.5-0.2,9.3c3.7,6.6,12.6,8.4,19.5,9.1&#10;&#9;&#9;c1,0.2,2,0.1,2.9-0.2c1.2-0.3,1.9-1.5,1.6-2.6c-0.2-0.7-0.6-1.2-1.3-1.5c-0.7-0.3-1.5-0.6-2.3-0.6c-4.3-0.7-8.8-1.2-12.7-3.2&#10;&#9;&#9;c-2.3-1.2-5.5-3.8-3.8-6.7c0.6-0.9,1.4-1.6,2.4-2c3.9-1.9,7.7-0.5,11.5,0.7c0.3,0.1,0.6,0.1,0.9,0.1c0.8-0.2,1.2-1,1.1-1.8&#10;&#9;&#9;c-0.1-1.7-1.8-2.8-3.4-3.4C336.5,341.1,333.4,340.7,330.4,341.2z"/>
	<path class="st0_designer-2-62" d="M343.6,364.1c-0.4,0-0.8,0-1.2-0.1c-10.5-1-17.1-4.1-20-9.5c-1.8-3.1-1.7-7.1,0.3-10.1&#10;&#9;&#9;c1.7-2.1,4.1-3.4,6.8-3.9l0.9-0.2l0,0c3.2-0.5,6.4-0.1,9.4,1c1.4,0.5,3.7,1.8,3.9,4c0.1,1.2-0.6,2.2-1.7,2.5c-0.4,0-0.8,0-1.2-0.1&#10;&#9;&#9;l-1-0.3c-3.4-1-6.7-2-10-0.4c-0.9,0.4-1.6,1-2.1,1.8c-0.4,0.6-0.5,1.3-0.3,2c0.5,1.5,2.3,3,3.8,3.7c3.3,1.7,7.2,2.3,10.9,2.9&#10;&#9;&#9;l1.6,0.2c0.9,0.1,1.7,0.3,2.5,0.7c0.9,0.5,1.6,1.4,1.7,2.4c0,1.3-0.8,2.5-2.1,2.9C345.1,364,344.3,364.1,343.6,364.1z M330.5,341.9&#10;&#9;&#9;l-0.8,0.1c-2.3,0.3-4.5,1.5-6,3.3c-1.7,2.6-1.8,5.9-0.2,8.6c2.7,4.9,8.9,7.8,19,8.7c0.9,0.1,1.7,0.1,2.6-0.2&#10;&#9;&#9;c0.7-0.2,1.1-0.8,1.2-1.5c-0.1-0.6-0.5-1-1-1.3c-0.7-0.3-1.4-0.5-2.1-0.6l-1.6-0.2c-3.8-0.6-7.8-1.2-11.3-3&#10;&#9;&#9;c-1.8-0.9-3.9-2.6-4.5-4.5c-0.3-1-0.2-2.2,0.4-3.1c0.6-1,1.6-1.8,2.7-2.3c3.8-1.8,7.5-0.7,11.1,0.4l1,0.3c0.2,0.1,0.4,0.1,0.6,0.1&#10;&#9;&#9;c0.3,0,0.6-0.6,0.5-1c-0.1-1.6-2.1-2.5-3-2.8C336.4,341.8,333.4,341.5,330.5,341.9L330.5,341.9z"/>
	<path class="st1_designer-2-62" d="M333.6,334.1c0,0,6.5,32.3,7,34.2s15.8,9.9,28,2.1l10.6-33L333.6,334.1z"/>
	<path class="st0_designer-2-62" d="M356.7,374.5c-3.7,0-7.3-0.7-10.7-2c-2.7-1-5.7-2.7-6.1-4c-0.5-1.9-6.8-33-7-34.3c-0.1-0.4,0.2-0.7,0.5-0.8&#10;&#9;&#9;c0.1,0,0.1,0,0.2,0l45.6,3.3c0.4,0,0.7,0.4,0.7,0.8c0,0.1,0,0.1,0,0.2l-10.6,33c0,0.2-0.2,0.3-0.3,0.4&#10;&#9;&#9;C365.3,373.4,361.1,374.6,356.7,374.5z M334.5,334.9c1.1,5.2,6.4,31.6,6.8,33.3c0.2,0.5,2.7,2.3,7.2,3.7c4.2,1.3,12.2,2.7,19.5-1.9&#10;&#9;&#9;l10.3-31.9L334.5,334.9z"/>
	
		<ellipse transform="matrix(4.100371e-02 -0.9992 0.9992 4.100371e-02 7.122 677.5157)" class="st0_designer-2-62" cx="356.5" cy="335" rx="9.9" ry="22.9"/>
	<path class="st0_designer-2-62" d="M358.3,345.7c-0.7,0-1.5,0-2.2,0c-13.2-0.5-23.4-5.6-23.1-11.6s10.8-10.2,24-9.6s23.4,5.6,23.1,11.6&#10;&#9;&#9;c-0.1,2.9-2.8,5.5-7.4,7.4C368,345,363.2,345.8,358.3,345.7z M354.8,325.8c-11.1,0-20.3,3.6-20.5,8.3c-0.2,5,9.8,9.6,21.8,10.1&#10;&#9;&#9;c5.4,0.3,10.9-0.4,16-2.2c4.1-1.6,6.5-3.8,6.5-6.1c0.2-5-9.8-9.6-21.8-10.1C356.2,325.8,355.5,325.8,354.8,325.8z"/>
</g>
</svg>