<svg id="_0231_designer_1" xmlns="http://www.w3.org/2000/svg" viewBox="0 0 500 500" data-imageid="designer-1-78" imageName="Designer 1" class="illustrations_image" style="width: 187px;"><defs><style>.cls-1_designer-1-78,.cls-2_designer-1-78{fill:#fff;}.cls-3_designer-1-78{fill:#f4a28c;}.cls-4_designer-1-78{fill:#a5a5a5;}.cls-5_designer-1-78{opacity:.03;}.cls-5_designer-1-78,.cls-6_designer-1-78{fill:#000001;}.cls-7_designer-1-78{fill:#e6e6e6;}.cls-6_designer-1-78{opacity:.09;}.cls-2_designer-1-78{opacity:.44;}.cls-8_designer-1-78{fill:#ce8172;opacity:.31;}.cls-9_designer-1-78{opacity:.58;}.cls-9_designer-1-78,.cls-10_designer-1-78,.cls-11_designer-1-78{fill:#68e1fd;}.cls-12_designer-1-78{fill:#24285b;}.cls-10_designer-1-78{opacity:.73;}.cls-13_designer-1-78{fill:#ffd200;}</style></defs><ellipse id="sd_designer-1-78" class="cls-5_designer-1-78" cx="249.12" cy="430.76" rx="236.02" ry="35.75"/><g id="plant_designer-1-78"><path class="cls-9_designer-1-78 targetColor" d="m416.5,349.25s-15.95-4.36-19.42-19.21c0,0,24.72-5,25.42,20.52l-6-1.31Z" style="fill: rgb(38, 0, 61);"/><path class="cls-10_designer-1-78 targetColor" d="m418.46,347.67s-11.15-17.62-1.34-34.1c0,0,18.8,11.94,10.44,34.14l-9.11-.04Z" style="fill: rgb(38, 0, 61);"/><path class="cls-11_designer-1-78 targetColor" d="m421.33,347.68s5.89-18.61,23.69-22.13c0,0,3.34,12.08-11.53,22.19l-12.16-.05Z" style="fill: rgb(38, 0, 61);"/><polygon class="cls-12_designer-1-78" points="409.76 347.26 412.99 369.39 433.36 369.47 436.36 347.37 409.76 347.26"/></g><g id="person_designer-1-78"><path class="cls-11_designer-1-78 targetColor" d="m257.12,167.5s50.38,12.83,50.75,54.56c.37,41.73-22.36,114.76,10.06,120.72,32.42,5.96,51.79-84.21,51.79-84.21l23.1,9.31s-24.59,154.04-109.54,128.63c-84.95-25.42-26.16-229.02-26.16-229.02Z" style="fill: rgb(38, 0, 61);"/><path class="cls-2_designer-1-78" d="m257.12,167.5s50.38,12.83,50.75,54.56c.37,41.73-22.36,114.76,10.06,120.72,32.42,5.96,51.79-84.21,51.79-84.21l23.1,9.31s-24.59,154.04-109.54,128.63c-84.95-25.42-26.16-229.02-26.16-229.02Z"/><polygon class="cls-3_designer-1-78" points="211.79 98.99 196.44 153.12 226.87 159.44 225.82 117.52 211.79 98.99"/><path class="cls-8_designer-1-78" d="m226.44,126.68s-5.55-1.84-9.27-7.14c0,0-.78,10.27,9.24,21.69l.03-14.56Z"/><path class="cls-11_designer-1-78 targetColor" d="m196.44,153.12l18.04,3.75s82.58,8.9,85.94,55.51c3.35,46.61-43.3,165.72-43.3,165.72h-125.13S31.74,140.8,196.44,153.12Z" style="fill: rgb(38, 0, 61);"/><path class="cls-6_designer-1-78" d="m185.63,196.31s10.09,29.11-16.36,48.11c-26.45,19-13.55,90.54,15.4,102.09,28.94,11.55-18.09,36.26-38.17,26.14-20.08-10.12-22.85-16.92-22.85-16.92,0,0-18.62-53.81-20.59-88.15-1.97-34.34,82.58-71.27,82.58-71.27Z"/><path class="cls-12_designer-1-78" d="m131.99,378.1s-70.42-25.07-96.13-14.35c-25.71,10.71-11.18,60.53,72.66,63.01s207.91,16.14,232.5-14.17c24.59-30.3-68.18-46.5-209.02-34.49Z"/><path class="cls-11_designer-1-78 targetColor" d="m185.63,196.31c-.07-25.64-25.97-43.14-50.33-35.14-21.18,6.95-47.02,19.84-62.72,43.39-30.18,45.27-99.14,177.58,75.9,182.68l5.14-19.49s-105.07-29.06-58.68-90.54c36.08-47.82,90.79-44.6,90.7-80.9Z" style="fill: rgb(38, 0, 61);"/><path class="cls-2_designer-1-78" d="m185.63,196.31c-.07-25.64-25.97-43.14-50.33-35.14-21.18,6.95-47.02,19.84-62.72,43.39-30.18,45.27-99.14,177.58,75.9,182.68l5.14-19.49s-105.07-29.06-58.68-90.54c36.08-47.82,90.79-44.6,90.7-80.9Z"/><polygon class="cls-13_designer-1-78" points="149.15 391.23 236.21 391.23 257.12 297.33 135.74 297.33 149.15 391.23"/><path class="cls-3_designer-1-78" d="m375.11,260.75s1.32-22.29,10.26-28.63c8.94-6.33,7.45,9.69,7.45,9.69,0,0,8.94-10.43,16.39-5.59,7.45,4.84-16.39,31.67-16.39,31.67l-17.71-7.14Z"/><rect class="cls-7_designer-1-78" x="365.56" y="151.83" width="79.57" height="102.09" transform="translate(69.07 -101.06) rotate(15.52)"/><rect class="cls-6_designer-1-78" x="373.83" y="202.28" width="52.61" height="38.74" transform="translate(73.9 -98.98) rotate(15.52)"/><rect class="cls-6_designer-1-78" x="422.22" y="171.95" width="14.95" height="26.06" transform="translate(65.17 -108.23) rotate(15.52)"/><path class="cls-3_designer-1-78" d="m243.3,100.57s-1.53,17.1-6.35,27.8c-1.96,4.34-7.14,6.3-11.45,4.28-5.35-2.51-11.86-7.45-12.16-16.71l-2.43-15.66s-1.18-9.87,9.57-15.03,24.28,4.96,22.82,15.33Z"/><path class="cls-12_designer-1-78" d="m238.99,100.53c-2.98-.37-8.4-1.35-15.37-3.97,0,0,3.98,8.3-2.75,15.47-6.72,7.17-14.68,2.12-14.68,2.12l4.13-21.66c1-6.35,5.38-11.67,11.45-13.8,2.48-.87,5.2-1.69,7.88-2.25,6.7-1.4,15.11,4.4,21.47,1.18,2.79-1.41,6.08.7,5.99,3.82-.2,6.78-3.22,16.96-12.8,18.99-1.75.37-3.55.34-5.33.12Z"/><path class="cls-3_designer-1-78" d="m222.77,111.85s1.03-6.53-3.95-6.9c-4.98-.37-6.52,9.06-.03,11.12l3.98-4.22Z"/><path class="cls-3_designer-1-78" d="m241.79,111.29l3.55,7.35c.88,1.81-.43,3.93-2.45,3.95l-6.68.07,5.57-11.36Z"/><circle class="cls-1_designer-1-78" cx="194.29" cy="337.85" r="8.66"/><path class="cls-11_designer-1-78 targetColor" d="m135.74,410.79s-35.52,15.38-26.14,24.74c9.38,9.36,33.35-7.36,33.35-7.36l-7.21-17.38Z" style="fill: rgb(38, 0, 61);"/><path class="cls-11_designer-1-78 targetColor" d="m246.87,414.68s35.52,15.38,26.14,24.74c-9.38,9.36-33.35-7.36-33.35-7.36l7.21-17.38Z" style="fill: rgb(38, 0, 61);"/><circle class="cls-4_designer-1-78" cx="400.93" cy="175.49" r="13.41"/><circle class="cls-7_designer-1-78" cx="404.28" cy="215.36" r="4.28"/><polygon class="cls-7_designer-1-78" points="375.11 228.59 392.82 211.08 397.68 230.13 410.66 223 417.04 240.51 375.11 228.59"/></g><g id="box_designer-1-78"><rect class="cls-4_designer-1-78" x="376.43" y="370.44" width="61.7" height="61.71"/><rect class="cls-7_designer-1-78" x="411.68" y="370.44" width="61.7" height="61.71"/></g><g id="bg_designer-1-78"><rect class="cls-5_designer-1-78" x="40.89" y="33.74" width="132.51" height="41.88"/><rect class="cls-5_designer-1-78" x="40.89" y="92.08" width="132.51" height="41.88"/></g></svg>