<svg id="visual" viewBox="0 0 900 600" width="900" height="600" xmlns="http://www.w3.org/2000/svg" xmlns:xlink="http://www.w3.org/1999/xlink" version="1.1"><rect x="0" y="0" width="900" height="600" fill="#0B0015"></rect><path d="M0 300L15 297.3C30 294.7 60 289.3 90 313C120 336.7 150 389.3 180 414.8C210 440.3 240 438.7 270 443.5C300 448.3 330 459.7 360 443C390 426.3 420 381.7 450 372.5C480 363.3 510 389.7 540 392.8C570 396 600 376 630 383.5C660 391 690 426 720 437.2C750 448.3 780 435.7 810 410.7C840 385.7 870 348.3 885 329.7L900 311L900 601L885 601C870 601 840 601 810 601C780 601 750 601 720 601C690 601 660 601 630 601C600 601 570 601 540 601C510 601 480 601 450 601C420 601 390 601 360 601C330 601 300 601 270 601C240 601 210 601 180 601C150 601 120 601 90 601C60 601 30 601 15 601L0 601Z" fill="#170630" stroke-linecap="round" stroke-linejoin="miter"></path></svg>