<svg id="visual" viewBox="0 0 600 900" width="600" height="900" xmlns="http://www.w3.org/2000/svg" xmlns:xlink="http://www.w3.org/1999/xlink" version="1.1"><path d="M0 788L7.7 787C15.3 786 30.7 784 46 790.5C61.3 797 76.7 812 92 805.5C107.3 799 122.7 771 138.2 768.7C153.7 766.3 169.3 789.7 184.8 795.2C200.3 800.7 215.7 788.3 231 783.3C246.3 778.3 261.7 780.7 277 770.8C292.3 761 307.7 739 323 742.8C338.3 746.7 353.7 776.3 369 790C384.3 803.7 399.7 801.3 415.2 801.8C430.7 802.3 446.3 805.7 461.8 806.3C477.3 807 492.7 805 508 789.3C523.3 773.7 538.7 744.3 554 745C569.3 745.7 584.7 776.3 592.3 791.7L600 807L600 901L592.3 901C584.7 901 569.3 901 554 901C538.7 901 523.3 901 508 901C492.7 901 477.3 901 461.8 901C446.3 901 430.7 901 415.2 901C399.7 901 384.3 901 369 901C353.7 901 338.3 901 323 901C307.7 901 292.3 901 277 901C261.7 901 246.3 901 231 901C215.7 901 200.3 901 184.8 901C169.3 901 153.7 901 138.2 901C122.7 901 107.3 901 92 901C76.7 901 61.3 901 46 901C30.7 901 15.3 901 7.7 901L0 901Z" fill="#00EC9E" stroke-linecap="round" stroke-linejoin="miter"></path></svg>