<svg id="visual" viewBox="0 0 900 600" width="900" height="600" xmlns="http://www.w3.org/2000/svg" xmlns:xlink="http://www.w3.org/1999/xlink" version="1.1"><rect x="0" y="0" width="900" height="600" fill="#0B0015"></rect><path d="M511 0L487.5 9.2C464 18.3 417 36.7 403 54.8C389 73 408 91 384.8 109.2C361.7 127.3 296.3 145.7 293.5 163.8C290.7 182 350.3 200 410.3 218.2C470.3 236.3 530.7 254.7 555 272.8C579.3 291 567.7 309 529.5 327.2C491.3 345.3 426.7 363.7 410.7 381.8C394.7 400 427.3 418 459.8 436.2C492.3 454.3 524.7 472.7 501.7 490.8C478.7 509 400.3 527 345.7 545.2C291 563.3 260 581.7 244.5 590.8L229 600L0 600L0 590.8C0 581.7 0 563.3 0 545.2C0 527 0 509 0 490.8C0 472.7 0 454.3 0 436.2C0 418 0 400 0 381.8C0 363.7 0 345.3 0 327.2C0 309 0 291 0 272.8C0 254.7 0 236.3 0 218.2C0 200 0 182 0 163.8C0 145.7 0 127.3 0 109.2C0 91 0 73 0 54.8C0 36.7 0 18.3 0 9.2L0 0Z" fill="#170630" stroke-linecap="round" stroke-linejoin="miter"></path></svg>