<svg id="visual" viewBox="0 0 900 600" width="900" height="600" xmlns="http://www.w3.org/2000/svg" xmlns:xlink="http://www.w3.org/1999/xlink" version="1.1"><rect x="0" y="0" width="900" height="600" fill="#0B0015"></rect><path d="M0 120L16.7 118.7C33.3 117.3 66.7 114.7 100 126.3C133.3 138 166.7 164 200 188.5C233.3 213 266.7 236 300 232.2C333.3 228.3 366.7 197.7 400 185.3C433.3 173 466.7 179 500 204.3C533.3 229.7 566.7 274.3 600 278.8C633.3 283.3 666.7 247.7 700 226.7C733.3 205.7 766.7 199.3 800 207.7C833.3 216 866.7 239 883.3 250.5L900 262L900 601L883.3 601C866.7 601 833.3 601 800 601C766.7 601 733.3 601 700 601C666.7 601 633.3 601 600 601C566.7 601 533.3 601 500 601C466.7 601 433.3 601 400 601C366.7 601 333.3 601 300 601C266.7 601 233.3 601 200 601C166.7 601 133.3 601 100 601C66.7 601 33.3 601 16.7 601L0 601Z" fill="#170630"></path><path d="M0 319L16.7 326.8C33.3 334.7 66.7 350.3 100 352C133.3 353.7 166.7 341.3 200 323.7C233.3 306 266.7 283 300 262.8C333.3 242.7 366.7 225.3 400 237.3C433.3 249.3 466.7 290.7 500 290.3C533.3 290 566.7 248 600 234.8C633.3 221.7 666.7 237.3 700 233C733.3 228.7 766.7 204.3 800 202.8C833.3 201.3 866.7 222.7 883.3 233.3L900 244L900 601L883.3 601C866.7 601 833.3 601 800 601C766.7 601 733.3 601 700 601C666.7 601 633.3 601 600 601C566.7 601 533.3 601 500 601C466.7 601 433.3 601 400 601C366.7 601 333.3 601 300 601C266.7 601 233.3 601 200 601C166.7 601 133.3 601 100 601C66.7 601 33.3 601 16.7 601L0 601Z" fill="#270f4f"></path><path d="M0 401L16.7 386.8C33.3 372.7 66.7 344.3 100 327.7C133.3 311 166.7 306 200 308.3C233.3 310.7 266.7 320.3 300 333C333.3 345.7 366.7 361.3 400 356C433.3 350.7 466.7 324.3 500 309.3C533.3 294.3 566.7 290.7 600 293.5C633.3 296.3 666.7 305.7 700 319C733.3 332.3 766.7 349.7 800 352.5C833.3 355.3 866.7 343.7 883.3 337.8L900 332L900 601L883.3 601C866.7 601 833.3 601 800 601C766.7 601 733.3 601 700 601C666.7 601 633.3 601 600 601C566.7 601 533.3 601 500 601C466.7 601 433.3 601 400 601C366.7 601 333.3 601 300 601C266.7 601 233.3 601 200 601C166.7 601 133.3 601 100 601C66.7 601 33.3 601 16.7 601L0 601Z" fill="#3c136f"></path><path d="M0 353L16.7 363.2C33.3 373.3 66.7 393.7 100 396.7C133.3 399.7 166.7 385.3 200 379.3C233.3 373.3 266.7 375.7 300 369.5C333.3 363.3 366.7 348.7 400 350.8C433.3 353 466.7 372 500 375.7C533.3 379.3 566.7 367.7 600 358C633.3 348.3 666.7 340.7 700 342.8C733.3 345 766.7 357 800 355.7C833.3 354.3 866.7 339.7 883.3 332.3L900 325L900 601L883.3 601C866.7 601 833.3 601 800 601C766.7 601 733.3 601 700 601C666.7 601 633.3 601 600 601C566.7 601 533.3 601 500 601C466.7 601 433.3 601 400 601C366.7 601 333.3 601 300 601C266.7 601 233.3 601 200 601C166.7 601 133.3 601 100 601C66.7 601 33.3 601 16.7 601L0 601Z" fill="#53148f"></path><path d="M0 488L16.7 484.2C33.3 480.3 66.7 472.7 100 466.7C133.3 460.7 166.7 456.3 200 459.5C233.3 462.7 266.7 473.3 300 474.5C333.3 475.7 366.7 467.3 400 454.3C433.3 441.3 466.7 423.7 500 417.3C533.3 411 566.7 416 600 426.7C633.3 437.3 666.7 453.7 700 460.3C733.3 467 766.7 464 800 456.5C833.3 449 866.7 437 883.3 431L900 425L900 601L883.3 601C866.7 601 833.3 601 800 601C766.7 601 733.3 601 700 601C666.7 601 633.3 601 600 601C566.7 601 533.3 601 500 601C466.7 601 433.3 601 400 601C366.7 601 333.3 601 300 601C266.7 601 233.3 601 200 601C166.7 601 133.3 601 100 601C66.7 601 33.3 601 16.7 601L0 601Z" fill="#6e11b1"></path><path d="M0 550L16.7 544C33.3 538 66.7 526 100 521C133.3 516 166.7 518 200 512.8C233.3 507.7 266.7 495.3 300 499.3C333.3 503.3 366.7 523.7 400 527.7C433.3 531.7 466.7 519.3 500 508.2C533.3 497 566.7 487 600 495C633.3 503 666.7 529 700 538C733.3 547 766.7 539 800 526.8C833.3 514.7 866.7 498.3 883.3 490.2L900 482L900 601L883.3 601C866.7 601 833.3 601 800 601C766.7 601 733.3 601 700 601C666.7 601 633.3 601 600 601C566.7 601 533.3 601 500 601C466.7 601 433.3 601 400 601C366.7 601 333.3 601 300 601C266.7 601 233.3 601 200 601C166.7 601 133.3 601 100 601C66.7 601 33.3 601 16.7 601L0 601Z" fill="#8c00d2"></path></svg>