<svg id="visual" viewBox="0 0 900 600" width="900" height="600" xmlns="http://www.w3.org/2000/svg" xmlns:xlink="http://www.w3.org/1999/xlink" version="1.1"><path d="M0 123L8.8 127.8C17.7 132.7 35.3 142.3 53 150.8C70.7 159.3 88.3 166.7 106 164.8C123.7 163 141.3 152 159 152.8C176.7 153.7 194.3 166.3 212 169.8C229.7 173.3 247.3 167.7 265 160.8C282.7 154 300.3 146 318 143.7C335.7 141.3 353.3 144.7 371 151.7C388.7 158.7 406.3 169.3 423.8 166.7C441.3 164 458.7 148 476.2 149C493.7 150 511.3 168 529 175.3C546.7 182.7 564.3 179.3 582 181.2C599.7 183 617.3 190 635 180.7C652.7 171.3 670.3 145.7 688 136C705.7 126.3 723.3 132.7 741 139.7C758.7 146.7 776.3 154.3 794 163C811.7 171.7 829.3 181.3 847 179.7C864.7 178 882.3 165 891.2 158.5L900 152L900 0L891.2 0C882.3 0 864.7 0 847 0C829.3 0 811.7 0 794 0C776.3 0 758.7 0 741 0C723.3 0 705.7 0 688 0C670.3 0 652.7 0 635 0C617.3 0 599.7 0 582 0C564.3 0 546.7 0 529 0C511.3 0 493.7 0 476.2 0C458.7 0 441.3 0 423.8 0C406.3 0 388.7 0 371 0C353.3 0 335.7 0 318 0C300.3 0 282.7 0 265 0C247.3 0 229.7 0 212 0C194.3 0 176.7 0 159 0C141.3 0 123.7 0 106 0C88.3 0 70.7 0 53 0C35.3 0 17.7 0 8.8 0L0 0Z" fill="#fadb69"></path><path d="M0 106L8.8 109.3C17.7 112.7 35.3 119.3 53 120.2C70.7 121 88.3 116 106 121C123.7 126 141.3 141 159 145.2C176.7 149.3 194.3 142.7 212 133.8C229.7 125 247.3 114 265 113.5C282.7 113 300.3 123 318 124C335.7 125 353.3 117 371 114.8C388.7 112.7 406.3 116.3 423.8 124.8C441.3 133.3 458.7 146.7 476.2 143.7C493.7 140.7 511.3 121.3 529 118.7C546.7 116 564.3 130 582 138.5C599.7 147 617.3 150 635 147.8C652.7 145.7 670.3 138.3 688 134.3C705.7 130.3 723.3 129.7 741 134C758.7 138.3 776.3 147.7 794 151.2C811.7 154.7 829.3 152.3 847 149.8C864.7 147.3 882.3 144.7 891.2 143.3L900 142L900 0L891.2 0C882.3 0 864.7 0 847 0C829.3 0 811.7 0 794 0C776.3 0 758.7 0 741 0C723.3 0 705.7 0 688 0C670.3 0 652.7 0 635 0C617.3 0 599.7 0 582 0C564.3 0 546.7 0 529 0C511.3 0 493.7 0 476.2 0C458.7 0 441.3 0 423.8 0C406.3 0 388.7 0 371 0C353.3 0 335.7 0 318 0C300.3 0 282.7 0 265 0C247.3 0 229.7 0 212 0C194.3 0 176.7 0 159 0C141.3 0 123.7 0 106 0C88.3 0 70.7 0 53 0C35.3 0 17.7 0 8.8 0L0 0Z" fill="#d7e266"></path><path d="M0 116L8.8 110.5C17.7 105 35.3 94 53 88C70.7 82 88.3 81 106 89.2C123.7 97.3 141.3 114.7 159 120.8C176.7 127 194.3 122 212 117C229.7 112 247.3 107 265 103C282.7 99 300.3 96 318 91.7C335.7 87.3 353.3 81.7 371 83.5C388.7 85.3 406.3 94.7 423.8 97.5C441.3 100.3 458.7 96.7 476.2 99.2C493.7 101.7 511.3 110.3 529 113.8C546.7 117.3 564.3 115.7 582 113C599.7 110.3 617.3 106.7 635 100.8C652.7 95 670.3 87 688 89.8C705.7 92.7 723.3 106.3 741 111.5C758.7 116.7 776.3 113.3 794 113.8C811.7 114.3 829.3 118.7 847 118.3C864.7 118 882.3 113 891.2 110.5L900 108L900 0L891.2 0C882.3 0 864.7 0 847 0C829.3 0 811.7 0 794 0C776.3 0 758.7 0 741 0C723.3 0 705.7 0 688 0C670.3 0 652.7 0 635 0C617.3 0 599.7 0 582 0C564.3 0 546.7 0 529 0C511.3 0 493.7 0 476.2 0C458.7 0 441.3 0 423.8 0C406.3 0 388.7 0 371 0C353.3 0 335.7 0 318 0C300.3 0 282.7 0 265 0C247.3 0 229.7 0 212 0C194.3 0 176.7 0 159 0C141.3 0 123.7 0 106 0C88.3 0 70.7 0 53 0C35.3 0 17.7 0 8.8 0L0 0Z" fill="#aee76f"></path><path d="M0 65L8.8 67.3C17.7 69.7 35.3 74.3 53 73.7C70.7 73 88.3 67 106 69C123.7 71 141.3 81 159 84.2C176.7 87.3 194.3 83.7 212 83.8C229.7 84 247.3 88 265 87.3C282.7 86.7 300.3 81.3 318 81.2C335.7 81 353.3 86 371 83.5C388.7 81 406.3 71 423.8 72C441.3 73 458.7 85 476.2 88.3C493.7 91.7 511.3 86.3 529 84C546.7 81.7 564.3 82.3 582 80.8C599.7 79.3 617.3 75.7 635 73.5C652.7 71.3 670.3 70.7 688 69.3C705.7 68 723.3 66 741 68.2C758.7 70.3 776.3 76.7 794 79.3C811.7 82 829.3 81 847 79.8C864.7 78.7 882.3 77.3 891.2 76.7L900 76L900 0L891.2 0C882.3 0 864.7 0 847 0C829.3 0 811.7 0 794 0C776.3 0 758.7 0 741 0C723.3 0 705.7 0 688 0C670.3 0 652.7 0 635 0C617.3 0 599.7 0 582 0C564.3 0 546.7 0 529 0C511.3 0 493.7 0 476.2 0C458.7 0 441.3 0 423.8 0C406.3 0 388.7 0 371 0C353.3 0 335.7 0 318 0C300.3 0 282.7 0 265 0C247.3 0 229.7 0 212 0C194.3 0 176.7 0 159 0C141.3 0 123.7 0 106 0C88.3 0 70.7 0 53 0C35.3 0 17.7 0 8.8 0L0 0Z" fill="#7aea82"></path><path d="M0 63L8.8 59.2C17.7 55.3 35.3 47.7 53 46C70.7 44.3 88.3 48.7 106 48.2C123.7 47.7 141.3 42.3 159 42.7C176.7 43 194.3 49 212 49.8C229.7 50.7 247.3 46.3 265 43.3C282.7 40.3 300.3 38.7 318 39.5C335.7 40.3 353.3 43.7 371 44.2C388.7 44.7 406.3 42.3 423.8 40.7C441.3 39 458.7 38 476.2 41.3C493.7 44.7 511.3 52.3 529 53.5C546.7 54.7 564.3 49.3 582 49.3C599.7 49.3 617.3 54.7 635 54.3C652.7 54 670.3 48 688 47.3C705.7 46.7 723.3 51.3 741 52.7C758.7 54 776.3 52 794 49.7C811.7 47.3 829.3 44.7 847 45.3C864.7 46 882.3 50 891.2 52L900 54L900 0L891.2 0C882.3 0 864.7 0 847 0C829.3 0 811.7 0 794 0C776.3 0 758.7 0 741 0C723.3 0 705.7 0 688 0C670.3 0 652.7 0 635 0C617.3 0 599.7 0 582 0C564.3 0 546.7 0 529 0C511.3 0 493.7 0 476.2 0C458.7 0 441.3 0 423.8 0C406.3 0 388.7 0 371 0C353.3 0 335.7 0 318 0C300.3 0 282.7 0 265 0C247.3 0 229.7 0 212 0C194.3 0 176.7 0 159 0C141.3 0 123.7 0 106 0C88.3 0 70.7 0 53 0C35.3 0 17.7 0 8.8 0L0 0Z" fill="#00ec9e"></path></svg>