<svg id="visual" viewBox="0 0 600 900" width="600" height="900" xmlns="http://www.w3.org/2000/svg" xmlns:xlink="http://www.w3.org/1999/xlink" version="1.1"><path d="M0 656L7.2 657.2C14.3 658.3 28.7 660.7 43 640.2C57.3 619.7 71.7 576.3 86 570C100.3 563.7 114.7 594.3 128.8 609.3C143 624.3 157 623.7 171.2 625C185.3 626.3 199.7 629.7 214 648.3C228.3 667 242.7 701 257 691C271.3 681 285.7 627 300 628.3C314.3 629.7 328.7 686.3 343 714.2C357.3 742 371.7 741 386 713.3C400.3 685.7 414.7 631.3 428.8 596C443 560.7 457 544.3 471.2 558.5C485.3 572.7 499.7 617.3 514 652C528.3 686.7 542.7 711.3 557 711.7C571.3 712 585.7 688 592.8 676L600 664L600 901L592.8 901C585.7 901 571.3 901 557 901C542.7 901 528.3 901 514 901C499.7 901 485.3 901 471.2 901C457 901 443 901 428.8 901C414.7 901 400.3 901 386 901C371.7 901 357.3 901 343 901C328.7 901 314.3 901 300 901C285.7 901 271.3 901 257 901C242.7 901 228.3 901 214 901C199.7 901 185.3 901 171.2 901C157 901 143 901 128.8 901C114.7 901 100.3 901 86 901C71.7 901 57.3 901 43 901C28.7 901 14.3 901 7.2 901L0 901Z" fill="#00cabe"></path><path d="M0 701L7.2 692.8C14.3 684.7 28.7 668.3 43 663C57.3 657.7 71.7 663.3 86 660.3C100.3 657.3 114.7 645.7 128.8 657C143 668.3 157 702.7 171.2 697.7C185.3 692.7 199.7 648.3 214 653.7C228.3 659 242.7 714 257 708.3C271.3 702.7 285.7 636.3 300 635.3C314.3 634.3 328.7 698.7 343 712.3C357.3 726 371.7 689 386 659C400.3 629 414.7 606 428.8 622C443 638 457 693 471.2 720.2C485.3 747.3 499.7 746.7 514 717.3C528.3 688 542.7 630 557 631C571.3 632 585.7 692 592.8 722L600 752L600 901L592.8 901C585.7 901 571.3 901 557 901C542.7 901 528.3 901 514 901C499.7 901 485.3 901 471.2 901C457 901 443 901 428.8 901C414.7 901 400.3 901 386 901C371.7 901 357.3 901 343 901C328.7 901 314.3 901 300 901C285.7 901 271.3 901 257 901C242.7 901 228.3 901 214 901C199.7 901 185.3 901 171.2 901C157 901 143 901 128.8 901C114.7 901 100.3 901 86 901C71.7 901 57.3 901 43 901C28.7 901 14.3 901 7.2 901L0 901Z" fill="#00abb5"></path><path d="M0 693L7.2 684.7C14.3 676.3 28.7 659.7 43 649.2C57.3 638.7 71.7 634.3 86 657.2C100.3 680 114.7 730 128.8 754.8C143 779.7 157 779.3 171.2 759.2C185.3 739 199.7 699 214 690.2C228.3 681.3 242.7 703.7 257 709C271.3 714.3 285.7 702.7 300 686.7C314.3 670.7 328.7 650.3 343 648.7C357.3 647 371.7 664 386 680.2C400.3 696.3 414.7 711.7 428.8 702.3C443 693 457 659 471.2 666.5C485.3 674 499.7 723 514 738.5C528.3 754 542.7 736 557 718.2C571.3 700.3 585.7 682.7 592.8 673.8L600 665L600 901L592.8 901C585.7 901 571.3 901 557 901C542.7 901 528.3 901 514 901C499.7 901 485.3 901 471.2 901C457 901 443 901 428.8 901C414.7 901 400.3 901 386 901C371.7 901 357.3 901 343 901C328.7 901 314.3 901 300 901C285.7 901 271.3 901 257 901C242.7 901 228.3 901 214 901C199.7 901 185.3 901 171.2 901C157 901 143 901 128.8 901C114.7 901 100.3 901 86 901C71.7 901 57.3 901 43 901C28.7 901 14.3 901 7.2 901L0 901Z" fill="#008ca5"></path><path d="M0 708L7.2 724.2C14.3 740.3 28.7 772.7 43 780.5C57.3 788.3 71.7 771.7 86 746.3C100.3 721 114.7 687 128.8 689.2C143 691.3 157 729.7 171.2 734.5C185.3 739.3 199.7 710.7 214 715.7C228.3 720.7 242.7 759.3 257 756.2C271.3 753 285.7 708 300 684.8C314.3 661.7 328.7 660.3 343 665C357.3 669.7 371.7 680.3 386 703.8C400.3 727.3 414.7 763.7 428.8 759.8C443 756 457 712 471.2 701.3C485.3 690.7 499.7 713.3 514 727C528.3 740.7 542.7 745.3 557 751.8C571.3 758.3 585.7 766.7 592.8 770.8L600 775L600 901L592.8 901C585.7 901 571.3 901 557 901C542.7 901 528.3 901 514 901C499.7 901 485.3 901 471.2 901C457 901 443 901 428.8 901C414.7 901 400.3 901 386 901C371.7 901 357.3 901 343 901C328.7 901 314.3 901 300 901C285.7 901 271.3 901 257 901C242.7 901 228.3 901 214 901C199.7 901 185.3 901 171.2 901C157 901 143 901 128.8 901C114.7 901 100.3 901 86 901C71.7 901 57.3 901 43 901C28.7 901 14.3 901 7.2 901L0 901Z" fill="#006e8e"></path><path d="M0 821L7.2 814.7C14.3 808.3 28.7 795.7 43 785.2C57.3 774.7 71.7 766.3 86 752.3C100.3 738.3 114.7 718.7 128.8 714.2C143 709.7 157 720.3 171.2 740.5C185.3 760.7 199.7 790.3 214 789.2C228.3 788 242.7 756 257 742.8C271.3 729.7 285.7 735.3 300 735.5C314.3 735.7 328.7 730.3 343 727.3C357.3 724.3 371.7 723.7 386 720.2C400.3 716.7 414.7 710.3 428.8 711C443 711.7 457 719.3 471.2 720.2C485.3 721 499.7 715 514 728.5C528.3 742 542.7 775 557 787C571.3 799 585.7 790 592.8 785.5L600 781L600 901L592.8 901C585.7 901 571.3 901 557 901C542.7 901 528.3 901 514 901C499.7 901 485.3 901 471.2 901C457 901 443 901 428.8 901C414.7 901 400.3 901 386 901C371.7 901 357.3 901 343 901C328.7 901 314.3 901 300 901C285.7 901 271.3 901 257 901C242.7 901 228.3 901 214 901C199.7 901 185.3 901 171.2 901C157 901 143 901 128.8 901C114.7 901 100.3 901 86 901C71.7 901 57.3 901 43 901C28.7 901 14.3 901 7.2 901L0 901Z" fill="#165171"></path><path d="M0 780L7.2 783.8C14.3 787.7 28.7 795.3 43 805.8C57.3 816.3 71.7 829.7 86 833.5C100.3 837.3 114.7 831.7 128.8 830.8C143 830 157 834 171.2 821.7C185.3 809.3 199.7 780.7 214 774.8C228.3 769 242.7 786 257 797.2C271.3 808.3 285.7 813.7 300 810.3C314.3 807 328.7 795 343 795.7C357.3 796.3 371.7 809.7 386 815.5C400.3 821.3 414.7 819.7 428.8 814.3C443 809 457 800 471.2 787.7C485.3 775.3 499.7 759.7 514 752.3C528.3 745 542.7 746 557 745C571.3 744 585.7 741 592.8 739.5L600 738L600 901L592.8 901C585.7 901 571.3 901 557 901C542.7 901 528.3 901 514 901C499.7 901 485.3 901 471.2 901C457 901 443 901 428.8 901C414.7 901 400.3 901 386 901C371.7 901 357.3 901 343 901C328.7 901 314.3 901 300 901C285.7 901 271.3 901 257 901C242.7 901 228.3 901 214 901C199.7 901 185.3 901 171.2 901C157 901 143 901 128.8 901C114.7 901 100.3 901 86 901C71.7 901 57.3 901 43 901C28.7 901 14.3 901 7.2 901L0 901Z" fill="#1f3552"></path><path d="M0 800L7.2 798C14.3 796 28.7 792 43 798.7C57.3 805.3 71.7 822.7 86 829C100.3 835.3 114.7 830.7 128.8 821.2C143 811.7 157 797.3 171.2 792.3C185.3 787.3 199.7 791.7 214 797.7C228.3 803.7 242.7 811.3 257 810.7C271.3 810 285.7 801 300 807.5C314.3 814 328.7 836 343 835.2C357.3 834.3 371.7 810.7 386 810.7C400.3 810.7 414.7 834.3 428.8 839.8C443 845.3 457 832.7 471.2 826C485.3 819.3 499.7 818.7 514 816.3C528.3 814 542.7 810 557 813.8C571.3 817.7 585.7 829.3 592.8 835.2L600 841L600 901L592.8 901C585.7 901 571.3 901 557 901C542.7 901 528.3 901 514 901C499.7 901 485.3 901 471.2 901C457 901 443 901 428.8 901C414.7 901 400.3 901 386 901C371.7 901 357.3 901 343 901C328.7 901 314.3 901 300 901C285.7 901 271.3 901 257 901C242.7 901 228.3 901 214 901C199.7 901 185.3 901 171.2 901C157 901 143 901 128.8 901C114.7 901 100.3 901 86 901C71.7 901 57.3 901 43 901C28.7 901 14.3 901 7.2 901L0 901Z" fill="#1a1d32"></path><path d="M0 838L7.2 843C14.3 848 28.7 858 43 855.3C57.3 852.7 71.7 837.3 86 838.8C100.3 840.3 114.7 858.7 128.8 866.5C143 874.3 157 871.7 171.2 862.3C185.3 853 199.7 837 214 833C228.3 829 242.7 837 257 840.2C271.3 843.3 285.7 841.7 300 843C314.3 844.3 328.7 848.7 343 855.2C357.3 861.7 371.7 870.3 386 866.2C400.3 862 414.7 845 428.8 840.8C443 836.7 457 845.3 471.2 845C485.3 844.7 499.7 835.3 514 839.2C528.3 843 542.7 860 557 866.7C571.3 873.3 585.7 869.7 592.8 867.8L600 866L600 901L592.8 901C585.7 901 571.3 901 557 901C542.7 901 528.3 901 514 901C499.7 901 485.3 901 471.2 901C457 901 443 901 428.8 901C414.7 901 400.3 901 386 901C371.7 901 357.3 901 343 901C328.7 901 314.3 901 300 901C285.7 901 271.3 901 257 901C242.7 901 228.3 901 214 901C199.7 901 185.3 901 171.2 901C157 901 143 901 128.8 901C114.7 901 100.3 901 86 901C71.7 901 57.3 901 43 901C28.7 901 14.3 901 7.2 901L0 901Z" fill="#0b0015"></path></svg>