<svg id="visual" viewBox="0 0 900 600" width="900" height="600" xmlns="http://www.w3.org/2000/svg" xmlns:xlink="http://www.w3.org/1999/xlink" version="1.1"><path d="M0 162L11.5 164C23 166 46 170 69 172.5C92 175 115 176 138.2 174.2C161.3 172.3 184.7 167.7 207.8 169.8C231 172 254 181 277 192C300 203 323 216 346 207.7C369 199.3 392 169.7 415.2 174.5C438.3 179.3 461.7 218.7 484.8 224C508 229.3 531 200.7 554 181.7C577 162.7 600 153.3 623 152.7C646 152 669 160 692.2 168.5C715.3 177 738.7 186 761.8 197C785 208 808 221 831 216.5C854 212 877 190 888.5 179L900 168L900 0L888.5 0C877 0 854 0 831 0C808 0 785 0 761.8 0C738.7 0 715.3 0 692.2 0C669 0 646 0 623 0C600 0 577 0 554 0C531 0 508 0 484.8 0C461.7 0 438.3 0 415.2 0C392 0 369 0 346 0C323 0 300 0 277 0C254 0 231 0 207.8 0C184.7 0 161.3 0 138.2 0C115 0 92 0 69 0C46 0 23 0 11.5 0L0 0Z" fill="#00caa5"></path><path d="M0 231L11.5 224C23 217 46 203 69 186.2C92 169.3 115 149.7 138.2 153.3C161.3 157 184.7 184 207.8 200.2C231 216.3 254 221.7 277 212C300 202.3 323 177.7 346 168.2C369 158.7 392 164.3 415.2 173.7C438.3 183 461.7 196 484.8 189.5C508 183 531 157 554 147.2C577 137.3 600 143.7 623 144.8C646 146 669 142 692.2 148C715.3 154 738.7 170 761.8 167.3C785 164.7 808 143.3 831 146.8C854 150.3 877 178.7 888.5 192.8L900 207L900 0L888.5 0C877 0 854 0 831 0C808 0 785 0 761.8 0C738.7 0 715.3 0 692.2 0C669 0 646 0 623 0C600 0 577 0 554 0C531 0 508 0 484.8 0C461.7 0 438.3 0 415.2 0C392 0 369 0 346 0C323 0 300 0 277 0C254 0 231 0 207.8 0C184.7 0 161.3 0 138.2 0C115 0 92 0 69 0C46 0 23 0 11.5 0L0 0Z" fill="#00b8b4"></path><path d="M0 175L11.5 169.3C23 163.7 46 152.3 69 151.5C92 150.7 115 160.3 138.2 158.3C161.3 156.3 184.7 142.7 207.8 134.3C231 126 254 123 277 129.2C300 135.3 323 150.7 346 153.8C369 157 392 148 415.2 154.3C438.3 160.7 461.7 182.3 484.8 191.8C508 201.3 531 198.7 554 194.8C577 191 600 186 623 187C646 188 669 195 692.2 183.8C715.3 172.7 738.7 143.3 761.8 139.7C785 136 808 158 831 166.8C854 175.7 877 171.3 888.5 169.2L900 167L900 0L888.5 0C877 0 854 0 831 0C808 0 785 0 761.8 0C738.7 0 715.3 0 692.2 0C669 0 646 0 623 0C600 0 577 0 554 0C531 0 508 0 484.8 0C461.7 0 438.3 0 415.2 0C392 0 369 0 346 0C323 0 300 0 277 0C254 0 231 0 207.8 0C184.7 0 161.3 0 138.2 0C115 0 92 0 69 0C46 0 23 0 11.5 0L0 0Z" fill="#00a5bb"></path><path d="M0 90L11.5 96.8C23 103.7 46 117.3 69 125.5C92 133.7 115 136.3 138.2 132.8C161.3 129.3 184.7 119.7 207.8 114.3C231 109 254 108 277 119C300 130 323 153 346 152.7C369 152.3 392 128.7 415.2 121C438.3 113.3 461.7 121.7 484.8 123.2C508 124.7 531 119.3 554 123.2C577 127 600 140 623 142.3C646 144.7 669 136.3 692.2 139.5C715.3 142.7 738.7 157.3 761.8 162C785 166.7 808 161.3 831 156.7C854 152 877 148 888.5 146L900 144L900 0L888.5 0C877 0 854 0 831 0C808 0 785 0 761.8 0C738.7 0 715.3 0 692.2 0C669 0 646 0 623 0C600 0 577 0 554 0C531 0 508 0 484.8 0C461.7 0 438.3 0 415.2 0C392 0 369 0 346 0C323 0 300 0 277 0C254 0 231 0 207.8 0C184.7 0 161.3 0 138.2 0C115 0 92 0 69 0C46 0 23 0 11.5 0L0 0Z" fill="#0091b9"></path><path d="M0 106L11.5 101.2C23 96.3 46 86.7 69 85.8C92 85 115 93 138.2 93.8C161.3 94.7 184.7 88.3 207.8 94.8C231 101.3 254 120.7 277 127.3C300 134 323 128 346 123.3C369 118.7 392 115.3 415.2 110.8C438.3 106.3 461.7 100.7 484.8 98.7C508 96.7 531 98.3 554 96.8C577 95.3 600 90.7 623 87.8C646 85 669 84 692.2 83.7C715.3 83.3 738.7 83.7 761.8 84C785 84.3 808 84.7 831 85C854 85.3 877 85.7 888.5 85.8L900 86L900 0L888.5 0C877 0 854 0 831 0C808 0 785 0 761.8 0C738.7 0 715.3 0 692.2 0C669 0 646 0 623 0C600 0 577 0 554 0C531 0 508 0 484.8 0C461.7 0 438.3 0 415.2 0C392 0 369 0 346 0C323 0 300 0 277 0C254 0 231 0 207.8 0C184.7 0 161.3 0 138.2 0C115 0 92 0 69 0C46 0 23 0 11.5 0L0 0Z" fill="#007cad"></path><path d="M0 107L11.5 104.3C23 101.7 46 96.3 69 93.5C92 90.7 115 90.3 138.2 87.2C161.3 84 184.7 78 207.8 79.7C231 81.3 254 90.7 277 94C300 97.3 323 94.7 346 94.8C369 95 392 98 415.2 93.3C438.3 88.7 461.7 76.3 484.8 79.8C508 83.3 531 102.7 554 112.2C577 121.7 600 121.3 623 115.2C646 109 669 97 692.2 88.2C715.3 79.3 738.7 73.7 761.8 80C785 86.3 808 104.7 831 110C854 115.3 877 107.7 888.5 103.8L900 100L900 0L888.5 0C877 0 854 0 831 0C808 0 785 0 761.8 0C738.7 0 715.3 0 692.2 0C669 0 646 0 623 0C600 0 577 0 554 0C531 0 508 0 484.8 0C461.7 0 438.3 0 415.2 0C392 0 369 0 346 0C323 0 300 0 277 0C254 0 231 0 207.8 0C184.7 0 161.3 0 138.2 0C115 0 92 0 69 0C46 0 23 0 11.5 0L0 0Z" fill="#0067a0"></path><path d="M0 73L11.5 75.5C23 78 46 83 69 79.5C92 76 115 64 138.2 58.2C161.3 52.3 184.7 52.7 207.8 59.7C231 66.7 254 80.3 277 79.2C300 78 323 62 346 54.7C369 47.3 392 48.7 415.2 49.8C438.3 51 461.7 52 484.8 51.5C508 51 531 49 554 51.8C577 54.7 600 62.3 623 64C646 65.7 669 61.3 692.2 63C715.3 64.7 738.7 72.3 761.8 73.8C785 75.3 808 70.7 831 68.7C854 66.7 877 67.3 888.5 67.7L900 68L900 0L888.5 0C877 0 854 0 831 0C808 0 785 0 761.8 0C738.7 0 715.3 0 692.2 0C669 0 646 0 623 0C600 0 577 0 554 0C531 0 508 0 484.8 0C461.7 0 438.3 0 415.2 0C392 0 369 0 346 0C323 0 300 0 277 0C254 0 231 0 207.8 0C184.7 0 161.3 0 138.2 0C115 0 92 0 69 0C46 0 23 0 11.5 0L0 0Z" fill="#005291"></path><path d="M0 67L11.5 62.8C23 58.7 46 50.3 69 49.3C92 48.3 115 54.7 138.2 53.7C161.3 52.7 184.7 44.3 207.8 46.3C231 48.3 254 60.7 277 60.5C300 60.3 323 47.7 346 47.5C369 47.3 392 59.7 415.2 61.7C438.3 63.7 461.7 55.3 484.8 51.7C508 48 531 49 554 47.3C577 45.7 600 41.3 623 37.7C646 34 669 31 692.2 33.5C715.3 36 738.7 44 761.8 50.2C785 56.3 808 60.7 831 62.3C854 64 877 63 888.5 62.5L900 62L900 0L888.5 0C877 0 854 0 831 0C808 0 785 0 761.8 0C738.7 0 715.3 0 692.2 0C669 0 646 0 623 0C600 0 577 0 554 0C531 0 508 0 484.8 0C461.7 0 438.3 0 415.2 0C392 0 369 0 346 0C323 0 300 0 277 0C254 0 231 0 207.8 0C184.7 0 161.3 0 138.2 0C115 0 92 0 69 0C46 0 23 0 11.5 0L0 0Z" fill="#003d80"></path><path d="M0 28L11.5 27C23 26 46 24 69 24C92 24 115 26 138.2 26.7C161.3 27.3 184.7 26.7 207.8 24.5C231 22.3 254 18.7 277 19.8C300 21 323 27 346 29.8C369 32.7 392 32.3 415.2 32.3C438.3 32.3 461.7 32.7 484.8 30.7C508 28.7 531 24.3 554 24.3C577 24.3 600 28.7 623 31.2C646 33.7 669 34.3 692.2 35.2C715.3 36 738.7 37 761.8 35.5C785 34 808 30 831 27C854 24 877 22 888.5 21L900 20L900 0L888.5 0C877 0 854 0 831 0C808 0 785 0 761.8 0C738.7 0 715.3 0 692.2 0C669 0 646 0 623 0C600 0 577 0 554 0C531 0 508 0 484.8 0C461.7 0 438.3 0 415.2 0C392 0 369 0 346 0C323 0 300 0 277 0C254 0 231 0 207.8 0C184.7 0 161.3 0 138.2 0C115 0 92 0 69 0C46 0 23 0 11.5 0L0 0Z" fill="#00286d"></path></svg>