<svg id="visual" viewBox="0 0 900 600" width="900" height="600" xmlns="http://www.w3.org/2000/svg" xmlns:xlink="http://www.w3.org/1999/xlink" version="1.1"><path d="M0 514L10 518C20 522 40 530 60 523.7C80 517.3 100 496.7 120 492.8C140 489 160 502 180 505.7C200 509.3 220 503.7 240 495.7C260 487.7 280 477.3 300 475.7C320 474 340 481 360 495.2C380 509.3 400 530.7 420 527.2C440 523.7 460 495.3 480 490.3C500 485.3 520 503.7 540 513.8C560 524 580 526 600 524.5C620 523 640 518 660 514C680 510 700 507 720 503.5C740 500 760 496 780 499.5C800 503 820 514 840 523.2C860 532.3 880 539.7 890 543.3L900 547L900 601L890 601C880 601 860 601 840 601C820 601 800 601 780 601C760 601 740 601 720 601C700 601 680 601 660 601C640 601 620 601 600 601C580 601 560 601 540 601C520 601 500 601 480 601C460 601 440 601 420 601C400 601 380 601 360 601C340 601 320 601 300 601C280 601 260 601 240 601C220 601 200 601 180 601C160 601 140 601 120 601C100 601 80 601 60 601C40 601 20 601 10 601L0 601Z" fill="#00EC9E" stroke-linecap="round" stroke-linejoin="miter"></path></svg>