<svg id="visual" viewBox="0 0 600 900" width="600" height="900" xmlns="http://www.w3.org/2000/svg" xmlns:xlink="http://www.w3.org/1999/xlink" version="1.1"><path d="M0 193L5.8 201.7C11.7 210.3 23.3 227.7 35.2 239.3C47 251 59 257 70.8 247.7C82.7 238.3 94.3 213.7 106 204.2C117.7 194.7 129.3 200.3 141 206.8C152.7 213.3 164.3 220.7 176.2 222.5C188 224.3 200 220.7 211.8 214.5C223.7 208.3 235.3 199.7 247 197.2C258.7 194.7 270.3 198.3 282.2 206.3C294 214.3 306 226.7 317.8 232.7C329.7 238.7 341.3 238.3 353 225.3C364.7 212.3 376.3 186.7 388.2 182.5C400 178.3 412 195.7 423.8 204C435.7 212.3 447.3 211.7 459 200.7C470.7 189.7 482.3 168.3 494 163.7C505.7 159 517.3 171 529.2 182C541 193 553 203 564.8 201.5C576.7 200 588.3 187 594.2 180.5L600 174L600 0L594.2 0C588.3 0 576.7 0 564.8 0C553 0 541 0 529.2 0C517.3 0 505.7 0 494 0C482.3 0 470.7 0 459 0C447.3 0 435.7 0 423.8 0C412 0 400 0 388.2 0C376.3 0 364.7 0 353 0C341.3 0 329.7 0 317.8 0C306 0 294 0 282.2 0C270.3 0 258.7 0 247 0C235.3 0 223.7 0 211.8 0C200 0 188 0 176.2 0C164.3 0 152.7 0 141 0C129.3 0 117.7 0 106 0C94.3 0 82.7 0 70.8 0C59 0 47 0 35.2 0C23.3 0 11.7 0 5.8 0L0 0Z" fill="#fadb69"></path><path d="M0 130L5.8 130.3C11.7 130.7 23.3 131.3 35.2 145.5C47 159.7 59 187.3 70.8 195.7C82.7 204 94.3 193 106 181.3C117.7 169.7 129.3 157.3 141 157.2C152.7 157 164.3 169 176.2 173.8C188 178.7 200 176.3 211.8 167C223.7 157.7 235.3 141.3 247 141.2C258.7 141 270.3 157 282.2 168.8C294 180.7 306 188.3 317.8 187.2C329.7 186 341.3 176 353 172.3C364.7 168.7 376.3 171.3 388.2 173C400 174.7 412 175.3 423.8 170.7C435.7 166 447.3 156 459 159.2C470.7 162.3 482.3 178.7 494 182C505.7 185.3 517.3 175.7 529.2 165.3C541 155 553 144 564.8 138.8C576.7 133.7 588.3 134.3 594.2 134.7L600 135L600 0L594.2 0C588.3 0 576.7 0 564.8 0C553 0 541 0 529.2 0C517.3 0 505.7 0 494 0C482.3 0 470.7 0 459 0C447.3 0 435.7 0 423.8 0C412 0 400 0 388.2 0C376.3 0 364.7 0 353 0C341.3 0 329.7 0 317.8 0C306 0 294 0 282.2 0C270.3 0 258.7 0 247 0C235.3 0 223.7 0 211.8 0C200 0 188 0 176.2 0C164.3 0 152.7 0 141 0C129.3 0 117.7 0 106 0C94.3 0 82.7 0 70.8 0C59 0 47 0 35.2 0C23.3 0 11.7 0 5.8 0L0 0Z" fill="#d7e266"></path><path d="M0 149L5.8 143.3C11.7 137.7 23.3 126.3 35.2 121C47 115.7 59 116.3 70.8 117.8C82.7 119.3 94.3 121.7 106 118.8C117.7 116 129.3 108 141 111.8C152.7 115.7 164.3 131.3 176.2 130.5C188 129.7 200 112.3 211.8 108.5C223.7 104.7 235.3 114.3 247 127C258.7 139.7 270.3 155.3 282.2 155.7C294 156 306 141 317.8 132.7C329.7 124.3 341.3 122.7 353 124.8C364.7 127 376.3 133 388.2 139C400 145 412 151 423.8 150.7C435.7 150.3 447.3 143.7 459 141.2C470.7 138.7 482.3 140.3 494 143C505.7 145.7 517.3 149.3 529.2 153.3C541 157.3 553 161.7 564.8 153.2C576.7 144.7 588.3 123.3 594.2 112.7L600 102L600 0L594.2 0C588.3 0 576.7 0 564.8 0C553 0 541 0 529.2 0C517.3 0 505.7 0 494 0C482.3 0 470.7 0 459 0C447.3 0 435.7 0 423.8 0C412 0 400 0 388.2 0C376.3 0 364.7 0 353 0C341.3 0 329.7 0 317.8 0C306 0 294 0 282.2 0C270.3 0 258.7 0 247 0C235.3 0 223.7 0 211.8 0C200 0 188 0 176.2 0C164.3 0 152.7 0 141 0C129.3 0 117.7 0 106 0C94.3 0 82.7 0 70.8 0C59 0 47 0 35.2 0C23.3 0 11.7 0 5.8 0L0 0Z" fill="#aee76f"></path><path d="M0 80L5.8 78.2C11.7 76.3 23.3 72.7 35.2 73C47 73.3 59 77.7 70.8 86C82.7 94.3 94.3 106.7 106 112.8C117.7 119 129.3 119 141 113C152.7 107 164.3 95 176.2 89.3C188 83.7 200 84.3 211.8 90.2C223.7 96 235.3 107 247 106.5C258.7 106 270.3 94 282.2 89C294 84 306 86 317.8 88C329.7 90 341.3 92 353 98.3C364.7 104.7 376.3 115.3 388.2 111.5C400 107.7 412 89.3 423.8 87.3C435.7 85.3 447.3 99.7 459 101.8C470.7 104 482.3 94 494 91.7C505.7 89.3 517.3 94.7 529.2 97.8C541 101 553 102 564.8 102.3C576.7 102.7 588.3 102.3 594.2 102.2L600 102L600 0L594.2 0C588.3 0 576.7 0 564.8 0C553 0 541 0 529.2 0C517.3 0 505.7 0 494 0C482.3 0 470.7 0 459 0C447.3 0 435.7 0 423.8 0C412 0 400 0 388.2 0C376.3 0 364.7 0 353 0C341.3 0 329.7 0 317.8 0C306 0 294 0 282.2 0C270.3 0 258.7 0 247 0C235.3 0 223.7 0 211.8 0C200 0 188 0 176.2 0C164.3 0 152.7 0 141 0C129.3 0 117.7 0 106 0C94.3 0 82.7 0 70.8 0C59 0 47 0 35.2 0C23.3 0 11.7 0 5.8 0L0 0Z" fill="#7aea82"></path><path d="M0 45L5.8 45.7C11.7 46.3 23.3 47.7 35.2 46.7C47 45.7 59 42.3 70.8 45.7C82.7 49 94.3 59 106 62.2C117.7 65.3 129.3 61.7 141 60.2C152.7 58.7 164.3 59.3 176.2 60.7C188 62 200 64 211.8 61.5C223.7 59 235.3 52 247 54.3C258.7 56.7 270.3 68.3 282.2 74.5C294 80.7 306 81.3 317.8 76.7C329.7 72 341.3 62 353 56.7C364.7 51.3 376.3 50.7 388.2 50.8C400 51 412 52 423.8 53.3C435.7 54.7 447.3 56.3 459 57.8C470.7 59.3 482.3 60.7 494 58C505.7 55.3 517.3 48.7 529.2 49.7C541 50.7 553 59.3 564.8 62C576.7 64.7 588.3 61.3 594.2 59.7L600 58L600 0L594.2 0C588.3 0 576.7 0 564.8 0C553 0 541 0 529.2 0C517.3 0 505.7 0 494 0C482.3 0 470.7 0 459 0C447.3 0 435.7 0 423.8 0C412 0 400 0 388.2 0C376.3 0 364.7 0 353 0C341.3 0 329.7 0 317.8 0C306 0 294 0 282.2 0C270.3 0 258.7 0 247 0C235.3 0 223.7 0 211.8 0C200 0 188 0 176.2 0C164.3 0 152.7 0 141 0C129.3 0 117.7 0 106 0C94.3 0 82.7 0 70.8 0C59 0 47 0 35.2 0C23.3 0 11.7 0 5.8 0L0 0Z" fill="#00ec9e"></path></svg>