<!DOCTYPE svg PUBLIC "-//W3C//DTD SVG 1.1//EN" "http://www.w3.org/Graphics/SVG/1.1/DTD/svg11.dtd">

<!-- Uploaded to: SVG Repo, www.svgrepo.com, Transformed by: SVG Repo Mixer Tools -->
<svg width="30px" height="30px" viewBox="-2.4 -2.4 28.80 28.80" fill="none" xmlns="http://www.w3.org/2000/svg">

<g id="SVGRepo_bgCarrier" stroke-width="0"/>

<g id="SVGRepo_tracerCarrier" stroke-linecap="round" stroke-linejoin="round"/>

<g id="SVGRepo_iconCarrier"> <path d="M4 12H3V8C3 6.89543 3.89543 6 5 6H9M4 12V18C4 19.1046 4.89543 20 6 20H18C19.1046 20 20 19.1046 20 18V12M4 12H10M20 12H21V8C21 6.89543 20.1046 6 19 6H15M20 12H14M14 12V10H10V12M14 12V14H10V12M9 6V5C9 3.89543 9.89543 3 11 3H13C14.1046 3 15 3.89543 15 5V6M9 6H15" stroke="#ffffff" stroke-width="1.5" stroke-linecap="round" stroke-linejoin="round"/> </g>

</svg>