<svg xmlns="http://www.w3.org/2000/svg" xmlns:xlink="http://www.w3.org/1999/xlink" viewBox="0,0,256,256" width="48px" height="48px" fill-rule="nonzero"><g fill-opacity="0" fill="#ffffff" fill-rule="nonzero" stroke="none" stroke-width="1" stroke-linecap="butt" stroke-linejoin="miter" stroke-miterlimit="10" stroke-dasharray="" stroke-dashoffset="0" font-family="none" font-weight="none" font-size="none" text-anchor="none" style="mix-blend-mode: normal"><path d="M0,256v-256h256v256z" id="bgRectangle"></path></g><g fill="#ffffff" fill-rule="nonzero" stroke="none" stroke-width="1" stroke-linecap="butt" stroke-linejoin="miter" stroke-miterlimit="10" stroke-dasharray="" stroke-dashoffset="0" font-family="none" font-weight="none" font-size="none" text-anchor="none" style="mix-blend-mode: normal"><g transform="scale(4,4)"><path d="M40.227,12c10.918,0 11.773,0.854 11.773,11.773v16.453c0,10.919 -0.855,11.774 -11.773,11.774h-16.454c-10.918,0 -11.773,-0.855 -11.773,-11.773v-16.454c0,-10.919 0.855,-11.773 11.773,-11.773zM25.029,43v-16.272h-5.057v16.272zM22.501,24.401c1.625,0 2.947,-1.322 2.947,-2.949c0,-1.625 -1.322,-2.947 -2.947,-2.947c-1.629,0 -2.949,1.32 -2.949,2.947c0,1.627 1.318,2.949 2.949,2.949zM44,43v-8.925c0,-4.382 -0.946,-7.752 -6.067,-7.752c-2.46,0 -4.109,1.349 -4.785,2.628h-0.068v-2.223h-4.851v16.272h5.054v-8.05c0,-2.122 0.405,-4.178 3.036,-4.178c2.594,0 2.628,2.427 2.628,4.315v7.913z"></path></g></g></svg>