<svg id="visual" viewBox="0 0 899 1500" width="899" height="1500" xmlns="http://www.w3.org/2000/svg" xmlns:xlink="http://www.w3.org/1999/xlink" version="1.1"><rect x="0" y="0" width="899" height="1500" fill="#00286D"></rect><path d="M0 289L56 437L112 368L169 516L225 394L281 360L337 128L393 444L450 404L506 354L562 123L618 276L674 254L730 529L787 367L843 518L899 402L899 1501L843 1501L787 1501L730 1501L674 1501L618 1501L562 1501L506 1501L450 1501L393 1501L337 1501L281 1501L225 1501L169 1501L112 1501L56 1501L0 1501Z" fill="#07006e"></path><path d="M0 438L56 478L112 418L169 607L225 501L281 373L337 576L393 271L450 284L506 461L562 353L618 547L674 550L730 282L787 548L843 274L899 416L899 1501L843 1501L787 1501L730 1501L674 1501L618 1501L562 1501L506 1501L450 1501L393 1501L337 1501L281 1501L225 1501L169 1501L112 1501L56 1501L0 1501Z" fill="#002286"></path><path d="M0 661L56 535L112 589L169 536L225 416L281 654L337 540L393 678L450 621L506 454L562 499L618 358L674 641L730 533L787 349L843 566L899 600L899 1501L843 1501L787 1501L730 1501L674 1501L618 1501L562 1501L506 1501L450 1501L393 1501L337 1501L281 1501L225 1501L169 1501L112 1501L56 1501L0 1501Z" fill="#003c9b"></path><path d="M0 619L56 606L112 542L169 678L225 486L281 522L337 780L393 641L450 572L506 773L562 801L618 608L674 758L730 641L787 494L843 616L899 703L899 1501L843 1501L787 1501L730 1501L674 1501L618 1501L562 1501L506 1501L450 1501L393 1501L337 1501L281 1501L225 1501L169 1501L112 1501L56 1501L0 1501Z" fill="#0054ae"></path><path d="M0 640L56 646L112 619L169 663L225 582L281 597L337 580L393 717L450 697L506 887L562 877L618 777L674 879L730 574L787 862L843 700L899 871L899 1501L843 1501L787 1501L730 1501L674 1501L618 1501L562 1501L506 1501L450 1501L393 1501L337 1501L281 1501L225 1501L169 1501L112 1501L56 1501L0 1501Z" fill="#006dbe"></path><path d="M0 858L56 934L112 784L169 990L225 821L281 880L337 938L393 793L450 733L506 977L562 917L618 739L674 783L730 830L787 816L843 738L899 931L899 1501L843 1501L787 1501L730 1501L674 1501L618 1501L562 1501L506 1501L450 1501L393 1501L337 1501L281 1501L225 1501L169 1501L112 1501L56 1501L0 1501Z" fill="#0085cd"></path><path d="M0 915L56 1046L112 897L169 1016L225 915L281 844L337 857L393 949L450 841L506 813L562 976L618 959L674 942L730 988L787 833L843 845L899 862L899 1501L843 1501L787 1501L730 1501L674 1501L618 1501L562 1501L506 1501L450 1501L393 1501L337 1501L281 1501L225 1501L169 1501L112 1501L56 1501L0 1501Z" fill="#009dde"></path><path d="M0 1082L56 1074L112 1107L169 1110L225 1163L281 1108L337 1140L393 1171L450 1006L506 1170L562 1047L618 1143L674 1045L730 933L787 1079L843 1175L899 965L899 1501L843 1501L787 1501L730 1501L674 1501L618 1501L562 1501L506 1501L450 1501L393 1501L337 1501L281 1501L225 1501L169 1501L112 1501L56 1501L0 1501Z" fill="#00b4e0"></path><path d="M0 1053L56 1113L112 1075L169 1058L225 1154L281 1265L337 1107L393 1123L450 1168L506 1053L562 1106L618 1212L674 1244L730 1109L787 1095L843 1081L899 1129L899 1501L843 1501L787 1501L730 1501L674 1501L618 1501L562 1501L506 1501L450 1501L393 1501L337 1501L281 1501L225 1501L169 1501L112 1501L56 1501L0 1501Z" fill="#00c9d5"></path><path d="M0 1169L56 1275L112 1185L169 1270L225 1327L281 1311L337 1333L393 1192L450 1241L506 1361L562 1197L618 1304L674 1229L730 1346L787 1264L843 1212L899 1174L899 1501L843 1501L787 1501L730 1501L674 1501L618 1501L562 1501L506 1501L450 1501L393 1501L337 1501L281 1501L225 1501L169 1501L112 1501L56 1501L0 1501Z" fill="#00dcbd"></path><path d="M0 1400L56 1379L112 1352L169 1413L225 1361L281 1403L337 1433L393 1347L450 1405L506 1443L562 1453L618 1317L674 1319L730 1357L787 1419L843 1326L899 1333L899 1501L843 1501L787 1501L730 1501L674 1501L618 1501L562 1501L506 1501L450 1501L393 1501L337 1501L281 1501L225 1501L169 1501L112 1501L56 1501L0 1501Z" fill="#00ec9e"></path></svg>