<svg id="visual" viewBox="0 0 1199 1500" width="1199" height="1500" xmlns="http://www.w3.org/2000/svg" xmlns:xlink="http://www.w3.org/1999/xlink" version="1.1"><rect x="0" y="0" width="1199" height="1500" fill="#00286D"></rect><path d="M0 296L75 487L150 139L225 257L300 136L375 232L450 388L525 437L600 529L674 434L749 494L824 382L899 376L974 461L1049 368L1124 528L1199 107L1199 1501L1124 1501L1049 1501L974 1501L899 1501L824 1501L749 1501L674 1501L600 1501L525 1501L450 1501L375 1501L300 1501L225 1501L150 1501L75 1501L0 1501Z" fill="#07006e"></path><path d="M0 431L75 218L150 242L225 343L300 608L375 433L450 527L525 295L600 435L674 285L749 558L824 466L899 468L974 378L1049 282L1124 469L1199 236L1199 1501L1124 1501L1049 1501L974 1501L899 1501L824 1501L749 1501L674 1501L600 1501L525 1501L450 1501L375 1501L300 1501L225 1501L150 1501L75 1501L0 1501Z" fill="#002286"></path><path d="M0 370L75 458L150 643L225 451L300 403L375 505L450 593L525 367L600 360L674 371L749 710L824 599L899 628L974 690L1049 422L1124 377L1199 577L1199 1501L1124 1501L1049 1501L974 1501L899 1501L824 1501L749 1501L674 1501L600 1501L525 1501L450 1501L375 1501L300 1501L225 1501L150 1501L75 1501L0 1501Z" fill="#003c9b"></path><path d="M0 638L75 485L150 610L225 737L300 690L375 682L450 801L525 759L600 502L674 748L749 669L824 651L899 525L974 773L1049 554L1124 496L1199 703L1199 1501L1124 1501L1049 1501L974 1501L899 1501L824 1501L749 1501L674 1501L600 1501L525 1501L450 1501L375 1501L300 1501L225 1501L150 1501L75 1501L0 1501Z" fill="#0054ae"></path><path d="M0 717L75 579L150 898L225 789L300 785L375 685L450 715L525 606L600 713L674 670L749 753L824 582L899 735L974 742L1049 828L1124 803L1199 838L1199 1501L1124 1501L1049 1501L974 1501L899 1501L824 1501L749 1501L674 1501L600 1501L525 1501L450 1501L375 1501L300 1501L225 1501L150 1501L75 1501L0 1501Z" fill="#006dbe"></path><path d="M0 895L75 826L150 757L225 891L300 871L375 762L450 900L525 724L600 888L674 790L749 741L824 723L899 909L974 833L1049 695L1124 905L1199 824L1199 1501L1124 1501L1049 1501L974 1501L899 1501L824 1501L749 1501L674 1501L600 1501L525 1501L450 1501L375 1501L300 1501L225 1501L150 1501L75 1501L0 1501Z" fill="#0085cd"></path><path d="M0 1075L75 947L150 907L225 958L300 932L375 1025L450 1000L525 1016L600 896L674 1036L749 1054L824 837L899 930L974 1024L1049 1082L1124 842L1199 990L1199 1501L1124 1501L1049 1501L974 1501L899 1501L824 1501L749 1501L674 1501L600 1501L525 1501L450 1501L375 1501L300 1501L225 1501L150 1501L75 1501L0 1501Z" fill="#009dde"></path><path d="M0 1025L75 1176L150 935L225 945L300 1119L375 937L450 1022L525 1090L600 1022L674 993L749 950L824 1123L899 1079L974 1008L1049 991L1124 1047L1199 1177L1199 1501L1124 1501L1049 1501L974 1501L899 1501L824 1501L749 1501L674 1501L600 1501L525 1501L450 1501L375 1501L300 1501L225 1501L150 1501L75 1501L0 1501Z" fill="#00b4e0"></path><path d="M0 1212L75 1205L150 1137L225 1129L300 1205L375 1187L450 1236L525 1213L600 1258L674 1160L749 1169L824 1196L899 1143L974 1145L1049 1049L1124 1141L1199 1179L1199 1501L1124 1501L1049 1501L974 1501L899 1501L824 1501L749 1501L674 1501L600 1501L525 1501L450 1501L375 1501L300 1501L225 1501L150 1501L75 1501L0 1501Z" fill="#00c9d5"></path><path d="M0 1345L75 1300L150 1275L225 1253L300 1198L375 1348L450 1323L525 1334L600 1225L674 1324L749 1346L824 1194L899 1287L974 1342L1049 1239L1124 1336L1199 1204L1199 1501L1124 1501L1049 1501L974 1501L899 1501L824 1501L749 1501L674 1501L600 1501L525 1501L450 1501L375 1501L300 1501L225 1501L150 1501L75 1501L0 1501Z" fill="#00dcbd"></path><path d="M0 1345L75 1372L150 1297L225 1293L300 1292L375 1370L450 1328L525 1461L600 1449L674 1385L749 1330L824 1344L899 1407L974 1335L1049 1378L1124 1346L1199 1405L1199 1501L1124 1501L1049 1501L974 1501L899 1501L824 1501L749 1501L674 1501L600 1501L525 1501L450 1501L375 1501L300 1501L225 1501L150 1501L75 1501L0 1501Z" fill="#00ec9e"></path></svg>