<svg id="visual" viewBox="0 0 639 1500" width="639" height="1500" xmlns="http://www.w3.org/2000/svg" xmlns:xlink="http://www.w3.org/1999/xlink" version="1.1"><rect x="0" y="0" width="639" height="1500" fill="#00286D"></rect><path d="M0 512L49 428L98 153L147 449L197 452L246 313L295 364L344 195L393 464L442 348L492 354L541 339L590 182L639 518L639 1501L590 1501L541 1501L492 1501L442 1501L393 1501L344 1501L295 1501L246 1501L197 1501L147 1501L98 1501L49 1501L0 1501Z" fill="#07006e"></path><path d="M0 272L49 551L98 472L147 509L197 231L246 471L295 251L344 393L393 483L442 516L492 449L541 399L590 613L639 299L639 1501L590 1501L541 1501L492 1501L442 1501L393 1501L344 1501L295 1501L246 1501L197 1501L147 1501L98 1501L49 1501L0 1501Z" fill="#002286"></path><path d="M0 474L49 514L98 653L147 589L197 369L246 493L295 376L344 411L393 535L442 396L492 560L541 409L590 668L639 530L639 1501L590 1501L541 1501L492 1501L442 1501L393 1501L344 1501L295 1501L246 1501L197 1501L147 1501L98 1501L49 1501L0 1501Z" fill="#003c9b"></path><path d="M0 726L49 758L98 644L147 497L197 546L246 640L295 561L344 516L393 687L442 651L492 704L541 513L590 755L639 700L639 1501L590 1501L541 1501L492 1501L442 1501L393 1501L344 1501L295 1501L246 1501L197 1501L147 1501L98 1501L49 1501L0 1501Z" fill="#0054ae"></path><path d="M0 726L49 881L98 646L147 675L197 875L246 824L295 781L344 643L393 704L442 630L492 649L541 736L590 668L639 784L639 1501L590 1501L541 1501L492 1501L442 1501L393 1501L344 1501L295 1501L246 1501L197 1501L147 1501L98 1501L49 1501L0 1501Z" fill="#006dbe"></path><path d="M0 871L49 802L98 702L147 750L197 958L246 939L295 706L344 809L393 828L442 970L492 977L541 884L590 785L639 797L639 1501L590 1501L541 1501L492 1501L442 1501L393 1501L344 1501L295 1501L246 1501L197 1501L147 1501L98 1501L49 1501L0 1501Z" fill="#0085cd"></path><path d="M0 948L49 1037L98 1061L147 839L197 968L246 857L295 1038L344 869L393 913L442 1065L492 959L541 1001L590 959L639 1052L639 1501L590 1501L541 1501L492 1501L442 1501L393 1501L344 1501L295 1501L246 1501L197 1501L147 1501L98 1501L49 1501L0 1501Z" fill="#009dde"></path><path d="M0 1146L49 1154L98 1069L147 979L197 1111L246 952L295 967L344 1145L393 1137L442 936L492 1119L541 976L590 1034L639 951L639 1501L590 1501L541 1501L492 1501L442 1501L393 1501L344 1501L295 1501L246 1501L197 1501L147 1501L98 1501L49 1501L0 1501Z" fill="#00b4e0"></path><path d="M0 1119L49 1180L98 1126L147 1109L197 1172L246 1186L295 1261L344 1185L393 1174L442 1115L492 1187L541 1099L590 1151L639 1121L639 1501L590 1501L541 1501L492 1501L442 1501L393 1501L344 1501L295 1501L246 1501L197 1501L147 1501L98 1501L49 1501L0 1501Z" fill="#00c9d5"></path><path d="M0 1325L49 1224L98 1285L147 1267L197 1361L246 1226L295 1312L344 1278L393 1272L442 1185L492 1289L541 1309L590 1206L639 1333L639 1501L590 1501L541 1501L492 1501L442 1501L393 1501L344 1501L295 1501L246 1501L197 1501L147 1501L98 1501L49 1501L0 1501Z" fill="#00dcbd"></path><path d="M0 1416L49 1316L98 1348L147 1317L197 1315L246 1425L295 1362L344 1355L393 1409L442 1305L492 1408L541 1410L590 1378L639 1328L639 1501L590 1501L541 1501L492 1501L442 1501L393 1501L344 1501L295 1501L246 1501L197 1501L147 1501L98 1501L49 1501L0 1501Z" fill="#00ec9e"></path></svg>