<svg id="visual" viewBox="0 0 449 1500" width="449" height="1500" xmlns="http://www.w3.org/2000/svg" xmlns:xlink="http://www.w3.org/1999/xlink" version="1.1"><rect x="0" y="0" width="449" height="1500" fill="#00286D"></rect><path d="M0 368L37 140L75 192L112 344L150 470L187 340L225 385L262 222L299 474L337 140L374 252L412 326L449 409L449 1501L412 1501L374 1501L337 1501L299 1501L262 1501L225 1501L187 1501L150 1501L112 1501L75 1501L37 1501L0 1501Z" fill="#07006e"></path><path d="M0 427L37 260L75 533L112 293L150 500L187 550L225 558L262 507L299 408L337 562L374 461L412 552L449 337L449 1501L412 1501L374 1501L337 1501L299 1501L262 1501L225 1501L187 1501L150 1501L112 1501L75 1501L37 1501L0 1501Z" fill="#002286"></path><path d="M0 622L37 411L75 462L112 613L150 674L187 669L225 595L262 685L299 444L337 481L374 473L412 568L449 481L449 1501L412 1501L374 1501L337 1501L299 1501L262 1501L225 1501L187 1501L150 1501L112 1501L75 1501L37 1501L0 1501Z" fill="#003c9b"></path><path d="M0 553L37 652L75 572L112 734L150 728L187 593L225 649L262 642L299 531L337 485L374 632L412 581L449 643L449 1501L412 1501L374 1501L337 1501L299 1501L262 1501L225 1501L187 1501L150 1501L112 1501L75 1501L37 1501L0 1501Z" fill="#0054ae"></path><path d="M0 617L37 702L75 792L112 796L150 858L187 731L225 687L262 712L299 665L337 778L374 742L412 620L449 704L449 1501L412 1501L374 1501L337 1501L299 1501L262 1501L225 1501L187 1501L150 1501L112 1501L75 1501L37 1501L0 1501Z" fill="#006dbe"></path><path d="M0 767L37 950L75 775L112 835L150 918L187 816L225 962L262 869L299 816L337 862L374 804L412 818L449 751L449 1501L412 1501L374 1501L337 1501L299 1501L262 1501L225 1501L187 1501L150 1501L112 1501L75 1501L37 1501L0 1501Z" fill="#0085cd"></path><path d="M0 958L37 919L75 1012L112 874L150 955L187 908L225 863L262 1049L299 854L337 988L374 930L412 932L449 923L449 1501L412 1501L374 1501L337 1501L299 1501L262 1501L225 1501L187 1501L150 1501L112 1501L75 1501L37 1501L0 1501Z" fill="#009dde"></path><path d="M0 971L37 1158L75 1017L112 1147L150 1101L187 980L225 1147L262 969L299 1137L337 1035L374 1025L412 971L449 1100L449 1501L412 1501L374 1501L337 1501L299 1501L262 1501L225 1501L187 1501L150 1501L112 1501L75 1501L37 1501L0 1501Z" fill="#00b4e0"></path><path d="M0 1253L37 1066L75 1119L112 1242L150 1119L187 1153L225 1118L262 1129L299 1087L337 1196L374 1176L412 1242L449 1159L449 1501L412 1501L374 1501L337 1501L299 1501L262 1501L225 1501L187 1501L150 1501L112 1501L75 1501L37 1501L0 1501Z" fill="#00c9d5"></path><path d="M0 1319L37 1253L75 1240L112 1285L150 1338L187 1217L225 1244L262 1198L299 1258L337 1255L374 1339L412 1222L449 1187L449 1501L412 1501L374 1501L337 1501L299 1501L262 1501L225 1501L187 1501L150 1501L112 1501L75 1501L37 1501L0 1501Z" fill="#00dcbd"></path><path d="M0 1418L37 1412L75 1447L112 1443L150 1320L187 1352L225 1353L262 1422L299 1321L337 1379L374 1337L412 1418L449 1448L449 1501L412 1501L374 1501L337 1501L299 1501L262 1501L225 1501L187 1501L150 1501L112 1501L75 1501L37 1501L0 1501Z" fill="#00ec9e"></path></svg>