<svg xmlns="http://www.w3.org/2000/svg" xmlns:xlink="http://www.w3.org/1999/xlink" viewBox="0,0,256,256" width="64px" height="64px" fill-rule="nonzero"><g fill-opacity="0" fill="#ffffff" fill-rule="nonzero" stroke="none" stroke-width="1" stroke-linecap="butt" stroke-linejoin="miter" stroke-miterlimit="10" stroke-dasharray="" stroke-dashoffset="0" font-family="none" font-weight="none" font-size="none" text-anchor="none" style="mix-blend-mode: normal"><path d="M0,256v-256h256v256z" id="bgRectangle"></path></g><g fill="#ffffff" fill-rule="nonzero" stroke="none" stroke-width="1" stroke-linecap="butt" stroke-linejoin="miter" stroke-miterlimit="10" stroke-dasharray="" stroke-dashoffset="0" font-family="none" font-weight="none" font-size="none" text-anchor="none" style="mix-blend-mode: normal"><g transform="scale(4,4)"><path d="M61.932,15.439c-2.099,0.93 -4.356,1.55 -6.737,1.843c2.421,-1.437 4.283,-3.729 5.157,-6.437c-2.265,1.328 -4.774,2.303 -7.444,2.817c-2.132,-2.26 -5.173,-3.662 -8.542,-3.662c-6.472,0 -11.717,5.2 -11.717,11.611c0,0.907 0.106,1.791 0.306,2.649c-9.736,-0.489 -18.371,-5.117 -24.148,-12.141c-1.015,1.716 -1.586,3.726 -1.586,5.847c0,4.031 2.064,7.579 5.211,9.67c-1.921,-0.059 -3.729,-0.593 -5.312,-1.45c0,0.035 0,0.087 0,0.136c0,5.633 4.04,10.323 9.395,11.391c-0.979,0.268 -2.013,0.417 -3.079,0.417c-0.757,0 -1.494,-0.086 -2.208,-0.214c1.491,4.603 5.817,7.968 10.942,8.067c-4.01,3.109 -9.06,4.971 -14.552,4.971c-0.949,0 -1.876,-0.054 -2.793,-0.165c5.187,3.285 11.348,5.211 17.961,5.211c21.549,0 33.337,-17.696 33.337,-33.047c0,-0.503 -0.016,-1.004 -0.04,-1.499c2.301,-1.624 4.283,-3.674 5.849,-6.015"></path></g></g></svg>