<svg id="_0340_web_developer" data-name="0340_web_developer" xmlns="http://www.w3.org/2000/svg" viewBox="0 0 500 500" data-imageid="coding-5-33" imageName="Coding 5" class="illustrations_image" style="width: 187px;"><defs><style>.cls-1_coding-5-33{fill:#ffaa00;}.cls-2_coding-5-33{fill:#fadb69;}.cls-3_coding-5-33{fill:#231f20;}.cls-4_coding-5-33{fill:#68e1fd;}</style></defs><g id="Shadow_coding-5-33"><ellipse class="cls-1_coding-5-33" cx="207.99" cy="394.45" rx="124.67" ry="10.18"/></g><g id="Character_coding-5-33"><path class="cls-2_coding-5-33" d="M171.73,164a9.76,9.76,0,0,1-8.21-16c-5.34-2.47-8.18-8.79-7.79-14.66s3.5-11.27,7.35-15.71c3.19-3.68,7.18-7,12-7.91a7.64,7.64,0,0,0,2.59-.73,6.21,6.21,0,0,0,1.65-1.66c3.5-4.45,7.8-8.54,13.16-10.33s12-.77,15.56,3.6a11.77,11.77,0,0,1,19.38,10.37c7.55,1.13,14.41,6.73,16.41,14.09s-1.41,16-8.2,19.51c-.78.4-1.72.93-1.69,1.8a2.58,2.58,0,0,0,.67,1.35c2.19,3.11,1.09,7.64-1.47,10.46s-6.21,4.33-9.74,5.76c1.75,1.46,2,4.18,1.1,6.27a11.63,11.63,0,0,1-4.64,4.87c-7.78,5-17.42,3.46-26.14,3.64-8.05.17-16.05-5-21.38-10.78C171.27,166.74,170.42,164.72,171.73,164Z"/><path class="cls-3_coding-5-33" d="M203.3,179.44c-1.36,0-2.72,0-4.08-.06-1.82,0-3.72-.08-5.52,0-7.31.13-15.46-4-21.92-11a4.82,4.82,0,0,1-1.39-3.52l0-.15a10.45,10.45,0,0,1-8-16.5c-4.82-2.67-7.84-8.67-7.41-14.95.35-5.36,2.88-10.78,7.51-16.12,4-4.65,8.08-7.31,12.35-8.13l.48-.09a5.43,5.43,0,0,0,1.89-.56,5.34,5.34,0,0,0,1.41-1.43c4.39-5.59,8.81-9,13.54-10.63,5.84-1.94,12.24-.58,15.86,3.3a12.47,12.47,0,0,1,20.06,10.75c7.71,1.42,14.37,7.3,16.32,14.5,2.13,7.83-1.63,16.75-8.55,20.31-.69.35-1.32.74-1.31,1.16a1.76,1.76,0,0,0,.41.79l.13.18c2.49,3.53,1.07,8.47-1.52,11.33s-5.88,4.26-9.05,5.55a6.5,6.5,0,0,1,.53,6.29,12,12,0,0,1-4.9,5.18C215.06,178.91,209.18,179.44,203.3,179.44Zm-8-1.51c1.33,0,2.68,0,4,0,7,.15,14.21.29,20.19-3.57a10.71,10.71,0,0,0,4.38-4.56c.74-1.71.67-4.14-.91-5.45a.73.73,0,0,1-.24-.65.7.7,0,0,1,.43-.54c3.28-1.32,7-2.82,9.48-5.58,2.23-2.45,3.48-6.65,1.41-9.59l-.11-.16a2.8,2.8,0,0,1-.68-1.57c0-1.36,1.33-2.06,2.07-2.44,6.36-3.27,9.8-11.49,7.84-18.7-1.87-6.89-8.38-12.47-15.83-13.59a.7.7,0,0,1-.59-.78,11.08,11.08,0,0,0-18.24-9.75.69.69,0,0,1-1-.09c-3.15-3.84-9.23-5.23-14.78-3.38-4.47,1.49-8.67,4.8-12.84,10.1a6.82,6.82,0,0,1-1.84,1.83,6.67,6.67,0,0,1-2.37.74l-.45.08c-4,.76-7.74,3.27-11.56,7.67-4.42,5.11-6.84,10.26-7.18,15.3-.4,6,2.63,11.79,7.39,14a.73.73,0,0,1,.39.48.74.74,0,0,1-.15.61,9.06,9.06,0,0,0,7.62,14.88.69.69,0,0,1,.72.49.7.7,0,0,1-.31.81.58.58,0,0,0-.31.47,3.44,3.44,0,0,0,1,2.36c6.19,6.76,14,10.71,20.85,10.56Z"/><path class="cls-2_coding-5-33" d="M271.71,369c3.21-.06,27.1,2.59,38.29,8.15s13.61,6,11.35,13.5-22,9.35-37,6.52a101,101,0,0,1-27.65-10.05Z"/><path class="cls-3_coding-5-33" d="M298.52,399.15a77.68,77.68,0,0,1-14.25-1.38,102.37,102.37,0,0,1-27.85-10.13.65.65,0,0,1-.18-1l15-18.12a.67.67,0,0,1,.48-.23h.14c3.91,0,27.25,2.66,38.45,8.22l2.52,1.24c9,4.41,11.38,5.59,9.15,13C320.55,395.5,311.33,399.15,298.52,399.15Zm-40.8-12.25a101.33,101.33,0,0,0,26.79,9.61c15.05,2.85,34.15.81,36.23-6.07,1.92-6.39.53-7.07-8.5-11.5l-2.52-1.24c-10.67-5.31-33.52-8-37.71-8.09Z"/><path class="cls-2_coding-5-33" d="M274.92,368.91s7.5,1.78,6.46,9.74S263.48,387,262.52,387,274.92,368.91,274.92,368.91Z"/><path class="cls-3_coding-5-33" d="M262.52,387.61a.71.71,0,0,1-.61-.36c-.22-.43-.55-1.07,12.5-18.72a.63.63,0,0,1,.66-.25c.08,0,8.05,2,6.94,10.46-1.06,8.1-16.42,8.81-19.48,8.87Zm12.65-18c-4.1,5.56-10.2,14-11.73,16.65,3.84-.17,16.45-1.25,17.3-7.73A7.84,7.84,0,0,0,275.17,369.65Z"/><path class="cls-2_coding-5-33" d="M150.1,387.15c-.5.25-5.07,6.19-25,8.58s-27.38,6.68-31.83-3.81-1.39-17.26,8.45-20.25,36.94-5.48,42.26-.47S150.1,387.15,150.1,387.15Z"/><path class="cls-3_coding-5-33" d="M103.1,399.28c-4.95,0-8.13-1.65-10.44-7.1S90,382,91.67,378.4c1.57-3.37,4.88-5.84,9.83-7.35,9.22-2.8,37.21-5.68,42.89-.31,5.43,5.12,6.31,15.9,6.35,16.36a.64.64,0,0,1-.31.59l-.19.17c-5.75,5.24-16.82,7.51-25.09,8.5-4.3.52-8,1.12-11.26,1.65A73.51,73.51,0,0,1,103.1,399.28ZM129,369c-9.6,0-21.21,1.52-27.07,3.31-4.59,1.4-7.64,3.64-9,6.66-1.53,3.28-1.19,7.56,1,12.73,3.3,7.76,8.15,7,19.86,5.07,3.27-.53,7-1.13,11.3-1.65,8.09-1,18.88-3.17,24.39-8.17l.05-.05c-.19-1.83-1.35-10.89-5.92-15.2C141.45,369.72,135.7,369,129,369Z"/><path class="cls-2_coding-5-33" d="M156.47,382.86s-9.06,7.57-15.09,6.67-14.39-4.18-11-10.71,25-10.43,25-10.43Z"/><path class="cls-3_coding-5-33" d="M142.41,390.24a7.08,7.08,0,0,1-1.13-.08c-4.52-.67-10-2.61-11.74-6a5.89,5.89,0,0,1,.25-5.61c3.47-6.74,24.55-10.6,25.45-10.76a.63.63,0,0,1,.5.12.68.68,0,0,1,.25.46l1.12,14.47a.62.62,0,0,1-.23.54C156.53,383.65,148.55,390.24,142.41,390.24Zm12.36-21.09c-3.71.73-21,4.41-23.84,10a4.61,4.61,0,0,0-.25,4.43c1.53,3,6.58,4.73,10.79,5.36,5.14.77,12.85-5.14,14.34-6.32Z"/><path class="cls-3_coding-5-33" d="M265.27,319.35s-9.54,37.25-44.4,44.37-52.87,5.22-65.22-18.3-4.17-37.91-4.17-37.91l110-2.18Z"/><path class="cls-3_coding-5-33" d="M192.14,368.07c-16.87,0-28.47-5.86-37.11-22.32-12.38-23.58-4.5-38-4.16-38.58a.7.7,0,0,1,.59-.36l110-2.18a.68.68,0,0,1,.69.52l3.81,14a.63.63,0,0,1,0,.36c-.1.37-10,37.76-44.94,44.87C209.94,366.66,200.41,368.07,192.14,368.07ZM151.91,308.2c-1.09,2.31-6.61,16,4.36,36.9C168.81,369,187.05,369.91,220.73,363c32.81-6.69,43-40.92,43.81-43.68L260.93,306Z"/><path class="cls-4_coding-5-33 targetColor" d="M143.18,319.69s-18-58.23-15.65-94.73,15.93-37.79,34.44-39.87c8.22-.92,52-7.4,68.38,11.89s45.26,109.66,45.26,109.66Z" style="fill: rgb(38, 0, 61);"/><path class="cls-2_coding-5-33" d="M208.27,185.2l-2.83,19.49s-6.13,10.06-18.42,5-12.51-14.49-12.51-14.49l5.83-36s12.94-11.61,18.39-33.81c0,0,10.85,18.93,26.58,23.17,0,0-1.06,15.73-3.87,25.47C218.72,183.41,208.47,185.08,208.27,185.2Z"/><path class="cls-3_coding-5-33" d="M193.68,211.79a18,18,0,0,1-6.92-1.49c-12.56-5.21-12.94-14.72-12.95-15.12L179.65,159a.78.78,0,0,1,.22-.41c.13-.12,12.85-11.74,18.18-33.46a.71.71,0,0,1,.58-.53.73.73,0,0,1,.71.35c.1.19,10.89,18.73,26.15,22.85a.7.7,0,0,1,.52.72c0,.16-1.1,15.92-3.9,25.61-2.31,8-9.83,10.75-13.21,11.59l-2.77,19a.64.64,0,0,1-.1.26C206,205.13,201.81,211.79,193.68,211.79ZM181,159.5l-5.8,35.77c0,.24.41,8.89,12.09,13.74,10.91,4.52,16.77-3.52,17.48-4.58l2.81-19.34a.71.71,0,0,1,.34-.5,1.67,1.67,0,0,1,.42-.14c3-.71,10.27-3.19,12.43-10.67,2.46-8.51,3.58-21.85,3.8-24.75-13.17-3.86-22.72-17.42-25.57-21.91C193.72,146.82,182.57,158,181,159.5Zm24.44,45.18h0Z"/><path class="cls-2_coding-5-33" d="M187.93,159.7a8.52,8.52,0,0,0-2.13-4.9,15,15,0,0,0-4.12-3,6.27,6.27,0,0,0-2.62-.91,5.13,5.13,0,0,0-1.92.38,6.51,6.51,0,0,0-3.59,2.74,7.84,7.84,0,0,0-.74,3.62,15.6,15.6,0,0,0,.37,4,10.25,10.25,0,0,0,12.57,7.39"/><path class="cls-3_coding-5-33" d="M183.13,170.14a10.94,10.94,0,0,1-10.62-8.26,15.9,15.9,0,0,1-.4-4.22,8.47,8.47,0,0,1,.83-3.95,7.16,7.16,0,0,1,4-3.06,6.32,6.32,0,0,1,2.19-.42,6.77,6.77,0,0,1,2.92,1,15.53,15.53,0,0,1,4.31,3.11,9.1,9.1,0,0,1,2.3,5.31.69.69,0,0,1-.63.76.72.72,0,0,1-.76-.64,7.75,7.75,0,0,0-1.95-4.5,14.33,14.33,0,0,0-3.93-2.8,5.58,5.58,0,0,0-2.31-.83,4.52,4.52,0,0,0-1.66.33,5.94,5.94,0,0,0-3.21,2.43,7,7,0,0,0-.66,3.29,14.55,14.55,0,0,0,.35,3.86,9.54,9.54,0,0,0,11.71,6.88.71.71,0,0,1,.85.5.69.69,0,0,1-.49.85A10.66,10.66,0,0,1,183.13,170.14Z"/><path class="cls-2_coding-5-33" d="M205.53,154.14s5.5,10.86,3.69,12.41-6.14-.15-6.14-.15"/><path class="cls-3_coding-5-33" d="M207,167.9a12.63,12.63,0,0,1-4.14-.85.69.69,0,0,1-.4-.9.71.71,0,0,1,.91-.4c1,.4,4.22,1.31,5.43.27.73-.63-1.11-6.13-3.86-11.56a.7.7,0,1,1,1.25-.63c1.73,3.41,5.53,11.53,3.52,13.25A4.09,4.09,0,0,1,207,167.9Z"/><ellipse class="cls-3_coding-5-33" cx="197.02" cy="151.57" rx="2.36" ry="1.67" transform="translate(29.95 335.62) rotate(-85.34)"/><ellipse class="cls-3_coding-5-33" cx="214.38" cy="153.97" rx="2.36" ry="1.67" transform="translate(44.9 356.31) rotate(-85.74)"/><path class="cls-3_coding-5-33" d="M204.1,176.58a13.3,13.3,0,0,1-6.18-1.38c-3.35-1.75-5.49-5.09-6.37-9.94a.7.7,0,0,1,1.38-.25c.8,4.4,2.69,7.41,5.63,9,5.88,3.07,14.16-.65,14.24-.69a.71.71,0,0,1,.93.35.7.7,0,0,1-.35.92A24.67,24.67,0,0,1,204.1,176.58Z"/><path class="cls-3_coding-5-33" d="M208.27,185.2s-12.53,1-19.08-4.09c0,0,5.52,17.49,17.14,17.45Z"/><path class="cls-3_coding-5-33" d="M206.28,199.26c-12,0-17.53-17.21-17.76-17.94a.69.69,0,0,1,.27-.79.71.71,0,0,1,.83,0c6.26,4.89,18.47,3.95,18.6,3.94a.67.67,0,0,1,.56.22.68.68,0,0,1,.19.58L207,198.66A.75.75,0,0,1,206.28,199.26Zm-15.69-16.38c1.79,4.37,6.82,14.52,15.14,15L207.46,186C204.74,186.07,196.42,186.14,190.59,182.88Z"/><path class="cls-4_coding-5-33 targetColor" d="M148.17,188.34c-25.86-3.21-50.14,106.56-36,117,22,16.29,89.19-5.95,89.19-5.95l-6.73-29s-48.48,2.31-49.37-7.64,27.1-56.61,23.18-63.42S148.17,188.34,148.17,188.34Z" style="fill: rgb(38, 0, 61);"/><path class="cls-3_coding-5-33" d="M238.49,271.23a.63.63,0,0,1-.63-.55c-3.34-23.4-10.63-62.6-13-64.91a.64.64,0,1,1,.89-.91c3,2.95,10.85,47.91,13.37,65.64a.63.63,0,0,1-.54.72Z"/><polygon class="cls-2_coding-5-33" points="213.72 326.61 169.08 314.11 251.05 298.69 295.41 317.29 213.72 326.61"/><path class="cls-3_coding-5-33" d="M213.72,327.31l-.19,0-44.63-12.5a.7.7,0,0,1,0-1.36l82-15.43a.79.79,0,0,1,.4,0l44.36,18.6a.68.68,0,0,1,.42.74.69.69,0,0,1-.61.6l-81.69,9.33Zm-41.56-13.06,41.61,11.65,78.9-9L251,299.42Z"/><path class="cls-2_coding-5-33" d="M187.38,280.43c9.75,1.08,18.89,1.77,28.05,5.6a68.32,68.32,0,0,1,14.64,8.37,46.77,46.77,0,0,1,6.43,5.48c1.58,1.71,1.06,3.37-1.57,2.55a31.53,31.53,0,0,1-8.58-4.2A91.36,91.36,0,0,1,243,316c.53.75,1,1.83.42,2.51s-2,0-2.82-.7l-13.84-13.13a43.64,43.64,0,0,1,9.22,11.08c.35.6.69,1.36.33,1.95-.62,1-2.19.25-3-.6A101.67,101.67,0,0,1,222,303.5l7.48,11.23a1.65,1.65,0,0,1-2.12,1,4.88,4.88,0,0,1-2.05-1.62l-9.07-10.41,5.36,7.36c.84,1.16,1.68,2.83.71,3.89-1.14,1.24-3.15,0-4.39-1.11a90.35,90.35,0,0,0-16.22-11.79c-2.11-1.24-3.91-2.94-6.25-3.65-3.37-1-7.56-.91-11.06-1.29"/><path class="cls-3_coding-5-33" d="M242.58,319.46a4.05,4.05,0,0,1-2.46-1.21L235.64,314c.29.47.58.94.86,1.42a2.61,2.61,0,0,1,.32,2.6,1.62,1.62,0,0,1-1.21.79,3.84,3.84,0,0,1-2.82-1.27c-.92-.93-1.82-1.87-2.7-2.84a.86.86,0,0,1,0,.16,1.89,1.89,0,0,1-.9,1.25,2.58,2.58,0,0,1-2,.26,5.31,5.31,0,0,1-2.35-1.82l-1.66-1.89a2.6,2.6,0,0,1-.39,2.75,2.25,2.25,0,0,1-1.59.74c-1.54.06-3.1-1.24-3.7-1.81a89.61,89.61,0,0,0-16.11-11.71c-.72-.42-1.4-.89-2.07-1.36a15.23,15.23,0,0,0-4.05-2.23,32.79,32.79,0,0,0-7.47-1c-1.19-.07-2.36-.14-3.47-.26a.65.65,0,0,1-.57-.71.63.63,0,0,1,.71-.56c1.08.11,2.24.18,3.41.25a34.11,34.11,0,0,1,7.76,1.05,16.16,16.16,0,0,1,4.4,2.41c.66.45,1.31.91,2,1.31a90,90,0,0,1,16.33,11.88,5.11,5.11,0,0,0,2.78,1.46,1,1,0,0,0,.7-.32c.74-.82-.28-2.43-.76-3.09l-5.35-7.35a.64.64,0,0,1,1-.79l9.06,10.4a4.1,4.1,0,0,0,1.76,1.42,1.29,1.29,0,0,0,1-.12.71.71,0,0,0,.22-.2l-7.3-11a.63.63,0,0,1,.17-.88.64.64,0,0,1,.89.16,101.08,101.08,0,0,0,11.2,13.5,2.8,2.8,0,0,0,1.76.9.33.33,0,0,0,.26-.18c.15-.24,0-.67-.33-1.3a43,43,0,0,0-6-8l-3.12-3a.63.63,0,0,1,0-.89.64.64,0,0,1,.89-.06,43,43,0,0,1,3.17,3L241,317.32a2.62,2.62,0,0,0,1.6.86.39.39,0,0,0,.31-.13c.31-.34,0-1.1-.47-1.71a90.71,90.71,0,0,0-16.5-17.62.64.64,0,0,1-.1-.88.63.63,0,0,1,.87-.14,31,31,0,0,0,8.41,4.12c1,.31,1.49.18,1.59,0s0-.79-.68-1.52a45.63,45.63,0,0,0-6.34-5.41,67.68,67.68,0,0,0-14.5-8.29c-8.22-3.44-16.44-4.32-25.15-5.26l-2.73-.3a.64.64,0,1,1,.14-1.27l2.73.3c8.8,1,17.11,1.84,25.5,5.35a69,69,0,0,1,14.78,8.45,46.55,46.55,0,0,1,6.51,5.56c1,1.1,1.33,2.28.82,3.08-.29.45-1.08,1.13-3,.51a32.89,32.89,0,0,1-3.35-1.26,91.92,91.92,0,0,1,12.09,13.82c1,1.35,1.09,2.53.37,3.31a1.67,1.67,0,0,1-1.2.55Z"/><polygon class="cls-2_coding-5-33" points="295.41 317.29 315.84 262.62 232.42 264.27 213.72 326.61 295.41 317.29"/><path class="cls-3_coding-5-33" d="M213.72,327.31a.69.69,0,0,1-.67-.9l18.7-62.34a.71.71,0,0,1,.66-.5l83.42-1.65a.67.67,0,0,1,.58.29.69.69,0,0,1,.09.65l-20.43,54.67a.71.71,0,0,1-.58.45l-81.69,9.33ZM232.94,265,214.69,325.8l80.22-9.16,19.91-53.3Zm62.47,52.33h0Z"/><path class="cls-3_coding-5-33" d="M291,317.79S313.6,336.18,305.59,353,153.1,389.14,153.1,389.14l-6.52-22S260,309.19,291,317.79Z"/><path class="cls-3_coding-5-33" d="M153.1,389.84a.71.71,0,0,1-.68-.5l-6.51-22a.7.7,0,0,1,.35-.83c.28-.14,28.75-14.64,60.63-27.91,42.92-17.85,71.27-25.07,84.26-21.46a.79.79,0,0,1,.26.13,61.57,61.57,0,0,1,10.45,11.44c6.24,9,7.75,17.51,4.36,24.64-8.08,17-147.12,35.72-153,36.51Zm-5.69-22.36,6.19,20.89C163.71,387,297.45,368.52,305,352.73c7.4-15.56-12.64-32.88-14.33-34.3C261.16,310.5,155.77,363.25,147.41,367.48Z"/><path class="cls-3_coding-5-33" d="M139.06,309.34s112.32,45.42,140.18,57.39l-16.2,25s-103.72-2-133.46-28.09S101.83,294.25,139.06,309.34Z"/><path class="cls-3_coding-5-33" d="M263,392.48h0c-.26,0-26.3-.55-55.65-4.28-39.48-5-65.81-13.08-78.25-24-15.56-13.64-26.47-37.58-17.9-51.49,2.84-4.61,10.28-11.27,28.11-4h0c1.12.46,112.64,45.57,140.18,57.4a.7.7,0,0,1,.4.44.66.66,0,0,1-.09.58l-16.2,25.05A.7.7,0,0,1,263,392.48ZM125.26,306.92c-5.76,0-10.16,2.2-12.85,6.55-6.61,10.74-1.11,33.27,17.64,49.7,28.29,24.79,125.63,27.72,132.61,27.9l15.54-24C249.44,354.74,139.91,310.44,138.8,310h0A36.84,36.84,0,0,0,125.26,306.92Z"/><path class="cls-2_coding-5-33" d="M295.81,295.46a4.06,4.06,0,0,0,.8,1.77l2.19,3.25a2.35,2.35,0,0,0-3.24-1.61,3.81,3.81,0,0,0-2,3.45,10.8,10.8,0,0,0,1,4.07c1.55,4,5.07,9.93,10.15,6.88,3.45-2.08,4.4-9.39,4.89-13,1-7.17-1.23-16.38-10.45-15a17.78,17.78,0,0,0,3.79,9.67C301.43,293.48,295.39,291.23,295.81,295.46Z"/><path class="cls-3_coding-5-33" d="M301.91,314.76a5.18,5.18,0,0,1-1.64-.28c-3.32-1.14-5.39-5.41-6.34-7.86a11.52,11.52,0,0,1-1-4.31,4.41,4.41,0,0,1,2.4-4,2.79,2.79,0,0,1,1.08-.23l-.31-.46a4.57,4.57,0,0,1-.91-2.07,2.53,2.53,0,0,1,1.32-2.84c1.15-.55,2.87-.26,4.34.32a18.2,18.2,0,0,1-2.35-7.68.65.65,0,0,1,.55-.68c3.27-.5,6,.24,7.94,2.19,3.29,3.24,3.83,9.1,3.23,13.51-.54,4-1.52,11.27-5.19,13.48A6.05,6.05,0,0,1,301.91,314.76Zm-5.43-15.44a1.63,1.63,0,0,0-.66.14,3.19,3.19,0,0,0-1.63,2.87,10.17,10.17,0,0,0,.94,3.83c.69,1.8,2.62,6.1,5.55,7.11a4.23,4.23,0,0,0,3.67-.55c3.14-1.89,4.1-9,4.56-12.42.58-4.24.12-9.65-2.84-12.56a7.38,7.38,0,0,0-6.25-1.91,17.12,17.12,0,0,0,3.59,8.72.63.63,0,0,1-.08.87.63.63,0,0,1-.87,0c-.94-.92-4-2.23-5.42-1.57-.31.15-.71.47-.6,1.56h0a3.6,3.6,0,0,0,.7,1.48l1.17,1.74a2.52,2.52,0,0,1,1.13,1.81.65.65,0,0,1-.42.67.65.65,0,0,1-.75-.25l-.87-1.29A2,2,0,0,0,296.48,299.32Z"/><path class="cls-2_coding-5-33" d="M264.3,361.57a.63.63,0,0,1-.26-.05c-2.45-.95-60.35-23.36-73.39-31.36a.72.72,0,1,1,.75-1.23c12.93,7.93,72.56,31,73.16,31.24a.73.73,0,0,1,.42.94A.72.72,0,0,1,264.3,361.57Z"/><ellipse class="cls-3_coding-5-33" cx="196.78" cy="248.26" rx="23.12" ry="21.88"/><path class="cls-3_coding-5-33" d="M196.78,270.84c-13.13,0-23.82-10.13-23.82-22.58s10.69-22.57,23.82-22.57,23.81,10.13,23.81,22.57S209.91,270.84,196.78,270.84Zm0-43.75c-12.36,0-22.42,9.5-22.42,21.17s10.06,21.18,22.42,21.18,22.41-9.5,22.41-21.18S209.14,227.09,196.78,227.09Z"/><path class="cls-2_coding-5-33" d="M184.58,255.38,179,252.1v-4.32l5.55-3.28,5.55-3.27v5.23c-1,.62-2,1.22-3,1.79s-2,1.16-3,1.79l3,1.66,3,1.66v5.29Z"/><path class="cls-2_coding-5-33" d="M191.76,260l6.6-25.1,3.44,1.55-6.62,25.1Z"/><path class="cls-2_coding-5-33" d="M209,244.5l5.55,3.28v4.32L209,255.38l-5.55,3.27v-5.29l3-1.66,3-1.66c-1-.63-2-1.22-3-1.79s-2-1.17-3-1.79v-5.23Q206.21,242.88,209,244.5Z"/><path class="cls-3_coding-5-33" d="M148.82,309.08a.69.69,0,0,1-.69-.62.7.7,0,0,1,.61-.78l33.55-4.08,5.34-26.88-43-3.57a.72.72,0,0,1-.51-.3.67.67,0,0,1-.1-.58l17.69-65.89a.7.7,0,0,1,1.35.36l-17.48,65.08,42.93,3.57a.68.68,0,0,1,.51.27.7.7,0,0,1,.12.56l-5.58,28.16a.7.7,0,0,1-.6.55l-34.06,4.14Z"/></g><g id="LIne_of_Code_coding-5-33" data-name="LIne of Code"><rect class="cls-1_coding-5-33" x="264.07" y="119.03" width="69.81" height="7.22"/><rect class="cls-1_coding-5-33" x="342" y="119.03" width="69.81" height="7.22"/><rect class="cls-4_coding-5-33 targetColor" x="292.9" y="131.41" width="40.98" height="7.22" style="fill: rgb(38, 0, 61);"/><rect class="cls-1_coding-5-33" x="342" y="131.41" width="62" height="7.22"/><rect class="cls-1_coding-5-33" x="282.23" y="143.79" width="51.65" height="7.22"/><rect class="cls-1_coding-5-33" x="342" y="143.79" width="29.11" height="7.22"/><rect class="cls-1_coding-5-33" x="303.76" y="156.18" width="30.12" height="7.22"/><rect class="cls-4_coding-5-33 targetColor" x="342" y="156.18" width="57.04" height="7.22" style="fill: rgb(38, 0, 61);"/><rect class="cls-4_coding-5-33 targetColor" x="324.28" y="168.56" width="9.6" height="7.22" style="fill: rgb(38, 0, 61);"/><rect class="cls-1_coding-5-33" x="342" y="168.56" width="38.31" height="7.22"/><rect class="cls-4_coding-5-33 targetColor" x="268.52" y="219.46" width="64.15" height="8.27" style="fill: rgb(38, 0, 61);"/><rect class="cls-1_coding-5-33" x="342.98" y="219.46" width="39.4" height="8.27"/><rect class="cls-1_coding-5-33" x="280.58" y="233.64" width="52.08" height="8.27"/><rect class="cls-1_coding-5-33" x="342.98" y="233.64" width="57.36" height="8.27"/><rect class="cls-1_coding-5-33" x="306.62" y="247.82" width="26.04" height="8.27"/><rect class="cls-1_coding-5-33" x="342.98" y="247.82" width="68.2" height="8.27"/><rect class="cls-1_coding-5-33" x="322.9" y="262" width="9.76" height="8.27"/><rect class="cls-4_coding-5-33 targetColor" x="342.98" y="262" width="72.5" height="8.27" style="fill: rgb(38, 0, 61);"/><rect class="cls-1_coding-5-33" x="342.98" y="276.17" width="48.69" height="8.27"/><path class="cls-1_coding-5-33" d="M367.65,201.52l-5.26-2.1v-2.76l5.26-2.1,5.27-2.1v3.35c-.95.4-1.89.78-2.83,1.15s-1.88.74-2.83,1.14l2.83,1.07,2.83,1.06v3.39Z"/><path class="cls-1_coding-5-33" d="M374.47,204.5l6.25-16.06,3.27,1-6.28,16.06Z"/><path class="cls-1_coding-5-33" d="M390.8,194.56l5.27,2.1v2.76l-5.27,2.1-5.26,2.1v-3.39l2.82-1.06,2.83-1.07c-.95-.4-1.89-.78-2.83-1.14s-1.87-.75-2.82-1.15v-3.35Z"/><path class="cls-1_coding-5-33" d="M265.91,101.81a2.33,2.33,0,0,1,.2-.94,2.4,2.4,0,0,1,.55-.77,2.46,2.46,0,0,1,.8-.52,2.72,2.72,0,0,1,1-.19,2.59,2.59,0,0,1,.94.19,2.48,2.48,0,0,1,.78.52,2.54,2.54,0,0,1,.54.77,2.33,2.33,0,0,1,0,1.89,2.57,2.57,0,0,1-.54.75,2.63,2.63,0,0,1-.78.51,2.57,2.57,0,0,1-.94.18,2.72,2.72,0,0,1-1-.18,2.61,2.61,0,0,1-.8-.51,2.43,2.43,0,0,1-.55-.75A2.31,2.31,0,0,1,265.91,101.81Zm0,8.21a2.3,2.3,0,0,1,.2-.94,2.4,2.4,0,0,1,.55-.77,2.46,2.46,0,0,1,.8-.52,2.72,2.72,0,0,1,1-.19,2.59,2.59,0,0,1,.94.19,2.48,2.48,0,0,1,.78.52,2.54,2.54,0,0,1,.54.77,2.33,2.33,0,0,1,0,1.89,2.57,2.57,0,0,1-.54.75,2.43,2.43,0,0,1-.78.5,2.39,2.39,0,0,1-.94.19,2.53,2.53,0,0,1-1-.19,2.48,2.48,0,0,1-1.35-1.25A2.31,2.31,0,0,1,265.91,110Z"/></g><g id="Screen_coding-5-33"><rect class="cls-2_coding-5-33" x="327.33" y="298.9" width="88.65" height="72.23"/><path class="cls-1_coding-5-33" d="M416,371.83H327.33a.7.7,0,0,1-.7-.7V298.9a.7.7,0,0,1,.7-.7H416a.7.7,0,0,1,.7.7v72.23A.7.7,0,0,1,416,371.83Zm-88-1.4h87.25V299.6H328Z"/><path class="cls-1_coding-5-33" d="M416,308.87H327.33a.7.7,0,0,1,0-1.4H416a.7.7,0,1,1,0,1.4Z"/><path class="cls-1_coding-5-33" d="M347.69,337.37a2.51,2.51,0,0,0,1.56-.44,2.31,2.31,0,0,0,.58-1.86v-4.34a8.29,8.29,0,0,1,.27-2.13,5.24,5.24,0,0,1,.87-1.79,4.31,4.31,0,0,1,1.52-1.24,5,5,0,0,1,2.23-.46h3.16v4.51h-1.12a1.34,1.34,0,0,0-1.3.62,2.76,2.76,0,0,0-.34,1.35V336a4,4,0,0,1-.3,1.63,3.6,3.6,0,0,1-.71,1.1,2.82,2.82,0,0,1-.9.66,2.66,2.66,0,0,1-.89.26v.07a3.75,3.75,0,0,1,.89.28,2.62,2.62,0,0,1,.9.64,3.6,3.6,0,0,1,.71,1.1,4,4,0,0,1,.3,1.63v4.43a2.71,2.71,0,0,0,.34,1.35,1.34,1.34,0,0,0,1.3.63h1.12v4.5h-3.16a4.87,4.87,0,0,1-2.23-.46,4.39,4.39,0,0,1-1.52-1.23,5.38,5.38,0,0,1-.87-1.8,8.23,8.23,0,0,1-.27-2.13v-4.34a2.31,2.31,0,0,0-.58-1.86,2.51,2.51,0,0,0-1.56-.44Z"/><path class="cls-1_coding-5-33" d="M396,342a2.51,2.51,0,0,0-1.56.44,2.31,2.31,0,0,0-.58,1.86v4.34a7.82,7.82,0,0,1-.28,2.13,5,5,0,0,1-.87,1.8,4.26,4.26,0,0,1-1.51,1.23,4.9,4.9,0,0,1-2.23.46h-3.16v-4.5h1.12a1.35,1.35,0,0,0,1.3-.63,2.71,2.71,0,0,0,.34-1.35v-4.43a4,4,0,0,1,.3-1.63,3.78,3.78,0,0,1,.7-1.1,2.75,2.75,0,0,1,.91-.64,3.75,3.75,0,0,1,.89-.28v-.07a2.66,2.66,0,0,1-.89-.26,3,3,0,0,1-.91-.66,3.78,3.78,0,0,1-.7-1.1,4,4,0,0,1-.3-1.63v-4.43a2.76,2.76,0,0,0-.34-1.35,1.35,1.35,0,0,0-1.3-.62h-1.12v-4.51H389a5,5,0,0,1,2.23.46,4.18,4.18,0,0,1,1.51,1.24,4.9,4.9,0,0,1,.87,1.79,7.88,7.88,0,0,1,.28,2.13v4.34a2.31,2.31,0,0,0,.58,1.86,2.51,2.51,0,0,0,1.56.44Z"/></g></svg>