<svg id="visual" viewBox="0 0 1199 200" width="1199" height="200" xmlns="http://www.w3.org/2000/svg" xmlns:xlink="http://www.w3.org/1999/xlink" version="1.1"><path d="M0 137L52 73L104 150L156 183L209 149L261 189L313 192L365 146L417 93L469 169L521 74L573 106L626 86L678 77L730 157L782 105L834 95L886 143L938 162L990 93L1043 94L1095 86L1147 169L1199 102L1199 0L1147 0L1095 0L1043 0L990 0L938 0L886 0L834 0L782 0L730 0L678 0L626 0L573 0L521 0L469 0L417 0L365 0L313 0L261 0L209 0L156 0L104 0L52 0L0 0Z" fill="#fadb69"></path><path d="M0 166L52 105L104 143L156 117L209 116L261 170L313 159L365 141L417 141L469 102L521 139L573 148L626 151L678 142L730 109L782 183L834 177L886 132L938 135L990 108L1043 163L1095 101L1147 90L1199 89L1199 0L1147 0L1095 0L1043 0L990 0L938 0L886 0L834 0L782 0L730 0L678 0L626 0L573 0L521 0L469 0L417 0L365 0L313 0L261 0L209 0L156 0L104 0L52 0L0 0Z" fill="#eede67"></path><path d="M0 122L52 101L104 160L156 74L209 122L261 68L313 94L365 143L417 167L469 102L521 102L573 79L626 141L678 166L730 81L782 100L834 72L886 102L938 112L990 118L1043 154L1095 107L1147 75L1199 107L1199 0L1147 0L1095 0L1043 0L990 0L938 0L886 0L834 0L782 0L730 0L678 0L626 0L573 0L521 0L469 0L417 0L365 0L313 0L261 0L209 0L156 0L104 0L52 0L0 0Z" fill="#e1e066"></path><path d="M0 53L52 142L104 107L156 105L209 81L261 121L313 145L365 147L417 134L469 117L521 101L573 70L626 144L678 98L730 95L782 53L834 65L886 105L938 142L990 62L1043 96L1095 74L1147 50L1199 117L1199 0L1147 0L1095 0L1043 0L990 0L938 0L886 0L834 0L782 0L730 0L678 0L626 0L573 0L521 0L469 0L417 0L365 0L313 0L261 0L209 0L156 0L104 0L52 0L0 0Z" fill="#d4e266"></path><path d="M0 71L52 125L104 91L156 57L209 57L261 76L313 132L365 117L417 88L469 119L521 64L573 79L626 55L678 75L730 90L782 80L834 61L886 78L938 134L990 100L1043 51L1095 132L1147 47L1199 47L1199 0L1147 0L1095 0L1043 0L990 0L938 0L886 0L834 0L782 0L730 0L678 0L626 0L573 0L521 0L469 0L417 0L365 0L313 0L261 0L209 0L156 0L104 0L52 0L0 0Z" fill="#c5e469"></path><path d="M0 40L52 111L104 74L156 79L209 60L261 51L313 77L365 52L417 92L469 109L521 102L573 61L626 39L678 54L730 70L782 109L834 71L886 69L938 49L990 76L1043 81L1095 110L1147 64L1199 65L1199 0L1147 0L1095 0L1043 0L990 0L938 0L886 0L834 0L782 0L730 0L678 0L626 0L573 0L521 0L469 0L417 0L365 0L313 0L261 0L209 0L156 0L104 0L52 0L0 0Z" fill="#b6e66d"></path><path d="M0 67L52 53L104 52L156 71L209 60L261 61L313 63L365 70L417 96L469 58L521 75L573 85L626 93L678 42L730 88L782 106L834 79L886 69L938 57L990 39L1043 104L1095 32L1147 104L1199 73L1199 0L1147 0L1095 0L1043 0L990 0L938 0L886 0L834 0L782 0L730 0L678 0L626 0L573 0L521 0L469 0L417 0L365 0L313 0L261 0L209 0L156 0L104 0L52 0L0 0Z" fill="#a6e872"></path><path d="M0 42L52 81L104 28L156 36L209 56L261 58L313 87L365 67L417 55L469 34L521 31L573 24L626 51L678 91L730 90L782 45L834 51L886 68L938 71L990 33L1043 81L1095 83L1147 70L1199 38L1199 0L1147 0L1095 0L1043 0L990 0L938 0L886 0L834 0L782 0L730 0L678 0L626 0L573 0L521 0L469 0L417 0L365 0L313 0L261 0L209 0L156 0L104 0L52 0L0 0Z" fill="#94e978"></path><path d="M0 72L52 28L104 67L156 23L209 54L261 27L313 58L365 47L417 43L469 71L521 61L573 60L626 23L678 33L730 28L782 26L834 46L886 49L938 44L990 50L1043 31L1095 30L1147 57L1199 74L1199 0L1147 0L1095 0L1043 0L990 0L938 0L886 0L834 0L782 0L730 0L678 0L626 0L573 0L521 0L469 0L417 0L365 0L313 0L261 0L209 0L156 0L104 0L52 0L0 0Z" fill="#80ea80"></path><path d="M0 23L52 58L104 39L156 28L209 53L261 42L313 59L365 37L417 56L469 28L521 39L573 55L626 17L678 31L730 59L782 34L834 13L886 14L938 57L990 60L1043 23L1095 50L1147 56L1199 27L1199 0L1147 0L1095 0L1043 0L990 0L938 0L886 0L834 0L782 0L730 0L678 0L626 0L573 0L521 0L469 0L417 0L365 0L313 0L261 0L209 0L156 0L104 0L52 0L0 0Z" fill="#68eb89"></path><path d="M0 32L52 30L104 40L156 19L209 13L261 40L313 18L365 13L417 18L469 28L521 40L573 43L626 41L678 43L730 11L782 41L834 19L886 34L938 13L990 35L1043 41L1095 32L1147 28L1199 24L1199 0L1147 0L1095 0L1043 0L990 0L938 0L886 0L834 0L782 0L730 0L678 0L626 0L573 0L521 0L469 0L417 0L365 0L313 0L261 0L209 0L156 0L104 0L52 0L0 0Z" fill="#49ec93"></path><path d="M0 23L52 14L104 27L156 29L209 17L261 7L313 20L365 7L417 9L469 28L521 29L573 27L626 17L678 3L730 15L782 5L834 6L886 10L938 8L990 3L1043 12L1095 3L1147 2L1199 6L1199 0L1147 0L1095 0L1043 0L990 0L938 0L886 0L834 0L782 0L730 0L678 0L626 0L573 0L521 0L469 0L417 0L365 0L313 0L261 0L209 0L156 0L104 0L52 0L0 0Z" fill="#00ec9e"></path></svg>