<svg id="visual" viewBox="0 0 1399 200" width="1399" height="200" xmlns="http://www.w3.org/2000/svg" xmlns:xlink="http://www.w3.org/1999/xlink" version="1.1"><path d="M0 152L61 73L122 90L182 159L243 195L304 195L365 117L426 68L487 140L547 162L608 178L669 106L730 103L791 96L852 151L912 98L973 131L1034 172L1095 103L1156 198L1217 189L1277 128L1338 162L1399 124L1399 0L1338 0L1277 0L1217 0L1156 0L1095 0L1034 0L973 0L912 0L852 0L791 0L730 0L669 0L608 0L547 0L487 0L426 0L365 0L304 0L243 0L182 0L122 0L61 0L0 0Z" fill="#fadb69"></path><path d="M0 131L61 178L122 84L182 115L243 149L304 88L365 67L426 174L487 85L547 154L608 168L669 72L730 115L791 171L852 167L912 173L973 75L1034 62L1095 148L1156 160L1217 98L1277 133L1338 70L1399 169L1399 0L1338 0L1277 0L1217 0L1156 0L1095 0L1034 0L973 0L912 0L852 0L791 0L730 0L669 0L608 0L547 0L487 0L426 0L365 0L304 0L243 0L182 0L122 0L61 0L0 0Z" fill="#eede67"></path><path d="M0 108L61 108L122 163L182 65L243 89L304 61L365 66L426 132L487 72L547 110L608 89L669 94L730 145L791 62L852 144L912 107L973 142L1034 86L1095 100L1156 148L1217 130L1277 92L1338 93L1399 121L1399 0L1338 0L1277 0L1217 0L1156 0L1095 0L1034 0L973 0L912 0L852 0L791 0L730 0L669 0L608 0L547 0L487 0L426 0L365 0L304 0L243 0L182 0L122 0L61 0L0 0Z" fill="#e1e066"></path><path d="M0 139L61 64L122 107L182 89L243 153L304 71L365 56L426 127L487 113L547 143L608 82L669 64L730 57L791 114L852 86L912 134L973 90L1034 97L1095 56L1156 79L1217 56L1277 59L1338 118L1399 70L1399 0L1338 0L1277 0L1217 0L1156 0L1095 0L1034 0L973 0L912 0L852 0L791 0L730 0L669 0L608 0L547 0L487 0L426 0L365 0L304 0L243 0L182 0L122 0L61 0L0 0Z" fill="#d4e266"></path><path d="M0 88L61 64L122 73L182 134L243 78L304 81L365 134L426 130L487 135L547 60L608 95L669 73L730 61L791 61L852 93L912 91L973 123L1034 50L1095 88L1156 78L1217 93L1277 67L1338 84L1399 121L1399 0L1338 0L1277 0L1217 0L1156 0L1095 0L1034 0L973 0L912 0L852 0L791 0L730 0L669 0L608 0L547 0L487 0L426 0L365 0L304 0L243 0L182 0L122 0L61 0L0 0Z" fill="#c5e469"></path><path d="M0 122L61 104L122 49L182 118L243 85L304 108L365 82L426 71L487 49L547 111L608 107L669 109L730 60L791 44L852 81L912 55L973 79L1034 103L1095 45L1156 58L1217 82L1277 77L1338 120L1399 57L1399 0L1338 0L1277 0L1217 0L1156 0L1095 0L1034 0L973 0L912 0L852 0L791 0L730 0L669 0L608 0L547 0L487 0L426 0L365 0L304 0L243 0L182 0L122 0L61 0L0 0Z" fill="#b6e66d"></path><path d="M0 35L61 30L122 83L182 87L243 83L304 66L365 46L426 72L487 105L547 69L608 77L669 103L730 75L791 93L852 104L912 68L973 78L1034 98L1095 75L1156 38L1217 70L1277 76L1338 47L1399 70L1399 0L1338 0L1277 0L1217 0L1156 0L1095 0L1034 0L973 0L912 0L852 0L791 0L730 0L669 0L608 0L547 0L487 0L426 0L365 0L304 0L243 0L182 0L122 0L61 0L0 0Z" fill="#a6e872"></path><path d="M0 54L61 35L122 29L182 46L243 55L304 59L365 70L426 56L487 33L547 48L608 76L669 90L730 50L791 36L852 70L912 54L973 75L1034 39L1095 66L1156 46L1217 67L1277 44L1338 77L1399 38L1399 0L1338 0L1277 0L1217 0L1156 0L1095 0L1034 0L973 0L912 0L852 0L791 0L730 0L669 0L608 0L547 0L487 0L426 0L365 0L304 0L243 0L182 0L122 0L61 0L0 0Z" fill="#94e978"></path><path d="M0 43L61 32L122 73L182 67L243 60L304 21L365 19L426 54L487 71L547 63L608 34L669 45L730 26L791 63L852 36L912 51L973 69L1034 33L1095 38L1156 65L1217 31L1277 43L1338 38L1399 75L1399 0L1338 0L1277 0L1217 0L1156 0L1095 0L1034 0L973 0L912 0L852 0L791 0L730 0L669 0L608 0L547 0L487 0L426 0L365 0L304 0L243 0L182 0L122 0L61 0L0 0Z" fill="#80ea80"></path><path d="M0 53L61 33L122 38L182 59L243 17L304 13L365 21L426 57L487 54L547 25L608 44L669 37L730 14L791 52L852 40L912 43L973 50L1034 16L1095 22L1156 54L1217 51L1277 13L1338 24L1399 54L1399 0L1338 0L1277 0L1217 0L1156 0L1095 0L1034 0L973 0L912 0L852 0L791 0L730 0L669 0L608 0L547 0L487 0L426 0L365 0L304 0L243 0L182 0L122 0L61 0L0 0Z" fill="#68eb89"></path><path d="M0 14L61 8L122 15L182 13L243 14L304 38L365 6L426 11L487 43L547 42L608 16L669 45L730 11L791 21L852 24L912 11L973 38L1034 39L1095 30L1156 29L1217 44L1277 32L1338 31L1399 30L1399 0L1338 0L1277 0L1217 0L1156 0L1095 0L1034 0L973 0L912 0L852 0L791 0L730 0L669 0L608 0L547 0L487 0L426 0L365 0L304 0L243 0L182 0L122 0L61 0L0 0Z" fill="#49ec93"></path><path d="M0 25L61 6L122 25L182 6L243 3L304 5L365 25L426 23L487 7L547 21L608 7L669 1L730 22L791 12L852 23L912 19L973 7L1034 22L1095 12L1156 28L1217 15L1277 9L1338 29L1399 28L1399 0L1338 0L1277 0L1217 0L1156 0L1095 0L1034 0L973 0L912 0L852 0L791 0L730 0L669 0L608 0L547 0L487 0L426 0L365 0L304 0L243 0L182 0L122 0L61 0L0 0Z" fill="#00ec9e"></path></svg>