<svg id="visual" viewBox="0 0 449 200" width="449" height="200" xmlns="http://www.w3.org/2000/svg" xmlns:xlink="http://www.w3.org/1999/xlink" version="1.1"><path d="M0 163L20 159L39 75L59 191L78 184L98 161L117 84L137 158L156 130L176 172L195 133L215 97L234 151L254 134L273 161L293 165L312 192L332 149L351 172L371 134L390 71L410 171L429 112L449 180L449 0L429 0L410 0L390 0L371 0L351 0L332 0L312 0L293 0L273 0L254 0L234 0L215 0L195 0L176 0L156 0L137 0L117 0L98 0L78 0L59 0L39 0L20 0L0 0Z" fill="#fadb69"></path><path d="M0 122L20 174L39 144L59 112L78 157L98 120L117 73L137 107L156 134L176 85L195 163L215 135L234 87L254 122L273 110L293 136L312 85L332 119L351 96L371 159L390 88L410 66L429 89L449 150L449 0L429 0L410 0L390 0L371 0L351 0L332 0L312 0L293 0L273 0L254 0L234 0L215 0L195 0L176 0L156 0L137 0L117 0L98 0L78 0L59 0L39 0L20 0L0 0Z" fill="#eede67"></path><path d="M0 67L20 114L39 113L59 134L78 150L98 73L117 122L137 87L156 59L176 60L195 117L215 83L234 55L254 97L273 99L293 77L312 84L332 116L351 168L371 136L390 65L410 93L429 95L449 136L449 0L429 0L410 0L390 0L371 0L351 0L332 0L312 0L293 0L273 0L254 0L234 0L215 0L195 0L176 0L156 0L137 0L117 0L98 0L78 0L59 0L39 0L20 0L0 0Z" fill="#e1e066"></path><path d="M0 70L20 151L39 83L59 106L78 97L98 151L117 122L137 126L156 97L176 64L195 52L215 106L234 85L254 79L273 79L293 122L312 109L332 102L351 71L371 49L390 82L410 61L429 118L449 100L449 0L429 0L410 0L390 0L371 0L351 0L332 0L312 0L293 0L273 0L254 0L234 0L215 0L195 0L176 0L156 0L137 0L117 0L98 0L78 0L59 0L39 0L20 0L0 0Z" fill="#d4e266"></path><path d="M0 55L20 133L39 99L59 61L78 94L98 43L117 119L137 56L156 125L176 125L195 79L215 111L234 43L254 113L273 130L293 128L312 64L332 80L351 111L371 47L390 136L410 80L429 99L449 74L449 0L429 0L410 0L390 0L371 0L351 0L332 0L312 0L293 0L273 0L254 0L234 0L215 0L195 0L176 0L156 0L137 0L117 0L98 0L78 0L59 0L39 0L20 0L0 0Z" fill="#c5e469"></path><path d="M0 91L20 38L39 117L59 57L78 39L98 77L117 118L137 117L156 76L176 100L195 102L215 45L234 107L254 37L273 41L293 118L312 121L332 42L351 104L371 56L390 81L410 47L429 58L449 61L449 0L429 0L410 0L390 0L371 0L351 0L332 0L312 0L293 0L273 0L254 0L234 0L215 0L195 0L176 0L156 0L137 0L117 0L98 0L78 0L59 0L39 0L20 0L0 0Z" fill="#b6e66d"></path><path d="M0 56L20 41L39 62L59 42L78 59L98 71L117 105L137 40L156 30L176 72L195 71L215 69L234 93L254 49L273 93L293 87L312 51L332 37L351 64L371 91L390 32L410 69L429 55L449 102L449 0L429 0L410 0L390 0L371 0L351 0L332 0L312 0L293 0L273 0L254 0L234 0L215 0L195 0L176 0L156 0L137 0L117 0L98 0L78 0L59 0L39 0L20 0L0 0Z" fill="#a6e872"></path><path d="M0 66L20 80L39 43L59 25L78 47L98 42L117 61L137 65L156 72L176 76L195 69L215 43L234 61L254 33L273 82L293 61L312 35L332 26L351 91L371 35L390 52L410 51L429 39L449 24L449 0L429 0L410 0L390 0L371 0L351 0L332 0L312 0L293 0L273 0L254 0L234 0L215 0L195 0L176 0L156 0L137 0L117 0L98 0L78 0L59 0L39 0L20 0L0 0Z" fill="#94e978"></path><path d="M0 29L20 37L39 63L59 58L78 63L98 20L117 72L137 34L156 19L176 57L195 23L215 62L234 30L254 47L273 25L293 72L312 41L332 23L351 18L371 64L390 21L410 64L429 45L449 19L449 0L429 0L410 0L390 0L371 0L351 0L332 0L312 0L293 0L273 0L254 0L234 0L215 0L195 0L176 0L156 0L137 0L117 0L98 0L78 0L59 0L39 0L20 0L0 0Z" fill="#80ea80"></path><path d="M0 55L20 52L39 49L59 53L78 17L98 47L117 40L137 25L156 12L176 49L195 49L215 41L234 50L254 47L273 27L293 13L312 17L332 56L351 11L371 31L390 35L410 30L429 32L449 59L449 0L429 0L410 0L390 0L371 0L351 0L332 0L312 0L293 0L273 0L254 0L234 0L215 0L195 0L176 0L156 0L137 0L117 0L98 0L78 0L59 0L39 0L20 0L0 0Z" fill="#68eb89"></path><path d="M0 16L20 37L39 41L59 22L78 22L98 14L117 27L137 19L156 44L176 29L195 11L215 19L234 21L254 5L273 41L293 27L312 31L332 20L351 39L371 34L390 17L410 14L429 22L449 31L449 0L429 0L410 0L390 0L371 0L351 0L332 0L312 0L293 0L273 0L254 0L234 0L215 0L195 0L176 0L156 0L137 0L117 0L98 0L78 0L59 0L39 0L20 0L0 0Z" fill="#49ec93"></path><path d="M0 29L20 7L39 28L59 9L78 9L98 22L117 4L137 17L156 9L176 3L195 13L215 25L234 13L254 20L273 11L293 1L312 4L332 5L351 3L371 24L390 15L410 3L429 26L449 1L449 0L429 0L410 0L390 0L371 0L351 0L332 0L312 0L293 0L273 0L254 0L234 0L215 0L195 0L176 0L156 0L137 0L117 0L98 0L78 0L59 0L39 0L20 0L0 0Z" fill="#00ec9e"></path></svg>