<svg id="visual" viewBox="0 0 449 200" width="449" height="200" xmlns="http://www.w3.org/2000/svg" xmlns:xlink="http://www.w3.org/1999/xlink" version="1.1"><path d="M0 139L41 168L82 133L122 128L163 125L204 146L245 132L286 132L327 164L367 149L408 114L449 146L449 0L408 0L367 0L327 0L286 0L245 0L204 0L163 0L122 0L82 0L41 0L0 0Z" fill="#fadb69"></path><path d="M0 117L41 122L82 116L122 137L163 147L204 130L245 125L286 97L327 139L367 113L408 134L449 130L449 0L408 0L367 0L327 0L286 0L245 0L204 0L163 0L122 0L82 0L41 0L0 0Z" fill="#e7df66"></path><path d="M0 101L41 113L82 105L122 90L163 116L204 80L245 118L286 120L327 98L367 108L408 128L449 95L449 0L408 0L367 0L327 0L286 0L245 0L204 0L163 0L122 0L82 0L41 0L0 0Z" fill="#d2e367"></path><path d="M0 100L41 80L82 102L122 71L163 105L204 78L245 99L286 91L327 66L367 109L408 83L449 96L449 0L408 0L367 0L327 0L286 0L245 0L204 0L163 0L122 0L82 0L41 0L0 0Z" fill="#bae66b"></path><path d="M0 72L41 74L82 85L122 81L163 89L204 75L245 82L286 52L327 54L367 87L408 61L449 85L449 0L408 0L367 0L327 0L286 0L245 0L204 0L163 0L122 0L82 0L41 0L0 0Z" fill="#a1e874"></path><path d="M0 59L41 59L82 68L122 39L163 40L204 55L245 52L286 52L327 39L367 43L408 66L449 52L449 0L408 0L367 0L327 0L286 0L245 0L204 0L163 0L122 0L82 0L41 0L0 0Z" fill="#83ea7f"></path><path d="M0 26L41 52L82 51L122 51L163 44L204 35L245 42L286 46L327 39L367 35L408 25L449 44L449 0L408 0L367 0L327 0L286 0L245 0L204 0L163 0L122 0L82 0L41 0L0 0Z" fill="#5ceb8d"></path><path d="M0 16L41 24L82 11L122 16L163 19L204 21L245 15L286 31L327 19L367 19L408 20L449 29L449 0L408 0L367 0L327 0L286 0L245 0L204 0L163 0L122 0L82 0L41 0L0 0Z" fill="#00ec9e"></path></svg>