<svg id="visual" viewBox="0 0 639 200" width="639" height="200" xmlns="http://www.w3.org/2000/svg" xmlns:xlink="http://www.w3.org/1999/xlink" version="1.1"><path d="M0 170L28 180L56 149L83 172L111 195L139 73L167 71L194 163L222 87L250 134L278 167L306 76L333 72L361 87L389 120L417 128L445 164L472 121L500 109L528 103L556 144L583 70L611 173L639 172L639 0L611 0L583 0L556 0L528 0L500 0L472 0L445 0L417 0L389 0L361 0L333 0L306 0L278 0L250 0L222 0L194 0L167 0L139 0L111 0L83 0L56 0L28 0L0 0Z" fill="#fadb69"></path><path d="M0 171L28 180L56 81L83 64L111 150L139 126L167 94L194 82L222 118L250 99L278 114L306 130L333 70L361 103L389 165L417 160L445 139L472 104L500 94L528 117L556 61L583 65L611 140L639 137L639 0L611 0L583 0L556 0L528 0L500 0L472 0L445 0L417 0L389 0L361 0L333 0L306 0L278 0L250 0L222 0L194 0L167 0L139 0L111 0L83 0L56 0L28 0L0 0Z" fill="#eede67"></path><path d="M0 61L28 88L56 117L83 125L111 111L139 93L167 71L194 71L222 148L250 119L278 91L306 62L333 104L361 133L389 158L417 74L445 148L472 123L500 166L528 132L556 90L583 156L611 59L639 106L639 0L611 0L583 0L556 0L528 0L500 0L472 0L445 0L417 0L389 0L361 0L333 0L306 0L278 0L250 0L222 0L194 0L167 0L139 0L111 0L83 0L56 0L28 0L0 0Z" fill="#e1e066"></path><path d="M0 81L28 120L56 142L83 69L111 62L139 129L167 72L194 59L222 131L250 145L278 116L306 71L333 76L361 50L389 113L417 74L445 101L472 107L500 131L528 53L556 123L583 72L611 123L639 145L639 0L611 0L583 0L556 0L528 0L500 0L472 0L445 0L417 0L389 0L361 0L333 0L306 0L278 0L250 0L222 0L194 0L167 0L139 0L111 0L83 0L56 0L28 0L0 0Z" fill="#d4e266"></path><path d="M0 125L28 80L56 64L83 68L111 69L139 59L167 126L194 69L222 96L250 96L278 85L306 123L333 129L361 120L389 107L417 85L445 76L472 135L500 52L528 97L556 90L583 103L611 88L639 63L639 0L611 0L583 0L556 0L528 0L500 0L472 0L445 0L417 0L389 0L361 0L333 0L306 0L278 0L250 0L222 0L194 0L167 0L139 0L111 0L83 0L56 0L28 0L0 0Z" fill="#c5e469"></path><path d="M0 93L28 107L56 108L83 101L111 80L139 109L167 67L194 71L222 89L250 70L278 48L306 104L333 81L361 84L389 99L417 93L445 122L472 66L500 70L528 111L556 111L583 116L611 51L639 40L639 0L611 0L583 0L556 0L528 0L500 0L472 0L445 0L417 0L389 0L361 0L333 0L306 0L278 0L250 0L222 0L194 0L167 0L139 0L111 0L83 0L56 0L28 0L0 0Z" fill="#b6e66d"></path><path d="M0 103L28 81L56 70L83 60L111 67L139 31L167 64L194 30L222 82L250 32L278 98L306 87L333 74L361 84L389 105L417 65L445 85L472 90L500 98L528 58L556 32L583 106L611 60L639 78L639 0L611 0L583 0L556 0L528 0L500 0L472 0L445 0L417 0L389 0L361 0L333 0L306 0L278 0L250 0L222 0L194 0L167 0L139 0L111 0L83 0L56 0L28 0L0 0Z" fill="#a6e872"></path><path d="M0 88L28 60L56 78L83 74L111 55L139 63L167 32L194 38L222 55L250 86L278 65L306 30L333 28L361 46L389 50L417 54L445 78L472 50L500 71L528 85L556 40L583 27L611 70L639 67L639 0L611 0L583 0L556 0L528 0L500 0L472 0L445 0L417 0L389 0L361 0L333 0L306 0L278 0L250 0L222 0L194 0L167 0L139 0L111 0L83 0L56 0L28 0L0 0Z" fill="#94e978"></path><path d="M0 25L28 44L56 68L83 28L111 22L139 34L167 30L194 60L222 33L250 36L278 47L306 69L333 60L361 49L389 74L417 57L445 57L472 49L500 71L528 23L556 24L583 29L611 20L639 28L639 0L611 0L583 0L556 0L528 0L500 0L472 0L445 0L417 0L389 0L361 0L333 0L306 0L278 0L250 0L222 0L194 0L167 0L139 0L111 0L83 0L56 0L28 0L0 0Z" fill="#80ea80"></path><path d="M0 23L28 55L56 55L83 45L111 23L139 54L167 28L194 26L222 26L250 35L278 32L306 52L333 30L361 47L389 59L417 25L445 16L472 17L500 33L528 23L556 40L583 59L611 54L639 20L639 0L611 0L583 0L556 0L528 0L500 0L472 0L445 0L417 0L389 0L361 0L333 0L306 0L278 0L250 0L222 0L194 0L167 0L139 0L111 0L83 0L56 0L28 0L0 0Z" fill="#68eb89"></path><path d="M0 13L28 40L56 43L83 28L111 14L139 13L167 15L194 11L222 12L250 30L278 36L306 6L333 8L361 18L389 23L417 11L445 28L472 38L500 17L528 25L556 43L583 21L611 35L639 13L639 0L611 0L583 0L556 0L528 0L500 0L472 0L445 0L417 0L389 0L361 0L333 0L306 0L278 0L250 0L222 0L194 0L167 0L139 0L111 0L83 0L56 0L28 0L0 0Z" fill="#49ec93"></path><path d="M0 1L28 25L56 3L83 1L111 11L139 18L167 23L194 17L222 9L250 18L278 23L306 26L333 18L361 13L389 3L417 6L445 0L472 19L500 1L528 12L556 7L583 6L611 4L639 23L639 0L611 0L583 0L556 0L528 0L500 0L472 0L445 0L417 0L389 0L361 0L333 0L306 0L278 0L250 0L222 0L194 0L167 0L139 0L111 0L83 0L56 0L28 0L0 0Z" fill="#00ec9e"></path></svg>