<svg id="visual" viewBox="0 0 639 200" width="639" height="200" xmlns="http://www.w3.org/2000/svg" xmlns:xlink="http://www.w3.org/1999/xlink" version="1.1"><path d="M0 133L58 165L116 150L174 118L232 161L290 160L349 119L407 152L465 153L523 165L581 122L639 152L639 0L581 0L523 0L465 0L407 0L349 0L290 0L232 0L174 0L116 0L58 0L0 0Z" fill="#fadb69"></path><path d="M0 129L58 131L116 126L174 140L232 110L290 97L349 140L407 143L465 147L523 142L581 128L639 124L639 0L581 0L523 0L465 0L407 0L349 0L290 0L232 0L174 0L116 0L58 0L0 0Z" fill="#e7df66"></path><path d="M0 104L58 124L116 83L174 115L232 106L290 115L349 122L407 103L465 114L523 99L581 112L639 113L639 0L581 0L523 0L465 0L407 0L349 0L290 0L232 0L174 0L116 0L58 0L0 0Z" fill="#d2e367"></path><path d="M0 100L58 68L116 98L174 108L232 87L290 103L349 97L407 67L465 81L523 82L581 84L639 85L639 0L581 0L523 0L465 0L407 0L349 0L290 0L232 0L174 0L116 0L58 0L0 0Z" fill="#bae66b"></path><path d="M0 84L58 56L116 71L174 56L232 60L290 61L349 58L407 68L465 84L523 60L581 56L639 66L639 0L581 0L523 0L465 0L407 0L349 0L290 0L232 0L174 0L116 0L58 0L0 0Z" fill="#a1e874"></path><path d="M0 47L58 43L116 64L174 61L232 63L290 48L349 61L407 41L465 68L523 57L581 69L639 69L639 0L581 0L523 0L465 0L407 0L349 0L290 0L232 0L174 0L116 0L58 0L0 0Z" fill="#83ea7f"></path><path d="M0 28L58 26L116 28L174 24L232 27L290 48L349 32L407 51L465 32L523 26L581 28L639 40L639 0L581 0L523 0L465 0L407 0L349 0L290 0L232 0L174 0L116 0L58 0L0 0Z" fill="#5ceb8d"></path><path d="M0 24L58 25L116 26L174 19L232 22L290 27L349 19L407 25L465 24L523 27L581 10L639 24L639 0L581 0L523 0L465 0L407 0L349 0L290 0L232 0L174 0L116 0L58 0L0 0Z" fill="#00ec9e"></path></svg>