<svg id="visual" viewBox="0 0 899 200" width="899" height="200" xmlns="http://www.w3.org/2000/svg" xmlns:xlink="http://www.w3.org/1999/xlink" version="1.1"><path d="M0 78L39 142L78 153L117 180L156 184L195 148L235 113L274 189L313 185L352 151L391 140L430 121L469 135L508 119L547 101L586 124L625 85L664 96L704 120L743 94L782 149L821 111L860 155L899 186L899 0L860 0L821 0L782 0L743 0L704 0L664 0L625 0L586 0L547 0L508 0L469 0L430 0L391 0L352 0L313 0L274 0L235 0L195 0L156 0L117 0L78 0L39 0L0 0Z" fill="#fadb69"></path><path d="M0 117L39 113L78 152L117 123L156 77L195 87L235 177L274 98L313 181L352 117L391 167L430 112L469 152L508 182L547 131L586 156L625 92L664 155L704 158L743 173L782 97L821 97L860 170L899 107L899 0L860 0L821 0L782 0L743 0L704 0L664 0L625 0L586 0L547 0L508 0L469 0L430 0L391 0L352 0L313 0L274 0L235 0L195 0L156 0L117 0L78 0L39 0L0 0Z" fill="#eede67"></path><path d="M0 88L39 142L78 131L117 153L156 147L195 119L235 100L274 103L313 90L352 134L391 81L430 70L469 141L508 149L547 89L586 155L625 107L664 124L704 60L743 91L782 154L821 142L860 124L899 72L899 0L860 0L821 0L782 0L743 0L704 0L664 0L625 0L586 0L547 0L508 0L469 0L430 0L391 0L352 0L313 0L274 0L235 0L195 0L156 0L117 0L78 0L39 0L0 0Z" fill="#e1e066"></path><path d="M0 143L39 100L78 124L117 145L156 149L195 65L235 76L274 83L313 92L352 70L391 56L430 122L469 143L508 116L547 116L586 139L625 53L664 153L704 72L743 125L782 55L821 74L860 120L899 82L899 0L860 0L821 0L782 0L743 0L704 0L664 0L625 0L586 0L547 0L508 0L469 0L430 0L391 0L352 0L313 0L274 0L235 0L195 0L156 0L117 0L78 0L39 0L0 0Z" fill="#d4e266"></path><path d="M0 95L39 44L78 110L117 108L156 103L195 135L235 104L274 59L313 102L352 129L391 44L430 51L469 64L508 130L547 95L586 130L625 46L664 78L704 83L743 137L782 94L821 77L860 128L899 94L899 0L860 0L821 0L782 0L743 0L704 0L664 0L625 0L586 0L547 0L508 0L469 0L430 0L391 0L352 0L313 0L274 0L235 0L195 0L156 0L117 0L78 0L39 0L0 0Z" fill="#c5e469"></path><path d="M0 56L39 64L78 77L117 85L156 71L195 79L235 95L274 46L313 97L352 104L391 106L430 107L469 38L508 106L547 98L586 120L625 39L664 46L704 49L743 49L782 100L821 78L860 39L899 65L899 0L860 0L821 0L782 0L743 0L704 0L664 0L625 0L586 0L547 0L508 0L469 0L430 0L391 0L352 0L313 0L274 0L235 0L195 0L156 0L117 0L78 0L39 0L0 0Z" fill="#b6e66d"></path><path d="M0 31L39 50L78 65L117 34L156 84L195 86L235 65L274 50L313 45L352 91L391 105L430 74L469 106L508 53L547 35L586 89L625 94L664 30L704 104L743 44L782 31L821 39L860 68L899 82L899 0L860 0L821 0L782 0L743 0L704 0L664 0L625 0L586 0L547 0L508 0L469 0L430 0L391 0L352 0L313 0L274 0L235 0L195 0L156 0L117 0L78 0L39 0L0 0Z" fill="#a6e872"></path><path d="M0 54L39 41L78 82L117 42L156 52L195 60L235 48L274 50L313 85L352 79L391 60L430 87L469 50L508 55L547 54L586 89L625 68L664 85L704 71L743 63L782 37L821 75L860 55L899 80L899 0L860 0L821 0L782 0L743 0L704 0L664 0L625 0L586 0L547 0L508 0L469 0L430 0L391 0L352 0L313 0L274 0L235 0L195 0L156 0L117 0L78 0L39 0L0 0Z" fill="#94e978"></path><path d="M0 23L39 45L78 33L117 23L156 44L195 26L235 60L274 43L313 28L352 67L391 55L430 38L469 35L508 44L547 24L586 19L625 47L664 56L704 73L743 71L782 49L821 32L860 35L899 29L899 0L860 0L821 0L782 0L743 0L704 0L664 0L625 0L586 0L547 0L508 0L469 0L430 0L391 0L352 0L313 0L274 0L235 0L195 0L156 0L117 0L78 0L39 0L0 0Z" fill="#80ea80"></path><path d="M0 14L39 38L78 21L117 60L156 28L195 42L235 22L274 56L313 41L352 27L391 59L430 48L469 38L508 43L547 36L586 28L625 21L664 49L704 15L743 46L782 60L821 44L860 40L899 50L899 0L860 0L821 0L782 0L743 0L704 0L664 0L625 0L586 0L547 0L508 0L469 0L430 0L391 0L352 0L313 0L274 0L235 0L195 0L156 0L117 0L78 0L39 0L0 0Z" fill="#68eb89"></path><path d="M0 37L39 20L78 36L117 30L156 35L195 28L235 14L274 21L313 28L352 17L391 36L430 15L469 43L508 24L547 13L586 21L625 10L664 13L704 24L743 42L782 9L821 23L860 24L899 20L899 0L860 0L821 0L782 0L743 0L704 0L664 0L625 0L586 0L547 0L508 0L469 0L430 0L391 0L352 0L313 0L274 0L235 0L195 0L156 0L117 0L78 0L39 0L0 0Z" fill="#49ec93"></path><path d="M0 5L39 6L78 21L117 11L156 19L195 21L235 1L274 10L313 4L352 16L391 12L430 16L469 4L508 8L547 11L586 9L625 0L664 19L704 20L743 0L782 18L821 6L860 3L899 14L899 0L860 0L821 0L782 0L743 0L704 0L664 0L625 0L586 0L547 0L508 0L469 0L430 0L391 0L352 0L313 0L274 0L235 0L195 0L156 0L117 0L78 0L39 0L0 0Z" fill="#00ec9e"></path></svg>