<svg id="visual" viewBox="0 0 1399 450" width="1399" height="450" xmlns="http://www.w3.org/2000/svg" xmlns:xlink="http://www.w3.org/1999/xlink" version="1.1"><rect x="0" y="0" width="1399" height="450" fill="#0B0015"></rect><path d="M729 0L876 30L830 60L988 90L719 120L799 150L899 180L941 210L849 240L926 270L751 300L932 330L896 360L895 390L993 420L846 450L0 450L0 420L0 390L0 360L0 330L0 300L0 270L0 240L0 210L0 180L0 150L0 120L0 90L0 60L0 30L0 0Z" fill="#26003d"></path><path d="M739 0L665 30L668 60L645 90L749 120L681 150L819 180L636 210L717 240L801 270L719 300L747 330L842 360L681 390L812 420L690 450L0 450L0 420L0 390L0 360L0 330L0 300L0 270L0 240L0 210L0 180L0 150L0 120L0 90L0 60L0 30L0 0Z" fill="#2f004e"></path><path d="M691 0L645 30L633 60L638 90L716 120L582 150L681 180L708 210L753 240L731 270L663 300L770 330L763 360L655 390L649 420L681 450L0 450L0 420L0 390L0 360L0 330L0 300L0 270L0 240L0 210L0 180L0 150L0 120L0 90L0 60L0 30L0 0Z" fill="#380060"></path><path d="M640 0L441 30L663 60L543 90L659 120L549 150L598 180L444 210L552 240L430 270L477 300L546 330L575 360L550 390L528 420L506 450L0 450L0 420L0 390L0 360L0 330L0 300L0 270L0 240L0 210L0 180L0 150L0 120L0 90L0 60L0 30L0 0Z" fill="#410072"></path><path d="M339 0L465 30L539 60L360 90L436 120L540 150L409 180L520 210L504 240L353 270L420 300L527 330L484 360L355 390L470 420L459 450L0 450L0 420L0 390L0 360L0 330L0 300L0 270L0 240L0 210L0 180L0 150L0 120L0 90L0 60L0 30L0 0Z" fill="#490086"></path><path d="M326 0L295 30L421 60L241 90L412 120L390 150L295 180L426 210L423 240L248 270L264 300L389 330L390 360L392 390L380 420L384 450L0 450L0 420L0 390L0 360L0 330L0 300L0 270L0 240L0 210L0 180L0 150L0 120L0 90L0 60L0 30L0 0Z" fill="#51009a"></path><path d="M257 0L284 30L174 60L316 90L279 120L192 150L288 180L163 210L215 240L280 270L209 300L246 330L167 360L303 390L194 420L311 450L0 450L0 420L0 390L0 360L0 330L0 300L0 270L0 240L0 210L0 180L0 150L0 120L0 90L0 60L0 30L0 0Z" fill="#5800af"></path><path d="M164 0L164 30L136 60L56 90L63 120L104 150L101 180L196 210L132 240L180 270L87 300L85 330L165 360L123 390L95 420L52 450L0 450L0 420L0 390L0 360L0 330L0 300L0 270L0 240L0 210L0 180L0 150L0 120L0 90L0 60L0 30L0 0Z" fill="#5f00c5"></path></svg>