<?xml version="1.0" standalone="yes"?>
<svg xmlns="http://www.w3.org/2000/svg" width="629" height="749">
<path style="fill:#00000000; stroke:none;" d="M0 0L0 749L8 749C0.131978 706.619 -1.72442 659.081 3.12886 616C6.60962 585.102 14.5384 553.703 20.6289 523C27.0526 490.617 33.728 450.549 58.1736 426.005C62.6253 421.535 67.72 421.886 72.5756 418.649C84.9587 410.393 96.0489 402.306 110 396.627C128.34 389.161 147.804 385.749 166 378L166 377L157 376L195.526 333.174L207 324L224 321L223 319C229.368 314.982 226.133 307.993 225.039 302C222.129 286.046 219.742 270.573 215 255L206 256C205.906 244.848 200.33 238.357 195.324 229C192.606 223.92 192.327 218.346 190.136 213.17C188.499 209.302 184.898 206.718 183 203L177 203C175.649 197.046 171.083 192.758 169.499 186.999C166.208 175.029 171.795 157.357 186 159L180.487 139.375L175.037 132.029L180 127C179.334 118.534 172.59 111.198 186 108L187 89C194.211 89 200.629 88.8294 206.695 84.3356C210.882 81.2343 213 74.9913 207 73C207.92 64.063 214.759 59.9545 218.652 52.5748C220.604 48.8748 218.855 44.7448 221.02 41.0394C230.868 24.1862 259.68 8.70007 279.004 8.01849C292.017 7.55951 301.184 16.412 313 16.9529C321.692 17.3509 330.345 13.6822 339 13.0895C353.542 12.0936 369.351 18.6712 380.91 27.0008C395.042 37.1835 400.891 55.0417 410.536 69.1304C414.423 74.8077 414.126 81.4703 422 84C416.401 96.5117 426.729 105.229 434.417 114.633C436.568 117.265 435.992 120.053 439 122L439 124C431.158 127 434.251 136.108 437 142C430.763 146.407 435.634 157.887 436.755 164C439.571 179.365 435.828 200.289 431.161 215C428.45 223.547 422.703 236.429 416.33 242.776C412.572 246.519 405.836 247.403 403.178 252.108C399.317 258.943 400.743 268.546 399.87 276C398.89 284.37 395.657 292.268 396.213 301C396.562 306.488 398.587 316.633 402.499 320.682C405.904 324.206 412.619 323.319 416.985 325.353C424.69 328.942 433.751 336.756 439.869 342.714C449.059 351.664 453.897 364.62 464.926 372.272C475.582 379.664 487.902 380.352 499 385.125C525.26 396.418 556.785 409.335 578.576 428.036C589.198 437.152 597.248 448.995 605.698 460C613.455 470.104 612.021 486.151 614.371 498C621.12 532.023 619.903 567.004 628 601L629 601L629 0L0 0z"/>
<path style="fill:#cf55d3; stroke:none;" d="M273 8L273 9L285 9L273 8z"/>
<path style="fill:#96518a; stroke:none;" d="M226 35L257.001 16.2786L282 17L282 16L266 14L266 12L293 11L293 12L278 12L282 15C282 10.5993 296.454 14 300 14L300 16L294 16L294 17L306 16C308.874 20.0674 314.542 19.2258 319 18.3348C333.087 15.5197 343.873 15.8756 358 17C344.732 7.12469 328.114 17.3142 314 17.4622C306.953 17.5361 300.961 10.5179 294 9.20911C271.238 4.9295 239.776 16.2681 226 35z"/>
<path style="fill:#cf55d3; stroke:none;" d="M271 11L271 12L279 14L278 12L293 12C287.477 8.69653 277.308 10.3331 271 11z"/>
<path style="fill:#fbfcfd; stroke:none;" d="M277 10L277 11L285 11L277 10M266 12L266 14L326 23L326 22L320 21L320 20L346 17.1844L370 26C362.585 10.8268 337.161 15.0846 324 17.1335C317.696 18.1149 311.234 20.9043 306 16L266 12z"/>
<path style="fill:#0c041c; stroke:none;" d="M281 13L281 14L300 16L300 14L281 13z"/>
<path style="fill:#38a9cb; stroke:none;" d="M255 18L255 19L267 17C262.547 15.0014 258.992 15.261 255 18z"/>
<path style="fill:#cf55d3; stroke:none;" d="M286 15L286 16L289 16L286 15z"/>
<path style="fill:#fbfcfd; stroke:none;" d="M224 47L244 28L239 36L253 23.7538L273 17L273 16L255 19L255 18L258 17C253.834 15.9924 250.426 19.3062 246.95 21.3526C237.892 26.6845 226.668 36.4718 224 47z"/>
<path style="fill:#38a9cb; stroke:none;" d="M358 16L358 17L363 19L358 16z"/>
<path style="fill:#224f96; stroke:none;" d="M267 18L267 19L273 17L267 18z"/>
<path style="fill:#0c041c; stroke:none;" d="M230 85L229 85L228 62L227 62C224.579 66.7365 223.442 73.2865 218 75L199 106L203 106L204 113C199.125 114.924 194.245 117.306 194 123L191 123L191 127L206 122L190 135C214.762 134.472 222 112.736 222 92L223 92C228.966 116.218 209.488 140.159 186 145C186.362 150.387 188.796 153.737 193 157L199 147C196.445 153.967 197.704 160.036 196.13 166.83C194.945 171.952 190.191 175.587 189.305 181.015C185.618 203.603 195.706 222.053 204 242L205 242L209.817 221.95L208 192L209 192L213 198L211.856 222.961L207 253L219 255L216.737 198.17L206 173L210 175C209.572 169.252 212.674 165.5 217 162C213.112 169.481 210.934 171.461 214 180L215 180L215 176C231.847 170.763 234.714 148.859 249 142C249.805 131.8 250.133 123.144 246.58 113.286C241.795 100.007 232.367 84.5897 233.21 70C233.779 60.1353 241.272 49.6054 246.887 41.8303C250.307 37.0933 253.188 32.4277 258 29C247.608 41.7386 234.322 58.7383 236 76C238.035 96.9327 259.948 116.984 255.667 139C254.006 147.543 251.289 155.089 247.333 163C245.817 166.033 247.951 168.399 246 171L252 170L253 173C273.922 175.781 286.59 193.335 309 188C312.249 191.718 321.734 190.557 325.715 188.211C337.844 181.063 351.275 177.659 365.285 176.938C374.59 176.459 383.722 178.697 393 177L394 183L395 183L397 174C396.494 170.356 394.743 166.401 398 164L393 151C400.325 151.386 402.484 158.867 404.571 165C407.997 175.065 408.534 188.866 404.102 198.714C401.422 204.67 395.937 209.097 393 215L392 215L392 211L387 211L380 236C366.734 236 342.62 238.912 331.289 231.221C320.984 224.227 320.65 202.817 307 202.145C292.675 201.44 291.575 223.794 280.675 230.246C269.19 237.045 247.956 233 235 233L235 234C239.879 240.439 236.709 252.369 237.468 260C238.938 274.791 244.965 287.662 251 301L242 290L254 326L255 326L256 317C266.963 322.289 258.814 339.115 269 345L273 336L275 357L264 345L263 345L263 349L262 349C260.572 344.337 255.623 330.347 251 329C252.139 332.417 253.493 339.873 250 339L251 353L250 353L249 344L248 344L248 349L247 349L247 346L246 346L247 393L246 393L245 387L244 387L244 401L243 401L242 380L238 385L237 385C238.494 366.856 242.598 351.555 239 333L238 333C235.833 340.213 228.521 342.029 225.013 348.424C222.425 353.144 226.461 358.297 224.713 362.675C223.39 365.99 219.218 367.655 217.573 371.015C213.569 379.187 213.829 394.222 215.426 403C218.052 417.433 230.395 432.996 240.884 442.695C265.647 465.595 301.438 477.289 335 471.741C355.13 468.413 374.053 457.531 391 446.609C409.641 434.595 422.934 418.985 427.335 397C428.979 388.788 421.895 373.59 427 368C425.548 360.858 430.197 352.513 421 350C425.386 337.719 414.349 334.415 405 329L410 325L390 319L388 371L386 371L385 320L384 320C380.892 326.458 384.711 337.08 378 341L384 294L383 294L378 311L377 311L387 262L386 262L378 290L376 290L386 252L388 253C389.283 246.837 392.986 243.165 395.273 237.741C397.744 231.881 397.123 224.258 399.34 218.054C403.328 206.892 408.999 200.811 409 188L410 188L403 249C421.362 241.32 425.036 222.03 429.417 205.039C431.865 195.549 433.941 186.57 428.525 177.069C423.754 168.698 414.4 174.279 412 181L411 181C413.395 163.852 432.278 171.933 433 186L434 186L435 167L434 167L433 170L421 146L434 158L436 139L426 138L426 141C422.176 139.782 421.709 137.862 422 134L413 128L433 136C433.019 130.509 433.629 127.549 438 124L436 115L430 120L435 121L435 123L399 122L399 121L421 118C415.413 109.577 399.056 114.349 394 105L398 105L398 104L384 95L413 102C407.678 79.5311 399.059 58.6115 386 40L388 40L390 36L371 23L383 37C367.364 24.175 355.049 18.834 335 19L335 20L346 21L346 22L320 20L320 21L344 25C335.809 27.4158 324.251 24.1017 316 22.3604C291.067 17.0985 253.055 10.0315 239.812 39.0185C237.103 44.9468 233.58 50.674 231.92 57C229.262 67.1251 229.787 74.6838 230 85z"/>
<path style="fill:#96518a; stroke:none;" d="M283 17L283 18L291 18L283 17z"/>
<path style="fill:#38a9cb; stroke:none;" d="M311 17L311 18L316 18L311 17z"/>
<path style="fill:#cf55d3; stroke:none;" d="M334 17L334 18L349 18L334 17z"/>
<path style="fill:#96518a; stroke:none;" d="M362 17L370 25C376.841 22.5552 384.29 33.0519 390 36L387 37L388 40L386 40L394 48C401.168 34.4901 372.602 19.4024 362 17M327 18L327 19L346 22L346 21L335 20L335 19L343 19L327 18M349 18L349 19L352 19L349 18M323 19L323 20L327 20L323 19M353.667 19.3333L354.333 19.6667L353.667 19.3333z"/>
<path style="fill:#38a9cb; stroke:none;" d="M256 21L256 22L261 21L256 21z"/>
<path style="fill:#96518a; stroke:none;" d="M305.667 20.3333L306.333 20.6667L305.667 20.3333M355 20L355 21L358 21L355 20M310 21L310 22L313 22L310 21z"/>
<path style="fill:#224f96; stroke:none;" d="M359 21L363 23L363 22L359 21z"/>
<path style="fill:#96518a; stroke:none;" d="M288 24L288 25L297 23L288 24M317 22L317 23L325 24L325 23L317 22z"/>
<path style="fill:#cf55d3; stroke:none;" d="M325 23L325 24L333 24L325 23z"/>
<path style="fill:#38a9cb; stroke:none;" d="M252.667 23.3333L253.333 23.6667L252.667 23.3333z"/>
<path style="fill:#96518a; stroke:none;" d="M331 24L331 25L344 26L331 24M365.667 24.3333L366.333 24.6667L365.667 24.3333M367.667 25.3333L368.333 25.6667L367.667 25.3333z"/>
<path style="fill:#cf55d3; stroke:none;" d="M369 26L376 30L369 26M280 32L299 29L299 27C293.068 27.0039 283.727 26.6593 280 32z"/>
<path style="fill:#96518a; stroke:none;" d="M299 27L299 29L324 32C317.32 27.9201 306.713 27.0213 299 27z"/>
<path style="fill:#38a9cb; stroke:none;" d="M243 28C237.288 33.6875 223.646 42.2794 222 50L221 50L220 43L219 43L207 73L211 74L211 69L208 71L222 55L221 63L222 63C225.87 51.653 243.343 39.4458 243 28z"/>
<path style="fill:#224f96; stroke:none;" d="M247 28L243 34L247 28M222 45L236 29C228.869 31.4199 223.848 37.7977 222 45z"/>
<path style="fill:#38a9cb; stroke:none;" d="M245 45L258 29C251.819 31.9147 247.691 38.8704 245 45z"/>
<path style="fill:#96518a; stroke:none;" d="M287 29L287 30L294 30L287 29M373 29L373 30L383 37C380.888 32.4891 377.97 29.8219 373 29M276.667 31.3333L277.333 31.6667L276.667 31.3333z"/>
<path style="fill:#fbfcfd; stroke:none;" d="M265 39L280 32C274.716 30.907 268.218 35.0295 265 39z"/>
<path style="fill:#96518a; stroke:none;" d="M277 39L277 40L279 41L276 42L276 43C290.509 39.371 298.672 31.9687 315 35C306.015 24.3204 286.574 37.2686 277 39M325 32L325 33L336 36L325 32M271.667 33.3333L272.333 33.6667L271.667 33.3333M269.667 34.3333L270.333 34.6667L269.667 34.3333z"/>
<path style="fill:#cf55d3; stroke:none;" d="M315 34L315 35L319 35L315 34z"/>
<path style="fill:#96518a; stroke:none;" d="M318 35L333 42C329.355 37.7481 323.638 34.8755 318 35M225 36C219.935 40.3431 220.516 43.8174 221 50L222 50L224 47L224 46L224 45L225 36z"/>
<path style="fill:#224f96; stroke:none;" d="M240 36C232.703 44.2814 224.432 51.757 222 63L221 63L222 55C215.964 58.326 210.715 64.6777 208 71L211 69L211 75L212 75L220 60L220 72L221 72L226 57L227 57L226 64L227 64L229 63C229.098 59.2659 234.075 42.2525 238 45L240 36z"/>
<path style="fill:#96518a; stroke:none;" d="M229 37L230 38L229 37z"/>
<path style="fill:#38a9cb; stroke:none;" d="M228 38L229 39L228 38z"/>
<path style="fill:#96518a; stroke:none;" d="M264 38L260 43L266 41L264 38z"/>
<path style="fill:#224f96; stroke:none;" d="M249 40L248 44L249 44L249 40z"/>
<path style="fill:#fbfcfd; stroke:none;" d="M254 71L255 71C259.464 57.2777 267.074 49.0507 279 41C265.616 38.7728 254.866 60.4083 254 71z"/>
<path style="fill:#96518a; stroke:none;" d="M333 42L339 47L333 42z"/>
<path style="fill:#38a9cb; stroke:none;" d="M224.333 43.6667L224.667 44.3333L224.333 43.6667M236 43C230.724 53.3494 228 62.3646 228 74L229 74L236 43z"/>
<path style="fill:#96518a; stroke:none;" d="M244 44L243 52L244 52L247 45L244 44z"/>
<path style="fill:#cf55d3; stroke:none;" d="M390 44L399 56L396 46L395 46L394 48L390 44z"/>
<path style="fill:#96518a; stroke:none;" d="M267 46L268 47L267 46M270.667 46.3333L271.333 46.6667L270.667 46.3333M266 47L267 48L266 47M396 48L400 66L402 64L413 79L414 78C408.877 68.7344 404.323 54.5925 396 48z"/>
<path style="fill:#38a9cb; stroke:none;" d="M242 50L234 65C237.51 62.6107 242.687 54.3083 242 50z"/>
<path style="fill:#96518a; stroke:none;" d="M262 51L263 52L262 51z"/>
<path style="fill:#224f96; stroke:none;" d="M264 59L272 52C267.549 51.1036 265.284 55.2363 264 59M238.333 54.6667L238.667 55.3333L238.333 54.6667M240.333 54.6667L240.667 55.3333L240.333 54.6667M287 58L303 57C299.331 52.8007 290.989 55.1633 287 58z"/>
<path style="fill:#96518a; stroke:none;" d="M298 56L298 57L302 57L298 56z"/>
<path style="fill:#38a9cb; stroke:none;" d="M226 57L220 70L219 70L218 75C224.192 73.928 227.986 62.5512 226 57z"/>
<path style="fill:#96518a; stroke:none;" d="M278 66L288 59C283.01 57.5316 279.866 61.86 278 66M256.333 59.6667L256.667 60.3333L256.333 59.6667z"/>
<path style="fill:#0c041c; stroke:none;" d="M218 60L212 79L213 79L220 60L218 60z"/>
<path style="fill:#96518a; stroke:none;" d="M237.333 60.6667L237.667 61.3333L237.333 60.6667z"/>
<path style="fill:#224f96; stroke:none;" d="M234.333 62.6667L234.667 63.3333L234.333 62.6667M275 71L286 65C282.062 59.7006 276.795 67.1542 275 71z"/>
<path style="fill:#fbfcfd; stroke:none;" d="M220 63C217.84 70.5575 214.288 79.8509 207.945 84.841C202.569 89.0703 193.828 90.3507 190 96C203.117 92.7917 226.069 80.1072 220 63z"/>
<path style="fill:#96518a; stroke:none;" d="M254 64L254 67L255 67L254 64z"/>
<path style="fill:#fbfcfd; stroke:none;" d="M402 64L405 78L406 78L406 75L410 78C409.251 72.7446 407.04 66.2823 402 64M234 65L234 75L235 75L234 65z"/>
<path style="fill:#224f96; stroke:none;" d="M235 65L235 75L236 75L235 65z"/>
<path style="fill:#96518a; stroke:none;" d="M276 65L277 66L276 65z"/>
<path style="fill:#fbfcfd; stroke:none;" d="M277 65L270 76L271 76L277 65z"/>
<path style="fill:#224f96; stroke:none;" d="M218.333 66.6667L218.667 67.3333L218.333 66.6667M227 67L229 85L230 85L227 67M233 67L233 75L234 75L233 67M253.333 68.6667L253.667 69.3333L253.333 68.6667z"/>
<path style="fill:#96518a; stroke:none;" d="M402 68L402 72L403 72L402 68z"/>
<path style="fill:#38a9cb; stroke:none;" d="M410 68L411 75L412 75L410 68z"/>
<path style="fill:#224f96; stroke:none;" d="M255 69L255 73L256 73L255 69z"/>
<path style="fill:#96518a; stroke:none;" d="M272 69L272 71L274 69L272 69z"/>
<path style="fill:#38a9cb; stroke:none;" d="M253 70L253 76L254 76L253 70z"/>
<path style="fill:#cf55d3; stroke:none;" d="M403.333 70.6667L403.667 71.3333L403.333 70.6667z"/>
<path style="fill:#224f96; stroke:none;" d="M216.333 71.6667L216.667 72.3333L216.333 71.6667M252 71L254 77L252 71z"/>
<path style="fill:#96518a; stroke:none;" d="M404 74L404 78L405 78L404 74M211 75C210.007 88.5557 192.321 85.2401 189 96L190 96C195.886 90.0846 216.913 86.7861 211 75z"/>
<path style="fill:#38a9cb; stroke:none;" d="M214 75L214 77L216 75L214 75M234 75C234.156 80.3828 235.464 88.6595 240 92L234 75z"/>
<path style="fill:#cf55d3; stroke:none;" d="M406 75L406 81L407 81L406 75z"/>
<path style="fill:#96518a; stroke:none;" d="M266 84L271 76C266.957 77.3098 266.366 79.9767 266 84z"/>
<path style="fill:#cf55d3; stroke:none;" d="M410 76L416 91L417 91C416.85 84.7606 414.426 80.3539 410 76z"/>
<path style="fill:#96518a; stroke:none;" d="M407 77L412 99L413 99L410 80L409 77L407 77z"/>
<path style="fill:#224f96; stroke:none;" d="M269 78L269 81L270 81L269 78z"/>
<path style="fill:#0c041c; stroke:none;" d="M413 78C414.407 82.4403 416.139 86.1664 421 87L413 78z"/>
<path style="fill:#96518a; stroke:none;" d="M405.333 79.6667L405.667 80.3333L405.333 79.6667z"/>
<path style="fill:#0c041c; stroke:none;" d="M408 79C408.788 85.3239 411.942 99.7781 419 101C415.988 94.0386 414.831 83.1362 408 79z"/>
<path style="fill:#96518a; stroke:none;" d="M235.333 82.6667L235.667 83.3333L235.333 82.6667z"/>
<path style="fill:#224f96; stroke:none;" d="M265 84L264 91L267 84L265 84M409 84L410 89L411 89L409 84z"/>
<path style="fill:#38a9cb; stroke:none;" d="M421 84L421 87L422 87L421 84z"/>
<path style="fill:#224f96; stroke:none;" d="M239 86L240 92L241 101C245.033 96.5589 241.629 90.591 239 86z"/>
<path style="fill:#96518a; stroke:none;" d="M417 87L415 90L419 100L417 103L423 106L416 106L416 107L425 108L420 87L417 87z"/>
<path style="fill:#38a9cb; stroke:none;" d="M189 96L189 97C195.138 97.7242 207.847 94.8492 209 88L189 96z"/>
<path style="fill:#96518a; stroke:none;" d="M414.333 88.6667L414.667 89.3333L414.333 88.6667z"/>
<path style="fill:#38a9cb; stroke:none;" d="M187 89L188 95L189 95L197 90L187 89z"/>
<path style="fill:#224f96; stroke:none;" d="M195 102L207 98L209 92L195 102z"/>
<path style="fill:#38a9cb; stroke:none;" d="M222 92L221 113L222 113C223.891 107.021 226.038 97.3306 222 92z"/>
<path style="fill:#fbfcfd; stroke:none;" d="M186 99L186 100C192.422 101.747 198.363 97.8741 204 95L186 99z"/>
<path style="fill:#96518a; stroke:none;" d="M186 95L186 108C179.249 108.905 176.193 113.412 178 120L180 114L190 108L190 107L187 107L185 99L185 98L188 95L186 95z"/>
<path style="fill:#224f96; stroke:none;" d="M188 95L185 99L190 99L188 95M384 95L394 102L394 101L392 101L392 100L400 102L400 101L384 95z"/>
<path style="fill:#38a9cb; stroke:none;" d="M200 96L200 97L203 97L200 96z"/>
<path style="fill:#224f96; stroke:none;" d="M413 96C412.711 99.7524 413.146 101.325 417 102L417 101L413 96z"/>
<path style="fill:#38a9cb; stroke:none;" d="M195 99L188 101L188 102L193 105C198.071 103.997 203.252 101.496 206 97C202.424 98.3525 197.848 102.729 195 99M196 98L196 99L199 99L196 98z"/>
<path style="fill:#224f96; stroke:none;" d="M224 99L224 105L225 105L224 99z"/>
<path style="fill:#38a9cb; stroke:none;" d="M243 99C241.407 107.246 248.633 118.31 249.714 127C252.457 149.052 241.742 157.851 225.144 169.352C221.489 171.884 220.452 175.437 216 177L220 189L221 188L218 182C225.299 185.236 231.361 185.586 239 183L239 182L224 179L224 178L240 173L240 172L223 176C237.258 165.044 254.258 162.636 253 141L255 142C254.737 129.252 251.495 108.922 243 99z"/>
<path style="fill:#fbfcfd; stroke:none;" d="M392 100L392 101L397 106L413 104L413 103L392 100z"/>
<path style="fill:#38a9cb; stroke:none;" d="M424 101C424.147 105.949 425.135 109.181 430 111C429.642 106.254 427.809 103.773 424 101z"/>
<path style="fill:#224f96; stroke:none;" d="M187 102L187 103L193 105L187 102M195 108L202 107L202 108L179 119L179 120L182 125L188 124L188 125L179 129C185.641 133.537 192.601 128.664 199 126L199 125L191 127L191 123L194 123C194.583 117.653 199.675 115.407 204 113L203 106L199 106L201 102L195 108M402 102L402 103L412 103L402 102z"/>
<path style="fill:#cf55d3; stroke:none;" d="M412 102L412 103L417 104L417 102L412 102z"/>
<path style="fill:#0c041c; stroke:none;" d="M187 103L187 107L192 106L192 104L187 103M413 104L413 106L423 106C420.344 102.331 417.096 103.485 413 104z"/>
<path style="fill:#fbfcfd; stroke:none;" d="M183 115L202 108L202 107L192 110L196 104C190.473 105.834 185.557 109.732 183 115z"/>
<path style="fill:#96518a; stroke:none;" d="M411.667 104.333L412.333 104.667L411.667 104.333z"/>
<path style="fill:#224f96; stroke:none;" d="M243 105L244 109L245 109L243 105M394 105C395.434 109.317 398.779 109.875 403 110L403 109L400 109L400 108L416 107L416 106L394 105z"/>
<path style="fill:#38a9cb; stroke:none;" d="M396 105L402 107L402 106L396 105z"/>
<path style="fill:#96518a; stroke:none;" d="M405 105L405 106L410 106L405 105z"/>
<path style="fill:#38a9cb; stroke:none;" d="M190 106L191 107L190 106M192 110L197 109L192 110z"/>
<path style="fill:#224f96; stroke:none;" d="M247 107L254 125C253.452 119.505 251.562 110.423 247 107z"/>
<path style="fill:#fbfcfd; stroke:none;" d="M400 108L400 109L418 114L418 113L411 111L411 110L422 108L400 108z"/>
<path style="fill:#96518a; stroke:none;" d="M405 107L405 108L411 108L405 107z"/>
<path style="fill:#0c041c; stroke:none;" d="M417 113L432 114L432 112C426.208 109.469 420.725 105.482 417 113z"/>
<path style="fill:#224f96; stroke:none;" d="M245 109L245 112L246 112L245 109z"/>
<path style="fill:#96518a; stroke:none;" d="M411 110L411 111L419 111L411 110M405 111L405 112L408 112L405 111z"/>
<path style="fill:#38a9cb; stroke:none;" d="M183 115L183 113L181 113L180 119C186.013 118.995 191.86 119.042 193 112L183 115z"/>
<path style="fill:#224f96; stroke:none;" d="M220 112C216.341 121.053 210.487 128.683 201 132L202 134L186 140L186 141L207 133L207 134L192 142L192 143C201.791 141.696 227.068 123.47 220 112z"/>
<path style="fill:#96518a; stroke:none;" d="M410.667 112.333L411.333 112.667L410.667 112.333z"/>
<path style="fill:#224f96; stroke:none;" d="M410 113L410 114L413 114L410 113z"/>
<path style="fill:#96518a; stroke:none;" d="M413.667 113.333L414.333 113.667L413.667 113.333M417 114L422 118L429 116L417 114M432 113L433 116L436 115L436 114L432 113z"/>
<path style="fill:#38a9cb; stroke:none;" d="M176 114L180 127C177.315 127.573 174.286 128.586 174.546 132.029C174.826 135.729 178.941 137.183 180.487 140.209C183.066 145.257 185.426 153.386 186 159L187 159C188.484 152.83 186.711 149.532 184 144L189 144L189 143L183 143L202 134L202 133L188 135L176 134L176 133L180 134L179 131L187 132L187 131L179 129L188 125L188 124L182 125L176 114z"/>
<path style="fill:#fbfcfd; stroke:none;" d="M417 120L417 121C422.542 120.281 429.924 119.051 433 114L417 120M183 117L183 118L189 118L189 116L183 117z"/>
<path style="fill:#96518a; stroke:none;" d="M427 121L399 121L399 122L435 123L435 121L430 120L431 117L427 121z"/>
<path style="fill:#224f96; stroke:none;" d="M415 119L415 120L420 119L415 119z"/>
<path style="fill:#cf55d3; stroke:none;" d="M426.667 118.333L427.333 118.667L426.667 118.333M420 120L420 121L427 121L420 120z"/>
<path style="fill:#224f96; stroke:none;" d="M204 122L206 124L206 122L204 122z"/>
<path style="fill:#96518a; stroke:none;" d="M438.333 122.667L438.667 123.333L438.333 122.667z"/>
<path style="fill:#38a9cb; stroke:none;" d="M201 126L205 123L201 126z"/>
<path style="fill:#fbfcfd; stroke:none;" d="M179 131C184.064 139.891 196.972 131.275 201 125C193.292 127.22 187.354 132.914 179 131z"/>
<path style="fill:#224f96; stroke:none;" d="M199 127L197 128L197 129L199 127z"/>
<path style="fill:#96518a; stroke:none;" d="M422 129L431 129C428.653 126.314 424.347 126.314 422 129M433 127C432.969 135.792 429.976 136.967 422 134L421 139L422 139L425 137L422 140L422 141L426 141L426 138L435 139L433 127z"/>
<path style="fill:#224f96; stroke:none;" d="M254 128L254 136L255 136L254 128z"/>
<path style="fill:#96518a; stroke:none;" d="M413 128C416.433 132.504 419.643 132.664 425 133L413 128z"/>
<path style="fill:#cf55d3; stroke:none;" d="M424 128L424 129L429 130L429 129L424 128z"/>
<path style="fill:#fbfcfd; stroke:none;" d="M426 128L426 129L430 129L426 128z"/>
<path style="fill:#224f96; stroke:none;" d="M196 129L191 132L191 133L196 129M219 135L220 136L224 131L219 135z"/>
<path style="fill:#cf55d3; stroke:none;" d="M421 132L432 137L421 132z"/>
<path style="fill:#224f96; stroke:none;" d="M176 133L176 134L184 137L176 133z"/>
<path style="fill:#38a9cb; stroke:none;" d="M198 138L207 134L198 138z"/>
<path style="fill:#96518a; stroke:none;" d="M426.667 133.333L427.333 133.667L426.667 133.333z"/>
<path style="fill:#224f96; stroke:none;" d="M188 134C188.766 137.558 190.867 136.582 194 136L188 134z"/>
<path style="fill:#96518a; stroke:none;" d="M428 134L428 135L431 135L428 134z"/>
<path style="fill:#38a9cb; stroke:none;" d="M219 135L214 143L219 135z"/>
<path style="fill:#224f96; stroke:none;" d="M255 136L255 140L256 140L255 136M249 137L249 142C240.838 144.359 230.475 161.804 226 169C236.786 164.48 254.711 151.002 249 137z"/>
<path style="fill:#cf55d3; stroke:none;" d="M422 137L422 140L425 140L425 137L422 137z"/>
<path style="fill:#fbfcfd; stroke:none;" d="M183 141L183 143L199 139L183 141z"/>
<path style="fill:#96518a; stroke:none;" d="M436.333 140.667L436.667 141.333L436.333 140.667z"/>
<path style="fill:#fbfcfd; stroke:none;" d="M206 155L207 155L215 141C209.247 143.747 206.916 148.892 206 155M253 141L253 146L254 146L253 141z"/>
<path style="fill:#224f96; stroke:none;" d="M184 144L185 147L191 144L184 144z"/>
<path style="fill:#96518a; stroke:none;" d="M433 143L433 152L434 152L435 143L433 143M421 146L425 152L426 151L421 146z"/>
<path style="fill:#224f96; stroke:none;" d="M196 147L196 153L199 147L196 147M211 147L208 154L209 154L211 147M253 147L253 151L254 151L253 147z"/>
<path style="fill:#96518a; stroke:none;" d="M195.333 149.667L195.667 150.333L195.333 149.667z"/>
<path style="fill:#38a9cb; stroke:none;" d="M196.333 149.667L196.667 150.333L196.333 149.667z"/>
<path style="fill:#224f96; stroke:none;" d="M206 149L206 152L207 152L206 149M393 151L393 153L398 164L395 175C398.245 174.639 398.242 173.151 398 170L402 173L400 154L393 151M194.333 151.667L194.667 152.333L194.333 151.667z"/>
<path style="fill:#38a9cb; stroke:none;" d="M195 151C194.392 155.946 191.229 162.888 196 166L195 151z"/>
<path style="fill:#cf55d3; stroke:none;" d="M425 151L431 163L432 163C431.108 157.624 430.182 153.503 425 151z"/>
<path style="fill:#224f96; stroke:none;" d="M204 152L204 160C207.321 158.901 207.737 157.41 208 154L207 154L206 159L205 159L206 152L204 152z"/>
<path style="fill:#96518a; stroke:none;" d="M434 152L434 158L431 156L433 170L434 167L435 167L434 186L433 186L433 180L432 180C429.844 200.391 428.903 217.3 418.191 235.91C415.302 240.93 409.576 242.752 407 248C417.858 245.928 421.885 235.91 426.14 226.83C435.616 206.608 443.097 173.43 434 152z"/>
<path style="fill:#224f96; stroke:none;" d="M189 153L194 160L194 154L193 154L193 157L189 153z"/>
<path style="fill:#38a9cb; stroke:none;" d="M394 153L396 156L394 153z"/>
<path style="fill:#96518a; stroke:none;" d="M398 153L401 160L402 160L398 153z"/>
<path style="fill:#fbfcfd; stroke:none;" d="M188 154L193 162L188 154M194 154L194 159L195 159L194 154z"/>
<path style="fill:#38a9cb; stroke:none;" d="M205 154L205 159L206 159L205 154z"/>
<path style="fill:#224f96; stroke:none;" d="M187 156C184.888 159.83 182.161 159.951 178 160L178 161L191 161L187 156z"/>
<path style="fill:#38a9cb; stroke:none;" d="M396.333 156.667L396.667 157.333L396.333 156.667z"/>
<path style="fill:#0c041c; stroke:none;" d="M398 156L404 181L405 181C405 172.787 404.579 161.785 398 156z"/>
<path style="fill:#38a9cb; stroke:none;" d="M178 158L178 159L183 159L178 158z"/>
<path style="fill:#224f96; stroke:none;" d="M249 158L239 169L243 169L243 170L237 176C250.238 174.955 260.141 177.052 273 180L273 179C268.527 176.764 252.643 174.984 252 170L246 171L249 158M402 158L405 174L406 174L402 158z"/>
<path style="fill:#96518a; stroke:none;" d="M178 159L178 160L186 160L178 159M177 203C185.09 203.073 187.675 206.458 190 214L191 214L190 201L189 201L189 203L188 203L188 200L187 200L173 192C169.091 181.799 169.456 168.61 178 161C172.92 159.91 170.832 166.964 170.146 171C167.78 184.921 172.556 190.608 177 203z"/>
<path style="fill:#0c041c; stroke:none;" d="M175 188C175.335 180.196 175.327 168.871 181 163C180.01 175.121 171.522 195.86 187 202L187 181L186 181L185 193L183 193L186 165L194 166C191.771 160.681 181.644 158.358 176.699 162.028C171.08 166.197 169.351 183.926 175 188z"/>
<path style="fill:#96518a; stroke:none;" d="M215 162L214 167L217 162L215 162M179 163L180 168L181 168L179 163z"/>
<path style="fill:#224f96; stroke:none;" d="M174 164C169.871 171.371 169.027 184.365 173 192L178 193L178 185L177 185L177 189L176 189L176 182L175 182L175 188C168.025 180.612 175.44 172.073 174 164z"/>
<path style="fill:#38a9cb; stroke:none;" d="M178 165L178 180L179 180L180 165L178 165z"/>
<path style="fill:#96518a; stroke:none;" d="M186.667 165.333L187.333 165.667L186.667 165.333z"/>
<path style="fill:#fbfcfd; stroke:none;" d="M183 192L184 192C186.438 181.76 183.704 174.08 192 166C181.686 164.053 183.019 185.112 183 192z"/>
<path style="fill:#224f96; stroke:none;" d="M196 165C187.401 168.438 185.026 172.769 185 182L187 181L188 197L189 197L190.013 179.089L196 165z"/>
<path style="fill:#fbfcfd; stroke:none;" d="M223 176L243 170L243 169L237 170L237 169L241 165C234.746 166.193 227.264 171.36 223 176M212 166L210 171L214 166L212 166z"/>
<path style="fill:#224f96; stroke:none;" d="M179 168L179 172L180 172L179 168z"/>
<path style="fill:#96518a; stroke:none;" d="M210 168L211 169L210 168z"/>
<path style="fill:#38a9cb; stroke:none;" d="M237 170L240 170L239 168L237 170M209 170L209 172L211 172L209 170z"/>
<path style="fill:#224f96; stroke:none;" d="M221 170L215 176L216 187L215 187L209 172L217 204L219 203L219 207L220 207L220 203L221 203L221 205L222 205L221 193L224 193L224 199L225 199L226 194L237 195L237 194L233 194L233 193L244 193L244 192C231.185 192 217.409 193.134 216 177C220.366 176.09 221.669 174.143 223 170L221 170z"/>
<path style="fill:#38a9cb; stroke:none;" d="M398 170L398 173L399 173L398 170z"/>
<path style="fill:#cf55d3; stroke:none;" d="M419 171L419 172C426.452 172.409 429.355 177.138 431 184C434.378 175.714 426.683 169.759 419 171z"/>
<path style="fill:#38a9cb; stroke:none;" d="M184.333 171.667L184.667 172.333L184.333 171.667z"/>
<path style="fill:#fbfcfd; stroke:none;" d="M399 171L401 174L399 171z"/>
<path style="fill:#96518a; stroke:none;" d="M411 181L412 181C415.059 174.982 418.276 173.075 425 173C417.628 169.697 412.38 173.388 411 181z"/>
<path style="fill:#224f96; stroke:none;" d="M176 173L176 181L177 181L176 173z"/>
<path style="fill:#fbfcfd; stroke:none;" d="M177 173L177 182L178 182L177 173z"/>
<path style="fill:#224f96; stroke:none;" d="M199 175L200 188L201 188L205 173L199 175z"/>
<path style="fill:#38a9cb; stroke:none;" d="M206 173L210 182C210.251 178.054 209.459 175.109 206 173z"/>
<path style="fill:#cf55d3; stroke:none;" d="M401 173L399 201C403.821 196.158 404.182 178.985 401 173z"/>
<path style="fill:#96518a; stroke:none;" d="M425.667 173.333L426.333 173.667L425.667 173.333z"/>
<path style="fill:#0c041c; stroke:none;" d="M398 174L397.532 190.999L393 209L394 209L396 201L399 203L400 174L398 174z"/>
<path style="fill:#96518a; stroke:none;" d="M405 174L405 192C408.906 188.587 407 178.93 407 174L405 174z"/>
<path style="fill:#38a9cb; stroke:none;" d="M241 175L241 176L260 177L241 175z"/>
<path style="fill:#96518a; stroke:none;" d="M395 175L395 195L394 195L394 190L393 190L392 197L394 199C399.746 194.872 398.936 180.195 395 175z"/>
<path style="fill:#224f96; stroke:none;" d="M207 176L207 179L208 179L207 176z"/>
<path style="fill:#fbfcfd; stroke:none;" d="M224 178L224 179C241.441 178.952 269.116 173.451 282 189L220 188L220 189C229.648 193.644 240.769 191.487 251 191.039C262.746 190.525 274.326 191.968 286 192L286 214L287 214L288 192L323 193L323 209C317.183 202.361 310.598 196.44 301 199.564C288.688 203.571 288.825 221.185 277.91 227.583C267.973 233.407 244.3 232.41 235.105 225.348C228.006 219.896 225.774 202.598 230 195L226 194C226 203.914 224.894 220.622 231.702 228.721C234.934 232.567 240.486 231.998 245 232C256.438 232.004 273.226 235.145 282.985 228.058C291.358 221.977 293.989 200.348 306.999 201.272C321.451 202.299 320.136 222.425 329.043 229.443C338.192 236.652 357.848 236.03 369 234.714C372.67 234.281 378.46 234.811 380.995 231.682C387.608 223.52 386.613 206.912 389 197C384.146 198.04 385.151 204.916 385 209C384.764 215.371 381.57 225.356 376.583 229.667C372.564 233.141 362.99 232 358 232C351.94 232 344.922 232.968 339 231.583C321.865 227.577 325.654 205.974 325 193L391 194L391 192L328 190L329 187C318.962 190.563 300.475 192.999 290 189.411C284.088 187.386 279.005 182.639 273 180.32C259.922 175.27 237.161 172.447 224 178z"/>
<path style="fill:#224f96; stroke:none;" d="M361 177L361 178L376 178L361 177M411.333 176.667L411.667 177.333L411.333 176.667z"/>
<path style="fill:#38a9cb; stroke:none;" d="M183 177L183 184L184 184L183 177M212 177L215 187L216 187L212 177z"/>
<path style="fill:#cf55d3; stroke:none;" d="M262.667 177.333L263.333 177.667L262.667 177.333z"/>
<path style="fill:#224f96; stroke:none;" d="M377 177L388 181L388 182L349 182L349 183L380 183L380 185L370 185C373.833 191.566 384.365 190 391 190L391 191L378 191L378 192C382.991 192 390.118 193.67 392 188L393 188L393 190L394 190L393 177L377 177z"/>
<path style="fill:#fbfcfd; stroke:none;" d="M199 178L199 190L200 190L199 178z"/>
<path style="fill:#224f96; stroke:none;" d="M230 179L230 180L250 183L250 180L263 181C254.113 176.729 239.455 176.749 230 179z"/>
<path style="fill:#38a9cb; stroke:none;" d="M251 178L251 179L256 179L251 178z"/>
<path style="fill:#cf55d3; stroke:none;" d="M266.667 178.333L267.333 178.667L266.667 178.333z"/>
<path style="fill:#96518a; stroke:none;" d="M360 178L360 179L377 179L360 178M429 178L429 181L430 181L429 178z"/>
<path style="fill:#224f96; stroke:none;" d="M198.333 179.667L198.667 180.333L198.333 179.667z"/>
<path style="fill:#38a9cb; stroke:none;" d="M258 179L258 180L262 180L258 179z"/>
<path style="fill:#96518a; stroke:none;" d="M335 182L335 183L352 180L335 182z"/>
<path style="fill:#fbfcfd; stroke:none;" d="M343 181L343 182L388 182C378.557 174.809 353.896 178.376 343 181M405 179L401.265 198L392 215L393 215C399.922 205.337 410.358 191.769 405 179z"/>
<path style="fill:#0c041c; stroke:none;" d="M250 180L250 183L238 183L238 184L245 184L245 185L237 186L237 187L282 189C276.688 179.805 259.236 180.113 250 180z"/>
<path style="fill:#96518a; stroke:none;" d="M263.667 180.333L264.333 180.667L263.667 180.333M273.667 180.333L274.333 180.667L273.667 180.333z"/>
<path style="fill:#224f96; stroke:none;" d="M403 180L401 196C405.25 192.768 406.157 184.172 403 180z"/>
<path style="fill:#38a9cb; stroke:none;" d="M176 181L177 185L178 185L176 181M198 181L198 184L199 184L198 181z"/>
<path style="fill:#fbfcfd; stroke:none;" d="M210.333 181.667L210.667 182.333L210.333 181.667z"/>
<path style="fill:#cf55d3; stroke:none;" d="M327 186L328 190L329 190L330 190C332.195 183.036 342.967 183.004 349 183C341.883 179.833 333.731 183.257 327 186z"/>
<path style="fill:#96518a; stroke:none;" d="M353 181L353 182L372 182L353 181M420 181L423 184L420 181z"/>
<path style="fill:#224f96; stroke:none;" d="M218 182C220.637 191.091 234.43 188 242 188L242 187L237 187L237 186L245 185L218 182z"/>
<path style="fill:#96518a; stroke:none;" d="M272.667 182.333L273.333 182.667L272.667 182.333z"/>
<path style="fill:#fbfcfd; stroke:none;" d="M176 183L176 189L177 189L176 183z"/>
<path style="fill:#38a9cb; stroke:none;" d="M210 183L214 191L215 191L210 183z"/>
<path style="fill:#96518a; stroke:none;" d="M274 183L274 184L278 185L278 184L274 183M333 185L333 186L344 184L333 185z"/>
<path style="fill:#0c041c; stroke:none;" d="M332 186C335.044 190.714 341.952 189.681 347 190.17C361.582 191.581 376.34 191 391 191L391 190C383.733 190 375.204 190.902 370 185L380 185L380 183L332 186z"/>
<path style="fill:#96518a; stroke:none;" d="M402 183L402 188L403 188L402 183z"/>
<path style="fill:#cf55d3; stroke:none;" d="M423 183L422 214L423 214C426.843 205.332 430.576 190.591 423 183z"/>
<path style="fill:#fbfcfd; stroke:none;" d="M394 185L394 190L395 190L394 185z"/>
<path style="fill:#96518a; stroke:none;" d="M279.667 186.333L280.333 186.667L279.667 186.333z"/>
<path style="fill:#fbfcfd; stroke:none;" d="M187 187L188 203L189 203L187 187z"/>
<path style="fill:#224f96; stroke:none;" d="M329 188L329 189L339 190L329 188M186 188L186 199L187 199L186 188z"/>
<path style="fill:#38a9cb; stroke:none;" d="M200 188L200 216L202 216L202 198L201 198L201 212L200 212L200 188z"/>
<path style="fill:#96518a; stroke:none;" d="M253 188L253 189L259 189L253 188z"/>
<path style="fill:#224f96; stroke:none;" d="M259 188L259 189L268 189L259 188z"/>
<path style="fill:#96518a; stroke:none;" d="M307.667 188.333L308.333 188.667L307.667 188.333M325 188L326 189L325 188z"/>
<path style="fill:#cf55d3; stroke:none;" d="M392 188L387 196C385.792 190.363 368.154 193 363 193L363 194L389 197L388 200L389 200L391 198L391 211L394 210L394 196L392 197L392 188z"/>
<path style="fill:#96518a; stroke:none;" d="M409 188L401 244L402 244C403.521 227.14 416.132 204.996 409 188M288 189L288 190L307 190L288 189z"/>
<path style="fill:#224f96; stroke:none;" d="M184 190L183 193L184 190z"/>
<path style="fill:#cf55d3; stroke:none;" d="M310.667 190.333L311.333 190.667L310.667 190.333z"/>
<path style="fill:#96518a; stroke:none;" d="M335 190L335 191L350 191L335 190z"/>
<path style="fill:#cf55d3; stroke:none;" d="M394 190L394 195L395 195L394 190z"/>
<path style="fill:#38a9cb; stroke:none;" d="M227 191L227 192L231 192L227 191z"/>
<path style="fill:#96518a; stroke:none;" d="M246 191L246 192L257 192L246 191z"/>
<path style="fill:#cf55d3; stroke:none;" d="M257 191L257 192L278 192L257 191z"/>
<path style="fill:#96518a; stroke:none;" d="M370 191L370 192L378 192L370 191z"/>
<path style="fill:#fbfcfd; stroke:none;" d="M200 192L200 212L201 212L200 192z"/>
<path style="fill:#224f96; stroke:none;" d="M208 192L208 218L209 218L209 211L210 211L211 227L212 227L213 198L208 192z"/>
<path style="fill:#0c041c; stroke:none;" d="M233 193L233 194L279 197L279 201L234 198L233 209C229.969 211.652 230.893 215.805 234 218C233.393 222.053 235.155 223.199 239 224L239 225L237 225L237 226C248.306 230.038 277.991 234.266 284.821 220.985C288.195 214.423 285 200.503 285 193L233 193z"/>
<path style="fill:#96518a; stroke:none;" d="M262 192L262 193L266 193L262 192M276 192L276 193L285 193L285 213L286 213L286 192L276 192z"/>
<path style="fill:#cf55d3; stroke:none;" d="M288 192L288 208L289 208L289 193L308 193L288 192z"/>
<path style="fill:#96518a; stroke:none;" d="M424 192L422 211L423 211L424 192z"/>
<path style="fill:#38a9cb; stroke:none;" d="M221 193L222 205L221 205L221 203L220 203L220 207L219 207L219 203L218 203C213.371 218.809 219.302 239.784 220 256L221 256L220 211L221 211L222 225L225 225L225 210L226 210L226 216L227 216L226 195L225 195L225 199L224 199L224 193L221 193z"/>
<path style="fill:#0c041c; stroke:none;" d="M289 193L288 213L289 213C297.499 199.179 308.354 192.491 321 206L322 206L322 194L289 193z"/>
<path style="fill:#96518a; stroke:none;" d="M310 193L310 194L322 194L322 206L321 206L319 204L323 209L323 193L310 193M325 193L326 212L327 212L326 194L366 195L352 193.985L325 193z"/>
<path style="fill:#cf55d3; stroke:none;" d="M346 193L346 194L361 194L346 193z"/>
<path style="fill:#96518a; stroke:none;" d="M427 193L427 200L428 200L427 193z"/>
<path style="fill:#0c041c; stroke:none;" d="M326 194C327.247 203.864 323.811 216.27 329.264 224.945C335.36 234.643 356.167 231.391 366 230.961C369.494 230.808 374.788 230.71 377.606 228.397C383.356 223.679 388.014 205.105 379.941 200.894C376.01 198.843 371.192 200.86 367 200.986C354.795 201.353 343.08 205.403 331 201L331 199L375 198L375 196L326 194z"/>
<path style="fill:#96518a; stroke:none;" d="M387 196L390 194L387 196z"/>
<path style="fill:#38a9cb; stroke:none;" d="M230 195L230 196L238 196L230 195z"/>
<path style="fill:#224f96; stroke:none;" d="M229 196C229 206.911 227.01 224.128 240 228L237 226L237 225L239 225L239 224C235.556 222.782 234.164 221.713 234 218C231.252 215.065 230.523 212.325 233 209L234 198L241 198L241 197L238 197L238 196L243 196L229 196M366 195L366 196L370 196L366 195z"/>
<path style="fill:#fbfcfd; stroke:none;" d="M381 195L381 196L386 196L381 195z"/>
<path style="fill:#cf55d3; stroke:none;" d="M228 196L228 211L229 211L228 196z"/>
<path style="fill:#fbfcfd; stroke:none;" d="M238 196L238 197L279 199C268.454 194.575 249.553 196 238 196z"/>
<path style="fill:#96518a; stroke:none;" d="M252 196L252 197L259 197L252 196z"/>
<path style="fill:#224f96; stroke:none;" d="M371 198L372 200L368 200L368 201L384 203L380 200L379 199L380 197L371 198z"/>
<path style="fill:#96518a; stroke:none;" d="M379 196L379 199L380 200C383.543 200.487 383.774 202.709 384 206L385 206L386 196L379 196z"/>
<path style="fill:#224f96; stroke:none;" d="M404 196L403 200L404 196z"/>
<path style="fill:#96518a; stroke:none;" d="M241 197L241 198L248 198L241 197z"/>
<path style="fill:#cf55d3; stroke:none;" d="M262 197L262 198L267 198L262 197z"/>
<path style="fill:#96518a; stroke:none;" d="M267 197L267 198L279 198L267 197M249 198L249 199L253 199L249 198z"/>
<path style="fill:#38a9cb; stroke:none;" d="M253 198L253 199L264 200L253 198z"/>
<path style="fill:#cf55d3; stroke:none;" d="M301 198L301 199L310 199L301 198z"/>
<path style="fill:#96518a; stroke:none;" d="M310 198L310 199L314 200L314 199L310 198z"/>
<path style="fill:#224f96; stroke:none;" d="M333 198L333 199L350 199L333 198z"/>
<path style="fill:#96518a; stroke:none;" d="M389 198C387.848 202.837 386.468 209.115 390 213L391 198L389 198z"/>
<path style="fill:#224f96; stroke:none;" d="M278 199L259 200L259 201L278 199z"/>
<path style="fill:#96518a; stroke:none;" d="M331.333 199.667L331.667 200.333L331.333 199.667z"/>
<path style="fill:#cf55d3; stroke:none;" d="M332 199L332 202L341 202L341 201L333 201L333 200L343 200L332 199z"/>
<path style="fill:#fbfcfd; stroke:none;" d="M333 200L333 201L363 200L333 200z"/>
<path style="fill:#cf55d3; stroke:none;" d="M362 200L362 201L366 200L362 200z"/>
<path style="fill:#96518a; stroke:none;" d="M365 200L365 201L372 200L365 200M297 200L297 202L299 200L297 200z"/>
<path style="fill:#224f96; stroke:none;" d="M314 200L314 201L317 202L314 200z"/>
<path style="fill:#cf55d3; stroke:none;" d="M301 202L301 203L310 202L301 202z"/>
<path style="fill:#224f96; stroke:none;" d="M334 202L334 203L360 202L334 202z"/>
<path style="fill:#96518a; stroke:none;" d="M396 201L395 207L396 207L396 201z"/>
<path style="fill:#cf55d3; stroke:none;" d="M310.667 202.333L311.333 202.667L310.667 202.333z"/>
<path style="fill:#96518a; stroke:none;" d="M401.333 202.667L401.667 203.333L401.333 202.667M426 202L426 205L427 205L426 202z"/>
<path style="fill:#38a9cb; stroke:none;" d="M183 203L187 208L183 203z"/>
<path style="fill:#cf55d3; stroke:none;" d="M312.667 203.333L313.333 203.667L312.667 203.333M397.333 204.667L397.667 205.333L397.333 204.667M387 205L387 210L388 210L387 205M384 206L384 214L385 214L384 206M405 206L403 217L404 217L405 206z"/>
<path style="fill:#38a9cb; stroke:none;" d="M187 208L189 211L187 208z"/>
<path style="fill:#cf55d3; stroke:none;" d="M291.333 208.667L291.667 209.333L291.333 208.667z"/>
<path style="fill:#224f96; stroke:none;" d="M317 208L318 212L319 212L317 208z"/>
<path style="fill:#96518a; stroke:none;" d="M294 209L293 213L294 213L294 209M425 209L424 212L425 209z"/>
<path style="fill:#224f96; stroke:none;" d="M225 210L225 225L222 225L221 211L220 211C220 238.959 228.592 266.165 234.807 293C235.884 297.651 234.883 302.296 236 307L237 307L237 303C241.483 302.35 237.416 293.404 237 290L238 290L247 312L250 310C244.414 292.715 238.489 277.549 237.598 259C237.302 252.836 239.899 238.281 235 234L235 233L239 233L239 232C228.458 230.369 228.643 217.909 225 210z"/>
<path style="fill:#96518a; stroke:none;" d="M300 212L301 213L304 210L300 212M319.333 210.667L319.667 211.333L319.333 210.667z"/>
<path style="fill:#cf55d3; stroke:none;" d="M386 210L386 214L387 214L386 210z"/>
<path style="fill:#38a9cb; stroke:none;" d="M209 211L209 218L210 218L209 211z"/>
<path style="fill:#cf55d3; stroke:none;" d="M325 211L325 218L326 218L325 211z"/>
<path style="fill:#96518a; stroke:none;" d="M421 211L421 216L422 216L421 211M287 212L286 220L287 220L287 212z"/>
<path style="fill:#cf55d3; stroke:none;" d="M299 212L298 217L301 212L299 212M314 212L314 218L315 218L314 212z"/>
<path style="fill:#96518a; stroke:none;" d="M315.333 212.667L315.667 213.333L315.333 212.667z"/>
<path style="fill:#224f96; stroke:none;" d="M320 212L324 224L320 212z"/>
<path style="fill:#96518a; stroke:none;" d="M423.333 212.667L423.667 213.333L423.333 212.667z"/>
<path style="fill:#38a9cb; stroke:none;" d="M431 212L429 219L430 219L431 212z"/>
<path style="fill:#96518a; stroke:none;" d="M292 213L291 217L292 217L292 213z"/>
<path style="fill:#38a9cb; stroke:none;" d="M191 214L198 235L199 235C198.29 227.92 195.511 219.589 191 214z"/>
<path style="fill:#cf55d3; stroke:none;" d="M321.333 214.667L321.667 215.333L321.333 214.667z"/>
<path style="fill:#96518a; stroke:none;" d="M400 214L400 220L401 220L403 215L400 214M297 215L297 218L298 218L297 215z"/>
<path style="fill:#224f96; stroke:none;" d="M401 215L393 253L397 253L403 215L401 215z"/>
<path style="fill:#fbfcfd; stroke:none;" d="M201 216L201 219L202 219L201 216M219 216C219 237.261 221.46 258.364 226.112 279C227.536 285.315 225.029 293.936 231 298L224.181 248L219 216z"/>
<path style="fill:#96518a; stroke:none;" d="M299 216L297 236L298 236L299 216z"/>
<path style="fill:#fbfcfd; stroke:none;" d="M315 216C315.007 226.505 322.239 240.959 318.397 250.981C315.11 259.556 299.001 259.314 295.604 250.895C291.996 241.954 298.592 226.499 299 217L298 217C293.68 230.66 292 246.718 292 261L293 261L294 256C297.334 257.211 300.456 259.236 304 259.786C332.278 264.178 317.01 231.24 317 216L315 216z"/>
<path style="fill:#96518a; stroke:none;" d="M385 216L385 221L386 221L385 216z"/>
<path style="fill:#cf55d3; stroke:none;" d="M290 217L290 220L291 220L290 217z"/>
<path style="fill:#fbfcfd; stroke:none;" d="M403 217C395.06 240.454 395.04 267.69 389.997 292C388.59 298.781 383.054 311.991 390 317C390 294.391 395.523 271.302 399.464 249C400.997 240.324 405.58 225.393 403 217M210 218L208 232L209 232L210 218z"/>
<path style="fill:#38a9cb; stroke:none;" d="M230.333 218.667L230.667 219.333L230.333 218.667z"/>
<path style="fill:#96518a; stroke:none;" d="M314 218L315 227L316 227L314 218M317 218L317 226L318 226L317 218z"/>
<path style="fill:#cf55d3; stroke:none;" d="M382 218L382 221L383 221L382 218M326.333 219.667L326.667 220.333L326.333 219.667M399 219L398 229L399 229L399 219z"/>
<path style="fill:#96518a; stroke:none;" d="M231.333 220.667L231.667 221.333L231.333 220.667M289 220L288 224L289 224L289 220M327 220L327 223L328 223L327 220z"/>
<path style="fill:#cf55d3; stroke:none;" d="M296 221L296 224L297 224L296 221M381.333 221.667L381.667 222.333L381.333 221.667z"/>
<path style="fill:#96518a; stroke:none;" d="M384 221L384 224L385 224L384 221z"/>
<path style="fill:#38a9cb; stroke:none;" d="M220 222L220 225L221 225L220 222z"/>
<path style="fill:#96518a; stroke:none;" d="M399.333 223.667L399.667 224.333L399.333 223.667z"/>
<path style="fill:#224f96; stroke:none;" d="M324.333 224.667L324.667 225.333L324.333 224.667M196 225L197 229L198 229L196 225M208 225L208 230L209 230L208 225z"/>
<path style="fill:#cf55d3; stroke:none;" d="M295 225L295 230L296 230L295 225z"/>
<path style="fill:#96518a; stroke:none;" d="M397.333 225.667L397.667 226.333L397.333 225.667z"/>
<path style="fill:#38a9cb; stroke:none;" d="M215 226L213 234L214 234L217 226L215 226z"/>
<path style="fill:#cf55d3; stroke:none;" d="M279.667 226.333L280.333 226.667L279.667 226.333z"/>
<path style="fill:#224f96; stroke:none;" d="M214.333 227.667L214.667 228.333L214.333 227.667M276 229L279 228L276 229z"/>
<path style="fill:#96518a; stroke:none;" d="M283 227L282 229L284 229L283 227M326 227L327 228L326 227z"/>
<path style="fill:#224f96; stroke:none;" d="M405 227L405 231L406 231L405 227z"/>
<path style="fill:#96518a; stroke:none;" d="M242 228L242 229L274 230L242 228M294 228L293 240L294 240L294 228M396 228L396 233L397 233L396 228z"/>
<path style="fill:#fbfcfd; stroke:none;" d="M397 228L397 233L398 233L397 228z"/>
<path style="fill:#96518a; stroke:none;" d="M400 228L400 231L401 231L400 228M281 229L279 230L279 231L281 229z"/>
<path style="fill:#cf55d3; stroke:none;" d="M318 229L318 232L319 232L318 229z"/>
<path style="fill:#96518a; stroke:none;" d="M333.667 229.333L334.333 229.667L333.667 229.333z"/>
<path style="fill:#cf55d3; stroke:none;" d="M254 230L254 231L270 231L254 230z"/>
<path style="fill:#96518a; stroke:none;" d="M316 230L317 238L318 238L316 230M330 230L330 232L332 232L330 230M335 230L335 231L338 231L335 230z"/>
<path style="fill:#224f96; stroke:none;" d="M370.667 230.333L371.333 230.667L370.667 230.333z"/>
<path style="fill:#96518a; stroke:none;" d="M372.667 230.333L373.333 230.667L372.667 230.333z"/>
<path style="fill:#38a9cb; stroke:none;" d="M374 230L374 231L377 231L374 230z"/>
<path style="fill:#224f96; stroke:none;" d="M199 231L202 240L203 240L199 231z"/>
<path style="fill:#38a9cb; stroke:none;" d="M207 231L206 241L207 241L207 231z"/>
<path style="fill:#96518a; stroke:none;" d="M234.667 231.333L235.333 231.667L234.667 231.333M268 232L268 233L278 232L268 232M338 231L338 232L366 232L338 231z"/>
<path style="fill:#cf55d3; stroke:none;" d="M366 231L366 232L370 232L366 231z"/>
<path style="fill:#224f96; stroke:none;" d="M212 232L213 236L214 236L212 232z"/>
<path style="fill:#96518a; stroke:none;" d="M239 232L239 233L256 233L239 232z"/>
<path style="fill:#cf55d3; stroke:none;" d="M256 232L256 233L268 233L256 232M319 232L319 236L320 236L319 232z"/>
<path style="fill:#96518a; stroke:none;" d="M333.667 232.333L334.333 232.667L333.667 232.333M335.667 233.333L336.333 233.667L335.667 233.333z"/>
<path style="fill:#cf55d3; stroke:none;" d="M396 233L389 263L390 263L398 233L396 233z"/>
<path style="fill:#96518a; stroke:none;" d="M341 234L341 235L352 235L341 234z"/>
<path style="fill:#cf55d3; stroke:none;" d="M370 234L370 235L380 235L370 234z"/>
<path style="fill:#38a9cb; stroke:none;" d="M212.333 235.667L212.667 236.333L212.333 235.667z"/>
<path style="fill:#cf55d3; stroke:none;" d="M296 235L296 240L297 240L296 235z"/>
<path style="fill:#224f96; stroke:none;" d="M364 235L364 236L380 236L364 235z"/>
<path style="fill:#96518a; stroke:none;" d="M211 236L208 247C211.27 244.546 213.211 239.593 211 236z"/>
<path style="fill:#cf55d3; stroke:none;" d="M403 236L399 250L401 251L407 249L407 248L403 249L403 236z"/>
<path style="fill:#224f96; stroke:none;" d="M205 237L205 242L204 242L204 240L203 240L206 251L207 251L205 237z"/>
<path style="fill:#96518a; stroke:none;" d="M321 238L321 242L322 242L321 238M328 238L328 245L329 245L329 239L330 239L331 254C332.975 249.292 333.624 239.867 328 238z"/>
<path style="fill:#cf55d3; stroke:none;" d="M329 239L331 263L333 263L329 239z"/>
<path style="fill:#96518a; stroke:none;" d="M292 240L292 244L293 244L292 240M296 240L298 254L296 240M318 240L317 254L318 254L318 240z"/>
<path style="fill:#224f96; stroke:none;" d="M392 240L388 253L386 252L384 267L386 262L387 262L387 265L388 265L395 240L392 240z"/>
<path style="fill:#cf55d3; stroke:none;" d="M321 242L321 247L322 247L321 242M398 242L398 246L399 246L398 242M295 243L295 253L296 253L295 243M292 244L292 250L293 250L292 244z"/>
<path style="fill:#96518a; stroke:none;" d="M322 245L322 254L323 254L322 245z"/>
<path style="fill:#38a9cb; stroke:none;" d="M224 246L224 251L225 251L224 246z"/>
<path style="fill:#cf55d3; stroke:none;" d="M397 246L397 250L398 250L397 246z"/>
<path style="fill:#96518a; stroke:none;" d="M400 249L395 287L396 287C401.333 276.056 401.465 262.133 403 250L400 249z"/>
<path style="fill:#224f96; stroke:none;" d="M219 250L219 255L216 254L217 262L218 262L218 259L219 259C219.006 268.037 222.071 276.167 222.896 285C223.356 289.926 221.988 294.956 228 296L223 267L222 267L222 272L221 272L219 250z"/>
<path style="fill:#38a9cb; stroke:none;" d="M206 251L206 256L215 255L216 263L217 263C216.964 252.782 211.867 256.6 206 251z"/>
<path style="fill:#cf55d3; stroke:none;" d="M291 251L293 262L291 251z"/>
<path style="fill:#38a9cb; stroke:none;" d="M232 252L237 270L238 270C237.547 264.449 236.852 255.324 232 252z"/>
<path style="fill:#96518a; stroke:none;" d="M392 252L387 273C391.366 272.064 391.79 262.167 392 258L393 258L392 273L393 273L396 252L392 252M207 253L207 254L216 254L207 253z"/>
<path style="fill:#38a9cb; stroke:none;" d="M222 253L223 263L224 263L222 253z"/>
<path style="fill:#96518a; stroke:none;" d="M326 253L323 258L326 258L327 258L326 253z"/>
<path style="fill:#cf55d3; stroke:none;" d="M396 253L396 256L397 256L396 253z"/>
<path style="fill:#96518a; stroke:none;" d="M298.667 254.333L299.333 254.667L298.667 254.333M316 254L317 255L316 254M321 254L319 257L321 254M300.667 255.333L301.333 255.667L300.667 255.333z"/>
<path style="fill:#cf55d3; stroke:none;" d="M314.667 255.333L315.333 255.667L314.667 255.333z"/>
<path style="fill:#96518a; stroke:none;" d="M294 258L298 258L294 258z"/>
<path style="fill:#cf55d3; stroke:none;" d="M302 256L302 257L305 257L302 256z"/>
<path style="fill:#96518a; stroke:none;" d="M305 256L305 257L313 257L305 256z"/>
<path style="fill:#cf55d3; stroke:none;" d="M325 256L323 260L325 256M306 257L306 258L310 258L306 257z"/>
<path style="fill:#38a9cb; stroke:none;" d="M226 258L226 261L227 261L226 258z"/>
<path style="fill:#cf55d3; stroke:none;" d="M293 258L293 261L294 261L293 258z"/>
<path style="fill:#96518a; stroke:none;" d="M298.667 258.333L299.333 258.667L298.667 258.333z"/>
<path style="fill:#cf55d3; stroke:none;" d="M392 258L384 304L386 304L390 281L391 281L391 285L392 285L392 258z"/>
<path style="fill:#96518a; stroke:none;" d="M218 259L219 272L220 272L218 259z"/>
<path style="fill:#38a9cb; stroke:none;" d="M221 259L221 272L222 272L221 259z"/>
<path style="fill:#cf55d3; stroke:none;" d="M300.667 259.333L301.333 259.667L300.667 259.333M313.667 259.333L314.333 259.667L313.667 259.333z"/>
<path style="fill:#96518a; stroke:none;" d="M322 259L325 261L325 260L322 259M302 260L302 261L314 261L314 260L302 260z"/>
<path style="fill:#cf55d3; stroke:none;" d="M304 260L304 261L311 261L304 260z"/>
<path style="fill:#96518a; stroke:none;" d="M291.667 262.333L292.333 262.667L291.667 262.333z"/>
<path style="fill:#fbfcfd; stroke:none;" d="M388 262L385 280L386 280L388 262z"/>
<path style="fill:#38a9cb; stroke:none;" d="M227.333 265.667L227.667 266.333L227.333 265.667z"/>
<path style="fill:#96518a; stroke:none;" d="M383 266L382 272L383 272L383 266z"/>
<path style="fill:#38a9cb; stroke:none;" d="M228 268L228 271L229 271L228 268M238 270C238.75 279.42 242.64 295.541 251 301L238 270z"/>
<path style="fill:#224f96; stroke:none;" d="M381 270L380 282L381 282L381 270z"/>
<path style="fill:#96518a; stroke:none;" d="M385 270L385 273L386 273L385 270z"/>
<path style="fill:#cf55d3; stroke:none;" d="M393.333 271.667L393.667 272.333L393.333 271.667z"/>
<path style="fill:#224f96; stroke:none;" d="M281 273L281 274L289 274L289 275L269 286L269 287C276.886 286.911 286.648 280.672 293 276C290.154 272.053 285.486 273 281 273z"/>
<path style="fill:#0c041c; stroke:none;" d="M387 273L385 284C389.269 281.506 388.987 277.568 389 273L387 273z"/>
<path style="fill:#38a9cb; stroke:none;" d="M277 274L277 275L280 275L277 274z"/>
<path style="fill:#fbfcfd; stroke:none;" d="M258 293L259 293C262.278 287.344 265.616 283.007 272 281L270 284L289 275C276.902 269.925 258.32 279.771 258 293z"/>
<path style="fill:#224f96; stroke:none;" d="M327 277C330.919 280.213 335.955 284.791 341 282L332 277C343.263 272.248 354.019 279.774 363 286C359.37 274.405 336.093 270.534 327 277z"/>
<path style="fill:#38a9cb; stroke:none;" d="M332 277L346 287L344 279L363 292C360.69 280.301 343.35 270.201 332 277z"/>
<path style="fill:#cf55d3; stroke:none;" d="M395 275L395 279L396 279L395 275z"/>
<path style="fill:#38a9cb; stroke:none;" d="M270.667 276.333L271.333 276.667L270.667 276.333z"/>
<path style="fill:#96518a; stroke:none;" d="M384 276L383 283L384 283L384 276z"/>
<path style="fill:#38a9cb; stroke:none;" d="M267.667 277.333L268.333 277.667L267.667 277.333z"/>
<path style="fill:#fbfcfd; stroke:none;" d="M344 279L349 285L344 279z"/>
<path style="fill:#96518a; stroke:none;" d="M379 279L376 290L378 290L379 279z"/>
<path style="fill:#38a9cb; stroke:none;" d="M226 280L226 290L227 290L226 280z"/>
<path style="fill:#224f96; stroke:none;" d="M378.333 280.667L378.667 281.333L378.333 280.667z"/>
<path style="fill:#cf55d3; stroke:none;" d="M384 280L380 298C384.749 294.213 384.937 285.644 386 280L384 280z"/>
<path style="fill:#96518a; stroke:none;" d="M222 281L222 292L223 292L222 281z"/>
<path style="fill:#38a9cb; stroke:none;" d="M231 281L231 298L229 297L229 301C233.589 303.309 235.471 308.244 237 313L239 312L242 320L243 320L238 303L237 303L237 307L236 307L231 281M264 286L269 283L264 293L272 285L272 281L264 286z"/>
<path style="fill:#96518a; stroke:none;" d="M390 281L386 304L384 302L383 302L379 336L381 336L384 320L385 320L385 333L386 333L387.804 301L390 281z"/>
<path style="fill:#224f96; stroke:none;" d="M344 282L348 286L344 282M268 283L260 293L261 293L265 290L268 283M385 284L384 297L385 297L387 284L385 284z"/>
<path style="fill:#96518a; stroke:none;" d="M348 285L352 290L348 285M382 285L382 288L383 288L382 285z"/>
<path style="fill:#cf55d3; stroke:none;" d="M393 285L390 308L391 308C392.898 302.439 398.737 289.105 393 285z"/>
<path style="fill:#38a9cb; stroke:none;" d="M396 285C395.999 291.227 396.136 297.972 392 303C393.895 310.845 395.725 319.582 404 323L396.39 301L396 285z"/>
<path style="fill:#fbfcfd; stroke:none;" d="M362 286L367 307L368 307C367.856 300.017 366.805 291.344 362 286z"/>
<path style="fill:#cf55d3; stroke:none;" d="M390 286L390 290L391 290L390 286z"/>
<path style="fill:#224f96; stroke:none;" d="M345.667 287.333L346.333 287.667L345.667 287.333M364 287L366 290L364 287z"/>
<path style="fill:#38a9cb; stroke:none;" d="M257 288L257 304L258 304L260 291L259 291L259 293L258 293L257 288M237 290L238 298L239 298L237 290M365.333 290.667L365.667 291.333L365.333 290.667z"/>
<path style="fill:#cf55d3; stroke:none;" d="M389 290L389 295L390 295L389 290z"/>
<path style="fill:#224f96; stroke:none;" d="M395 290L394 299L395 299L395 290M361 291L363 294L361 291M263 292L263 295L265 294L265 293L263 292z"/>
<path style="fill:#96518a; stroke:none;" d="M366 293L367 301L368 301L366 293M382 294L382 297L383 297L382 294z"/>
<path style="fill:#224f96; stroke:none;" d="M246 295L248 298L246 295M256 295L256 303L257 303L256 295z"/>
<path style="fill:#96518a; stroke:none;" d="M288 295L288 296L291 298C291.951 295.493 290.348 295.294 288 295M224 296L225 303L226 303L226 296L224 296z"/>
<path style="fill:#0c041c; stroke:none;" d="M226 296L231 325L238 327C237.014 319.204 237.817 302.565 228 301L228 296L226 296z"/>
<path style="fill:#cf55d3; stroke:none;" d="M288 296L288 297L291 298L288 296z"/>
<path style="fill:#224f96; stroke:none;" d="M228 297L228 301L229 301L228 297z"/>
<path style="fill:#fbfcfd; stroke:none;" d="M239 297C239.904 306.017 246.021 320.175 253 326C250.401 316.978 245.302 303.979 239 297z"/>
<path style="fill:#224f96; stroke:none;" d="M284.667 297.333L285.333 297.667L284.667 297.333z"/>
<path style="fill:#fbfcfd; stroke:none;" d="M276 301L276 303C281.169 302.577 287.004 301.57 290 297L276 301z"/>
<path style="fill:#cf55d3; stroke:none;" d="M388.333 297.667L388.667 298.333L388.333 297.667z"/>
<path style="fill:#fbfcfd; stroke:none;" d="M380 298L380 301L381 301L380 298z"/>
<path style="fill:#96518a; stroke:none;" d="M381 298L381 301L382 301L381 298z"/>
<path style="fill:#224f96; stroke:none;" d="M279 299L279 300L282 300L279 299z"/>
<path style="fill:#96518a; stroke:none;" d="M280 302L280 303L292 303C289.092 297.872 284.721 301.162 280 302M333 302L334 302L336 300C333.86 298.882 333.473 299.749 333 302M379.333 299.667L379.667 300.333L379.333 299.667z"/>
<path style="fill:#224f96; stroke:none;" d="M393 299L392 303L393 299z"/>
<path style="fill:#cf55d3; stroke:none;" d="M278 300L278 301L281 301L278 300z"/>
<path style="fill:#fbfcfd; stroke:none;" d="M334 300L339 303L339 302L334 300z"/>
<path style="fill:#224f96; stroke:none;" d="M378 300L378 305L379 305L378 300M258 301L259 310L260 310L258 301z"/>
<path style="fill:#cf55d3; stroke:none;" d="M337 301L337 302L339 302L339 303L336 303L336 304L341 304L337 301M379 301L378 308L379 308L379 301z"/>
<path style="fill:#0c041c; stroke:none;" d="M239 302L247 328L248 328C249.089 320.181 244.266 307.833 239 302z"/>
<path style="fill:#96518a; stroke:none;" d="M368 302L368 306L369 306L368 302z"/>
<path style="fill:#38a9cb; stroke:none;" d="M225 303C226.302 309.341 228.288 313.959 223 319L224 321L207 324L195 334C204.726 329.704 210.087 328 221 328L217 332L231 327L229 332L230 333L236 329L236 328C230.732 325.189 226.47 326.293 221 328L221 327C232.645 323.236 233.043 312.018 225 303z"/>
<path style="fill:#224f96; stroke:none;" d="M369 304L369 315L370 315L369 304M392 304C388.515 315.169 390.113 320.449 402 323L402 322C392.204 316.532 395.494 312.564 392 304z"/>
<path style="fill:#38a9cb; stroke:none;" d="M368 306L368 319L369 319L368 306z"/>
<path style="fill:#96518a; stroke:none;" d="M381 306L379 311L380 311L381 306M377 307L377 311L378 311L377 307z"/>
<path style="fill:#38a9cb; stroke:none;" d="M248 309L252 324L253 324L248 309z"/>
<path style="fill:#224f96; stroke:none;" d="M236 310C236.04 314.889 239.319 323.855 235 327C233.743 331.233 229.135 333.113 226.039 336.093C220.181 341.735 213.082 348.292 207.874 354.454C198.223 365.875 200.887 378.405 201 392L202 392L204 384L205 384L207 395L208 395L208 391L209 391L210 409L209 409L205 398L204 398L207 428L206 428L202 414L200 414C201.818 437.005 218.072 457.41 223.321 480C232.034 517.494 231 557.668 231 596L232 596L235.96 519.999L226 451L227 451L232 457L228 445L232 444C228.982 436.495 223.315 430.94 219.376 424C210.423 408.229 204.038 372.691 224 362L222 366C228.464 361.564 222.178 356.345 224.6 350.17C227.505 342.762 236.507 341.151 238 333L239 333L240 341L241 341C240.821 332.324 240.455 317.437 236 310z"/>
<path style="fill:#96518a; stroke:none;" d="M392 310C392.509 314.942 394.024 318.527 399 320L392 310M229 311L231 322L232 322L229 311z"/>
<path style="fill:#fbfcfd; stroke:none;" d="M379 311L379 314L380 314L379 311z"/>
<path style="fill:#cf55d3; stroke:none;" d="M386 311L387 368L388 368C388.774 349.975 394.921 327.601 386 311z"/>
<path style="fill:#fbfcfd; stroke:none;" d="M238 312L241.961 357L243 393L244 393C243.998 372.361 247.297 349.241 242.883 329C241.618 323.198 241.343 317.064 238 312z"/>
<path style="fill:#224f96; stroke:none;" d="M244.333 312.667L244.667 313.333L244.333 312.667z"/>
<path style="fill:#96518a; stroke:none;" d="M367 312L365 344L369 343L367 312M378 312L378 320L379 320L378 312M374 313L373 317L374 317L376 313L374 313z"/>
<path style="fill:#cf55d3; stroke:none;" d="M378 314L375 327L376 327L378 314z"/>
<path style="fill:#224f96; stroke:none;" d="M251 315L251 318L252 318L251 315z"/>
<path style="fill:#38a9cb; stroke:none;" d="M374 315L371 327L372 327L374 315z"/>
<path style="fill:#224f96; stroke:none;" d="M375 315L371 332L372 332C374.671 327.255 377.927 320.134 375 315z"/>
<path style="fill:#38a9cb; stroke:none;" d="M246 316L247 320L248 320L246 316z"/>
<path style="fill:#96518a; stroke:none;" d="M256 317L259 322L260 322L259 317L256 317M238 318L238 322L239 322L238 318M376.333 318.667L376.667 319.333L376.333 318.667z"/>
<path style="fill:#cf55d3; stroke:none;" d="M241 319L243 332L244 332L241 319z"/>
<path style="fill:#fbfcfd; stroke:none;" d="M256 319L260 339L261 339L256 319z"/>
<path style="fill:#224f96; stroke:none;" d="M257 319L263 343L259 343L258 340L257 340L262 349L263 349L263 345L264 345L267 351L271 348L272 348L272 351L273 351L273 336C268.203 339.027 268.263 344.838 269 350L268 350L265 343L267 344L262 321L259 322L257 319M255 320L254 327L255 320z"/>
<path style="fill:#96518a; stroke:none;" d="M243 321L247 349L248 349L248 344L249 344L250 353L251 353L250 339C254.25 338.292 251.405 329.732 250 327L243 321z"/>
<path style="fill:#224f96; stroke:none;" d="M248 321L248 328L253 329L248 321z"/>
<path style="fill:#96518a; stroke:none;" d="M239 322L239 327L240 327L239 322z"/>
<path style="fill:#224f96; stroke:none;" d="M221 327L221 328L233 326L233 325L231 323L221 327z"/>
<path style="fill:#96518a; stroke:none;" d="M256 323L259 343C260.926 340.072 259.696 330.603 256 330L256 323z"/>
<path style="fill:#224f96; stroke:none;" d="M407 323L407 324L410 325L405 329L410 332L409 327C439.046 337.102 463.64 376.026 459.816 408C457.244 429.504 446.705 448.787 444.129 470.09C441.213 494.204 442.022 518.768 440.961 543C440.288 558.361 437.659 573.66 437 589L438 589L441.637 553L450 512L451 512L451 516L452 516L459.304 448.004L468 393C481.039 393.56 491.29 398.644 503 403.884C508.118 406.174 513.325 409.917 519 410L479 387L485 388L485 387C477.676 384.906 467.265 381.586 462 376L467 377L467 376C458.249 371.626 454.39 362.556 448.772 355.015C438.378 341.063 424.918 326.416 407 323z"/>
<path style="fill:#38a9cb; stroke:none;" d="M410.667 323.333L411.333 323.667L410.667 323.333z"/>
<path style="fill:#224f96; stroke:none;" d="M245 324L247 327L245 324z"/>
<path style="fill:#38a9cb; stroke:none;" d="M253 324L258 341L259 341L253 324z"/>
<path style="fill:#224f96; stroke:none;" d="M360 324L361 335L363 335L362 324L360 324z"/>
<path style="fill:#96518a; stroke:none;" d="M412 324L415 326L412 324z"/>
<path style="fill:#38a9cb; stroke:none;" d="M414 324L422 329L414 324z"/>
<path style="fill:#cf55d3; stroke:none;" d="M370 326L370 332L371 332L370 326z"/>
<path style="fill:#fbfcfd; stroke:none;" d="M230 652L231 652L230 603L231 603L231 607L232 607L223 493L220 493C220 471.426 208.102 452.661 200.624 433C195.191 418.716 192.459 400.262 194.174 385.001C195.778 370.734 205.236 357.233 214.729 347.086C220.971 340.415 228.92 336.515 231 327C200.407 336.681 182.94 369.617 185.09 401C187.412 434.913 208.477 463.159 215.545 496C221.904 525.547 223.038 556.039 225.09 586C226.589 607.893 229.985 630.041 230 652z"/>
<path style="fill:#96518a; stroke:none;" d="M374 327L373 333L374 333L376 327L374 327z"/>
<path style="fill:#38a9cb; stroke:none;" d="M409 327C409.305 334.098 418.475 337.795 424 341L412 327L409 327z"/>
<path style="fill:#96518a; stroke:none;" d="M190 341L208 329C201.45 326.517 192.203 335.376 190 341z"/>
<path style="fill:#224f96; stroke:none;" d="M160 375L160 376L167 379C178.436 374.811 179.722 367.563 188.321 359.853C198.441 350.78 213.62 339.314 221 328C199.362 328 189.459 342.741 176.633 358.285C171.55 364.446 168.805 373.64 160 375z"/>
<path style="fill:#0c041c; stroke:none;" d="M256.333 328.667L256.667 329.333L256.333 328.667z"/>
<path style="fill:#224f96; stroke:none;" d="M381 328L381 336L379 336L379 330L378 330L378 341C383.057 339.222 382.824 332.347 381 328z"/>
<path style="fill:#fbfcfd; stroke:none;" d="M411 328L411 329C427.867 340.381 444.026 362.84 444.961 384C445.625 399.043 440.703 412.477 438.439 427C437.356 433.951 438.653 441.039 437.871 448C437.132 454.582 434.311 460.676 433.224 467.039C429.197 490.594 433 518.076 433 542C433 578.409 430 614.625 430 651L431 651L437 561L438 561L438 566L439 566C439.1 529.839 439.582 492.008 443.103 456C445.428 432.227 453.418 408.206 450.826 384C448.452 361.817 434.955 333.756 411 328z"/>
<path style="fill:#96518a; stroke:none;" d="M390 330L390 347L391 347L390 330M369 331L368 338L369 338L371 337L372 337L369 331z"/>
<path style="fill:#cf55d3; stroke:none;" d="M372 331L371 335L372 331z"/>
<path style="fill:#224f96; stroke:none;" d="M275 334C275.004 338.892 275.095 346.615 279 350L278 346L279 346L284 363L285 363L286 361L290 368C289.024 362.664 291.146 355.108 285 353L283 345L282 345L287 360L286 360L281 341L275 334z"/>
<path style="fill:#cf55d3; stroke:none;" d="M370 335L368 341L369 341L370 335z"/>
<path style="fill:#38a9cb; stroke:none;" d="M261 336L262 343L263 343L261 336z"/>
<path style="fill:#224f96; stroke:none;" d="M354 336L352 354L355 351L353 352L353 351L356 343L354 336z"/>
<path style="fill:#cf55d3; stroke:none;" d="M365 336L364 344L365 344L365 336z"/>
<path style="fill:#38a9cb; stroke:none;" d="M432.667 337.333L433.333 337.667L432.667 337.333M427 338L427 339L438 350L439 350C437.458 343.495 433.431 339.559 427 338M434 338L438 341L434 338M270 339L270 347L271 347L270 339z"/>
<path style="fill:#96518a; stroke:none;" d="M276.333 339.667L276.667 340.333L276.333 339.667z"/>
<path style="fill:#224f96; stroke:none;" d="M369 339L369 341L371 339L369 339z"/>
<path style="fill:#96518a; stroke:none;" d="M252 340L253 346L254 346L252 340z"/>
<path style="fill:#38a9cb; stroke:none;" d="M210 353L222 341C216.656 343.31 212.44 347.741 210 353z"/>
<path style="fill:#224f96; stroke:none;" d="M423 341L421 350C429.419 353.751 424.916 360.794 427 368C421.146 372.238 427.575 376.174 429.058 381.019C430.664 386.265 430.634 393.606 429.741 399C427.6 411.923 419.553 423.795 418.472 437C418.096 441.596 420.97 445.384 421.032 450C421.258 466.972 420 483.989 420 501L423 501L430 619L431 619C431 584.376 432 549.692 432 515C432 497.871 429.815 479.992 431.09 463C432.426 445.194 439.56 427.062 441.715 409C443.969 390.099 443.009 371.009 433.593 354.961C430.351 349.435 428.979 344.137 423 341z"/>
<path style="fill:#38a9cb; stroke:none;" d="M188 342L186 347L187 347L190 342L188 342M439 342L446 351L439 342z"/>
<path style="fill:#fbfcfd; stroke:none;" d="M265 343L268 350L269 350L265 343z"/>
<path style="fill:#38a9cb; stroke:none;" d="M279.667 343.333L280.333 343.667L279.667 343.333z"/>
<path style="fill:#96518a; stroke:none;" d="M386 343C386 349.47 383.025 366.653 388 371L386 343z"/>
<path style="fill:#fbfcfd; stroke:none;" d="M280 344L286 360L287 360L280 344z"/>
<path style="fill:#96518a; stroke:none;" d="M355 344L353 352L354 352L355 344z"/>
<path style="fill:#cf55d3; stroke:none;" d="M245 345L243 383L244 383L246 381C246 370.113 249.296 355.238 245 345z"/>
<path style="fill:#224f96; stroke:none;" d="M347 345L347 356L346 356L347 352L346 352L345 359L351 359L351 355L350 355L349 358L348 358L350 349L347 345z"/>
<path style="fill:#38a9cb; stroke:none;" d="M201 346L198 352L203 346L201 346M278 346L283 363L284 363L278 346z"/>
<path style="fill:#96518a; stroke:none;" d="M157 376L166 377L166 376L160 376L160 375C169.478 374.285 182.391 354.973 187 347C177.319 351.005 172.877 362.426 166.236 369.687C163.574 372.597 159.651 372.814 157 376z"/>
<path style="fill:#224f96; stroke:none;" d="M332 351L336 347L332 351z"/>
<path style="fill:#38a9cb; stroke:none;" d="M430 347L429 348L433 352L430 347z"/>
<path style="fill:#fbfcfd; stroke:none;" d="M271 348L271 351L272 351L271 348z"/>
<path style="fill:#96518a; stroke:none;" d="M351 348L352 351L351 348z"/>
<path style="fill:#38a9cb; stroke:none;" d="M269 350L274 356L269 350M350 350L350 353L351 353L350 350M347 351L346 356L347 356L347 351z"/>
<path style="fill:#96518a; stroke:none;" d="M349 351L348 358L349 358L352 354L349 351z"/>
<path style="fill:#38a9cb; stroke:none;" d="M160 382L162 385L130 395L130 393L137 391L137 390L106 402L107 404L71 424L71 425L80 420L79 422C101.119 411.705 120.279 400.579 144 393.431C154.917 390.142 162.578 386.317 174 389C174 413.104 185.478 441.381 199 461C201.962 465.298 204.212 477.974 209 479L209 480L207 483L208 483L208 481L209 481L208 485L212 485C210.158 471.32 203.401 456.148 197 444L196 447C192.696 442.969 186.403 434.146 189 429C184.725 415.299 182.068 392.998 186.174 379C188.954 369.52 195.054 361.309 198 352C187.697 355.234 183.31 368.726 175.624 375.461C172.189 378.472 164.377 380.266 160 382z"/>
<path style="fill:#96518a; stroke:none;" d="M241 352L241 370L242 370L241 352z"/>
<path style="fill:#224f96; stroke:none;" d="M279 352L279 355L280 355L279 352z"/>
<path style="fill:#96518a; stroke:none;" d="M389 352L389 358L390 358L389 352M294 353L296 357L294 353z"/>
<path style="fill:#38a9cb; stroke:none;" d="M433 353L434 358L435 358L433 353M441 353C456.423 386.931 448.195 418.548 443.209 454C439.901 477.522 441 502.265 441 526L442 526C442 503.547 441.263 479.848 446.76 458C451.847 437.782 463.935 416.583 459.112 395C456.254 382.21 454.326 359.809 441 353z"/>
<path style="fill:#224f96; stroke:none;" d="M271 354C272.305 356.08 273.181 356.941 275 355L271 354M337 354L333 358L337 354z"/>
<path style="fill:#38a9cb; stroke:none;" d="M296 356L304 367L296 356z"/>
<path style="fill:#96518a; stroke:none;" d="M345 356L342 362L345 356M451 357L455 366L456 366L451 357z"/>
<path style="fill:#38a9cb; stroke:none;" d="M205 358L204 361L205 358z"/>
<path style="fill:#224f96; stroke:none;" d="M281 358L281 361L282 361L281 358z"/>
<path style="fill:#96518a; stroke:none;" d="M329 363L334 358L329 363z"/>
<path style="fill:#224f96; stroke:none;" d="M341 360L343 363L341 360M282.333 361.667L282.667 362.333L282.333 361.667z"/>
<path style="fill:#38a9cb; stroke:none;" d="M221 362L217 371L224 362L221 362M201 363C193.778 385.538 191.675 405.824 198.865 429C205.506 450.405 219.997 469.914 220 493L223 493L229 555L230 555C230 529.285 230.143 501.871 222.791 477C216.547 455.876 202.761 435.73 200 414L202 414L206 428L207 428L204 398L205 398L209 409L210 409L209 391L208 391L208 395L207 395L205 384L204 384L202 392L201 392L201 363z"/>
<path style="fill:#96518a; stroke:none;" d="M283 363L286 367L283 363z"/>
<path style="fill:#38a9cb; stroke:none;" d="M456 364C457.447 368.481 459.424 370.748 464 372L456 364z"/>
<path style="fill:#224f96; stroke:none;" d="M240 365L237 385L238 385C240.525 378.786 242.772 371.606 240 365z"/>
<path style="fill:#96518a; stroke:none;" d="M304 366L306 369L304 366z"/>
<path style="fill:#224f96; stroke:none;" d="M227 367L222 380C224.717 376.388 228.35 371.628 227 367M306 368L308 372L306 368z"/>
<path style="fill:#38a9cb; stroke:none;" d="M441 368L441 417L442 417C443.139 402.572 450.251 380.984 441 368z"/>
<path style="fill:#96518a; stroke:none;" d="M246 369L246 381L244 380L246 393L247 393L246 369z"/>
<path style="fill:#38a9cb; stroke:none;" d="M163 371L163 372L167 371L163 371z"/>
<path style="fill:#fbfcfd; stroke:none;" d="M216 370C207.972 385.295 210.023 418.336 224 430L214.09 397L216 370z"/>
<path style="fill:#cf55d3; stroke:none;" d="M241 370L241 380L242 380L241 370z"/>
<path style="fill:#96518a; stroke:none;" d="M459 371L459 372C470.248 378.758 486.059 386.867 499 385L499 384L459 371z"/>
<path style="fill:#224f96; stroke:none;" d="M215 376L214 396L215 396L215 376z"/>
<path style="fill:#96518a; stroke:none;" d="M426 376L427 385L428 385L428 383L429 383L429 391L430 391C429.997 385.865 430.629 379.23 426 376z"/>
<path style="fill:#38a9cb; stroke:none;" d="M462 376L475 383.579L508 397L508 396L496 391L498 390L498 389L462 376z"/>
<path style="fill:#96518a; stroke:none;" d="M166 377C142.485 391.109 113.194 391.721 89.4244 406.359C82.9393 410.352 71.6172 415.391 69 423C54.4445 423.17 48.4443 437.678 42.7315 449.004C29.3465 475.541 19.2812 509.161 18 539L19 539C23.1886 510.638 31.9888 480.611 42.5394 454C45.7611 445.874 52.2829 439.195 55 431L58 432C61.7539 426.389 67.8837 425.266 73 420.999C89.3657 407.351 117.637 389.196 140 391C144.756 385.592 154.17 385.427 161 384L166 377z"/>
<path style="fill:#38a9cb; stroke:none;" d="M221 379L220 384L221 379M211 383L211 396L212 396L211 383z"/>
<path style="fill:#fbfcfd; stroke:none;" d="M428 383L428 400L429 400L428 383z"/>
<path style="fill:#224f96; stroke:none;" d="M130 393L130 395L162 385C153.267 381.876 139.009 391.469 130 393z"/>
<path style="fill:#fbfcfd; stroke:none;" d="M220 384L220 403L221 403L220 384z"/>
<path style="fill:#224f96; stroke:none;" d="M221 384L221 402L222 402L221 384M421 385L418 411L419 411C423.146 404.416 425.189 391.992 421 385M495 385L495 386L500 387L495 385z"/>
<path style="fill:#38a9cb; stroke:none;" d="M499 385L498 388L555 415L555 414L499 385M140 389L140 390L151 387L140 389z"/>
<path style="fill:#fbfcfd; stroke:none;" d="M492 386L492 387L522 399C515.796 392.783 500.719 386.892 492 386z"/>
<path style="fill:#224f96; stroke:none;" d="M54 448L76 430C52.0371 452.006 40.6934 475.786 33 507L32 507C32.2904 474.523 48.1126 451.493 66 426C56.8866 427.202 49.7053 441.338 45.9483 449C33.9282 473.513 26.997 496.952 27 524C32.106 520.702 34.9501 508.942 35 503C39.9068 503.253 41.62 501.968 42 497C55.7556 503.554 63.0352 521.487 68 535L69 535C68.519 524.623 64.8033 508.937 60.9066 499.17C58.7785 493.835 53.0464 490.173 53.159 484C53.5692 461.493 71.9985 442.873 89.4244 431.263C96.635 426.459 105.05 426.776 110 419C127.781 425.629 129.998 447.566 130 464C136.167 464 135.233 481.741 134 486C138.64 490.544 137.212 499.761 138 506L139 506L127 416L128 416C130.603 423.574 136.219 430.112 138.295 438.039C145.52 465.632 144 495.691 144 524L145 524L144.826 457L135.818 420.015L136 410L151 402L163 400L163 403L164 400C169.694 403.14 168.292 410.332 169.258 416C170.934 425.826 177.53 433.709 178 444L181 444L194.583 480.039L210.131 565L216 599L218 599L218 588L219 588L227 633L228 633L223.174 576L221 536L220 536L220 541L219 541L217.833 511L213 485L208 485L209 481L208 481L208 483L207 483L209 480L209 479C203.869 475.715 203.011 466.19 199.613 461.015C186.402 440.894 174 413.424 174 389C162.515 384.898 152.996 390.641 142 393.715C116.045 400.969 88.9375 411.146 69.2461 430.261C63.8868 435.463 56.024 440.481 54 448z"/>
<path style="fill:#0c041c; stroke:none;" d="M479 387C487.21 397.732 503.45 401.113 515 407.346C520.811 410.483 526.317 415.26 533 416L533 419C510.144 412.566 493.441 393.525 468 393L459.304 447.015L452 516L451 516L451 512L450 512L441.234 554L430 666L429 666L427.925 559L423 501L420 501L421.28 448L418.715 439L422 424L421 424C410.405 442.132 394.033 452.093 375.09 460.38C343.892 474.026 313.583 479.218 280 469.363C268.721 466.053 255.78 458.212 246 451.667C239.766 447.495 235.832 441.766 228 445L232 457L227 451L226 451L235.907 520L232.039 564L234 643L233 643L233 637L232 637L233 679L231 679C231 648.497 225.419 617.145 219 588L218 588L218 599L216 599L210.131 564L194.583 479.09L181 444L178 444C177.956 433.468 171.643 425.805 169.306 416C168.325 411.887 169.915 404.875 167.278 401.333C165.514 398.964 163.938 401.582 163 403L163 400L151 402L136 410C137.078 426.179 143.036 441.277 144.826 458C147.358 481.644 144.285 506.351 144.004 530C143.709 554.792 146.748 583.856 141 608C136.135 597.89 139.166 582.866 139.91 572C141.144 553.994 139 535.945 139 518C139 511.041 139.873 489.807 134 486C135.545 481.257 136.432 464.874 130 464C130 448.35 128.642 423.725 110 419C103.829 425.617 96.9378 426.214 89.4244 430.728C78.4582 437.317 65.2131 448.592 59.7986 460.424C56.4889 467.657 52.1827 477.855 53.1373 485.996C53.7943 491.599 58.9446 495.02 60.9066 500.09C65.6174 512.262 69.4889 525.403 73.1281 538C80.4183 563.234 81.0532 593.984 79 620L77 620C77 589.579 75.359 555.668 65.1782 526.985C61.4435 516.463 53.2723 500.608 42 497C41.3106 501.626 39.6193 503.018 35 503C34.8655 509.282 31.4864 519.623 27 524L26 511L25 511C16.0211 559.336 1.27496 607.248 4.09336 657C4.79992 669.473 9.80557 680.004 11.9159 692C13.7264 702.292 15.9403 713.652 16.7407 724C17.2414 730.473 18.0329 742.386 22.8542 747.397C27.0782 751.786 43.1989 749 49 749L126 749L433 749L559 749L594 749C598.549 749 605.519 750.297 609.735 748.397C614.766 746.129 618.124 722.945 617 718C624.701 713.27 623.958 685.616 623.999 677C624.125 650.886 626.135 624.994 624.857 599C624.235 586.371 621.001 573.831 621 561L618 561L608 478L606 478C606 522.874 586.123 566.362 586 611L585 611C585 566.405 602 523.479 602 479C602 461.241 596.701 447.461 580.104 439.394C576.053 437.425 574.859 434.374 570 434L581 454C576.036 450.064 573.871 444.518 567 444L565 437L563 437L561 447L560 447L559 445C549.592 472.637 544.157 499.209 538.737 527.911C532.029 563.428 525.101 599.427 525 636L523 636L525 604L524 604L524 610L523 610C523.44 588.672 527.689 568.074 529.829 547C532.246 523.211 532.707 500.367 538.17 477C541.208 464.005 545.002 451.068 548.441 438.17C549.727 433.343 553.863 426.196 551.687 421.185C549.397 415.913 538.955 411.958 534.089 409.428C516.926 400.506 498.101 390.706 479 387z"/>
<path style="fill:#224f96; stroke:none;" d="M218 390L219 403L220 403L218 390M496 390L496 391L526 403L524 404L524 405C531.227 407.681 548.254 414.518 551.547 421.669C553.287 425.447 550.252 431.037 550 435C551.812 432.275 560.456 421.578 560.079 419.171C559.447 415.138 548.286 412.317 545 410.86C529.44 403.962 513.223 392.11 496 390z"/>
<path style="fill:#cf55d3; stroke:none;" d="M429 391L429 396L430 396L429 391z"/>
<path style="fill:#38a9cb; stroke:none;" d="M501.667 391.333L502.333 391.667L501.667 391.333z"/>
<path style="fill:#224f96; stroke:none;" d="M242 392L243 401L244 401L242 392z"/>
<path style="fill:#fbfcfd; stroke:none;" d="M48 453L65.2554 433.128L80 420L71 425L71 424L102 404.106L127 394C120.479 391.744 107.941 398.869 102 401.846C81.6244 412.056 53.7412 429.107 48 453z"/>
<path style="fill:#96518a; stroke:none;" d="M243 393L243 397L244 397L243 393z"/>
<path style="fill:#38a9cb; stroke:none;" d="M220 394L220 398L221 398L220 394z"/>
<path style="fill:#cf55d3; stroke:none;" d="M427 396C423.024 427.294 402.162 439.699 377 454.15C365.195 460.929 353.64 468.334 340 470.905C325.237 473.688 310.816 472 296 472L296 473C333.534 481.94 377.368 464.374 406.91 441.796C417.134 433.982 434.178 409.602 427 396z"/>
<path style="fill:#96518a; stroke:none;" d="M429 396L429 402L430 402L429 396M214 397L214 401L215 401L214 397z"/>
<path style="fill:#38a9cb; stroke:none;" d="M512 398L512 399L526 404L512 398M212 399L212 405L213 405L212 399z"/>
<path style="fill:#224f96; stroke:none;" d="M514.667 400.333L515.333 400.667L514.667 400.333z"/>
<path style="fill:#cf55d3; stroke:none;" d="M221 402C218.852 412.964 231.039 426.351 240 431L229.209 417.996L221 402z"/>
<path style="fill:#38a9cb; stroke:none;" d="M100 404L100 405L104 404L100 404z"/>
<path style="fill:#224f96; stroke:none;" d="M86 415L107 404C100.935 402.319 89.0475 409.868 86 415z"/>
<path style="fill:#96518a; stroke:none;" d="M215.333 403.667L215.667 404.333L215.333 403.667z"/>
<path style="fill:#224f96; stroke:none;" d="M222.333 404.667L222.667 405.333L222.333 404.667z"/>
<path style="fill:#96518a; stroke:none;" d="M213 407L213 410L214 410L213 407z"/>
<path style="fill:#38a9cb; stroke:none;" d="M76 429L76 430L120 409C107.847 404.653 85.5157 422.587 76 429z"/>
<path style="fill:#96518a; stroke:none;" d="M544 408L544 409L560 416L560 415L544 408z"/>
<path style="fill:#cf55d3; stroke:none;" d="M217 410L219 413L217 410z"/>
<path style="fill:#38a9cb; stroke:none;" d="M518 410L527 415L518 410z"/>
<path style="fill:#cf55d3; stroke:none;" d="M219 413C219.247 440.681 256.301 463.799 281 468L281 467C262.041 458.554 245.922 448.979 232.299 433C227.106 426.909 224.271 418.549 219 413z"/>
<path style="fill:#224f96; stroke:none;" d="M526 415L526 416L533 419L533 416L526 415z"/>
<path style="fill:#38a9cb; stroke:none;" d="M558 416L558 417L560 422L554 452L555 452C557.218 441.961 559.061 427.854 572 431L572 427L585 438C582.311 428.275 568.62 415.388 558 416M127 416L141 542L142 542L140.715 487L130 426L131 426C144.162 464.905 143 505.189 143 546L144 546C144 514.416 146.659 481.004 140.285 450C137.742 437.625 136.015 425.742 127 416z"/>
<path style="fill:#224f96; stroke:none;" d="M228.333 416.667L228.667 417.333L228.333 416.667z"/>
<path style="fill:#96518a; stroke:none;" d="M222 417L224 423L225 423L222 417M419 417L417 423L418 423L419 417z"/>
<path style="fill:#224f96; stroke:none;" d="M187 419L189 429C185.02 432.852 192.608 444.084 196 447C195.829 439.014 191.637 425.499 187 419z"/>
<path style="fill:#38a9cb; stroke:none;" d="M58 426L69 423L68 420L58 426z"/>
<path style="fill:#96518a; stroke:none;" d="M218.333 422.667L218.667 423.333L218.333 422.667z"/>
<path style="fill:#fbfcfd; stroke:none;" d="M559 422C547.121 454.642 534.023 489.581 534 525L535 525C537.287 520.426 536.055 503.764 541 505L554.38 444L562 422L559 422z"/>
<path style="fill:#38a9cb; stroke:none;" d="M537 499L538 499L544.518 461L559 423C551.863 425.201 551.48 433.556 548.921 439.576C541.137 457.889 537.421 479.244 537 499z"/>
<path style="fill:#fbfcfd; stroke:none;" d="M399 442C406.784 438.532 414.319 431.717 418 424L399 442M130 426L140.715 488L142 566L143 566C143 529.874 146.015 492.455 138.455 457C136.236 446.592 137.81 434.678 130 426z"/>
<path style="fill:#38a9cb; stroke:none;" d="M71 427L71 429L73 427L71 427z"/>
<path style="fill:#224f96; stroke:none;" d="M572 427L572 431L562.649 430.862L557.333 443L549 475L550 475L559 445L560 447L561 447L563 437L565 437L567 444L581 454L570 434L589 444C585.991 437.547 578.453 430.054 572 427z"/>
<path style="fill:#38a9cb; stroke:none;" d="M63 436L69 430L63 436M56 448L53 447L46 452C38.5902 469.826 32.0561 487.441 32 507L33 507C39.7818 485.599 45.2027 465.662 58.7847 447C63.6417 440.326 71.0707 436.426 76 430C68.1793 433.025 59.555 440.367 56 448z"/>
<path style="fill:#96518a; stroke:none;" d="M239 431C247.208 438.372 259.584 447.176 271 446L239 431z"/>
<path style="fill:#38a9cb; stroke:none;" d="M437 430C427.932 478.845 432 529.973 432 580L433 580C433 543.725 431.892 507.256 433.015 471C433.42 457.937 442.62 443.393 437 430z"/>
<path style="fill:#cf55d3; stroke:none;" d="M55 431L47 446L48 446L57 431L55 431z"/>
<path style="fill:#96518a; stroke:none;" d="M583 433L606.15 464.054L610.428 493L620 561L621 561C619.297 539.417 617.676 517.301 614.194 496C611.494 479.48 610.967 466.602 600.459 453C595.175 446.16 591.115 436.864 583 433M410 440L414 436L410 440z"/>
<path style="fill:#224f96; stroke:none;" d="M548 436L548 440L550 440L550 436L548 436z"/>
<path style="fill:#fbfcfd; stroke:none;" d="M585 437L596 451L585 437z"/>
<path style="fill:#96518a; stroke:none;" d="M229 438L234 443L229 438z"/>
<path style="fill:#fbfcfd; stroke:none;" d="M557 440L556 445L557 445L557 440z"/>
<path style="fill:#96518a; stroke:none;" d="M241.333 442.667L241.667 443.333L241.333 442.667M401 445L401 446L406 444L401 445z"/>
<path style="fill:#224f96; stroke:none;" d="M590 445L593 449L590 445z"/>
<path style="fill:#cf55d3; stroke:none;" d="M46 446L44 452L45 452L46 446M267 446L267 447L273 448L267 446z"/>
<path style="fill:#96518a; stroke:none;" d="M273 447C276.785 453.552 288.12 454.977 295 455L273 447z"/>
<path style="fill:#38a9cb; stroke:none;" d="M596 450L600 461L601 461L596 450z"/>
<path style="fill:#96518a; stroke:none;" d="M251 451L254 453L251 451M392.667 451.333L393.333 451.667L392.667 451.333z"/>
<path style="fill:#cf55d3; stroke:none;" d="M43 452L41 458L42 458L43 452z"/>
<path style="fill:#96518a; stroke:none;" d="M388.667 453.333L389.333 453.667L388.667 453.333z"/>
<path style="fill:#38a9cb; stroke:none;" d="M553 453L553 456L554 456L553 453z"/>
<path style="fill:#96518a; stroke:none;" d="M250 454L253 456L250 454M256 454L256 455L261 457L261 456L256 454M381 457L381 458L388 454L381 457M253 456L253 457L257 458L253 456z"/>
<path style="fill:#38a9cb; stroke:none;" d="M552 456L552 459L553 459L552 456z"/>
<path style="fill:#96518a; stroke:none;" d="M263.667 458.333L264.333 458.667L263.667 458.333M259 459L259 460L265 462L265 461L259 459M265 459L268 461L265 459z"/>
<path style="fill:#fbfcfd; stroke:none;" d="M601 459L603 492L604 492L606 472L607 472L609 481L610 481C609.843 473.651 608.421 462.121 601 459z"/>
<path style="fill:#96518a; stroke:none;" d="M366.667 460.333L367.333 460.667L366.667 460.333M374.667 460.333L375.333 460.667L374.667 460.333M364.667 461.333L365.333 461.667L364.667 461.333M369 462L369 463L372 463L369 462z"/>
<path style="fill:#38a9cb; stroke:none;" d="M602 463L603 481L604 481L602 463z"/>
<path style="fill:#96518a; stroke:none;" d="M358.667 464.333L359.333 464.667L358.667 464.333M364.667 464.333L365.333 464.667L364.667 464.333M277 465L277 466L280 466L277 465M273 466L273 467C280.086 469.887 290.343 473.155 298 472L298 471L281 468L273 466M348 470L348 471L362 467L348 470z"/>
<path style="fill:#224f96; stroke:none;" d="M602 466L602 490L603 490L602 466z"/>
<path style="fill:#96518a; stroke:none;" d="M350.667 467.333L351.333 467.667L350.667 467.333M348.667 468.333L349.333 468.667L348.667 468.333z"/>
<path style="fill:#38a9cb; stroke:none;" d="M549.333 468.667L549.667 469.333L549.333 468.667z"/>
<path style="fill:#96518a; stroke:none;" d="M343 469L343 470L346 470L343 469M338 470L338 471L343 471L338 470z"/>
<path style="fill:#cf55d3; stroke:none;" d="M35 471L35 474L36 474L35 471z"/>
<path style="fill:#38a9cb; stroke:none;" d="M548 472L548 475L549 475L548 472M606.333 472.667L606.667 473.333L606.333 472.667z"/>
<path style="fill:#224f96; stroke:none;" d="M538 474L531 535L532 535L537.325 495L538 474M606 474L606 478L608 478L608 474L606 474z"/>
<path style="fill:#38a9cb; stroke:none;" d="M31 476L31 479L32 479L31 476z"/>
<path style="fill:#224f96; stroke:none;" d="M547 477L546 484L547 484L547 477M608 479L609 487L610 487L608 479z"/>
<path style="fill:#38a9cb; stroke:none;" d="M610 479L610 485L611 485L610 479M29 480L29 485L30 485L29 480M546.333 480.667L546.667 481.333L546.333 480.667z"/>
<path style="fill:#224f96; stroke:none;" d="M605 482L604 498L605 498L605 482z"/>
<path style="fill:#38a9cb; stroke:none;" d="M213 486L213 490L214 490L213 486z"/>
<path style="fill:#96518a; stroke:none;" d="M604 488L604 492L605 492L604 488z"/>
<path style="fill:#38a9cb; stroke:none;" d="M602 490L601 501L602 501L602 497L603 497L603 499L604 499L602 490z"/>
<path style="fill:#224f96; stroke:none;" d="M610.333 493.667L610.667 494.333L610.333 493.667z"/>
<path style="fill:#38a9cb; stroke:none;" d="M215 494L215 499L216 499L215 494M543 494L543 497L544 497L543 494M542 497L541 504L542 504L542 497z"/>
<path style="fill:#fbfcfd; stroke:none;" d="M602 497L599 521L600 521C601.307 514.065 604.8 503.688 602 497z"/>
<path style="fill:#224f96; stroke:none;" d="M603 499L603 508L604 508L603 499M611 499L611 509L612 509L611 499M600 503L599 508L600 508L600 503z"/>
<path style="fill:#38a9cb; stroke:none;" d="M539 504L533 523C526.827 548.929 526 577.413 526 604L527 604C527.391 585.075 527.042 561.039 532.887 543C535.841 533.882 544.148 512.965 539 504z"/>
<path style="fill:#fbfcfd; stroke:none;" d="M139 505L139 511L140 511L139 505z"/>
<path style="fill:#96518a; stroke:none;" d="M602 505L601 514L602 514L602 505z"/>
<path style="fill:#224f96; stroke:none;" d="M540 506L540 511L541 511L540 506z"/>
<path style="fill:#96518a; stroke:none;" d="M599 508L599 513L600 513L599 508z"/>
<path style="fill:#224f96; stroke:none;" d="M539 511L539 519L540 519L539 511M139 512C139 532.118 142.084 552.921 139.715 573C138.656 581.971 135.752 600.318 141 608C147.154 587.181 142.554 559.393 141.09 538C140.551 530.14 142.035 519.234 139 512z"/>
<path style="fill:#38a9cb; stroke:none;" d="M218 514L218 518L219 518L218 514M64 515L71 546C78.175 541.348 68.8374 519.828 64 515z"/>
<path style="fill:#224f96; stroke:none;" d="M613 515L613 521L614 521L613 515z"/>
<path style="fill:#cf55d3; stroke:none;" d="M21 516L21 520L22 520L21 516z"/>
<path style="fill:#224f96; stroke:none;" d="M66.3333 516.667L66.6667 517.333L66.3333 516.667M598 517L597 521L598 521L598 517M600 518L599 528L600 528L600 518M538 520L537 531L539 531L538 520z"/>
<path style="fill:#38a9cb; stroke:none;" d="M598 520L596 541C598.935 536.704 601.123 524.289 598 520M219 521L219 541L220 541L219 521z"/>
<path style="fill:#96518a; stroke:none;" d="M597 521L597 526L598 526L597 521z"/>
<path style="fill:#224f96; stroke:none;" d="M69.3333 524.667L69.6667 525.333L69.3333 524.667z"/>
<path style="fill:#38a9cb; stroke:none;" d="M618 526L619 550L620 550L618 526z"/>
<path style="fill:#224f96; stroke:none;" d="M615 528L617 549L618 549L615 528M596 529L596 533L597 533L596 529M598 530L598 534L599 534L598 530M20 532L18 543L19 543L20 532M535 535L529 583L530 583L534.093 547L535 535M594 535L594 542L595 542L594 535z"/>
<path style="fill:#fbfcfd; stroke:none;" d="M596.333 535.667L596.667 536.333L596.333 535.667z"/>
<path style="fill:#38a9cb; stroke:none;" d="M440 536L440 548L441 548L440 536z"/>
<path style="fill:#96518a; stroke:none;" d="M17 540L12 570L13 570C14.059 561.627 20.0818 547.896 17 540z"/>
<path style="fill:#fbfcfd; stroke:none;" d="M595 540L593 555L594 555L595 540z"/>
<path style="fill:#224f96; stroke:none;" d="M596 541L596 545L597 545L596 541M74 544L75 553L76 553L74 544z"/>
<path style="fill:#fbfcfd; stroke:none;" d="M73 545L73 556L74 556L73 545z"/>
<path style="fill:#224f96; stroke:none;" d="M143 546L143 564L144 564L143 546z"/>
<path style="fill:#38a9cb; stroke:none;" d="M222 546L224 583L225 583C225 571.673 226.426 556.548 222 546z"/>
<path style="fill:#224f96; stroke:none;" d="M595 546L594 553L595 553L595 546M592 547L592 553L593 553L592 547M72 549L77 620L79 620L80 592L79 592L77 594C76.9915 581.233 77.0409 560.686 72 549z"/>
<path style="fill:#38a9cb; stroke:none;" d="M75 553L76.1551 583L79 594L75 560L76 560L76 565L77 565L75 553M592 553L591 568L592 568L592 553z"/>
<path style="fill:#224f96; stroke:none;" d="M618 553L618 561L620 561L618 553z"/>
<path style="fill:#38a9cb; stroke:none;" d="M439 557L439 564L440 564L439 557z"/>
<path style="fill:#224f96; stroke:none;" d="M591 558L591 562L592 562L591 558M14 559L14 563L15 563L14 559M593 559L592 568L593 568L593 559z"/>
<path style="fill:#fbfcfd; stroke:none;" d="M75 560L77 567L75 560z"/>
<path style="fill:#38a9cb; stroke:none;" d="M437 561L434 613L435 613C435.01 597.685 443.825 575.203 437 561M621 561L621 566L622 566L621 561z"/>
<path style="fill:#224f96; stroke:none;" d="M526 564L523 610L524 610L524 604L525 604L523 636L525 636C525.113 622.385 524.895 607.445 526.17 594C526.991 585.331 529.431 572.176 526 564z"/>
<path style="fill:#96518a; stroke:none;" d="M590 564L592 570L590 564M621 566L621 572L622 572L621 566z"/>
<path style="fill:#38a9cb; stroke:none;" d="M230 570L230 584L231 584L230 570z"/>
<path style="fill:#224f96; stroke:none;" d="M589 570L589 573L590 573L589 570z"/>
<path style="fill:#38a9cb; stroke:none;" d="M590 570L588 582L589 582L590 570z"/>
<path style="fill:#224f96; stroke:none;" d="M591 570L591 577L592 577L591 570M622 572L623 594L624 594L622 572z"/>
<path style="fill:#38a9cb; stroke:none;" d="M623 575L623 581L624 581L623 575z"/>
<path style="fill:#96518a; stroke:none;" d="M10 576L10 581L11 581L10 576z"/>
<path style="fill:#224f96; stroke:none;" d="M78 577L78 591L79 591L78 577M587 579L585 611L586 611L590 581L587 579M10 581L9 588L10 588L10 581z"/>
<path style="fill:#38a9cb; stroke:none;" d="M624 581L624 585L625 585L624 581z"/>
<path style="fill:#96518a; stroke:none;" d="M624 585L627.961 635L627 699L628 699L627.289 611L624 585z"/>
<path style="fill:#38a9cb; stroke:none;" d="M625 588L628 618L629 618C629 609.093 630.192 595.599 625 588M7 589L7 593L8 593L7 589z"/>
<path style="fill:#224f96; stroke:none;" d="M8 589L7 598L8 598L8 589z"/>
<path style="fill:#38a9cb; stroke:none;" d="M225 589L226 612L227 612L225 589M229 592L229 600L230 600L229 592z"/>
<path style="fill:#96518a; stroke:none;" d="M6 593L6 600L7 600L6 593z"/>
<path style="fill:#224f96; stroke:none;" d="M232 598L232 608L233 608L232 598M6 600L6 606L7 606L6 600z"/>
<path style="fill:#38a9cb; stroke:none;" d="M230 603L230 627L232 626L232 634L233 634C233 624.183 235.18 611.741 230 603z"/>
<path style="fill:#224f96; stroke:none;" d="M435 603L435 611L436 611L435 603M624 603C624 631.203 625.073 658.698 623.089 687C622.495 695.483 623.433 711.957 617 718L611 749L618 749C619.38 738.141 623.725 727.867 624.829 717C626.53 700.263 625.163 683.568 626.39 667C627.802 647.911 631.659 621.246 624 603z"/>
<path style="fill:#96518a; stroke:none;" d="M5 606L5 610L6 610L5 606M4 611L4 617L5 617L4 611z"/>
<path style="fill:#38a9cb; stroke:none;" d="M3 612C3 646.99 -2.42655 683.323 4.33411 718C5.83368 725.692 2.53667 748.166 13 749L3.00386 671L3.08951 634L3 612M433 614L432 635L433 635L433 614z"/>
<path style="fill:#224f96; stroke:none;" d="M233 616L233 634L232 634L232 626L231 626L233 643L234 643L233 616M4 617L4 629L5 629L4 617z"/>
<path style="fill:#38a9cb; stroke:none;" d="M430 619L430 634L431 634L430 619M228 628L228 636L229 636L228 628z"/>
<path style="fill:#224f96; stroke:none;" d="M3 630L3 645L4 645L3 630M583 632L583 640L584 640L583 632M429 635L429 653L430 653L429 635M228 636L228 644L229 644L228 636z"/>
<path style="fill:#38a9cb; stroke:none;" d="M231 636L231 673L232 673C232 662.351 235.111 645.798 231 636M229 642L229 651L230 651L229 642z"/>
<path style="fill:#96518a; stroke:none;" d="M3 645L13 749L19 749C11.8633 714.516 4.27167 680.287 5 645L3 645z"/>
<path style="fill:#224f96; stroke:none;" d="M431 646L431 651L432 651L431 646M232 649L231 679L233 679L232 649M229 651L229 668L230 668L229 651z"/>
<path style="fill:#38a9cb; stroke:none;" d="M430 651L430 658L431 658L430 651z"/>
<path style="fill:#96518a; stroke:none;" d="M429 653L430 660L431 660L429 653z"/>
<path style="fill:#224f96; stroke:none;" d="M429 659L429 666L430 666L429 659M4 660C4.00246 682.324 10.2693 706.188 13.2978 728.424C14.138 734.593 15.945 747.776 23 749L6.78858 675L4 660z"/>
<path style="fill:#38a9cb; stroke:none;" d="M628 685C628 698.805 626.652 715.456 623.789 729C622.738 733.974 618.512 743.077 623 747L622 743L624 743C622.551 736.693 625.309 732.075 626.596 726C628.927 715 632.453 695.613 628 685z"/>
<path style="fill:#fbfcfd; stroke:none;" d="M628 711L624 743L622 743L621 749L629 749C629 738.089 632.211 721.036 628 711z"/>
<path style="fill:#96518a; stroke:none;" d="M624 719L618 749L621 749L624 719z"/>
</svg>
