<svg xmlns="http://www.w3.org/2000/svg" width="899" height="450" xmlns:v="https://vecta.io/nano"><path fill="#0b0015" d="M0 0h899v450H0z"/><path d="M504 0l-95 38 124 37-21 38-24 37 9 38-89 37 1 38 23 37 126 38 12 37-64 38 12 37H0v-37-38-37-38-37-38-37-38-37-38-37V0z" fill="#26003d"/><path d="M426 0l52 38-58 37-28 38 71 37-13 38 21 37-84 38-15 37 105 38-35 37 30 38 6 37H0v-37-38-37-38-37-38-37-38-37-38-37V0z" fill="#2f004e"/><path d="M426 0l-64 38 35 37 24 38-11 37-71 38-24 37 111 38-83 37-27 38 9 37 106 38-54 37H0v-37-38-37-38-37-38-37-38-37-38-37V0z" fill="#380060"/><path d="M259 0l17 38 38 37-1 38 59 37-24 38-63 37 2 38 72 37-64 38-23 37-19 38 73 37H0v-37-38-37-38-37-38-37-38-37-38-37V0z" fill="#410072"/><path d="M305 0l-26 38 17 37-82 38-2 37 37 38 9 37-49 38 27 37-38 38 78 37-17 38-48 37H0v-37-38-37-38-37-38-37-38-37-38-37V0z" fill="#490086"/><path d="M230 0l-62 38-12 37 6 38-10 37 25 38-39 37 11 38 23 37-18 38 85 37-77 38 11 37H0v-37-38-37-38-37-38-37-38-37-38-37V0z" fill="#51009a"/><path d="M103 0l60 38-73 37 11 38 60 37-54 38 30 37 18 38-12 37 26 38-49 37-21 38 23 37H0v-37-38-37-38-37-38-37-38-37-38-37V0z" fill="#5800af"/><path d="M94 0L66 38l33 37-54 38 62 37-50 38 33 37-12 38-12 37-35 38 55 37-6 38 20 37H0v-37-38-37-38-37-38-37-38-37-38-37V0z" fill="#5f00c5"/></svg>