<svg id="visual" viewBox="0 0 639 600" width="639" height="600" xmlns="http://www.w3.org/2000/svg" xmlns:xlink="http://www.w3.org/1999/xlink" version="1.1"><rect x="0" y="0" width="639" height="600" fill="#0B0015"></rect><path d="M0 306L53 348L107 330L160 303L213 317L266 364L320 347L373 364L426 330L479 353L533 353L586 345L639 295L639 601L586 601L533 601L479 601L426 601L373 601L320 601L266 601L213 601L160 601L107 601L53 601L0 601Z" fill="#26003d"></path><path d="M0 377L53 373L107 371L160 383L213 343L266 391L320 392L373 346L426 375L479 354L533 404L586 369L639 358L639 601L586 601L533 601L479 601L426 601L373 601L320 601L266 601L213 601L160 601L107 601L53 601L0 601Z" fill="#330055"></path><path d="M0 387L53 446L107 405L160 391L213 403L266 433L320 434L373 400L426 410L479 414L533 401L586 387L639 444L639 601L586 601L533 601L479 601L426 601L373 601L320 601L266 601L213 601L160 601L107 601L53 601L0 601Z" fill="#3f006f"></path><path d="M0 440L53 486L107 447L160 442L213 475L266 483L320 452L373 440L426 461L479 449L533 474L586 448L639 443L639 601L586 601L533 601L479 601L426 601L373 601L320 601L266 601L213 601L160 601L107 601L53 601L0 601Z" fill="#4b008a"></path><path d="M0 504L53 518L107 526L160 502L213 518L266 527L320 481L373 516L426 483L479 494L533 526L586 488L639 490L639 601L586 601L533 601L479 601L426 601L373 601L320 601L266 601L213 601L160 601L107 601L53 601L0 601Z" fill="#5500a7"></path><path d="M0 544L53 548L107 568L160 531L213 543L266 537L320 536L373 558L426 550L479 545L533 564L586 566L639 551L639 601L586 601L533 601L479 601L426 601L373 601L320 601L266 601L213 601L160 601L107 601L53 601L0 601Z" fill="#5f00c5"></path></svg>