<svg id="visual" viewBox="0 0 449 600" width="449" height="600" xmlns="http://www.w3.org/2000/svg" xmlns:xlink="http://www.w3.org/1999/xlink" version="1.1"><rect x="0" y="0" width="449" height="600" fill="#0B0015"></rect><path d="M0 345L45 373L90 325L135 302L180 344L225 299L269 363L314 354L359 372L404 304L449 353L449 601L404 601L359 601L314 601L269 601L225 601L180 601L135 601L90 601L45 601L0 601Z" fill="#290040"></path><path d="M0 380L45 384L90 354L135 353L180 374L225 411L269 351L314 382L359 397L404 374L449 413L449 601L404 601L359 601L314 601L269 601L225 601L180 601L135 601L90 601L45 601L0 601Z" fill="#37005b"></path><path d="M0 419L45 413L90 458L135 415L180 440L225 422L269 419L314 421L359 413L404 455L449 445L449 601L404 601L359 601L314 601L269 601L225 601L180 601L135 601L90 601L45 601L0 601Z" fill="#450079"></path><path d="M0 513L45 464L90 461L135 508L180 468L225 471L269 507L314 466L359 493L404 496L449 468L449 601L404 601L359 601L314 601L269 601L225 601L180 601L135 601L90 601L45 601L0 601Z" fill="#510099"></path><path d="M0 555L45 558L90 548L135 515L180 561L225 534L269 531L314 530L359 525L404 520L449 545L449 601L404 601L359 601L314 601L269 601L225 601L180 601L135 601L90 601L45 601L0 601Z" fill="#5a00bb"></path></svg>