<svg id="visual" viewBox="0 0 899 450" width="899" height="450" xmlns="http://www.w3.org/2000/svg" xmlns:xlink="http://www.w3.org/1999/xlink" version="1.1"><rect x="0" y="0" width="899" height="450" fill="#0B0015"></rect><path d="M504 0L409 38L533 75L512 113L488 150L497 188L408 225L409 263L432 300L558 338L570 375L506 413L518 450L0 450L0 413L0 375L0 338L0 300L0 263L0 225L0 188L0 150L0 113L0 75L0 38L0 0Z" fill="#26003d"></path><path d="M426 0L478 38L420 75L392 113L463 150L450 188L471 225L387 263L372 300L477 338L442 375L472 413L478 450L0 450L0 413L0 375L0 338L0 300L0 263L0 225L0 188L0 150L0 113L0 75L0 38L0 0Z" fill="#2f004e"></path><path d="M426 0L362 38L397 75L421 113L410 150L339 188L315 225L426 263L343 300L316 338L325 375L431 413L377 450L0 450L0 413L0 375L0 338L0 300L0 263L0 225L0 188L0 150L0 113L0 75L0 38L0 0Z" fill="#380060"></path><path d="M259 0L276 38L314 75L313 113L372 150L348 188L285 225L287 263L359 300L295 338L272 375L253 413L326 450L0 450L0 413L0 375L0 338L0 300L0 263L0 225L0 188L0 150L0 113L0 75L0 38L0 0Z" fill="#410072"></path><path d="M305 0L279 38L296 75L214 113L212 150L249 188L258 225L209 263L236 300L198 338L276 375L259 413L211 450L0 450L0 413L0 375L0 338L0 300L0 263L0 225L0 188L0 150L0 113L0 75L0 38L0 0Z" fill="#490086"></path><path d="M230 0L168 38L156 75L162 113L152 150L177 188L138 225L149 263L172 300L154 338L239 375L162 413L173 450L0 450L0 413L0 375L0 338L0 300L0 263L0 225L0 188L0 150L0 113L0 75L0 38L0 0Z" fill="#51009a"></path><path d="M103 0L163 38L90 75L101 113L161 150L107 188L137 225L155 263L143 300L169 338L120 375L99 413L122 450L0 450L0 413L0 375L0 338L0 300L0 263L0 225L0 188L0 150L0 113L0 75L0 38L0 0Z" fill="#5800af"></path><path d="M94 0L66 38L99 75L45 113L107 150L57 188L90 225L78 263L66 300L31 338L86 375L80 413L100 450L0 450L0 413L0 375L0 338L0 300L0 263L0 225L0 188L0 150L0 113L0 75L0 38L0 0Z" fill="#5f00c5"></path></svg>