<svg xmlns="http://www.w3.org/2000/svg" width="449" height="600" xmlns:v="https://vecta.io/nano"><path fill="#0b0015" d="M0 0h449v600H0z"/><path d="M0 345l45 28 45-48 45-23 45 42 45-45 44 64 45-9 45 18 45-68 45 49v248h-45-45-45-45-44-45-45-45-45H0z" fill="#290040"/><path d="M0 380l45 4 45-30 45-1 45 21 45 37 44-60 45 31 45 15 45-23 45 39v188h-45-45-45-45-44-45-45-45-45H0z" fill="#37005b"/><path d="M0 419l45-6 45 45 45-43 45 25 45-18 44-3 45 2 45-8 45 42 45-10v156h-45-45-45-45-44-45-45-45-45H0z" fill="#450079"/><path d="M0 513l45-49 45-3 45 47 45-40 45 3 44 36 45-41 45 27 45 3 45-28v133h-45-45-45-45-44-45-45-45-45H0z" fill="#510099"/><path d="M0 555l45 3 45-10 45-33 45 46 45-27 44-3 45-1 45-5 45-5 45 25v56h-45-45-45-45-44-45-45-45-45H0z" fill="#5a00bb"/></svg>