<svg xmlns="http://www.w3.org/2000/svg" width="639" height="600" xmlns:v="https://vecta.io/nano"><path fill="#0b0015" d="M0 0h639v600H0z"/><path d="M0 306l53 42 54-18 53-27 53 14 53 47 54-17 53 17 53-34 53 23h54l53-8 53-50v306h-53-53-54-53-53-53-54-53-53-53-54H0z" fill="#26003d"/><path d="M0 377l53-4 54-2 53 12 53-40 53 48 54 1 53-46 53 29 53-21 54 50 53-35 53-11v243h-53-53-54-53-53-53-54-53-53-53-54H0z" fill="#305"/><path d="M0 387l53 59 54-41 53-14 53 12 53 30 54 1 53-34 53 10 53 4 54-13 53-14 53 57v157h-53-53-54-53-53-53-54-53-53-53-54H0z" fill="#3f006f"/><path d="M0 440l53 46 54-39 53-5 53 33 53 8 54-31 53-12 53 21 53-12 54 25 53-26 53-5v158h-53-53-54-53-53-53-54-53-53-53-54H0z" fill="#4b008a"/><path d="M0 504l53 14 54 8 53-24 53 16 53 9 54-46 53 35 53-33 53 11 54 32 53-38 53 2v111h-53-53-54-53-53-53-54-53-53-53-54H0z" fill="#5500a7"/><path d="M0 544l53 4 54 20 53-37 53 12 53-6 54-1 53 22 53-8 53-5 54 19 53 2 53-15v50h-53-53-54-53-53-53-54-53-53-53-54H0z" fill="#5f00c5"/></svg>