<svg xmlns="http://www.w3.org/2000/svg" width="1199" height="450" xmlns:v="https://vecta.io/nano"><path fill="#0b0015" d="M0 0h1199v450H0z"/><path d="M649 0l-96 30 120 30-10 30-11 30-57 30-42 30 93 30-27 30-68 30 80 30 71 30-5 30-48 30 75 30 27 30H0v-30-30-30-30-30-30-30-30-30-30-30-30-30-30V0z" fill="#26003d"/><path d="M492 0l-12 30-9 30 30 30 83 30 36 30-101 30 105 30-145 30 115 30-43 30 109 30-97 30-82 30 133 30 56 30H0v-30-30-30-30-30-30-30-30-30-30-30-30-30-30V0z" fill="#2f004e"/><path d="M459 0l20 30 63 30-42 30-57 30 51 30 60 30-83 30 41 30 37 30-71 30 38 30-33 30 67 30-16 30 23 30H0v-30-30-30-30-30-30-30-30-30-30-30-30-30-30V0z" fill="#380060"/><path d="M445 0l-47 30 38 30 51 30-66 30-98 30 163 30-12 30-48 30-15 30 88 30-89 30-63 30-11 30 106 30-35 30H0v-30-30-30-30-30-30-30-30-30-30-30-30-30-30V0z" fill="#410072"/><path d="M264 0l140 30-116 30 67 30-101 30 124 30-92 30-23 30-1 30 8 30 136 30-117 30 115 30-14 30-33 30-46 30H0v-30-30-30-30-30-30-30-30-30-30-30-30-30-30V0z" fill="#490086"/><path d="M288 0l-82 30 96 30-97 30-2 30 56 30 49 30-90 30-9 30 30 30 3 30-13 30 8 30 31 30-75 30 103 30H0v-30-30-30-30-30-30-30-30-30-30-30-30-30-30V0z" fill="#51009a"/><path d="M166 0l-5 30-43 30 95 30-101 30 87 30 22 30-87 30 18 30-37 30 3 30 35 30 82 30-122 30 13 30 14 30H0v-30-30-30-30-30-30-30-30-30-30-30-30-30-30V0z" fill="#5800af"/><path d="M43 0l87 30-73 30 75 30-40 30-14 30 21 30-53 30 89 30-45 30 12 30 39 30-32 30 17 30 2 30-37 30H0v-30-30-30-30-30-30-30-30-30-30-30-30-30-30V0z" fill="#5f00c5"/></svg>