<svg xmlns="http://www.w3.org/2000/svg" width="1399" height="450" xmlns:v="https://vecta.io/nano"><path fill="#0b0015" d="M0 0h1399v450H0z"/><path d="M729 0l147 30-46 30 158 30-269 30 80 30 100 30 42 30-92 30 77 30-175 30 181 30-36 30-1 30 98 30-147 30H0v-30-30-30-30-30-30-30-30-30-30-30-30-30-30V0z" fill="#26003d"/><path d="M739 0l-74 30 3 30-23 30 104 30-68 30 138 30-183 30 81 30 84 30-82 30 28 30 95 30-161 30 131 30-122 30H0v-30-30-30-30-30-30-30-30-30-30-30-30-30-30V0z" fill="#2f004e"/><path d="M691 0l-46 30-12 30 5 30 78 30-134 30 99 30 27 30 45 30-22 30-68 30 107 30-7 30-108 30-6 30 32 30H0v-30-30-30-30-30-30-30-30-30-30-30-30-30-30V0z" fill="#380060"/><path d="M640 0L441 30l222 30-120 30 116 30-110 30 49 30-154 30 108 30-122 30 47 30 69 30 29 30-25 30-22 30-22 30H0v-30-30-30-30-30-30-30-30-30-30-30-30-30-30V0z" fill="#410072"/><path d="M339 0l126 30 74 30-179 30 76 30 104 30-131 30 111 30-16 30-151 30 67 30 107 30-43 30-129 30 115 30-11 30H0v-30-30-30-30-30-30-30-30-30-30-30-30-30-30V0z" fill="#490086"/><path d="M326 0l-31 30 126 30-180 30 171 30-22 30-95 30 131 30-3 30-175 30 16 30 125 30 1 30 2 30-12 30 4 30H0v-30-30-30-30-30-30-30-30-30-30-30-30-30-30V0z" fill="#51009a"/><path d="M257 0l27 30-110 30 142 30-37 30-87 30 96 30-125 30 52 30 65 30-71 30 37 30-79 30 136 30-109 30 117 30H0v-30-30-30-30-30-30-30-30-30-30-30-30-30-30V0z" fill="#5800af"/><path d="M164 0v30l-28 30-80 30 7 30 41 30-3 30 95 30-64 30 48 30-93 30-2 30 80 30-42 30-28 30-43 30H0v-30-30-30-30-30-30-30-30-30-30-30-30-30-30V0z" fill="#5f00c5"/></svg>