<svg id="visual" viewBox="0 0 900 600" width="900" height="600" xmlns="http://www.w3.org/2000/svg" xmlns:xlink="http://www.w3.org/1999/xlink" version="1.1"><path d="M0 82L6.8 84.5C13.7 87 27.3 92 41 88C54.7 84 68.3 71 82 64.7C95.7 58.3 109.3 58.7 123 71.2C136.7 83.7 150.3 108.3 164 119.7C177.7 131 191.3 129 204.8 114.5C218.3 100 231.7 73 245.2 70.8C258.7 68.7 272.3 91.3 286 92.2C299.7 93 313.3 72 327 75C340.7 78 354.3 105 368 109.5C381.7 114 395.3 96 409 90.8C422.7 85.7 436.3 93.3 450 97.8C463.7 102.3 477.3 103.7 491 98.3C504.7 93 518.3 81 532 79.8C545.7 78.7 559.3 88.3 573 85.7C586.7 83 600.3 68 614 59.7C627.7 51.3 641.3 49.7 654.8 61.5C668.3 73.3 681.7 98.7 695.2 106C708.7 113.3 722.3 102.7 736 94C749.7 85.3 763.3 78.7 777 73C790.7 67.3 804.3 62.7 818 59C831.7 55.3 845.3 52.7 859 52.5C872.7 52.3 886.3 54.7 893.2 55.8L900 57L900 0L893.2 0C886.3 0 872.7 0 859 0C845.3 0 831.7 0 818 0C804.3 0 790.7 0 777 0C763.3 0 749.7 0 736 0C722.3 0 708.7 0 695.2 0C681.7 0 668.3 0 654.8 0C641.3 0 627.7 0 614 0C600.3 0 586.7 0 573 0C559.3 0 545.7 0 532 0C518.3 0 504.7 0 491 0C477.3 0 463.7 0 450 0C436.3 0 422.7 0 409 0C395.3 0 381.7 0 368 0C354.3 0 340.7 0 327 0C313.3 0 299.7 0 286 0C272.3 0 258.7 0 245.2 0C231.7 0 218.3 0 204.8 0C191.3 0 177.7 0 164 0C150.3 0 136.7 0 123 0C109.3 0 95.7 0 82 0C68.3 0 54.7 0 41 0C27.3 0 13.7 0 6.8 0L0 0Z" fill="#00286D" stroke-linecap="round" stroke-linejoin="miter"></path></svg>