<svg xmlns="http://www.w3.org/2000/svg" xmlns:xlink="http://www.w3.org/1999/xlink" viewBox="0,0,256,256" width="48px" height="48px" fill-rule="nonzero"><defs><linearGradient x1="16.33" y1="-2.748" x2="32.293" y2="41.109" gradientUnits="userSpaceOnUse" id="color-1"><stop offset="0" stop-color="#0087df"></stop><stop offset="1" stop-color="#0783e3"></stop></linearGradient></defs><g fill-opacity="0" fill="#000000" fill-rule="nonzero" stroke="none" stroke-width="1" stroke-linecap="butt" stroke-linejoin="miter" stroke-miterlimit="10" stroke-dasharray="" stroke-dashoffset="0" font-family="none" font-weight="none" font-size="none" text-anchor="none" style="mix-blend-mode: normal"><path d="M0,256v-256h256v256z" id="bgRectangle"></path></g><g fill="none" fill-rule="nonzero" stroke="none" stroke-width="1" stroke-linecap="butt" stroke-linejoin="miter" stroke-miterlimit="10" stroke-dasharray="" stroke-dashoffset="0" font-family="none" font-weight="none" font-size="none" text-anchor="none" style="mix-blend-mode: normal"><g transform="scale(5.33333,5.33333)"><path d="M7.192,7.176l2.627,29.77c0.109,1.237 0.97,2.28 2.164,2.621l10.643,3.041c0.898,0.257 1.849,0.257 2.747,0l10.643,-3.041c1.194,-0.341 2.055,-1.383 2.164,-2.621l2.627,-29.77c0.104,-1.17 -0.817,-2.176 -1.991,-2.176h-29.632c-1.174,0 -2.095,1.006 -1.992,2.176z" fill="url(#color-1)"></path><path d="M24,8v31.9l9.876,-2.822c0.797,-0.228 1.371,-0.924 1.443,-1.749l2.286,-26.242c0.051,-0.585 -0.409,-1.087 -0.996,-1.087z" fill="#02beff"></path><path d="M33.1,13h-9.1v4h4.9l-0.3,4h-4.6v4h4.4l-0.3,4.5l-4.1,1.4v4.2l7.9,-2.6l0.7,-11.5v0z" fill="#ffffff"></path><path d="M24,13v4h-8.9l-0.3,-4zM19.4,21l0.2,4h4.4v-4zM19.8,27h-4l0.3,5.5l7.9,2.6v-4.2l-4.1,-1.4z" fill="#e1edf8"></path><path d="M33.1,13l-0.5,8l-0.7,11.5l-7.9,2.6l-7.9,-2.6l-0.3,-5.5h4l0.1,2.5l4.1,1.4l4.1,-1.4l0.3,-4.5h-4.4h-4.4l-0.2,-4h4.6h4.6l0.3,-4h-4.9h-8.9l-0.3,-4h9.2h9.1M34.164,12h-1.064h-9.1h-9.2h-1.078l0.081,1.075l0.3,4l0.069,0.925h0.928h8.9h3.822l-0.15,2h-3.672h-4.6h-1.051l0.052,1.05l0.2,4l0.048,0.95h-2.849h-1.056l0.058,1.054l0.3,5.5l0.037,0.682l0.649,0.214l7.9,2.6l0.312,0.103l0.313,-0.103l7.9,-2.6l0.644,-0.212l0.041,-0.677l0.7,-11.5l0.5,-7.998l0.066,-1.063zM20.761,26h3.239h3.331l-0.185,2.769l-3.146,1.074l-3.128,-1.068l-0.073,-1.815l-0.038,-0.96z" fill="#000000" opacity="0.05"></path><path d="M33.1,13l-0.5,8l-0.7,11.5l-7.9,2.6l-7.9,-2.6l-0.3,-5.5h4l0.1,2.5l4.1,1.4l4.1,-1.4l0.3,-4.5h-4.4h-4.4l-0.2,-4h4.6h4.6l0.3,-4h-4.9h-8.9l-0.3,-4h9.2h9.1M33.632,12.5h-0.532h-9.1h-9.2h-0.539l0.04,0.537l0.3,4l0.035,0.463h0.464h8.9h4.361l-0.225,3h-4.136h-4.6h-0.526l0.026,0.525l0.2,4l0.024,0.475h0.476h4.4h3.866l-0.242,3.634l-3.624,1.238l-3.614,-1.234l-0.086,-2.158l-0.02,-0.48h-0.48h-4h-0.528l0.029,0.527l0.3,5.5l0.019,0.341l0.324,0.107l7.9,2.6l0.156,0.051l0.156,-0.051l7.9,-2.6l0.322,-0.106l0.021,-0.339l0.7,-11.5l0.5,-7.999l0.033,-0.531z" fill="#000000" opacity="0.07"></path></g></g></svg>