<svg id="visual" viewBox="0 0 900 600" width="900" height="600" xmlns="http://www.w3.org/2000/svg" xmlns:xlink="http://www.w3.org/1999/xlink" version="1.1"><path d="M0 145L8.3 143C16.7 141 33.3 137 50 127C66.7 117 83.3 101 100 87C116.7 73 133.3 61 150 70C166.7 79 183.3 109 200 129C216.7 149 233.3 159 250 166C266.7 173 283.3 177 300 189C316.7 201 333.3 221 350 215C366.7 209 383.3 177 400 152C416.7 127 433.3 109 450 97C466.7 85 483.3 79 500 92C516.7 105 533.3 137 550 135C566.7 133 583.3 97 600 82C616.7 67 633.3 73 650 74C666.7 75 683.3 71 700 77C716.7 83 733.3 99 750 109C766.7 119 783.3 123 800 125C816.7 127 833.3 127 850 127C866.7 127 883.3 127 891.7 127L900 127L900 0L891.7 0C883.3 0 866.7 0 850 0C833.3 0 816.7 0 800 0C783.3 0 766.7 0 750 0C733.3 0 716.7 0 700 0C683.3 0 666.7 0 650 0C633.3 0 616.7 0 600 0C583.3 0 566.7 0 550 0C533.3 0 516.7 0 500 0C483.3 0 466.7 0 450 0C433.3 0 416.7 0 400 0C383.3 0 366.7 0 350 0C333.3 0 316.7 0 300 0C283.3 0 266.7 0 250 0C233.3 0 216.7 0 200 0C183.3 0 166.7 0 150 0C133.3 0 116.7 0 100 0C83.3 0 66.7 0 50 0C33.3 0 16.7 0 8.3 0L0 0Z" fill="#8c00d2"></path><path d="M0 193L8.3 193C16.7 193 33.3 193 50 188C66.7 183 83.3 173 100 152C116.7 131 133.3 99 150 102C166.7 105 183.3 143 200 169C216.7 195 233.3 209 250 223C266.7 237 283.3 251 300 258C316.7 265 333.3 265 350 259C366.7 253 383.3 241 400 226C416.7 211 433.3 193 450 178C466.7 163 483.3 151 500 164C516.7 177 533.3 215 550 217C566.7 219 583.3 185 600 172C616.7 159 633.3 167 650 166C666.7 165 683.3 155 700 159C716.7 163 733.3 181 750 185C766.7 189 783.3 179 800 181C816.7 183 833.3 197 850 195C866.7 193 883.3 175 891.7 166L900 157L900 125L891.7 125C883.3 125 866.7 125 850 125C833.3 125 816.7 125 800 123C783.3 121 766.7 117 750 107C733.3 97 716.7 81 700 75C683.3 69 666.7 73 650 72C633.3 71 616.7 65 600 80C583.3 95 566.7 131 550 133C533.3 135 516.7 103 500 90C483.3 77 466.7 83 450 95C433.3 107 416.7 125 400 150C383.3 175 366.7 207 350 213C333.3 219 316.7 199 300 187C283.3 175 266.7 171 250 164C233.3 157 216.7 147 200 127C183.3 107 166.7 77 150 68C133.3 59 116.7 71 100 85C83.3 99 66.7 115 50 125C33.3 135 16.7 139 8.3 141L0 143Z" fill="#701fc5"></path><path d="M0 253L8.3 250C16.7 247 33.3 241 50 235C66.7 229 83.3 223 100 206C116.7 189 133.3 161 150 161C166.7 161 183.3 189 200 211C216.7 233 233.3 249 250 262C266.7 275 283.3 285 300 289C316.7 293 333.3 291 350 288C366.7 285 383.3 281 400 270C416.7 259 433.3 241 450 228C466.7 215 483.3 207 500 217C516.7 227 533.3 255 550 256C566.7 257 583.3 231 600 216C616.7 201 633.3 197 650 190C666.7 183 683.3 173 700 180C716.7 187 733.3 211 750 224C766.7 237 783.3 239 800 247C816.7 255 833.3 269 850 267C866.7 265 883.3 247 891.7 238L900 229L900 155L891.7 164C883.3 173 866.7 191 850 193C833.3 195 816.7 181 800 179C783.3 177 766.7 187 750 183C733.3 179 716.7 161 700 157C683.3 153 666.7 163 650 164C633.3 165 616.7 157 600 170C583.3 183 566.7 217 550 215C533.3 213 516.7 175 500 162C483.3 149 466.7 161 450 176C433.3 191 416.7 209 400 224C383.3 239 366.7 251 350 257C333.3 263 316.7 263 300 256C283.3 249 266.7 235 250 221C233.3 207 216.7 193 200 167C183.3 141 166.7 103 150 100C133.3 97 116.7 129 100 150C83.3 171 66.7 181 50 186C33.3 191 16.7 191 8.3 191L0 191Z" fill="#5628b6"></path><path d="M0 427L8.3 423C16.7 419 33.3 411 50 415C66.7 419 83.3 435 100 423C116.7 411 133.3 371 150 358C166.7 345 183.3 359 200 361C216.7 363 233.3 353 250 353C266.7 353 283.3 363 300 369C316.7 375 333.3 377 350 389C366.7 401 383.3 423 400 422C416.7 421 433.3 397 450 394C466.7 391 483.3 409 500 406C516.7 403 533.3 379 550 368C566.7 357 583.3 359 600 372C616.7 385 633.3 409 650 406C666.7 403 683.3 373 700 361C716.7 349 733.3 355 750 360C766.7 365 783.3 369 800 374C816.7 379 833.3 385 850 388C866.7 391 883.3 391 891.7 391L900 391L900 227L891.7 236C883.3 245 866.7 263 850 265C833.3 267 816.7 253 800 245C783.3 237 766.7 235 750 222C733.3 209 716.7 185 700 178C683.3 171 666.7 181 650 188C633.3 195 616.7 199 600 214C583.3 229 566.7 255 550 254C533.3 253 516.7 225 500 215C483.3 205 466.7 213 450 226C433.3 239 416.7 257 400 268C383.3 279 366.7 283 350 286C333.3 289 316.7 291 300 287C283.3 283 266.7 273 250 260C233.3 247 216.7 231 200 209C183.3 187 166.7 159 150 159C133.3 159 116.7 187 100 204C83.3 221 66.7 227 50 233C33.3 239 16.7 245 8.3 248L0 251Z" fill="#3e2ca5"></path><path d="M0 463L8.3 460C16.7 457 33.3 451 50 453C66.7 455 83.3 465 100 459C116.7 453 133.3 431 150 429C166.7 427 183.3 445 200 451C216.7 457 233.3 451 250 440C266.7 429 283.3 413 300 407C316.7 401 333.3 405 350 417C366.7 429 383.3 449 400 452C416.7 455 433.3 441 450 452C466.7 463 483.3 499 500 497C516.7 495 533.3 455 550 439C566.7 423 583.3 431 600 448C616.7 465 633.3 491 650 483C666.7 475 683.3 433 700 412C716.7 391 733.3 391 750 398C766.7 405 783.3 419 800 428C816.7 437 833.3 441 850 440C866.7 439 883.3 433 891.7 430L900 427L900 389L891.7 389C883.3 389 866.7 389 850 386C833.3 383 816.7 377 800 372C783.3 367 766.7 363 750 358C733.3 353 716.7 347 700 359C683.3 371 666.7 401 650 404C633.3 407 616.7 383 600 370C583.3 357 566.7 355 550 366C533.3 377 516.7 401 500 404C483.3 407 466.7 389 450 392C433.3 395 416.7 419 400 420C383.3 421 366.7 399 350 387C333.3 375 316.7 373 300 367C283.3 361 266.7 351 250 351C233.3 351 216.7 361 200 359C183.3 357 166.7 343 150 356C133.3 369 116.7 409 100 421C83.3 433 66.7 417 50 413C33.3 409 16.7 417 8.3 421L0 425Z" fill="#272d93"></path><path d="M0 547L8.3 549C16.7 551 33.3 555 50 560C66.7 565 83.3 571 100 567C116.7 563 133.3 549 150 547C166.7 545 183.3 555 200 557C216.7 559 233.3 553 250 552C266.7 551 283.3 555 300 553C316.7 551 333.3 543 350 538C366.7 533 383.3 531 400 530C416.7 529 433.3 529 450 536C466.7 543 483.3 557 500 557C516.7 557 533.3 543 550 541C566.7 539 583.3 549 600 553C616.7 557 633.3 555 650 549C666.7 543 683.3 533 700 527C716.7 521 733.3 519 750 522C766.7 525 783.3 533 800 536C816.7 539 833.3 537 850 543C866.7 549 883.3 563 891.7 570L900 577L900 425L891.7 428C883.3 431 866.7 437 850 438C833.3 439 816.7 435 800 426C783.3 417 766.7 403 750 396C733.3 389 716.7 389 700 410C683.3 431 666.7 473 650 481C633.3 489 616.7 463 600 446C583.3 429 566.7 421 550 437C533.3 453 516.7 493 500 495C483.3 497 466.7 461 450 450C433.3 439 416.7 453 400 450C383.3 447 366.7 427 350 415C333.3 403 316.7 399 300 405C283.3 411 266.7 427 250 438C233.3 449 216.7 455 200 449C183.3 443 166.7 425 150 427C133.3 429 116.7 451 100 457C83.3 463 66.7 453 50 451C33.3 449 16.7 455 8.3 458L0 461Z" fill="#122b81"></path><path d="M0 601L8.3 601C16.7 601 33.3 601 50 601C66.7 601 83.3 601 100 601C116.7 601 133.3 601 150 601C166.7 601 183.3 601 200 601C216.7 601 233.3 601 250 601C266.7 601 283.3 601 300 601C316.7 601 333.3 601 350 601C366.7 601 383.3 601 400 601C416.7 601 433.3 601 450 601C466.7 601 483.3 601 500 601C516.7 601 533.3 601 550 601C566.7 601 583.3 601 600 601C616.7 601 633.3 601 650 601C666.7 601 683.3 601 700 601C716.7 601 733.3 601 750 601C766.7 601 783.3 601 800 601C816.7 601 833.3 601 850 601C866.7 601 883.3 601 891.7 601L900 601L900 575L891.7 568C883.3 561 866.7 547 850 541C833.3 535 816.7 537 800 534C783.3 531 766.7 523 750 520C733.3 517 716.7 519 700 525C683.3 531 666.7 541 650 547C633.3 553 616.7 555 600 551C583.3 547 566.7 537 550 539C533.3 541 516.7 555 500 555C483.3 555 466.7 541 450 534C433.3 527 416.7 527 400 528C383.3 529 366.7 531 350 536C333.3 541 316.7 549 300 551C283.3 553 266.7 549 250 550C233.3 551 216.7 557 200 555C183.3 553 166.7 543 150 545C133.3 547 116.7 561 100 565C83.3 569 66.7 563 50 558C33.3 553 16.7 549 8.3 547L0 545Z" fill="#00286d"></path></svg>