<svg id="visual" viewBox="0 0 900 600" width="900" height="600" xmlns="http://www.w3.org/2000/svg" xmlns:xlink="http://www.w3.org/1999/xlink" version="1.1"><path d="M0 532L9.3 519.8C18.7 507.7 37.3 483.3 56.2 478.8C75 474.3 94 489.7 112.8 494.3C131.7 499 150.3 493 169 490C187.7 487 206.3 487 225 495C243.7 503 262.3 519 281.2 525C300 531 319 527 337.8 523.5C356.7 520 375.3 517 394 517C412.7 517 431.3 520 450 506.7C468.7 493.3 487.3 463.7 506.2 450.7C525 437.7 544 441.3 562.8 453.2C581.7 465 600.3 485 619 503.5C637.7 522 656.3 539 675 538.7C693.7 538.3 712.3 520.7 731.2 512.5C750 504.3 769 505.7 787.8 498C806.7 490.3 825.3 473.7 844 470.7C862.7 467.7 881.3 478.3 890.7 483.7L900 489L900 601L890.7 601C881.3 601 862.7 601 844 601C825.3 601 806.7 601 787.8 601C769 601 750 601 731.2 601C712.3 601 693.7 601 675 601C656.3 601 637.7 601 619 601C600.3 601 581.7 601 562.8 601C544 601 525 601 506.2 601C487.3 601 468.7 601 450 601C431.3 601 412.7 601 394 601C375.3 601 356.7 601 337.8 601C319 601 300 601 281.2 601C262.3 601 243.7 601 225 601C206.3 601 187.7 601 169 601C150.3 601 131.7 601 112.8 601C94 601 75 601 56.2 601C37.3 601 18.7 601 9.3 601L0 601Z" fill="#ffda54"></path><path d="M0 523L9.3 517C18.7 511 37.3 499 56.2 492.7C75 486.3 94 485.7 112.8 488C131.7 490.3 150.3 495.7 169 493C187.7 490.3 206.3 479.7 225 474.8C243.7 470 262.3 471 281.2 474.8C300 478.7 319 485.3 337.8 486.2C356.7 487 375.3 482 394 482C412.7 482 431.3 487 450 482.5C468.7 478 487.3 464 506.2 475.5C525 487 544 524 562.8 527.7C581.7 531.3 600.3 501.7 619 495.2C637.7 488.7 656.3 505.3 675 513.3C693.7 521.3 712.3 520.7 731.2 514.2C750 507.7 769 495.3 787.8 502.2C806.7 509 825.3 535 844 543.5C862.7 552 881.3 543 890.7 538.5L900 534L900 601L890.7 601C881.3 601 862.7 601 844 601C825.3 601 806.7 601 787.8 601C769 601 750 601 731.2 601C712.3 601 693.7 601 675 601C656.3 601 637.7 601 619 601C600.3 601 581.7 601 562.8 601C544 601 525 601 506.2 601C487.3 601 468.7 601 450 601C431.3 601 412.7 601 394 601C375.3 601 356.7 601 337.8 601C319 601 300 601 281.2 601C262.3 601 243.7 601 225 601C206.3 601 187.7 601 169 601C150.3 601 131.7 601 112.8 601C94 601 75 601 56.2 601C37.3 601 18.7 601 9.3 601L0 601Z" fill="#fab450"></path><path d="M0 521L9.3 523.5C18.7 526 37.3 531 56.2 530.7C75 530.3 94 524.7 112.8 513.7C131.7 502.7 150.3 486.3 169 481C187.7 475.7 206.3 481.3 225 489.7C243.7 498 262.3 509 281.2 521.2C300 533.3 319 546.7 337.8 547.5C356.7 548.3 375.3 536.7 394 522.2C412.7 507.7 431.3 490.3 450 495.8C468.7 501.3 487.3 529.7 506.2 532.7C525 535.7 544 513.3 562.8 513.8C581.7 514.3 600.3 537.7 619 540.8C637.7 544 656.3 527 675 518.8C693.7 510.7 712.3 511.3 731.2 504.5C750 497.7 769 483.3 787.8 481C806.7 478.7 825.3 488.3 844 500C862.7 511.7 881.3 525.3 890.7 532.2L900 539L900 601L890.7 601C881.3 601 862.7 601 844 601C825.3 601 806.7 601 787.8 601C769 601 750 601 731.2 601C712.3 601 693.7 601 675 601C656.3 601 637.7 601 619 601C600.3 601 581.7 601 562.8 601C544 601 525 601 506.2 601C487.3 601 468.7 601 450 601C431.3 601 412.7 601 394 601C375.3 601 356.7 601 337.8 601C319 601 300 601 281.2 601C262.3 601 243.7 601 225 601C206.3 601 187.7 601 169 601C150.3 601 131.7 601 112.8 601C94 601 75 601 56.2 601C37.3 601 18.7 601 9.3 601L0 601Z" fill="#ec9252"></path><path d="M0 522L9.3 528.8C18.7 535.7 37.3 549.3 56.2 542.5C75 535.7 94 508.3 112.8 500.2C131.7 492 150.3 503 169 508C187.7 513 206.3 512 225 514.5C243.7 517 262.3 523 281.2 530C300 537 319 545 337.8 538.2C356.7 531.3 375.3 509.7 394 506.3C412.7 503 431.3 518 450 517.5C468.7 517 487.3 501 506.2 499.7C525 498.3 544 511.7 562.8 525.5C581.7 539.3 600.3 553.7 619 551.2C637.7 548.7 656.3 529.3 675 526.2C693.7 523 712.3 536 731.2 541.5C750 547 769 545 787.8 534.2C806.7 523.3 825.3 503.7 844 496.5C862.7 489.3 881.3 494.7 890.7 497.3L900 500L900 601L890.7 601C881.3 601 862.7 601 844 601C825.3 601 806.7 601 787.8 601C769 601 750 601 731.2 601C712.3 601 693.7 601 675 601C656.3 601 637.7 601 619 601C600.3 601 581.7 601 562.8 601C544 601 525 601 506.2 601C487.3 601 468.7 601 450 601C431.3 601 412.7 601 394 601C375.3 601 356.7 601 337.8 601C319 601 300 601 281.2 601C262.3 601 243.7 601 225 601C206.3 601 187.7 601 169 601C150.3 601 131.7 601 112.8 601C94 601 75 601 56.2 601C37.3 601 18.7 601 9.3 601L0 601Z" fill="#d57356"></path><path d="M0 529L9.3 527C18.7 525 37.3 521 56.2 519.2C75 517.3 94 517.7 112.8 523.7C131.7 529.7 150.3 541.3 169 543.7C187.7 546 206.3 539 225 529.5C243.7 520 262.3 508 281.2 509.7C300 511.3 319 526.7 337.8 530.8C356.7 535 375.3 528 394 521.5C412.7 515 431.3 509 450 509.3C468.7 509.7 487.3 516.3 506.2 524.2C525 532 544 541 562.8 547C581.7 553 600.3 556 619 551.2C637.7 546.3 656.3 533.7 675 526.2C693.7 518.7 712.3 516.3 731.2 512.7C750 509 769 504 787.8 505.2C806.7 506.3 825.3 513.7 844 521.7C862.7 529.7 881.3 538.3 890.7 542.7L900 547L900 601L890.7 601C881.3 601 862.7 601 844 601C825.3 601 806.7 601 787.8 601C769 601 750 601 731.2 601C712.3 601 693.7 601 675 601C656.3 601 637.7 601 619 601C600.3 601 581.7 601 562.8 601C544 601 525 601 506.2 601C487.3 601 468.7 601 450 601C431.3 601 412.7 601 394 601C375.3 601 356.7 601 337.8 601C319 601 300 601 281.2 601C262.3 601 243.7 601 225 601C206.3 601 187.7 601 169 601C150.3 601 131.7 601 112.8 601C94 601 75 601 56.2 601C37.3 601 18.7 601 9.3 601L0 601Z" fill="#b75957"></path><path d="M0 555L9.3 550.8C18.7 546.7 37.3 538.3 56.2 535.3C75 532.3 94 534.7 112.8 537.3C131.7 540 150.3 543 169 544.7C187.7 546.3 206.3 546.7 225 551C243.7 555.3 262.3 563.7 281.2 556.7C300 549.7 319 527.3 337.8 528C356.7 528.7 375.3 552.3 394 552.7C412.7 553 431.3 530 450 523.8C468.7 517.7 487.3 528.3 506.2 532.5C525 536.7 544 534.3 562.8 540.3C581.7 546.3 600.3 560.7 619 557C637.7 553.3 656.3 531.7 675 529C693.7 526.3 712.3 542.7 731.2 542.2C750 541.7 769 524.3 787.8 516.7C806.7 509 825.3 511 844 517.3C862.7 523.7 881.3 534.3 890.7 539.7L900 545L900 601L890.7 601C881.3 601 862.7 601 844 601C825.3 601 806.7 601 787.8 601C769 601 750 601 731.2 601C712.3 601 693.7 601 675 601C656.3 601 637.7 601 619 601C600.3 601 581.7 601 562.8 601C544 601 525 601 506.2 601C487.3 601 468.7 601 450 601C431.3 601 412.7 601 394 601C375.3 601 356.7 601 337.8 601C319 601 300 601 281.2 601C262.3 601 243.7 601 225 601C206.3 601 187.7 601 169 601C150.3 601 131.7 601 112.8 601C94 601 75 601 56.2 601C37.3 601 18.7 601 9.3 601L0 601Z" fill="#944454"></path><path d="M0 579L9.3 577.7C18.7 576.3 37.3 573.7 56.2 566.8C75 560 94 549 112.8 545C131.7 541 150.3 544 169 547.2C187.7 550.3 206.3 553.7 225 557.5C243.7 561.3 262.3 565.7 281.2 563.3C300 561 319 552 337.8 544.2C356.7 536.3 375.3 529.7 394 532.8C412.7 536 431.3 549 450 555.7C468.7 562.3 487.3 562.7 506.2 563.5C525 564.3 544 565.7 562.8 565.3C581.7 565 600.3 563 619 565C637.7 567 656.3 573 675 575.3C693.7 577.7 712.3 576.3 731.2 572.7C750 569 769 563 787.8 563C806.7 563 825.3 569 844 563.2C862.7 557.3 881.3 539.7 890.7 530.8L900 522L900 601L890.7 601C881.3 601 862.7 601 844 601C825.3 601 806.7 601 787.8 601C769 601 750 601 731.2 601C712.3 601 693.7 601 675 601C656.3 601 637.7 601 619 601C600.3 601 581.7 601 562.8 601C544 601 525 601 506.2 601C487.3 601 468.7 601 450 601C431.3 601 412.7 601 394 601C375.3 601 356.7 601 337.8 601C319 601 300 601 281.2 601C262.3 601 243.7 601 225 601C206.3 601 187.7 601 169 601C150.3 601 131.7 601 112.8 601C94 601 75 601 56.2 601C37.3 601 18.7 601 9.3 601L0 601Z" fill="#6f334c"></path><path d="M0 560L9.3 562.7C18.7 565.3 37.3 570.7 56.2 569.3C75 568 94 560 112.8 555.5C131.7 551 150.3 550 169 547.7C187.7 545.3 206.3 541.7 225 547.8C243.7 554 262.3 570 281.2 578.2C300 586.3 319 586.7 337.8 581.2C356.7 575.7 375.3 564.3 394 561C412.7 557.7 431.3 562.3 450 565.8C468.7 569.3 487.3 571.7 506.2 569.5C525 567.3 544 560.7 562.8 554.7C581.7 548.7 600.3 543.3 619 541.5C637.7 539.7 656.3 541.3 675 545.2C693.7 549 712.3 555 731.2 556.2C750 557.3 769 553.7 787.8 556.8C806.7 560 825.3 570 844 568.2C862.7 566.3 881.3 552.7 890.7 545.8L900 539L900 601L890.7 601C881.3 601 862.7 601 844 601C825.3 601 806.7 601 787.8 601C769 601 750 601 731.2 601C712.3 601 693.7 601 675 601C656.3 601 637.7 601 619 601C600.3 601 581.7 601 562.8 601C544 601 525 601 506.2 601C487.3 601 468.7 601 450 601C431.3 601 412.7 601 394 601C375.3 601 356.7 601 337.8 601C319 601 300 601 281.2 601C262.3 601 243.7 601 225 601C206.3 601 187.7 601 169 601C150.3 601 131.7 601 112.8 601C94 601 75 601 56.2 601C37.3 601 18.7 601 9.3 601L0 601Z" fill="#4a253e"></path><path d="M0 579L9.3 577.8C18.7 576.7 37.3 574.3 56.2 573.7C75 573 94 574 112.8 573.8C131.7 573.7 150.3 572.3 169 574.7C187.7 577 206.3 583 225 586.3C243.7 589.7 262.3 590.3 281.2 590.2C300 590 319 589 337.8 587C356.7 585 375.3 582 394 582.8C412.7 583.7 431.3 588.3 450 590.7C468.7 593 487.3 593 506.2 588.7C525 584.3 544 575.7 562.8 570.2C581.7 564.7 600.3 562.3 619 561.2C637.7 560 656.3 560 675 559.7C693.7 559.3 712.3 558.7 731.2 562C750 565.3 769 572.7 787.8 575C806.7 577.3 825.3 574.7 844 571.7C862.7 568.7 881.3 565.3 890.7 563.7L900 562L900 601L890.7 601C881.3 601 862.7 601 844 601C825.3 601 806.7 601 787.8 601C769 601 750 601 731.2 601C712.3 601 693.7 601 675 601C656.3 601 637.7 601 619 601C600.3 601 581.7 601 562.8 601C544 601 525 601 506.2 601C487.3 601 468.7 601 450 601C431.3 601 412.7 601 394 601C375.3 601 356.7 601 337.8 601C319 601 300 601 281.2 601C262.3 601 243.7 601 225 601C206.3 601 187.7 601 169 601C150.3 601 131.7 601 112.8 601C94 601 75 601 56.2 601C37.3 601 18.7 601 9.3 601L0 601Z" fill="#29172b"></path><path d="M0 571L9.3 574.3C18.7 577.7 37.3 584.3 56.2 588.3C75 592.3 94 593.7 112.8 590.7C131.7 587.7 150.3 580.3 169 579.7C187.7 579 206.3 585 225 586.3C243.7 587.7 262.3 584.3 281.2 585.3C300 586.3 319 591.7 337.8 591C356.7 590.3 375.3 583.7 394 582.7C412.7 581.7 431.3 586.3 450 586.7C468.7 587 487.3 583 506.2 582.7C525 582.3 544 585.7 562.8 584.2C581.7 582.7 600.3 576.3 619 573.7C637.7 571 656.3 572 675 575.3C693.7 578.7 712.3 584.3 731.2 587.7C750 591 769 592 787.8 592.7C806.7 593.3 825.3 593.7 844 589.8C862.7 586 881.3 578 890.7 574L900 570L900 601L890.7 601C881.3 601 862.7 601 844 601C825.3 601 806.7 601 787.8 601C769 601 750 601 731.2 601C712.3 601 693.7 601 675 601C656.3 601 637.7 601 619 601C600.3 601 581.7 601 562.8 601C544 601 525 601 506.2 601C487.3 601 468.7 601 450 601C431.3 601 412.7 601 394 601C375.3 601 356.7 601 337.8 601C319 601 300 601 281.2 601C262.3 601 243.7 601 225 601C206.3 601 187.7 601 169 601C150.3 601 131.7 601 112.8 601C94 601 75 601 56.2 601C37.3 601 18.7 601 9.3 601L0 601Z" fill="#0b0015"></path></svg>