<svg id="visual" viewBox="0 0 600 900" width="600" height="900" xmlns="http://www.w3.org/2000/svg" xmlns:xlink="http://www.w3.org/1999/xlink" version="1.1"><rect x="0" y="0" width="600" height="900" fill="#00ec9e"></rect><defs><linearGradient id="grad1_0" x1="0%" y1="0%" x2="100%" y2="100%"><stop offset="30%" stop-color="#00286d" stop-opacity="1"></stop><stop offset="70%" stop-color="#00286d" stop-opacity="1"></stop></linearGradient></defs><defs><linearGradient id="grad1_1" x1="0%" y1="0%" x2="100%" y2="100%"><stop offset="30%" stop-color="#00286d" stop-opacity="1"></stop><stop offset="70%" stop-color="#006cb1" stop-opacity="1"></stop></linearGradient></defs><defs><linearGradient id="grad1_2" x1="0%" y1="0%" x2="100%" y2="100%"><stop offset="30%" stop-color="#00afbf" stop-opacity="1"></stop><stop offset="70%" stop-color="#006cb1" stop-opacity="1"></stop></linearGradient></defs><defs><linearGradient id="grad1_3" x1="0%" y1="0%" x2="100%" y2="100%"><stop offset="30%" stop-color="#00afbf" stop-opacity="1"></stop><stop offset="70%" stop-color="#00ec9e" stop-opacity="1"></stop></linearGradient></defs><defs><linearGradient id="grad2_0" x1="0%" y1="0%" x2="100%" y2="100%"><stop offset="30%" stop-color="#00286d" stop-opacity="1"></stop><stop offset="70%" stop-color="#00286d" stop-opacity="1"></stop></linearGradient></defs><defs><linearGradient id="grad2_1" x1="0%" y1="0%" x2="100%" y2="100%"><stop offset="30%" stop-color="#006cb1" stop-opacity="1"></stop><stop offset="70%" stop-color="#00286d" stop-opacity="1"></stop></linearGradient></defs><defs><linearGradient id="grad2_2" x1="0%" y1="0%" x2="100%" y2="100%"><stop offset="30%" stop-color="#006cb1" stop-opacity="1"></stop><stop offset="70%" stop-color="#00afbf" stop-opacity="1"></stop></linearGradient></defs><defs><linearGradient id="grad2_3" x1="0%" y1="0%" x2="100%" y2="100%"><stop offset="30%" stop-color="#00ec9e" stop-opacity="1"></stop><stop offset="70%" stop-color="#00afbf" stop-opacity="1"></stop></linearGradient></defs><g transform="translate(600, 0)"><path d="M0 459.7C-31.7 449.3 -63.5 439 -99.7 436.8C-135.9 434.6 -176.6 440.6 -199.5 414.2C-222.3 387.8 -227.3 329 -230.7 289.3C-234 249.5 -235.7 228.8 -278.3 222C-320.9 215.2 -404.4 222.3 -409.9 197.4C-415.5 172.5 -343 115.5 -338.3 77.2C-333.6 39 -396.7 19.5 -459.7 0L0 0Z" fill="#00ceb3"></path><path d="M0 344.8C-23.8 337 -47.6 329.2 -74.8 327.6C-101.9 325.9 -132.5 330.4 -149.6 310.6C-166.7 290.8 -170.5 246.8 -173 217C-175.5 187.1 -176.8 171.6 -208.7 166.5C-240.7 161.4 -303.3 166.8 -307.5 148.1C-311.6 129.4 -257.3 86.6 -253.7 57.9C-250.2 29.2 -297.5 14.6 -344.8 0L0 0Z" fill="#008ec0"></path><path d="M0 229.9C-15.9 224.7 -31.7 219.5 -49.8 218.4C-68 217.3 -88.3 220.3 -99.7 207.1C-111.2 193.9 -113.7 164.5 -115.3 144.6C-117 124.8 -117.9 114.4 -139.2 111C-160.5 107.6 -202.2 111.2 -205 98.7C-207.7 86.2 -171.5 57.7 -169.1 38.6C-166.8 19.5 -198.3 9.7 -229.9 0L0 0Z" fill="#004a95"></path><path d="M0 114.9C-7.9 112.3 -15.9 109.7 -24.9 109.2C-34 108.6 -44.2 110.1 -49.9 103.5C-55.6 96.9 -56.8 82.3 -57.7 72.3C-58.5 62.4 -58.9 57.2 -69.6 55.5C-80.2 53.8 -101.1 55.6 -102.5 49.4C-103.9 43.1 -85.8 28.9 -84.6 19.3C-83.4 9.7 -99.2 4.9 -114.9 0L0 0Z" fill="#00286d"></path></g><g transform="translate(0, 900)"><path d="M0 -459.7C33 -447 66 -434.3 96.6 -423.1C127.2 -412 155.4 -402.4 190.5 -395.5C225.6 -388.6 267.5 -384.4 286.6 -359.4C305.7 -334.4 302 -288.6 328.4 -261.9C354.7 -235.2 411.1 -227.6 411.7 -198.3C412.4 -169 357.2 -117.9 355.8 -81.2C354.5 -44.5 407.1 -22.3 459.7 0L0 0Z" fill="#00ceb3"></path><path d="M0 -344.8C24.7 -335.2 49.5 -325.7 72.4 -317.3C95.4 -309 116.5 -301.8 142.9 -296.6C169.2 -291.5 200.6 -288.3 215 -269.6C229.3 -250.8 226.5 -216.4 246.3 -196.4C266 -176.4 308.4 -170.7 308.8 -148.7C309.3 -126.7 267.9 -88.4 266.9 -60.9C265.9 -33.4 305.3 -16.7 344.8 0L0 0Z" fill="#008ec0"></path><path d="M0 -229.9C16.5 -223.5 33 -217.1 48.3 -211.6C63.6 -206 77.7 -201.2 95.2 -197.8C112.8 -194.3 133.8 -192.2 143.3 -179.7C152.9 -167.2 151 -144.3 164.2 -130.9C177.4 -117.6 205.6 -113.8 205.9 -99.1C206.2 -84.5 178.6 -58.9 177.9 -40.6C177.3 -22.3 203.6 -11.1 229.9 0L0 0Z" fill="#004a95"></path><path d="M0 -114.9C8.2 -111.7 16.5 -108.6 24.1 -105.8C31.8 -103 38.8 -100.6 47.6 -98.9C56.4 -97.2 66.9 -96.1 71.7 -89.9C76.4 -83.6 75.5 -72.1 82.1 -65.5C88.7 -58.8 102.8 -56.9 102.9 -49.6C103.1 -42.2 89.3 -29.5 89 -20.3C88.6 -11.1 101.8 -5.6 114.9 0L0 0Z" fill="#00286d"></path></g></svg>