<svg id="visual" viewBox="0 0 600 900" width="600" height="900" xmlns="http://www.w3.org/2000/svg" xmlns:xlink="http://www.w3.org/1999/xlink" version="1.1"><path d="M0 742L5.8 745.5C11.7 749 23.3 756 35.2 764.2C47 772.3 59 781.7 70.8 785.2C82.7 788.7 94.3 786.3 106 781C117.7 775.7 129.3 767.3 141 758C152.7 748.7 164.3 738.3 176.2 738.5C188 738.7 200 749.3 211.8 755.3C223.7 761.3 235.3 762.7 247 755.8C258.7 749 270.3 734 282.2 729.7C294 725.3 306 731.7 317.8 734.8C329.7 738 341.3 738 353 740.5C364.7 743 376.3 748 388.2 748.7C400 749.3 412 745.7 423.8 748.3C435.7 751 447.3 760 459 766.8C470.7 773.7 482.3 778.3 494 772.8C505.7 767.3 517.3 751.7 529.2 748.8C541 746 553 756 564.8 763.2C576.7 770.3 588.3 774.7 594.2 776.8L600 779L600 901L594.2 901C588.3 901 576.7 901 564.8 901C553 901 541 901 529.2 901C517.3 901 505.7 901 494 901C482.3 901 470.7 901 459 901C447.3 901 435.7 901 423.8 901C412 901 400 901 388.2 901C376.3 901 364.7 901 353 901C341.3 901 329.7 901 317.8 901C306 901 294 901 282.2 901C270.3 901 258.7 901 247 901C235.3 901 223.7 901 211.8 901C200 901 188 901 176.2 901C164.3 901 152.7 901 141 901C129.3 901 117.7 901 106 901C94.3 901 82.7 901 70.8 901C59 901 47 901 35.2 901C23.3 901 11.7 901 5.8 901L0 901Z" fill="#ffd84d"></path><path d="M0 763L5.8 760.7C11.7 758.3 23.3 753.7 35.2 758.7C47 763.7 59 778.3 70.8 782.3C82.7 786.3 94.3 779.7 106 781.5C117.7 783.3 129.3 793.7 141 794.3C152.7 795 164.3 786 176.2 777.7C188 769.3 200 761.7 211.8 757C223.7 752.3 235.3 750.7 247 759.2C258.7 767.7 270.3 786.3 282.2 787.3C294 788.3 306 771.7 317.8 766.2C329.7 760.7 341.3 766.3 353 768.5C364.7 770.7 376.3 769.3 388.2 765.7C400 762 412 756 423.8 753.2C435.7 750.3 447.3 750.7 459 760C470.7 769.3 482.3 787.7 494 792C505.7 796.3 517.3 786.7 529.2 785.2C541 783.7 553 790.3 564.8 788.8C576.7 787.3 588.3 777.7 594.2 772.8L600 768L600 901L594.2 901C588.3 901 576.7 901 564.8 901C553 901 541 901 529.2 901C517.3 901 505.7 901 494 901C482.3 901 470.7 901 459 901C447.3 901 435.7 901 423.8 901C412 901 400 901 388.2 901C376.3 901 364.7 901 353 901C341.3 901 329.7 901 317.8 901C306 901 294 901 282.2 901C270.3 901 258.7 901 247 901C235.3 901 223.7 901 211.8 901C200 901 188 901 176.2 901C164.3 901 152.7 901 141 901C129.3 901 117.7 901 106 901C94.3 901 82.7 901 70.8 901C59 901 47 901 35.2 901C23.3 901 11.7 901 5.8 901L0 901Z" fill="#e88750"></path><path d="M0 803L5.8 804.3C11.7 805.7 23.3 808.3 35.2 809.7C47 811 59 811 70.8 809.3C82.7 807.7 94.3 804.3 106 799.7C117.7 795 129.3 789 141 792C152.7 795 164.3 807 176.2 808.8C188 810.7 200 802.3 211.8 796.2C223.7 790 235.3 786 247 783.8C258.7 781.7 270.3 781.3 282.2 788.2C294 795 306 809 317.8 814.3C329.7 819.7 341.3 816.3 353 810.2C364.7 804 376.3 795 388.2 794.8C400 794.7 412 803.3 423.8 809.3C435.7 815.3 447.3 818.7 459 815.5C470.7 812.3 482.3 802.7 494 803.7C505.7 804.7 517.3 816.3 529.2 814.2C541 812 553 796 564.8 791.5C576.7 787 588.3 794 594.2 797.5L600 801L600 901L594.2 901C588.3 901 576.7 901 564.8 901C553 901 541 901 529.2 901C517.3 901 505.7 901 494 901C482.3 901 470.7 901 459 901C447.3 901 435.7 901 423.8 901C412 901 400 901 388.2 901C376.3 901 364.7 901 353 901C341.3 901 329.7 901 317.8 901C306 901 294 901 282.2 901C270.3 901 258.7 901 247 901C235.3 901 223.7 901 211.8 901C200 901 188 901 176.2 901C164.3 901 152.7 901 141 901C129.3 901 117.7 901 106 901C94.3 901 82.7 901 70.8 901C59 901 47 901 35.2 901C23.3 901 11.7 901 5.8 901L0 901Z" fill="#a74c55"></path><path d="M0 813L5.8 816.7C11.7 820.3 23.3 827.7 35.2 828.5C47 829.3 59 823.7 70.8 820.8C82.7 818 94.3 818 106 819C117.7 820 129.3 822 141 825.8C152.7 829.7 164.3 835.3 176.2 838.3C188 841.3 200 841.7 211.8 841.5C223.7 841.3 235.3 840.7 247 840.7C258.7 840.7 270.3 841.3 282.2 842.7C294 844 306 846 317.8 842.3C329.7 838.7 341.3 829.3 353 828.5C364.7 827.7 376.3 835.3 388.2 834C400 832.7 412 822.3 423.8 816.8C435.7 811.3 447.3 810.7 459 814.8C470.7 819 482.3 828 494 831.8C505.7 835.7 517.3 834.3 529.2 830.3C541 826.3 553 819.7 564.8 820.3C576.7 821 588.3 829 594.2 833L600 837L600 901L594.2 901C588.3 901 576.7 901 564.8 901C553 901 541 901 529.2 901C517.3 901 505.7 901 494 901C482.3 901 470.7 901 459 901C447.3 901 435.7 901 423.8 901C412 901 400 901 388.2 901C376.3 901 364.7 901 353 901C341.3 901 329.7 901 317.8 901C306 901 294 901 282.2 901C270.3 901 258.7 901 247 901C235.3 901 223.7 901 211.8 901C200 901 188 901 176.2 901C164.3 901 152.7 901 141 901C129.3 901 117.7 901 106 901C94.3 901 82.7 901 70.8 901C59 901 47 901 35.2 901C23.3 901 11.7 901 5.8 901L0 901Z" fill="#532742"></path><path d="M0 863L5.8 863.7C11.7 864.3 23.3 865.7 35.2 863.5C47 861.3 59 855.7 70.8 853.5C82.7 851.3 94.3 852.7 106 853.7C117.7 854.7 129.3 855.3 141 853.3C152.7 851.3 164.3 846.7 176.2 847.3C188 848 200 854 211.8 854.2C223.7 854.3 235.3 848.7 247 846.2C258.7 843.7 270.3 844.3 282.2 845.5C294 846.7 306 848.3 317.8 850C329.7 851.7 341.3 853.3 353 855C364.7 856.7 376.3 858.3 388.2 856.5C400 854.7 412 849.3 423.8 848.3C435.7 847.3 447.3 850.7 459 851.2C470.7 851.7 482.3 849.3 494 850.7C505.7 852 517.3 857 529.2 860.2C541 863.3 553 864.7 564.8 864.3C576.7 864 588.3 862 594.2 861L600 860L600 901L594.2 901C588.3 901 576.7 901 564.8 901C553 901 541 901 529.2 901C517.3 901 505.7 901 494 901C482.3 901 470.7 901 459 901C447.3 901 435.7 901 423.8 901C412 901 400 901 388.2 901C376.3 901 364.7 901 353 901C341.3 901 329.7 901 317.8 901C306 901 294 901 282.2 901C270.3 901 258.7 901 247 901C235.3 901 223.7 901 211.8 901C200 901 188 901 176.2 901C164.3 901 152.7 901 141 901C129.3 901 117.7 901 106 901C94.3 901 82.7 901 70.8 901C59 901 47 901 35.2 901C23.3 901 11.7 901 5.8 901L0 901Z" fill="#0b0015"></path></svg>