<svg id="visual" viewBox="0 0 900 600" width="900" height="600" xmlns="http://www.w3.org/2000/svg" xmlns:xlink="http://www.w3.org/1999/xlink" version="1.1"><rect x="0" y="0" width="900" height="600" fill="#00e99b"></rect><defs><linearGradient id="grad1_0" x1="33.3%" y1="0%" x2="100%" y2="100%"><stop offset="20%" stop-color="#1a2c88" stop-opacity="1"></stop><stop offset="80%" stop-color="#1a2c88" stop-opacity="1"></stop></linearGradient></defs><defs><linearGradient id="grad1_1" x1="33.3%" y1="0%" x2="100%" y2="100%"><stop offset="20%" stop-color="#1a2c88" stop-opacity="1"></stop><stop offset="80%" stop-color="#0074c9" stop-opacity="1"></stop></linearGradient></defs><defs><linearGradient id="grad1_2" x1="33.3%" y1="0%" x2="100%" y2="100%"><stop offset="20%" stop-color="#00b2c8" stop-opacity="1"></stop><stop offset="80%" stop-color="#0074c9" stop-opacity="1"></stop></linearGradient></defs><defs><linearGradient id="grad1_3" x1="33.3%" y1="0%" x2="100%" y2="100%"><stop offset="20%" stop-color="#00b2c8" stop-opacity="1"></stop><stop offset="80%" stop-color="#00e99b" stop-opacity="1"></stop></linearGradient></defs><defs><linearGradient id="grad2_0" x1="0%" y1="0%" x2="66.7%" y2="100%"><stop offset="20%" stop-color="#1a2c88" stop-opacity="1"></stop><stop offset="80%" stop-color="#1a2c88" stop-opacity="1"></stop></linearGradient></defs><defs><linearGradient id="grad2_1" x1="0%" y1="0%" x2="66.7%" y2="100%"><stop offset="20%" stop-color="#0074c9" stop-opacity="1"></stop><stop offset="80%" stop-color="#1a2c88" stop-opacity="1"></stop></linearGradient></defs><defs><linearGradient id="grad2_2" x1="0%" y1="0%" x2="66.7%" y2="100%"><stop offset="20%" stop-color="#0074c9" stop-opacity="1"></stop><stop offset="80%" stop-color="#00b2c8" stop-opacity="1"></stop></linearGradient></defs><defs><linearGradient id="grad2_3" x1="0%" y1="0%" x2="66.7%" y2="100%"><stop offset="20%" stop-color="#00e99b" stop-opacity="1"></stop><stop offset="80%" stop-color="#00b2c8" stop-opacity="1"></stop></linearGradient></defs><g transform="translate(900, 0)"><path d="M0 540.8C-35.1 544.9 -70.3 549 -90.5 513.1C-110.7 477.2 -115.9 401.2 -136.1 374C-156.4 346.8 -191.7 368.4 -206 356.8C-220.3 345.3 -213.7 300.6 -253.9 302.6C-294.1 304.6 -381.2 353.2 -414.3 347.6C-447.4 342 -426.4 282.2 -414.8 239.5C-403.3 196.8 -401.1 171.4 -406.9 148.1C-412.7 124.8 -426.4 103.7 -450.1 79.4C-473.7 55 -507.3 27.5 -540.8 0L0 0Z" fill="#00cfb4"></path><path d="M0 405.6C-26.4 408.7 -52.7 411.8 -67.9 384.8C-83 357.9 -86.9 300.9 -102.1 280.5C-117.3 260.1 -143.8 276.3 -154.5 267.6C-165.2 258.9 -160.3 225.4 -190.4 226.9C-220.6 228.4 -285.9 264.9 -310.7 260.7C-335.5 256.5 -319.8 211.6 -311.1 179.6C-302.4 147.6 -300.8 128.5 -305.2 111.1C-309.5 93.6 -319.8 77.8 -337.5 59.5C-355.3 41.3 -380.5 20.6 -405.6 0L0 0Z" fill="#0094d0"></path><path d="M0 270.4C-17.6 272.5 -35.1 274.5 -45.2 256.5C-55.3 238.6 -57.9 200.6 -68.1 187C-78.2 173.4 -95.8 184.2 -103 178.4C-110.2 172.6 -106.8 150.3 -127 151.3C-147.1 152.3 -190.6 176.6 -207.2 173.8C-223.7 171 -213.2 141.1 -207.4 119.8C-201.6 98.4 -200.5 85.7 -203.4 74C-206.3 62.4 -213.2 51.8 -225 39.7C-236.9 27.5 -253.6 13.8 -270.4 0L0 0Z" fill="#0052b0"></path><path d="M0 135.2C-8.8 136.2 -17.6 137.3 -22.6 128.3C-27.7 119.3 -29 100.3 -34 93.5C-39.1 86.7 -47.9 92.1 -51.5 89.2C-55.1 86.3 -53.4 75.1 -63.5 75.6C-73.5 76.1 -95.3 88.3 -103.6 86.9C-111.8 85.5 -106.6 70.5 -103.7 59.9C-100.8 49.2 -100.3 42.8 -101.7 37C-103.2 31.2 -106.6 25.9 -112.5 19.8C-118.4 13.8 -126.8 6.9 -135.2 0L0 0Z" fill="#1a2c88"></path></g><g transform="translate(0, 600)"><path d="M0 -540.8C31 -519 61.9 -497.1 80.9 -458.9C99.9 -420.8 106.9 -366.3 131.7 -361.8C156.4 -357.2 198.9 -402.5 246.5 -427C294.1 -451.4 346.8 -454.9 347.6 -414.3C348.5 -373.7 297.6 -289.1 307.2 -257.8C316.8 -226.5 386.8 -248.5 410.5 -237C434.2 -225.5 411.5 -180.3 411.6 -149.8C411.7 -119.3 434.6 -103.6 459.9 -81.1C485.2 -58.6 513 -29.3 540.8 0L0 0Z" fill="#00cfb4"></path><path d="M0 -405.6C23.2 -389.2 46.4 -372.8 60.7 -344.2C74.9 -315.6 80.2 -274.8 98.8 -271.3C117.3 -267.9 149.2 -301.9 184.9 -320.2C220.6 -338.5 260.1 -341.2 260.7 -310.7C261.4 -280.3 223.2 -216.8 230.4 -193.3C237.6 -169.8 290.1 -186.4 307.9 -177.8C325.6 -169.1 308.6 -135.2 308.7 -112.4C308.8 -89.5 325.9 -77.7 344.9 -60.8C363.9 -43.9 384.8 -22 405.6 0L0 0Z" fill="#0094d0"></path><path d="M0 -270.4C15.5 -259.5 31 -248.5 40.5 -229.5C50 -210.4 53.5 -183.2 65.8 -180.9C78.2 -178.6 99.5 -201.3 123.2 -213.5C147 -225.7 173.4 -227.4 173.8 -207.2C174.3 -186.9 148.8 -144.5 153.6 -128.9C158.4 -113.2 193.4 -124.3 205.2 -118.5C217.1 -112.7 205.7 -90.1 205.8 -74.9C205.8 -59.7 217.3 -51.8 230 -40.5C242.6 -29.3 256.5 -14.6 270.4 0L0 0Z" fill="#0052b0"></path><path d="M0 -135.2C7.7 -129.7 15.5 -124.3 20.2 -114.7C25 -105.2 26.7 -91.6 32.9 -90.4C39.1 -89.3 49.7 -100.6 61.6 -106.7C73.5 -112.8 86.7 -113.7 86.9 -103.6C87.1 -93.4 74.4 -72.3 76.8 -64.4C79.2 -56.6 96.7 -62.1 102.6 -59.3C108.5 -56.4 102.9 -45.1 102.9 -37.5C102.9 -29.8 108.6 -25.9 115 -20.3C121.3 -14.6 128.3 -7.3 135.2 0L0 0Z" fill="#1a2c88"></path></g></svg>