<svg id="visual" viewBox="0 0 1199 200" width="1199" height="200" xmlns="http://www.w3.org/2000/svg" xmlns:xlink="http://www.w3.org/1999/xlink" version="1.1"><path d="M0 107L52 90L104 78L156 125L209 95L261 125L313 27L365 49L417 111L469 50L521 105L573 44L626 67L678 93L730 4L782 14L834 115L886 102L938 93L990 54L1043 26L1095 21L1147 24L1199 12L1199 201L1147 201L1095 201L1043 201L990 201L938 201L886 201L834 201L782 201L730 201L678 201L626 201L573 201L521 201L469 201L417 201L365 201L313 201L261 201L209 201L156 201L104 201L52 201L0 201Z" fill="#fadb69"></path><path d="M0 111L52 54L104 50L156 129L209 66L261 108L313 116L365 69L417 97L469 27L521 35L573 76L626 44L678 118L730 72L782 116L834 100L886 119L938 83L990 101L1043 97L1095 59L1147 75L1199 131L1199 201L1147 201L1095 201L1043 201L990 201L938 201L886 201L834 201L782 201L730 201L678 201L626 201L573 201L521 201L469 201L417 201L365 201L313 201L261 201L209 201L156 201L104 201L52 201L0 201Z" fill="#f5bd61"></path><path d="M0 33L52 140L104 108L156 72L209 43L261 68L313 90L365 69L417 60L469 60L521 122L573 77L626 101L678 45L730 94L782 119L834 123L886 48L938 81L990 52L1043 74L1095 77L1147 138L1199 46L1199 201L1147 201L1095 201L1043 201L990 201L938 201L886 201L834 201L782 201L730 201L678 201L626 201L573 201L521 201L469 201L417 201L365 201L313 201L261 201L209 201L156 201L104 201L52 201L0 201Z" fill="#eaa15d"></path><path d="M0 75L52 106L104 89L156 146L209 101L261 96L313 102L365 78L417 119L469 144L521 88L573 53L626 53L678 90L730 93L782 143L834 56L886 80L938 80L990 84L1043 55L1095 94L1147 93L1199 96L1199 201L1147 201L1095 201L1043 201L990 201L938 201L886 201L834 201L782 201L730 201L678 201L626 201L573 201L521 201L469 201L417 201L365 201L313 201L261 201L209 201L156 201L104 201L52 201L0 201Z" fill="#da875c"></path><path d="M0 127L52 143L104 146L156 128L209 74L261 145L313 119L365 68L417 80L469 129L521 109L573 156L626 82L678 76L730 147L782 93L834 106L886 145L938 118L990 145L1043 128L1095 140L1147 112L1199 114L1199 201L1147 201L1095 201L1043 201L990 201L938 201L886 201L834 201L782 201L730 201L678 201L626 201L573 201L521 201L469 201L417 201L365 201L313 201L261 201L209 201L156 201L104 201L52 201L0 201Z" fill="#c6705b"></path><path d="M0 133L52 152L104 88L156 140L209 162L261 141L313 85L365 123L417 155L469 98L521 124L573 131L626 123L678 124L730 107L782 112L834 90L886 109L938 137L990 133L1043 101L1095 120L1147 87L1199 95L1199 201L1147 201L1095 201L1043 201L990 201L938 201L886 201L834 201L782 201L730 201L678 201L626 201L573 201L521 201L469 201L417 201L365 201L313 201L261 201L209 201L156 201L104 201L52 201L0 201Z" fill="#ad5b59"></path><path d="M0 102L52 164L104 95L156 96L209 96L261 128L313 138L365 128L417 100L469 94L521 142L573 148L626 119L678 156L730 163L782 147L834 95L886 98L938 167L990 101L1043 161L1095 154L1147 144L1199 105L1199 201L1147 201L1095 201L1043 201L990 201L938 201L886 201L834 201L782 201L730 201L678 201L626 201L573 201L521 201L469 201L417 201L365 201L313 201L261 201L209 201L156 201L104 201L52 201L0 201Z" fill="#924955"></path><path d="M0 151L52 174L104 121L156 172L209 171L261 145L313 124L365 130L417 133L469 107L521 114L573 118L626 151L678 144L730 130L782 142L834 154L886 153L938 130L990 110L1043 109L1095 167L1147 129L1199 137L1199 201L1147 201L1095 201L1043 201L990 201L938 201L886 201L834 201L782 201L730 201L678 201L626 201L573 201L521 201L469 201L417 201L365 201L313 201L261 201L209 201L156 201L104 201L52 201L0 201Z" fill="#753a4e"></path><path d="M0 140L52 158L104 174L156 165L209 174L261 164L313 133L365 137L417 132L469 141L521 130L573 167L626 176L678 143L730 149L782 175L834 123L886 139L938 166L990 145L1043 162L1095 175L1147 128L1199 170L1199 201L1147 201L1095 201L1043 201L990 201L938 201L886 201L834 201L782 201L730 201L678 201L626 201L573 201L521 201L469 201L417 201L365 201L313 201L261 201L209 201L156 201L104 201L52 201L0 201Z" fill="#582d43"></path><path d="M0 173L52 171L104 169L156 159L209 183L261 149L313 171L365 174L417 150L469 177L521 159L573 156L626 163L678 175L730 160L782 181L834 182L886 183L938 139L990 146L1043 176L1095 142L1147 171L1199 182L1199 201L1147 201L1095 201L1043 201L990 201L938 201L886 201L834 201L782 201L730 201L678 201L626 201L573 201L521 201L469 201L417 201L365 201L313 201L261 201L209 201L156 201L104 201L52 201L0 201Z" fill="#3c2036"></path><path d="M0 178L52 158L104 178L156 175L209 186L261 190L313 188L365 165L417 157L469 181L521 168L573 157L626 186L678 184L730 186L782 158L834 161L886 163L938 187L990 184L1043 167L1095 172L1147 155L1199 188L1199 201L1147 201L1095 201L1043 201L990 201L938 201L886 201L834 201L782 201L730 201L678 201L626 201L573 201L521 201L469 201L417 201L365 201L313 201L261 201L209 201L156 201L104 201L52 201L0 201Z" fill="#231426"></path><path d="M0 178L52 191L104 199L156 190L209 178L261 197L313 198L365 175L417 170L469 171L521 183L573 179L626 174L678 184L730 188L782 199L834 170L886 190L938 182L990 177L1043 175L1095 171L1147 199L1199 185L1199 201L1147 201L1095 201L1043 201L990 201L938 201L886 201L834 201L782 201L730 201L678 201L626 201L573 201L521 201L469 201L417 201L365 201L313 201L261 201L209 201L156 201L104 201L52 201L0 201Z" fill="#0b0015"></path></svg>