<svg id="visual" viewBox="0 0 449 200" width="449" height="200" xmlns="http://www.w3.org/2000/svg" xmlns:xlink="http://www.w3.org/1999/xlink" version="1.1"><path d="M0 121L20 24L39 15L59 83L78 33L98 121L117 90L137 86L156 48L176 61L195 100L215 58L234 65L254 10L273 0L293 76L312 41L332 4L351 113L371 94L390 38L410 85L429 127L449 21L449 201L429 201L410 201L390 201L371 201L351 201L332 201L312 201L293 201L273 201L254 201L234 201L215 201L195 201L176 201L156 201L137 201L117 201L98 201L78 201L59 201L39 201L20 201L0 201Z" fill="#fadb69"></path><path d="M0 30L20 60L39 113L59 104L78 31L98 126L117 92L137 56L156 76L176 65L195 29L215 117L234 46L254 98L273 20L293 71L312 70L332 90L351 90L371 91L390 82L410 27L429 54L449 68L449 201L429 201L410 201L390 201L371 201L351 201L332 201L312 201L293 201L273 201L254 201L234 201L215 201L195 201L176 201L156 201L137 201L117 201L98 201L78 201L59 201L39 201L20 201L0 201Z" fill="#f5bd61"></path><path d="M0 88L20 48L39 120L59 83L78 119L98 42L117 121L137 63L156 93L176 139L195 92L215 79L234 73L254 32L273 39L293 127L312 124L332 75L351 136L371 120L390 86L410 139L429 67L449 138L449 201L429 201L410 201L390 201L371 201L351 201L332 201L312 201L293 201L273 201L254 201L234 201L215 201L195 201L176 201L156 201L137 201L117 201L98 201L78 201L59 201L39 201L20 201L0 201Z" fill="#eaa15d"></path><path d="M0 70L20 136L39 138L59 121L78 147L98 128L117 63L137 51L156 115L176 79L195 105L215 101L234 128L254 76L273 145L293 100L312 57L332 123L351 55L371 144L390 143L410 87L429 57L449 137L449 201L429 201L410 201L390 201L371 201L351 201L332 201L312 201L293 201L273 201L254 201L234 201L215 201L195 201L176 201L156 201L137 201L117 201L98 201L78 201L59 201L39 201L20 201L0 201Z" fill="#da875c"></path><path d="M0 106L20 83L39 130L59 71L78 86L98 99L117 140L137 105L156 152L176 82L195 73L215 153L234 69L254 110L273 107L293 154L312 154L332 136L351 134L371 114L390 146L410 112L429 124L449 117L449 201L429 201L410 201L390 201L371 201L351 201L332 201L312 201L293 201L273 201L254 201L234 201L215 201L195 201L176 201L156 201L137 201L117 201L98 201L78 201L59 201L39 201L20 201L0 201Z" fill="#c6705b"></path><path d="M0 118L20 104L39 119L59 102L78 133L98 125L117 104L137 119L156 135L176 94L195 105L215 78L234 87L254 93L273 95L293 110L312 131L332 96L351 132L371 151L390 132L410 149L429 92L449 130L449 201L429 201L410 201L390 201L371 201L351 201L332 201L312 201L293 201L273 201L254 201L234 201L215 201L195 201L176 201L156 201L137 201L117 201L98 201L78 201L59 201L39 201L20 201L0 201Z" fill="#ad5b59"></path><path d="M0 106L20 166L39 145L59 168L78 100L98 107L117 137L137 106L156 95L176 103L195 126L215 140L234 147L254 126L273 167L293 167L312 120L332 162L351 132L371 92L390 159L410 123L429 148L449 140L449 201L429 201L410 201L390 201L371 201L351 201L332 201L312 201L293 201L273 201L254 201L234 201L215 201L195 201L176 201L156 201L137 201L117 201L98 201L78 201L59 201L39 201L20 201L0 201Z" fill="#924955"></path><path d="M0 140L20 154L39 110L59 145L78 161L98 131L117 160L137 111L156 116L176 163L195 151L215 147L234 149L254 142L273 160L293 133L312 128L332 114L351 129L371 123L390 131L410 160L429 114L449 141L449 201L429 201L410 201L390 201L371 201L351 201L332 201L312 201L293 201L273 201L254 201L234 201L215 201L195 201L176 201L156 201L137 201L117 201L98 201L78 201L59 201L39 201L20 201L0 201Z" fill="#753a4e"></path><path d="M0 138L20 134L39 168L59 175L78 149L98 172L117 141L137 148L156 152L176 179L195 165L215 133L234 126L254 143L273 169L293 157L312 145L332 175L351 156L371 156L390 160L410 124L429 168L449 150L449 201L429 201L410 201L390 201L371 201L351 201L332 201L312 201L293 201L273 201L254 201L234 201L215 201L195 201L176 201L156 201L137 201L117 201L98 201L78 201L59 201L39 201L20 201L0 201Z" fill="#582d43"></path><path d="M0 178L20 147L39 178L59 173L78 156L98 187L117 158L137 186L156 159L176 151L195 165L215 171L234 183L254 147L273 139L293 162L312 150L332 158L351 176L371 168L390 164L410 165L429 143L449 183L449 201L429 201L410 201L390 201L371 201L351 201L332 201L312 201L293 201L273 201L254 201L234 201L215 201L195 201L176 201L156 201L137 201L117 201L98 201L78 201L59 201L39 201L20 201L0 201Z" fill="#3c2036"></path><path d="M0 191L20 191L39 168L59 184L78 162L98 159L117 191L137 192L156 156L176 167L195 174L215 191L234 184L254 169L273 168L293 191L312 191L332 181L351 161L371 159L390 184L410 168L429 177L449 168L449 201L429 201L410 201L390 201L371 201L351 201L332 201L312 201L293 201L273 201L254 201L234 201L215 201L195 201L176 201L156 201L137 201L117 201L98 201L78 201L59 201L39 201L20 201L0 201Z" fill="#231426"></path><path d="M0 177L20 189L39 172L59 190L78 172L98 192L117 194L137 177L156 188L176 185L195 192L215 173L234 175L254 186L273 184L293 195L312 182L332 169L351 178L371 177L390 186L410 195L429 172L449 170L449 201L429 201L410 201L390 201L371 201L351 201L332 201L312 201L293 201L273 201L254 201L234 201L215 201L195 201L176 201L156 201L137 201L117 201L98 201L78 201L59 201L39 201L20 201L0 201Z" fill="#0b0015"></path></svg>