<svg id="visual" viewBox="0 0 639 200" width="639" height="200" xmlns="http://www.w3.org/2000/svg" xmlns:xlink="http://www.w3.org/1999/xlink" version="1.1"><path d="M0 50L28 73L56 57L83 107L111 92L139 109L167 53L194 2L222 6L250 13L278 72L306 46L333 90L361 76L389 91L417 47L445 17L472 126L500 97L528 31L556 59L583 13L611 40L639 2L639 201L611 201L583 201L556 201L528 201L500 201L472 201L445 201L417 201L389 201L361 201L333 201L306 201L278 201L250 201L222 201L194 201L167 201L139 201L111 201L83 201L56 201L28 201L0 201Z" fill="#fadb69"></path><path d="M0 107L28 92L56 76L83 42L111 131L139 31L167 38L194 90L222 122L250 70L278 28L306 136L333 63L361 136L389 135L417 126L445 128L472 70L500 31L528 71L556 19L583 135L611 130L639 45L639 201L611 201L583 201L556 201L528 201L500 201L472 201L445 201L417 201L389 201L361 201L333 201L306 201L278 201L250 201L222 201L194 201L167 201L139 201L111 201L83 201L56 201L28 201L0 201Z" fill="#f5bd61"></path><path d="M0 81L28 49L56 91L83 114L111 84L139 51L167 117L194 49L222 39L250 61L278 99L306 136L333 57L361 99L389 72L417 33L445 46L472 34L500 68L528 102L556 77L583 54L611 64L639 87L639 201L611 201L583 201L556 201L528 201L500 201L472 201L445 201L417 201L389 201L361 201L333 201L306 201L278 201L250 201L222 201L194 201L167 201L139 201L111 201L83 201L56 201L28 201L0 201Z" fill="#eaa15d"></path><path d="M0 80L28 122L56 51L83 110L111 67L139 127L167 50L194 50L222 55L250 147L278 69L306 63L333 140L361 137L389 51L417 73L445 84L472 81L500 120L528 136L556 104L583 47L611 92L639 67L639 201L611 201L583 201L556 201L528 201L500 201L472 201L445 201L417 201L389 201L361 201L333 201L306 201L278 201L250 201L222 201L194 201L167 201L139 201L111 201L83 201L56 201L28 201L0 201Z" fill="#da875c"></path><path d="M0 115L28 127L56 148L83 129L111 127L139 150L167 147L194 83L222 112L250 146L278 149L306 75L333 128L361 79L389 62L417 82L445 112L472 132L500 120L528 83L556 132L583 134L611 95L639 142L639 201L611 201L583 201L556 201L528 201L500 201L472 201L445 201L417 201L389 201L361 201L333 201L306 201L278 201L250 201L222 201L194 201L167 201L139 201L111 201L83 201L56 201L28 201L0 201Z" fill="#c6705b"></path><path d="M0 136L28 160L56 117L83 136L111 158L139 125L167 95L194 153L222 116L250 98L278 102L306 158L333 114L361 154L389 116L417 114L445 159L472 115L500 131L528 78L556 133L583 79L611 113L639 94L639 201L611 201L583 201L556 201L528 201L500 201L472 201L445 201L417 201L389 201L361 201L333 201L306 201L278 201L250 201L222 201L194 201L167 201L139 201L111 201L83 201L56 201L28 201L0 201Z" fill="#ad5b59"></path><path d="M0 113L28 95L56 93L83 126L111 149L139 142L167 151L194 122L222 115L250 128L278 144L306 95L333 162L361 149L389 153L417 116L445 158L472 118L500 166L528 102L556 110L583 137L611 114L639 141L639 201L611 201L583 201L556 201L528 201L500 201L472 201L445 201L417 201L389 201L361 201L333 201L306 201L278 201L250 201L222 201L194 201L167 201L139 201L111 201L83 201L56 201L28 201L0 201Z" fill="#924955"></path><path d="M0 174L28 131L56 120L83 108L111 149L139 148L167 122L194 160L222 173L250 133L278 144L306 166L333 149L361 121L389 125L417 155L445 165L472 147L500 172L528 112L556 169L583 154L611 170L639 134L639 201L611 201L583 201L556 201L528 201L500 201L472 201L445 201L417 201L389 201L361 201L333 201L306 201L278 201L250 201L222 201L194 201L167 201L139 201L111 201L83 201L56 201L28 201L0 201Z" fill="#753a4e"></path><path d="M0 133L28 142L56 135L83 169L111 141L139 173L167 148L194 143L222 169L250 126L278 169L306 130L333 160L361 179L389 175L417 165L445 178L472 169L500 146L528 166L556 161L583 132L611 135L639 146L639 201L611 201L583 201L556 201L528 201L500 201L472 201L445 201L417 201L389 201L361 201L333 201L306 201L278 201L250 201L222 201L194 201L167 201L139 201L111 201L83 201L56 201L28 201L0 201Z" fill="#582d43"></path><path d="M0 151L28 145L56 171L83 160L111 182L139 149L167 140L194 161L222 159L250 180L278 163L306 174L333 169L361 173L389 170L417 160L445 144L472 163L500 181L528 174L556 187L583 168L611 155L639 166L639 201L611 201L583 201L556 201L528 201L500 201L472 201L445 201L417 201L389 201L361 201L333 201L306 201L278 201L250 201L222 201L194 201L167 201L139 201L111 201L83 201L56 201L28 201L0 201Z" fill="#3c2036"></path><path d="M0 172L28 187L56 192L83 177L111 179L139 181L167 165L194 184L222 187L250 189L278 163L306 163L333 179L361 193L389 160L417 161L445 162L472 188L500 185L528 174L556 189L583 191L611 177L639 154L639 201L611 201L583 201L556 201L528 201L500 201L472 201L445 201L417 201L389 201L361 201L333 201L306 201L278 201L250 201L222 201L194 201L167 201L139 201L111 201L83 201L56 201L28 201L0 201Z" fill="#231426"></path><path d="M0 170L28 176L56 184L83 197L111 185L139 178L167 190L194 181L222 186L250 187L278 171L306 190L333 196L361 184L389 195L417 199L445 182L472 191L500 170L528 196L556 188L583 185L611 191L639 181L639 201L611 201L583 201L556 201L528 201L500 201L472 201L445 201L417 201L389 201L361 201L333 201L306 201L278 201L250 201L222 201L194 201L167 201L139 201L111 201L83 201L56 201L28 201L0 201Z" fill="#0b0015"></path></svg>