<svg id="visual" viewBox="0 0 899 200" width="899" height="200" xmlns="http://www.w3.org/2000/svg" xmlns:xlink="http://www.w3.org/1999/xlink" version="1.1"><path d="M0 85L39 48L78 17L117 113L156 82L195 117L235 31L274 114L313 49L352 97L391 59L430 29L469 21L508 27L547 102L586 72L625 42L664 86L704 118L743 44L782 19L821 12L860 110L899 9L899 201L860 201L821 201L782 201L743 201L704 201L664 201L625 201L586 201L547 201L508 201L469 201L430 201L391 201L352 201L313 201L274 201L235 201L195 201L156 201L117 201L78 201L39 201L0 201Z" fill="#fadb69"></path><path d="M0 22L39 130L78 69L117 106L156 120L195 48L235 106L274 59L313 32L352 38L391 83L430 104L469 120L508 48L547 59L586 22L625 60L664 29L704 114L743 20L782 18L821 51L860 71L899 122L899 201L860 201L821 201L782 201L743 201L704 201L664 201L625 201L586 201L547 201L508 201L469 201L430 201L391 201L352 201L313 201L274 201L235 201L195 201L156 201L117 201L78 201L39 201L0 201Z" fill="#f5bd61"></path><path d="M0 38L39 100L78 71L117 84L156 67L195 89L235 79L274 98L313 103L352 143L391 131L430 78L469 119L508 49L547 139L586 93L625 79L664 49L704 39L743 136L782 137L821 99L860 52L899 31L899 201L860 201L821 201L782 201L743 201L704 201L664 201L625 201L586 201L547 201L508 201L469 201L430 201L391 201L352 201L313 201L274 201L235 201L195 201L156 201L117 201L78 201L39 201L0 201Z" fill="#eaa15d"></path><path d="M0 81L39 108L78 122L117 141L156 65L195 143L235 104L274 79L313 120L352 53L391 77L430 135L469 87L508 96L547 103L586 83L625 133L664 97L704 140L743 150L782 70L821 65L860 123L899 94L899 201L860 201L821 201L782 201L743 201L704 201L664 201L625 201L586 201L547 201L508 201L469 201L430 201L391 201L352 201L313 201L274 201L235 201L195 201L156 201L117 201L78 201L39 201L0 201Z" fill="#da875c"></path><path d="M0 117L39 62L78 102L117 147L156 131L195 117L235 146L274 106L313 135L352 139L391 72L430 87L469 92L508 99L547 108L586 127L625 62L664 154L704 111L743 75L782 127L821 155L860 72L899 112L899 201L860 201L821 201L782 201L743 201L704 201L664 201L625 201L586 201L547 201L508 201L469 201L430 201L391 201L352 201L313 201L274 201L235 201L195 201L156 201L117 201L78 201L39 201L0 201Z" fill="#c6705b"></path><path d="M0 117L39 116L78 158L117 124L156 119L195 103L235 82L274 160L313 95L352 147L391 118L430 120L469 97L508 125L547 157L586 160L625 152L664 155L704 148L743 146L782 127L821 155L860 84L899 116L899 201L860 201L821 201L782 201L743 201L704 201L664 201L625 201L586 201L547 201L508 201L469 201L430 201L391 201L352 201L313 201L274 201L235 201L195 201L156 201L117 201L78 201L39 201L0 201Z" fill="#ad5b59"></path><path d="M0 132L39 99L78 111L117 106L156 132L195 168L235 144L274 139L313 136L352 154L391 151L430 101L469 135L508 112L547 99L586 157L625 110L664 116L704 92L743 147L782 131L821 96L860 152L899 131L899 201L860 201L821 201L782 201L743 201L704 201L664 201L625 201L586 201L547 201L508 201L469 201L430 201L391 201L352 201L313 201L274 201L235 201L195 201L156 201L117 201L78 201L39 201L0 201Z" fill="#924955"></path><path d="M0 167L39 120L78 157L117 150L156 126L195 128L235 159L274 171L313 171L352 139L391 109L430 113L469 122L508 113L547 152L586 151L625 124L664 150L704 113L743 109L782 113L821 150L860 122L899 134L899 201L860 201L821 201L782 201L743 201L704 201L664 201L625 201L586 201L547 201L508 201L469 201L430 201L391 201L352 201L313 201L274 201L235 201L195 201L156 201L117 201L78 201L39 201L0 201Z" fill="#753a4e"></path><path d="M0 175L39 142L78 148L117 154L156 162L195 166L235 138L274 156L313 180L352 174L391 128L430 143L469 145L508 156L547 127L586 138L625 136L664 174L704 150L743 174L782 177L821 160L860 137L899 133L899 201L860 201L821 201L782 201L743 201L704 201L664 201L625 201L586 201L547 201L508 201L469 201L430 201L391 201L352 201L313 201L274 201L235 201L195 201L156 201L117 201L78 201L39 201L0 201Z" fill="#582d43"></path><path d="M0 146L39 183L78 179L117 171L156 156L195 151L235 160L274 179L313 167L352 152L391 178L430 164L469 186L508 173L547 142L586 169L625 156L664 142L704 179L743 165L782 182L821 174L860 153L899 155L899 201L860 201L821 201L782 201L743 201L704 201L664 201L625 201L586 201L547 201L508 201L469 201L430 201L391 201L352 201L313 201L274 201L235 201L195 201L156 201L117 201L78 201L39 201L0 201Z" fill="#3c2036"></path><path d="M0 160L39 164L78 187L117 169L156 189L195 183L235 187L274 188L313 156L352 166L391 189L430 159L469 179L508 156L547 156L586 182L625 172L664 181L704 162L743 189L782 159L821 191L860 155L899 159L899 201L860 201L821 201L782 201L743 201L704 201L664 201L625 201L586 201L547 201L508 201L469 201L430 201L391 201L352 201L313 201L274 201L235 201L195 201L156 201L117 201L78 201L39 201L0 201Z" fill="#231426"></path><path d="M0 190L39 186L78 188L117 178L156 171L195 174L235 198L274 178L313 173L352 181L391 178L430 193L469 188L508 193L547 171L586 180L625 193L664 170L704 184L743 178L782 174L821 192L860 172L899 174L899 201L860 201L821 201L782 201L743 201L704 201L664 201L625 201L586 201L547 201L508 201L469 201L430 201L391 201L352 201L313 201L274 201L235 201L195 201L156 201L117 201L78 201L39 201L0 201Z" fill="#0b0015"></path></svg>