<svg id="visual" viewBox="0 0 899 1500" width="899" height="1500" xmlns="http://www.w3.org/2000/svg" xmlns:xlink="http://www.w3.org/1999/xlink" version="1.1"><rect x="0" y="0" width="899" height="1500" fill="#0B0015"></rect><path d="M0 581L90 554L180 474L270 524L360 650L450 696L539 616L629 687L719 530L809 530L899 512L899 1501L809 1501L719 1501L629 1501L539 1501L450 1501L360 1501L270 1501L180 1501L90 1501L0 1501Z" fill="#170630"></path><path d="M0 602L90 568L180 679L270 749L360 787L450 578L539 769L629 613L719 733L809 607L899 614L899 1501L809 1501L719 1501L629 1501L539 1501L450 1501L360 1501L270 1501L180 1501L90 1501L0 1501Z" fill="#220d46"></path><path d="M0 700L90 878L180 764L270 683L360 862L450 725L539 702L629 729L719 796L809 764L899 853L899 1501L809 1501L719 1501L629 1501L539 1501L450 1501L360 1501L270 1501L180 1501L90 1501L0 1501Z" fill="#2f115c"></path><path d="M0 832L90 826L180 948L270 972L360 918L450 902L539 916L629 861L719 873L809 965L899 913L899 1501L809 1501L719 1501L629 1501L539 1501L450 1501L360 1501L270 1501L180 1501L90 1501L0 1501Z" fill="#3f1373"></path><path d="M0 1092L90 1067L180 1067L270 939L360 1089L450 958L539 1044L629 1087L719 985L809 1071L899 938L899 1501L809 1501L719 1501L629 1501L539 1501L450 1501L360 1501L270 1501L180 1501L90 1501L0 1501Z" fill="#50148b"></path><path d="M0 1055L90 1194L180 1124L270 1201L360 1217L450 1067L539 1175L629 1223L719 1067L809 1074L899 1113L899 1501L809 1501L719 1501L629 1501L539 1501L450 1501L360 1501L270 1501L180 1501L90 1501L0 1501Z" fill="#6213a2"></path><path d="M0 1322L90 1184L180 1297L270 1323L360 1288L450 1185L539 1310L629 1281L719 1271L809 1318L899 1296L899 1501L809 1501L719 1501L629 1501L539 1501L450 1501L360 1501L270 1501L180 1501L90 1501L0 1501Z" fill="#760eba"></path><path d="M0 1341L90 1324L180 1415L270 1336L360 1431L450 1399L539 1327L629 1353L719 1404L809 1404L899 1396L899 1501L809 1501L719 1501L629 1501L539 1501L450 1501L360 1501L270 1501L180 1501L90 1501L0 1501Z" fill="#8c00d2"></path></svg>