<svg id="visual" viewBox="0 0 1399 1500" width="1399" height="1500" xmlns="http://www.w3.org/2000/svg" xmlns:xlink="http://www.w3.org/1999/xlink" version="1.1"><rect x="0" y="0" width="1399" height="1500" fill="#0B0015"></rect><path d="M0 525L117 622L233 478L350 618L466 667L583 559L700 459L816 527L933 461L1049 678L1166 596L1282 654L1399 546L1399 1501L1282 1501L1166 1501L1049 1501L933 1501L816 1501L700 1501L583 1501L466 1501L350 1501L233 1501L117 1501L0 1501Z" fill="#170630"></path><path d="M0 647L117 731L233 712L350 723L466 718L583 559L700 542L816 598L933 710L1049 550L1166 747L1282 661L1399 689L1399 1501L1282 1501L1166 1501L1049 1501L933 1501L816 1501L700 1501L583 1501L466 1501L350 1501L233 1501L117 1501L0 1501Z" fill="#1f0c41"></path><path d="M0 797L117 840L233 773L350 835L466 665L583 684L700 823L816 649L933 640L1049 813L1166 793L1282 733L1399 718L1399 1501L1282 1501L1166 1501L1049 1501L933 1501L816 1501L700 1501L583 1501L466 1501L350 1501L233 1501L117 1501L0 1501Z" fill="#290f52"></path><path d="M0 766L117 910L233 899L350 890L466 865L583 874L700 864L816 763L933 776L1049 753L1166 831L1282 807L1399 843L1399 1501L1282 1501L1166 1501L1049 1501L933 1501L816 1501L700 1501L583 1501L466 1501L350 1501L233 1501L117 1501L0 1501Z" fill="#341264"></path><path d="M0 967L117 892L233 854L350 977L466 838L583 894L700 890L816 852L933 926L1049 1015L1166 955L1282 993L1399 985L1399 1501L1282 1501L1166 1501L1049 1501L933 1501L816 1501L700 1501L583 1501L466 1501L350 1501L233 1501L117 1501L0 1501Z" fill="#411376"></path><path d="M0 948L117 966L233 936L350 1002L466 1047L583 1025L700 954L816 964L933 971L1049 1067L1166 957L1282 1018L1399 1024L1399 1501L1282 1501L1166 1501L1049 1501L933 1501L816 1501L700 1501L583 1501L466 1501L350 1501L233 1501L117 1501L0 1501Z" fill="#4e1488"></path><path d="M0 1054L117 1190L233 1172L350 1175L466 1169L583 1058L700 1082L816 1149L933 1061L1049 1172L1166 1057L1282 1102L1399 1054L1399 1501L1282 1501L1166 1501L1049 1501L933 1501L816 1501L700 1501L583 1501L466 1501L350 1501L233 1501L117 1501L0 1501Z" fill="#5c149b"></path><path d="M0 1156L117 1153L233 1151L350 1268L466 1165L583 1242L700 1198L816 1187L933 1227L1049 1176L1166 1217L1282 1179L1399 1263L1399 1501L1282 1501L1166 1501L1049 1501L933 1501L816 1501L700 1501L583 1501L466 1501L350 1501L233 1501L117 1501L0 1501Z" fill="#6b11ad"></path><path d="M0 1301L117 1355L233 1266L350 1307L466 1260L583 1290L700 1322L816 1335L933 1266L1049 1307L1166 1330L1282 1357L1399 1327L1399 1501L1282 1501L1166 1501L1049 1501L933 1501L816 1501L700 1501L583 1501L466 1501L350 1501L233 1501L117 1501L0 1501Z" fill="#7b0cc0"></path><path d="M0 1367L117 1394L233 1372L350 1441L466 1433L583 1367L700 1442L816 1343L933 1395L1049 1347L1166 1381L1282 1366L1399 1429L1399 1501L1282 1501L1166 1501L1049 1501L933 1501L816 1501L700 1501L583 1501L466 1501L350 1501L233 1501L117 1501L0 1501Z" fill="#8c00d2"></path></svg>