<svg id="visual" viewBox="0 0 449 1500" width="449" height="1500" xmlns="http://www.w3.org/2000/svg" xmlns:xlink="http://www.w3.org/1999/xlink" version="1.1"><rect x="0" y="0" width="449" height="1500" fill="#0B0015"></rect><path d="M0 466L45 489L90 443L135 612L180 581L225 570L269 536L314 570L359 673L404 548L449 436L449 1501L404 1501L359 1501L314 1501L269 1501L225 1501L180 1501L135 1501L90 1501L45 1501L0 1501Z" fill="#170630"></path><path d="M0 812L45 569L90 698L135 670L180 639L225 725L269 762L314 606L359 719L404 770L449 594L449 1501L404 1501L359 1501L314 1501L269 1501L225 1501L180 1501L135 1501L90 1501L45 1501L0 1501Z" fill="#220d46"></path><path d="M0 879L45 786L90 704L135 697L180 799L225 756L269 790L314 710L359 880L404 830L449 765L449 1501L404 1501L359 1501L314 1501L269 1501L225 1501L180 1501L135 1501L90 1501L45 1501L0 1501Z" fill="#2f115c"></path><path d="M0 919L45 982L90 959L135 948L180 977L225 952L269 867L314 960L359 913L404 833L449 881L449 1501L404 1501L359 1501L314 1501L269 1501L225 1501L180 1501L135 1501L90 1501L45 1501L0 1501Z" fill="#3f1373"></path><path d="M0 1110L45 1077L90 953L135 987L180 984L225 1076L269 1116L314 951L359 1089L404 959L449 995L449 1501L404 1501L359 1501L314 1501L269 1501L225 1501L180 1501L135 1501L90 1501L45 1501L0 1501Z" fill="#50148b"></path><path d="M0 1129L45 1060L90 1122L135 1208L180 1210L225 1174L269 1114L314 1193L359 1179L404 1125L449 1105L449 1501L404 1501L359 1501L314 1501L269 1501L225 1501L180 1501L135 1501L90 1501L45 1501L0 1501Z" fill="#6213a2"></path><path d="M0 1276L45 1177L90 1329L135 1229L180 1199L225 1281L269 1189L314 1210L359 1300L404 1314L449 1216L449 1501L404 1501L359 1501L314 1501L269 1501L225 1501L180 1501L135 1501L90 1501L45 1501L0 1501Z" fill="#760eba"></path><path d="M0 1377L45 1331L90 1380L135 1345L180 1366L225 1349L269 1374L314 1324L359 1401L404 1429L449 1351L449 1501L404 1501L359 1501L314 1501L269 1501L225 1501L180 1501L135 1501L90 1501L45 1501L0 1501Z" fill="#8c00d2"></path></svg>