<svg id="visual" viewBox="0 0 639 1500" width="639" height="1500" xmlns="http://www.w3.org/2000/svg" xmlns:xlink="http://www.w3.org/1999/xlink" version="1.1"><rect x="0" y="0" width="639" height="1500" fill="#0B0015"></rect><path d="M0 571L64 704L128 678L192 516L256 566L320 642L383 669L447 683L511 508L575 500L639 465L639 1501L575 1501L511 1501L447 1501L383 1501L320 1501L256 1501L192 1501L128 1501L64 1501L0 1501Z" fill="#170630"></path><path d="M0 766L64 600L128 606L192 687L256 650L320 696L383 594L447 787L511 781L575 573L639 771L639 1501L575 1501L511 1501L447 1501L383 1501L320 1501L256 1501L192 1501L128 1501L64 1501L0 1501Z" fill="#220d46"></path><path d="M0 754L64 701L128 731L192 880L256 892L320 686L383 741L447 890L511 893L575 814L639 695L639 1501L575 1501L511 1501L447 1501L383 1501L320 1501L256 1501L192 1501L128 1501L64 1501L0 1501Z" fill="#2f115c"></path><path d="M0 917L64 829L128 887L192 973L256 837L320 1013L383 972L447 1010L511 813L575 954L639 949L639 1501L575 1501L511 1501L447 1501L383 1501L320 1501L256 1501L192 1501L128 1501L64 1501L0 1501Z" fill="#3f1373"></path><path d="M0 956L64 1105L128 965L192 1099L256 1095L320 1011L383 1083L447 1107L511 1000L575 1094L639 1048L639 1501L575 1501L511 1501L447 1501L383 1501L320 1501L256 1501L192 1501L128 1501L64 1501L0 1501Z" fill="#50148b"></path><path d="M0 1107L64 1062L128 1163L192 1075L256 1140L320 1144L383 1070L447 1099L511 1224L575 1202L639 1187L639 1501L575 1501L511 1501L447 1501L383 1501L320 1501L256 1501L192 1501L128 1501L64 1501L0 1501Z" fill="#6213a2"></path><path d="M0 1274L64 1278L128 1315L192 1297L256 1283L320 1206L383 1245L447 1312L511 1190L575 1319L639 1204L639 1501L575 1501L511 1501L447 1501L383 1501L320 1501L256 1501L192 1501L128 1501L64 1501L0 1501Z" fill="#760eba"></path><path d="M0 1318L64 1301L128 1371L192 1365L256 1368L320 1323L383 1403L447 1339L511 1319L575 1346L639 1390L639 1501L575 1501L511 1501L447 1501L383 1501L320 1501L256 1501L192 1501L128 1501L64 1501L0 1501Z" fill="#8c00d2"></path></svg>