<svg id="visual" viewBox="0 0 1199 1500" width="1199" height="1500" xmlns="http://www.w3.org/2000/svg" xmlns:xlink="http://www.w3.org/1999/xlink" version="1.1"><rect x="0" y="0" width="1199" height="1500" fill="#0B0015"></rect><path d="M0 667L120 640L240 691L360 473L480 671L600 667L719 701L839 596L959 472L1079 627L1199 630L1199 1501L1079 1501L959 1501L839 1501L719 1501L600 1501L480 1501L360 1501L240 1501L120 1501L0 1501Z" fill="#170630"></path><path d="M0 560L120 732L240 627L360 807L480 701L600 733L719 606L839 704L959 647L1079 693L1199 584L1199 1501L1079 1501L959 1501L839 1501L719 1501L600 1501L480 1501L360 1501L240 1501L120 1501L0 1501Z" fill="#220d46"></path><path d="M0 755L120 804L240 913L360 700L480 810L600 690L719 761L839 910L959 867L1079 889L1199 881L1199 1501L1079 1501L959 1501L839 1501L719 1501L600 1501L480 1501L360 1501L240 1501L120 1501L0 1501Z" fill="#2f115c"></path><path d="M0 945L120 957L240 881L360 930L480 958L600 999L719 953L839 962L959 943L1079 989L1199 938L1199 1501L1079 1501L959 1501L839 1501L719 1501L600 1501L480 1501L360 1501L240 1501L120 1501L0 1501Z" fill="#3f1373"></path><path d="M0 1093L120 1045L240 1085L360 1078L480 977L600 1067L719 1110L839 1114L959 1036L1079 1022L1199 1002L1199 1501L1079 1501L959 1501L839 1501L719 1501L600 1501L480 1501L360 1501L240 1501L120 1501L0 1501Z" fill="#50148b"></path><path d="M0 1214L120 1149L240 1107L360 1192L480 1197L600 1099L719 1155L839 1197L959 1065L1079 1187L1199 1089L1199 1501L1079 1501L959 1501L839 1501L719 1501L600 1501L480 1501L360 1501L240 1501L120 1501L0 1501Z" fill="#6213a2"></path><path d="M0 1300L120 1274L240 1311L360 1276L480 1189L600 1221L719 1248L839 1218L959 1230L1079 1292L1199 1257L1199 1501L1079 1501L959 1501L839 1501L719 1501L600 1501L480 1501L360 1501L240 1501L120 1501L0 1501Z" fill="#760eba"></path><path d="M0 1355L120 1308L240 1429L360 1381L480 1304L600 1426L719 1423L839 1302L959 1428L1079 1356L1199 1331L1199 1501L1079 1501L959 1501L839 1501L719 1501L600 1501L480 1501L360 1501L240 1501L120 1501L0 1501Z" fill="#8c00d2"></path></svg>