<svg id="visual" viewBox="0 0 1399 100" width="1399" height="100" xmlns="http://www.w3.org/2000/svg" xmlns:xlink="http://www.w3.org/1999/xlink" version="1.1"><path d="M0 39L61 18L122 63L182 16L243 21L304 8L365 37L426 56L487 54L547 16L608 39L669 5L730 14L791 32L852 35L912 26L973 44L1034 33L1095 56L1156 35L1217 33L1277 53L1338 64L1399 27L1399 101L1338 101L1277 101L1217 101L1156 101L1095 101L1034 101L973 101L912 101L852 101L791 101L730 101L669 101L608 101L547 101L487 101L426 101L365 101L304 101L243 101L182 101L122 101L61 101L0 101Z" fill="#00ec9e"></path><path d="M0 67L61 55L122 12L182 20L243 38L304 41L365 68L426 20L487 9L547 31L608 61L669 63L730 33L791 18L852 62L912 31L973 13L1034 62L1095 22L1156 59L1217 62L1277 56L1338 13L1399 24L1399 101L1338 101L1277 101L1217 101L1156 101L1095 101L1034 101L973 101L912 101L852 101L791 101L730 101L669 101L608 101L547 101L487 101L426 101L365 101L304 101L243 101L182 101L122 101L61 101L0 101Z" fill="#00ec9e"></path><path d="M0 62L61 53L122 26L182 71L243 52L304 39L365 48L426 71L487 38L547 36L608 60L669 51L730 49L791 50L852 38L912 27L973 64L1034 46L1095 21L1156 45L1217 23L1277 51L1338 26L1399 56L1399 101L1338 101L1277 101L1217 101L1156 101L1095 101L1034 101L973 101L912 101L852 101L791 101L730 101L669 101L608 101L547 101L487 101L426 101L365 101L304 101L243 101L182 101L122 101L61 101L0 101Z" fill="#00ec9e"></path><path d="M0 72L61 39L122 53L182 36L243 51L304 67L365 54L426 45L487 30L547 38L608 42L669 48L730 23L791 23L852 41L912 32L973 53L1034 51L1095 49L1156 27L1217 67L1277 27L1338 53L1399 48L1399 101L1338 101L1277 101L1217 101L1156 101L1095 101L1034 101L973 101L912 101L852 101L791 101L730 101L669 101L608 101L547 101L487 101L426 101L365 101L304 101L243 101L182 101L122 101L61 101L0 101Z" fill="#00ec9e"></path><path d="M0 56L61 36L122 72L182 33L243 43L304 77L365 52L426 74L487 45L547 66L608 56L669 73L730 45L791 59L852 51L912 60L973 60L1034 72L1095 54L1156 57L1217 66L1277 63L1338 73L1399 37L1399 101L1338 101L1277 101L1217 101L1156 101L1095 101L1034 101L973 101L912 101L852 101L791 101L730 101L669 101L608 101L547 101L487 101L426 101L365 101L304 101L243 101L182 101L122 101L61 101L0 101Z" fill="#00ec9e"></path><path d="M0 64L61 42L122 71L182 42L243 54L304 55L365 52L426 45L487 66L547 38L608 68L669 63L730 39L791 50L852 47L912 70L973 39L1034 44L1095 69L1156 77L1217 45L1277 65L1338 52L1399 78L1399 101L1338 101L1277 101L1217 101L1156 101L1095 101L1034 101L973 101L912 101L852 101L791 101L730 101L669 101L608 101L547 101L487 101L426 101L365 101L304 101L243 101L182 101L122 101L61 101L0 101Z" fill="#00ec9e"></path><path d="M0 62L61 70L122 57L182 64L243 66L304 78L365 83L426 61L487 46L547 56L608 49L669 51L730 63L791 71L852 81L912 57L973 55L1034 78L1095 77L1156 75L1217 70L1277 65L1338 75L1399 81L1399 101L1338 101L1277 101L1217 101L1156 101L1095 101L1034 101L973 101L912 101L852 101L791 101L730 101L669 101L608 101L547 101L487 101L426 101L365 101L304 101L243 101L182 101L122 101L61 101L0 101Z" fill="#00ec9e"></path><path d="M0 65L61 78L122 61L182 73L243 65L304 71L365 59L426 62L487 66L547 60L608 72L669 54L730 74L791 67L852 57L912 60L973 83L1034 63L1095 56L1156 70L1217 75L1277 63L1338 77L1399 68L1399 101L1338 101L1277 101L1217 101L1156 101L1095 101L1034 101L973 101L912 101L852 101L791 101L730 101L669 101L608 101L547 101L487 101L426 101L365 101L304 101L243 101L182 101L122 101L61 101L0 101Z" fill="#00ec9e"></path><path d="M0 65L61 84L122 70L182 87L243 87L304 79L365 82L426 85L487 83L547 74L608 63L669 82L730 85L791 85L852 68L912 62L973 89L1034 75L1095 86L1156 82L1217 70L1277 67L1338 88L1399 64L1399 101L1338 101L1277 101L1217 101L1156 101L1095 101L1034 101L973 101L912 101L852 101L791 101L730 101L669 101L608 101L547 101L487 101L426 101L365 101L304 101L243 101L182 101L122 101L61 101L0 101Z" fill="#00ec9e"></path><path d="M0 75L61 83L122 92L182 86L243 69L304 85L365 72L426 78L487 79L547 79L608 68L669 92L730 74L791 79L852 70L912 79L973 80L1034 73L1095 81L1156 81L1217 71L1277 82L1338 78L1399 73L1399 101L1338 101L1277 101L1217 101L1156 101L1095 101L1034 101L973 101L912 101L852 101L791 101L730 101L669 101L608 101L547 101L487 101L426 101L365 101L304 101L243 101L182 101L122 101L61 101L0 101Z" fill="#00ec9e"></path><path d="M0 77L61 89L122 95L182 88L243 76L304 95L365 86L426 96L487 86L547 81L608 82L669 93L730 84L791 95L852 84L912 87L973 77L1034 92L1095 88L1156 85L1217 89L1277 95L1338 91L1399 87L1399 101L1338 101L1277 101L1217 101L1156 101L1095 101L1034 101L973 101L912 101L852 101L791 101L730 101L669 101L608 101L547 101L487 101L426 101L365 101L304 101L243 101L182 101L122 101L61 101L0 101Z" fill="#00ec9e"></path><path d="M0 89L61 94L122 98L182 98L243 91L304 84L365 88L426 89L487 84L547 94L608 89L669 94L730 88L791 85L852 89L912 93L973 90L1034 95L1095 91L1156 93L1217 89L1277 96L1338 97L1399 91L1399 101L1338 101L1277 101L1217 101L1156 101L1095 101L1034 101L973 101L912 101L852 101L791 101L730 101L669 101L608 101L547 101L487 101L426 101L365 101L304 101L243 101L182 101L122 101L61 101L0 101Z" fill="#00ec9e"></path></svg>