<svg id="visual" viewBox="0 0 1199 100" width="1199" height="100" xmlns="http://www.w3.org/2000/svg" xmlns:xlink="http://www.w3.org/1999/xlink" version="1.1"><path d="M0 56L52 8L104 38L156 59L209 47L261 17L313 19L365 2L417 6L469 39L521 30L573 37L626 43L678 54L730 2L782 20L834 33L886 56L938 30L990 45L1043 48L1095 21L1147 42L1199 25L1199 101L1147 101L1095 101L1043 101L990 101L938 101L886 101L834 101L782 101L730 101L678 101L626 101L573 101L521 101L469 101L417 101L365 101L313 101L261 101L209 101L156 101L104 101L52 101L0 101Z" fill="#00ec9e"></path><path d="M0 15L52 37L104 39L156 51L209 48L261 62L313 65L365 28L417 49L469 63L521 10L573 55L626 42L678 54L730 7L782 31L834 26L886 68L938 28L990 66L1043 13L1095 25L1147 31L1199 53L1199 101L1147 101L1095 101L1043 101L990 101L938 101L886 101L834 101L782 101L730 101L678 101L626 101L573 101L521 101L469 101L417 101L365 101L313 101L261 101L209 101L156 101L104 101L52 101L0 101Z" fill="#00ec9e"></path><path d="M0 48L52 56L104 17L156 64L209 19L261 31L313 32L365 37L417 48L469 18L521 16L573 46L626 68L678 51L730 41L782 32L834 32L886 66L938 39L990 58L1043 31L1095 53L1147 42L1199 51L1199 101L1147 101L1095 101L1043 101L990 101L938 101L886 101L834 101L782 101L730 101L678 101L626 101L573 101L521 101L469 101L417 101L365 101L313 101L261 101L209 101L156 101L104 101L52 101L0 101Z" fill="#00ec9e"></path><path d="M0 47L52 23L104 73L156 67L209 35L261 29L313 52L365 70L417 48L469 48L521 52L573 44L626 27L678 56L730 52L782 26L834 60L886 49L938 23L990 41L1043 60L1095 42L1147 35L1199 27L1199 101L1147 101L1095 101L1043 101L990 101L938 101L886 101L834 101L782 101L730 101L678 101L626 101L573 101L521 101L469 101L417 101L365 101L313 101L261 101L209 101L156 101L104 101L52 101L0 101Z" fill="#00ec9e"></path><path d="M0 32L52 40L104 60L156 50L209 66L261 44L313 65L365 38L417 42L469 57L521 63L573 61L626 49L678 45L730 60L782 31L834 77L886 32L938 47L990 32L1043 48L1095 39L1147 64L1199 59L1199 101L1147 101L1095 101L1043 101L990 101L938 101L886 101L834 101L782 101L730 101L678 101L626 101L573 101L521 101L469 101L417 101L365 101L313 101L261 101L209 101L156 101L104 101L52 101L0 101Z" fill="#00ec9e"></path><path d="M0 73L52 40L104 65L156 78L209 38L261 44L313 49L365 38L417 57L469 75L521 77L573 54L626 50L678 66L730 69L782 70L834 68L886 52L938 57L990 63L1043 57L1095 73L1147 57L1199 77L1199 101L1147 101L1095 101L1043 101L990 101L938 101L886 101L834 101L782 101L730 101L678 101L626 101L573 101L521 101L469 101L417 101L365 101L313 101L261 101L209 101L156 101L104 101L52 101L0 101Z" fill="#00ec9e"></path><path d="M0 49L52 67L104 64L156 76L209 80L261 82L313 70L365 67L417 78L469 50L521 48L573 78L626 81L678 58L730 58L782 77L834 79L886 67L938 83L990 80L1043 50L1095 63L1147 75L1199 83L1199 101L1147 101L1095 101L1043 101L990 101L938 101L886 101L834 101L782 101L730 101L678 101L626 101L573 101L521 101L469 101L417 101L365 101L313 101L261 101L209 101L156 101L104 101L52 101L0 101Z" fill="#00ec9e"></path><path d="M0 64L52 61L104 60L156 58L209 63L261 80L313 86L365 75L417 70L469 61L521 82L573 69L626 57L678 68L730 71L782 63L834 56L886 73L938 77L990 76L1043 75L1095 84L1147 74L1199 61L1199 101L1147 101L1095 101L1043 101L990 101L938 101L886 101L834 101L782 101L730 101L678 101L626 101L573 101L521 101L469 101L417 101L365 101L313 101L261 101L209 101L156 101L104 101L52 101L0 101Z" fill="#00ec9e"></path><path d="M0 73L52 88L104 89L156 69L209 67L261 62L313 62L365 86L417 81L469 83L521 82L573 84L626 72L678 89L730 82L782 76L834 70L886 83L938 79L990 89L1043 81L1095 79L1147 86L1199 88L1199 101L1147 101L1095 101L1043 101L990 101L938 101L886 101L834 101L782 101L730 101L678 101L626 101L573 101L521 101L469 101L417 101L365 101L313 101L261 101L209 101L156 101L104 101L52 101L0 101Z" fill="#00ec9e"></path><path d="M0 78L52 87L104 87L156 75L209 86L261 77L313 77L365 77L417 74L469 78L521 78L573 77L626 76L678 75L730 92L782 80L834 93L886 83L938 85L990 79L1043 80L1095 85L1147 86L1199 90L1199 101L1147 101L1095 101L1043 101L990 101L938 101L886 101L834 101L782 101L730 101L678 101L626 101L573 101L521 101L469 101L417 101L365 101L313 101L261 101L209 101L156 101L104 101L52 101L0 101Z" fill="#00ec9e"></path><path d="M0 81L52 81L104 82L156 82L209 91L261 77L313 93L365 79L417 93L469 77L521 80L573 81L626 79L678 95L730 76L782 81L834 80L886 90L938 79L990 89L1043 93L1095 89L1147 94L1199 78L1199 101L1147 101L1095 101L1043 101L990 101L938 101L886 101L834 101L782 101L730 101L678 101L626 101L573 101L521 101L469 101L417 101L365 101L313 101L261 101L209 101L156 101L104 101L52 101L0 101Z" fill="#00ec9e"></path><path d="M0 90L52 89L104 90L156 93L209 87L261 89L313 89L365 98L417 92L469 90L521 86L573 89L626 96L678 89L730 97L782 98L834 94L886 92L938 84L990 93L1043 89L1095 84L1147 85L1199 84L1199 101L1147 101L1095 101L1043 101L990 101L938 101L886 101L834 101L782 101L730 101L678 101L626 101L573 101L521 101L469 101L417 101L365 101L313 101L261 101L209 101L156 101L104 101L52 101L0 101Z" fill="#00ec9e"></path></svg>