<svg id="visual" viewBox="0 0 449 100" width="449" height="100" xmlns="http://www.w3.org/2000/svg" xmlns:xlink="http://www.w3.org/1999/xlink" version="1.1"><path d="M0 22L20 28L39 12L59 14L78 5L98 25L117 28L137 43L156 6L176 42L195 19L215 25L234 9L254 32L273 11L293 10L312 8L332 30L351 34L371 12L390 4L410 41L429 29L449 19L449 101L429 101L410 101L390 101L371 101L351 101L332 101L312 101L293 101L273 101L254 101L234 101L215 101L195 101L176 101L156 101L137 101L117 101L98 101L78 101L59 101L39 101L20 101L0 101Z" fill="#00ec9e"></path><path d="M0 46L20 33L39 22L59 32L78 44L98 37L117 15L137 48L156 15L176 37L195 15L215 18L234 17L254 37L273 16L293 45L312 44L332 35L351 45L371 24L390 48L410 45L429 39L449 46L449 101L429 101L410 101L390 101L371 101L351 101L332 101L312 101L293 101L273 101L254 101L234 101L215 101L195 101L176 101L156 101L137 101L117 101L98 101L78 101L59 101L39 101L20 101L0 101Z" fill="#00ec9e"></path><path d="M0 34L20 50L39 32L59 48L78 41L98 61L117 58L137 47L156 45L176 38L195 26L215 30L234 61L254 30L273 57L293 52L312 60L332 36L351 36L371 61L390 46L410 31L429 58L449 53L449 101L429 101L410 101L390 101L371 101L351 101L332 101L312 101L293 101L273 101L254 101L234 101L215 101L195 101L176 101L156 101L137 101L117 101L98 101L78 101L59 101L39 101L20 101L0 101Z" fill="#00ec9e"></path><path d="M0 71L20 42L39 55L59 54L78 41L98 40L117 52L137 67L156 51L176 62L195 49L215 45L234 40L254 42L273 53L293 51L312 54L332 45L351 67L371 43L390 67L410 57L429 44L449 66L449 101L429 101L410 101L390 101L371 101L351 101L332 101L312 101L293 101L273 101L254 101L234 101L215 101L195 101L176 101L156 101L137 101L117 101L98 101L78 101L59 101L39 101L20 101L0 101Z" fill="#00ec9e"></path><path d="M0 53L20 61L39 75L59 73L78 52L98 56L117 74L137 60L156 69L176 63L195 59L215 71L234 52L254 53L273 62L293 79L312 64L332 55L351 66L371 67L390 64L410 57L429 65L449 79L449 101L429 101L410 101L390 101L371 101L351 101L332 101L312 101L293 101L273 101L254 101L234 101L215 101L195 101L176 101L156 101L137 101L117 101L98 101L78 101L59 101L39 101L20 101L0 101Z" fill="#00ec9e"></path><path d="M0 80L20 66L39 74L59 84L78 64L98 63L117 82L137 85L156 86L176 79L195 68L215 72L234 84L254 77L273 72L293 65L312 75L332 78L351 63L371 79L390 83L410 67L429 76L449 69L449 101L429 101L410 101L390 101L371 101L351 101L332 101L312 101L293 101L273 101L254 101L234 101L215 101L195 101L176 101L156 101L137 101L117 101L98 101L78 101L59 101L39 101L20 101L0 101Z" fill="#00ec9e"></path><path d="M0 76L20 88L39 97L59 81L78 92L98 93L117 82L137 84L156 93L176 86L195 89L215 93L234 88L254 94L273 82L293 90L312 96L332 84L351 90L371 81L390 88L410 97L429 83L449 76L449 101L429 101L410 101L390 101L371 101L351 101L332 101L312 101L293 101L273 101L254 101L234 101L215 101L195 101L176 101L156 101L137 101L117 101L98 101L78 101L59 101L39 101L20 101L0 101Z" fill="#00ec9e"></path></svg>