<svg id="visual" viewBox="0 0 639 100" width="639" height="100" xmlns="http://www.w3.org/2000/svg" xmlns:xlink="http://www.w3.org/1999/xlink" version="1.1"><path d="M0 42L28 37L56 9L83 32L111 7L139 16L167 8L194 38L222 4L250 7L278 5L306 16L333 24L361 37L389 24L417 2L445 33L472 27L500 35L528 26L556 3L583 13L611 22L639 14L639 101L611 101L583 101L556 101L528 101L500 101L472 101L445 101L417 101L389 101L361 101L333 101L306 101L278 101L250 101L222 101L194 101L167 101L139 101L111 101L83 101L56 101L28 101L0 101Z" fill="#00ec9e"></path><path d="M0 17L28 18L56 44L83 45L111 32L139 46L167 34L194 51L222 28L250 45L278 28L306 39L333 21L361 14L389 24L417 25L445 50L472 20L500 30L528 28L556 51L583 32L611 45L639 24L639 101L611 101L583 101L556 101L528 101L500 101L472 101L445 101L417 101L389 101L361 101L333 101L306 101L278 101L250 101L222 101L194 101L167 101L139 101L111 101L83 101L56 101L28 101L0 101Z" fill="#00ec9e"></path><path d="M0 44L28 40L56 29L83 57L111 44L139 48L167 37L194 58L222 37L250 35L278 56L306 28L333 55L361 40L389 34L417 47L445 27L472 55L500 47L528 26L556 61L583 52L611 34L639 42L639 101L611 101L583 101L556 101L528 101L500 101L472 101L445 101L417 101L389 101L361 101L333 101L306 101L278 101L250 101L222 101L194 101L167 101L139 101L111 101L83 101L56 101L28 101L0 101Z" fill="#00ec9e"></path><path d="M0 68L28 50L56 46L83 64L111 55L139 39L167 67L194 39L222 68L250 40L278 50L306 53L333 71L361 46L389 55L417 55L445 69L472 70L500 56L528 64L556 62L583 70L611 50L639 66L639 101L611 101L583 101L556 101L528 101L500 101L472 101L445 101L417 101L389 101L361 101L333 101L306 101L278 101L250 101L222 101L194 101L167 101L139 101L111 101L83 101L56 101L28 101L0 101Z" fill="#00ec9e"></path><path d="M0 69L28 64L56 59L83 64L111 77L139 66L167 52L194 62L222 69L250 66L278 79L306 68L333 74L361 65L389 74L417 59L445 55L472 59L500 65L528 69L556 73L583 54L611 58L639 58L639 101L611 101L583 101L556 101L528 101L500 101L472 101L445 101L417 101L389 101L361 101L333 101L306 101L278 101L250 101L222 101L194 101L167 101L139 101L111 101L83 101L56 101L28 101L0 101Z" fill="#00ec9e"></path><path d="M0 89L28 68L56 74L83 85L111 81L139 75L167 66L194 74L222 78L250 88L278 77L306 76L333 64L361 71L389 76L417 65L445 64L472 83L500 75L528 71L556 66L583 69L611 87L639 68L639 101L611 101L583 101L556 101L528 101L500 101L472 101L445 101L417 101L389 101L361 101L333 101L306 101L278 101L250 101L222 101L194 101L167 101L139 101L111 101L83 101L56 101L28 101L0 101Z" fill="#00ec9e"></path><path d="M0 91L28 83L56 87L83 87L111 79L139 97L167 93L194 78L222 81L250 86L278 89L306 93L333 78L361 90L389 79L417 97L445 95L472 85L500 85L528 76L556 97L583 88L611 88L639 84L639 101L611 101L583 101L556 101L528 101L500 101L472 101L445 101L417 101L389 101L361 101L333 101L306 101L278 101L250 101L222 101L194 101L167 101L139 101L111 101L83 101L56 101L28 101L0 101Z" fill="#00ec9e"></path></svg>