<svg id="visual" viewBox="0 0 899 100" width="899" height="100" xmlns="http://www.w3.org/2000/svg" xmlns:xlink="http://www.w3.org/1999/xlink" version="1.1"><path d="M0 47L39 23L78 10L117 28L156 27L195 22L235 10L274 42L313 16L352 8L391 0L430 22L469 16L508 44L547 32L586 54L625 13L664 69L704 13L743 62L782 5L821 30L860 63L899 15L899 101L860 101L821 101L782 101L743 101L704 101L664 101L625 101L586 101L547 101L508 101L469 101L430 101L391 101L352 101L313 101L274 101L235 101L195 101L156 101L117 101L78 101L39 101L0 101Z" fill="#00ec9e"></path><path d="M0 54L39 12L78 10L117 12L156 70L195 36L235 42L274 55L313 27L352 52L391 41L430 30L469 29L508 48L547 54L586 55L625 32L664 72L704 10L743 32L782 44L821 33L860 36L899 62L899 101L860 101L821 101L782 101L743 101L704 101L664 101L625 101L586 101L547 101L508 101L469 101L430 101L391 101L352 101L313 101L274 101L235 101L195 101L156 101L117 101L78 101L39 101L0 101Z" fill="#00ec9e"></path><path d="M0 20L39 53L78 17L117 34L156 28L195 27L235 72L274 69L313 72L352 55L391 60L430 55L469 17L508 49L547 57L586 68L625 60L664 44L704 39L743 55L782 37L821 64L860 53L899 36L899 101L860 101L821 101L782 101L743 101L704 101L664 101L625 101L586 101L547 101L508 101L469 101L430 101L391 101L352 101L313 101L274 101L235 101L195 101L156 101L117 101L78 101L39 101L0 101Z" fill="#00ec9e"></path><path d="M0 62L39 32L78 33L117 42L156 78L195 70L235 61L274 36L313 34L352 24L391 48L430 42L469 68L508 76L547 70L586 75L625 39L664 42L704 50L743 61L782 49L821 44L860 70L899 67L899 101L860 101L821 101L782 101L743 101L704 101L664 101L625 101L586 101L547 101L508 101L469 101L430 101L391 101L352 101L313 101L274 101L235 101L195 101L156 101L117 101L78 101L39 101L0 101Z" fill="#00ec9e"></path><path d="M0 75L39 33L78 62L117 62L156 78L195 64L235 65L274 36L313 46L352 34L391 71L430 38L469 35L508 42L547 45L586 57L625 41L664 44L704 74L743 76L782 47L821 41L860 38L899 63L899 101L860 101L821 101L782 101L743 101L704 101L664 101L625 101L586 101L547 101L508 101L469 101L430 101L391 101L352 101L313 101L274 101L235 101L195 101L156 101L117 101L78 101L39 101L0 101Z" fill="#00ec9e"></path><path d="M0 73L39 78L78 70L117 50L156 44L195 52L235 65L274 80L313 82L352 78L391 62L430 40L469 79L508 51L547 43L586 38L625 49L664 67L704 69L743 73L782 67L821 37L860 39L899 80L899 101L860 101L821 101L782 101L743 101L704 101L664 101L625 101L586 101L547 101L508 101L469 101L430 101L391 101L352 101L313 101L274 101L235 101L195 101L156 101L117 101L78 101L39 101L0 101Z" fill="#00ec9e"></path><path d="M0 53L39 82L78 81L117 48L156 82L195 86L235 81L274 77L313 66L352 58L391 52L430 83L469 78L508 55L547 70L586 48L625 61L664 73L704 47L743 54L782 65L821 59L860 85L899 49L899 101L860 101L821 101L782 101L743 101L704 101L664 101L625 101L586 101L547 101L508 101L469 101L430 101L391 101L352 101L313 101L274 101L235 101L195 101L156 101L117 101L78 101L39 101L0 101Z" fill="#00ec9e"></path><path d="M0 55L39 61L78 85L117 81L156 63L195 62L235 74L274 58L313 76L352 65L391 89L430 81L469 77L508 69L547 59L586 56L625 87L664 67L704 63L743 79L782 77L821 61L860 58L899 65L899 101L860 101L821 101L782 101L743 101L704 101L664 101L625 101L586 101L547 101L508 101L469 101L430 101L391 101L352 101L313 101L274 101L235 101L195 101L156 101L117 101L78 101L39 101L0 101Z" fill="#00ec9e"></path><path d="M0 76L39 88L78 85L117 83L156 90L195 89L235 80L274 63L313 65L352 79L391 87L430 65L469 62L508 64L547 66L586 67L625 64L664 76L704 77L743 74L782 78L821 91L860 72L899 87L899 101L860 101L821 101L782 101L743 101L704 101L664 101L625 101L586 101L547 101L508 101L469 101L430 101L391 101L352 101L313 101L274 101L235 101L195 101L156 101L117 101L78 101L39 101L0 101Z" fill="#00ec9e"></path><path d="M0 75L39 78L78 74L117 81L156 72L195 88L235 83L274 76L313 77L352 74L391 82L430 75L469 73L508 91L547 68L586 88L625 72L664 69L704 81L743 93L782 78L821 71L860 82L899 80L899 101L860 101L821 101L782 101L743 101L704 101L664 101L625 101L586 101L547 101L508 101L469 101L430 101L391 101L352 101L313 101L274 101L235 101L195 101L156 101L117 101L78 101L39 101L0 101Z" fill="#00ec9e"></path><path d="M0 83L39 83L78 93L117 83L156 85L195 94L235 78L274 83L313 77L352 86L391 88L430 94L469 87L508 81L547 91L586 79L625 89L664 85L704 96L743 92L782 76L821 93L860 81L899 90L899 101L860 101L821 101L782 101L743 101L704 101L664 101L625 101L586 101L547 101L508 101L469 101L430 101L391 101L352 101L313 101L274 101L235 101L195 101L156 101L117 101L78 101L39 101L0 101Z" fill="#00ec9e"></path><path d="M0 86L39 88L78 93L117 97L156 92L195 93L235 94L274 91L313 95L352 87L391 89L430 91L469 96L508 97L547 88L586 87L625 89L664 90L704 88L743 93L782 88L821 90L860 85L899 93L899 101L860 101L821 101L782 101L743 101L704 101L664 101L625 101L586 101L547 101L508 101L469 101L430 101L391 101L352 101L313 101L274 101L235 101L195 101L156 101L117 101L78 101L39 101L0 101Z" fill="#00ec9e"></path></svg>